<svg width="446" height="224" viewBox="0 0 446 224" fill="none" xmlns="http://www.w3.org/2000/svg">
<path d="M202.648 0.670517C214.76 -1.14535 228.152 1.68066 238.306 8.50205C251.097 17.0941 258.554 32.0124 261.333 46.8198C264.459 63.4819 262.894 82.7339 252.992 96.9899C244.383 109.386 230.824 116.666 216.193 119.309C215.714 119.395 215.243 119.475 214.759 119.532C200.44 121.208 186.354 117.856 175.073 108.633C162.979 98.7471 157.549 84.5387 156.149 69.2924C154.444 50.7368 157.82 31.1829 170.096 16.5688C178.582 6.46591 189.693 1.84782 202.648 0.670517Z" fill="#B19682"/>
<path d="M199.533 8.18047C204.773 7.87704 209.773 8.90064 214.315 11.5714C226.943 18.9957 233.953 34.9851 237.469 48.5249C241.361 63.5201 243.12 83.7053 234.859 97.6222C230.556 104.871 224.849 108.719 216.775 110.832C208.675 111.858 201.166 111.056 194.485 106.064C183.006 97.4859 178.914 82.2381 176.927 68.7371C174.758 53.997 173.868 28.8221 183.21 16.7123C187.335 11.3638 193.07 9.05909 199.533 8.18047Z" fill="#FEFEFE"/>
<path d="M348.308 0.0571972C349.664 -0.0822411 350.425 0.00808096 351.623 0.610993C352.203 1.42702 352.34 1.69877 352.41 2.73109C352.838 9.04305 352.08 15.8208 352.073 22.1875L352.076 72.1381L354.671 72.1603C360.853 72.188 363.853 71.4369 368.326 67.001C368.32 70.1234 369.068 81.5953 367.308 83.7693C365.5 86.0051 355.276 84.8555 352.148 84.8072C352.099 90.6945 351.78 96.7529 352.196 102.62C352.713 109.912 354.353 111.084 360.679 114.178C361.683 114.668 362.897 115.175 363.7 115.973C364.506 116.774 364.525 117.203 364.478 118.293L363.838 118.87C356.529 119.436 348.895 118.844 341.528 118.866C336.094 118.882 330.492 119.443 325.09 119.226C323.5 119.162 322.193 118.892 320.723 118.303L320.384 117.486C322.312 114.232 327.717 112.89 331.006 111.418C331.443 111.069 331.445 111.085 331.897 110.627C336.112 106.348 334.704 90.9852 334.673 84.9062L279.107 84.4926C278.787 81.6064 278.771 78.7907 278.814 75.8895C281.529 70.9259 285.601 66.372 289.077 61.9187C296.841 51.9547 304.75 42.1068 312.804 32.3752C318.182 25.759 325.725 15.1617 331.554 9.79489C334.579 7.00929 344.029 2.75723 348.308 0.0571972Z" fill="#B19682"/>
<path d="M334.94 20.1934C336.064 25.1426 335.389 31.5259 335.386 36.6138C335.45 48.4143 335.322 60.2129 335 72.0097C321.137 73.5523 306.508 72.7933 292.554 72.8242L292.141 72.5667C292.599 70.9267 330.958 24.9763 334.94 20.1934Z" fill="#FEFEFE"/>
<path d="M117.245 0.921875C118.627 1.12628 119.764 1.19599 120.886 2.07857C121.999 4.308 121.179 64.2665 121.172 72.0338C127.559 72.2778 131.863 71.3343 137.807 69.0628C137.941 74.1867 138.042 79.3113 138.112 84.4367L121.196 84.4224C121.149 91.2969 120.032 100.703 122.49 107.103C124.664 112.765 128.769 112.811 133.454 115.176C134.576 115.741 134.763 116.162 135.118 117.325C134.991 117.769 134.971 118.389 134.551 118.643C133.514 119.273 92.7339 119.343 89.9396 118.483C89.3351 117.746 89.3723 117.789 89.4341 116.833C91.6073 113.926 96.8473 113.262 100.044 111.525C100.746 110.978 101.469 110.426 102.101 109.799C106.412 105.512 105.245 90.4175 105.299 84.3321C97.2419 84.3345 54.1816 85.3153 50.3938 83.9724C48.9313 81.7779 49.432 78.4678 49.4724 75.931C52.4869 71.709 55.8216 67.7073 58.8963 63.5225C71.7072 46.0912 97.6792 10.1795 117.245 0.921875Z" fill="#B19682"/>
<path d="M104.773 21C105.335 24.7712 104.904 29.07 104.968 32.9045C105.169 41.1821 105.262 49.4607 105.246 57.7404C105.247 62.2563 105.483 66.9457 104.81 71.4212C91.9716 71.8625 79.0157 71.5131 66.1612 71.5099L65.8047 70.8231C66.7752 67.5621 68.9943 64.4754 70.8292 61.6233C73.243 57.9166 75.7647 54.2851 78.3945 50.7289C81.0243 47.1722 83.7571 43.6965 86.5929 40.3019C89.4292 36.9079 92.3637 33.6009 95.3965 30.3812C98.4287 27.1614 101.554 24.0344 104.773 21Z" fill="#FEFEFE"/>
<path d="M176.808 135.802C203.129 135.19 229.547 135.547 255.873 135.841C288.175 136.054 320.471 136.584 352.763 137.43L416.196 138.814C426.127 139.067 436.085 139.071 446.001 139.7C441.163 140.403 435.755 140.022 430.821 140.133L398.237 140.814L270.597 141.897C180.527 142.144 90.4626 141.591 0.402344 140.237C5.3635 139.089 10.983 139.389 16.0567 139.235L39.8127 138.461C85.4661 136.971 131.131 136.084 176.808 135.802Z" fill="#B19682"/>
<path d="M98.1172 175.305V217.961H90.793V181.164H71.8379V217.961H64.5137V175.305H98.1172ZM140.979 195.461V197.805C140.979 201.027 140.559 203.918 139.719 206.477C138.879 209.035 137.678 211.213 136.115 213.01C134.572 214.807 132.717 216.184 130.549 217.141C128.381 218.078 125.979 218.547 123.342 218.547C120.725 218.547 118.332 218.078 116.164 217.141C114.016 216.184 112.15 214.807 110.568 213.01C108.986 211.213 107.756 209.035 106.877 206.477C106.018 203.918 105.588 201.027 105.588 197.805V195.461C105.588 192.238 106.018 189.357 106.877 186.818C107.736 184.26 108.947 182.082 110.51 180.285C112.092 178.469 113.957 177.092 116.105 176.154C118.273 175.197 120.666 174.719 123.283 174.719C125.92 174.719 128.322 175.197 130.49 176.154C132.658 177.092 134.523 178.469 136.086 180.285C137.648 182.082 138.85 184.26 139.689 186.818C140.549 189.357 140.979 192.238 140.979 195.461ZM133.625 197.805V195.402C133.625 193.02 133.391 190.92 132.922 189.104C132.473 187.268 131.799 185.734 130.9 184.504C130.021 183.254 128.938 182.316 127.648 181.691C126.359 181.047 124.904 180.725 123.283 180.725C121.662 180.725 120.217 181.047 118.947 181.691C117.678 182.316 116.594 183.254 115.695 184.504C114.816 185.734 114.143 187.268 113.674 189.104C113.205 190.92 112.971 193.02 112.971 195.402V197.805C112.971 200.188 113.205 202.297 113.674 204.133C114.143 205.969 114.826 207.521 115.725 208.791C116.643 210.041 117.736 210.988 119.006 211.633C120.275 212.258 121.721 212.57 123.342 212.57C124.982 212.57 126.438 212.258 127.707 211.633C128.977 210.988 130.051 210.041 130.93 208.791C131.809 207.521 132.473 205.969 132.922 204.133C133.391 202.297 133.625 200.188 133.625 197.805ZM151.32 175.305H157.883L170.217 208.205L182.521 175.305H189.084L172.795 217.961H167.58L151.32 175.305ZM148.332 175.305H154.572L155.656 203.781V217.961H148.332V175.305ZM185.832 175.305H192.102V217.961H184.748V203.781L185.832 175.305ZM208.098 205.979L227.023 175.305H234.377V217.961H227.023V187.258L208.098 217.961H200.773V175.305H208.098V205.979ZM271.701 175.305V181.164H251.252V175.305H271.701ZM277.326 175.305V217.961H269.973V175.305H277.326ZM249.787 175.305H257.082L256.057 196.486C255.92 199.592 255.656 202.326 255.266 204.689C254.875 207.053 254.348 209.074 253.684 210.754C253.02 212.434 252.18 213.811 251.164 214.885C250.148 215.939 248.928 216.721 247.502 217.229C246.096 217.717 244.445 217.961 242.551 217.961H240.676V212.131L241.818 212.043C242.854 211.965 243.742 211.721 244.484 211.311C245.246 210.881 245.891 210.256 246.418 209.436C246.945 208.596 247.385 207.512 247.736 206.184C248.088 204.855 248.361 203.234 248.557 201.32C248.771 199.406 248.928 197.17 249.025 194.611L249.787 175.305ZM293.615 175.305V217.961H286.291V175.305H293.615ZM319.279 175.305L301.936 199.621H291.535L290.539 193.234H297.863L310.285 175.305H319.279ZM311.779 217.961L297.98 198.508L302.727 192.854L320.598 217.961H311.779ZM341.428 180.988L328.684 217.961H320.979L337.033 175.305H341.955L341.428 180.988ZM352.092 217.961L339.318 180.988L338.762 175.305H343.713L359.826 217.961H352.092ZM351.477 202.141V207.971H328.273V202.141H351.477Z" fill="#B19682"/>
</svg>
