<svg width="48" height="49" viewBox="0 0 48 49" fill="none" xmlns="http://www.w3.org/2000/svg">
<path d="M9.88708 23.588C9.86109 24.0383 9.93013 24.489 10.0897 24.9108C10.1663 25.0574 10.2747 25.185 10.4071 25.2842C10.5394 25.3834 10.6922 25.4518 10.8543 25.4843C11.4202 25.6089 11.9995 25.6616 12.5786 25.6411H16.5585C18.6103 25.6411 19.8235 24.3246 20.1981 21.6917C20.1981 21.6306 20.2555 21.6038 20.3702 21.6153C20.4849 21.6267 20.5422 21.6611 20.5422 21.7261C20.3756 23.0684 20.2824 24.4187 20.2631 25.771C20.2754 25.8979 20.2429 26.025 20.1714 26.1304C20.1188 26.1742 20.0575 26.2064 19.9917 26.2248C19.9258 26.2433 19.8567 26.2476 19.7891 26.2375H5.47133C5.42927 26.2375 5.41016 26.1763 5.41016 26.0501C5.41016 25.924 5.42927 25.8628 5.47133 25.8628C6.07188 25.8829 6.67265 25.8303 7.26056 25.7061C7.42597 25.6698 7.58089 25.5962 7.71343 25.4909C7.84598 25.3855 7.95262 25.2512 8.0252 25.0982C8.18322 24.6547 8.25208 24.1844 8.22782 23.7142V9.31235C8.25365 8.8471 8.18472 8.38146 8.0252 7.94366C7.95035 7.79229 7.84301 7.65933 7.71083 7.55425C7.57865 7.44917 7.4249 7.37457 7.26056 7.33577C6.67434 7.19983 6.07272 7.14199 5.47133 7.16373C5.42927 7.16373 5.41016 7.10256 5.41016 6.9764C5.41016 6.85023 5.42927 6.78906 5.47133 6.78906L7.00059 6.81965C7.87227 6.86043 8.55662 6.88082 9.05363 6.88082C9.61436 6.88082 10.3293 6.86043 11.1984 6.81965L12.6589 6.78906C12.6996 6.78906 12.72 6.85151 12.72 6.9764C12.72 7.10129 12.6996 7.16373 12.6589 7.16373C12.0575 7.14199 11.4559 7.19983 10.8696 7.33577C10.7038 7.37622 10.5492 7.45316 10.4169 7.56096C10.2846 7.66877 10.1781 7.80474 10.105 7.95895C9.94668 8.40236 9.87781 8.87275 9.90237 9.34293L9.88708 23.588Z" fill="url(#paint0_linear_1056_19690)"/>
<path d="M33.9961 22.9561C34.727 23.1327 35.409 23.471 35.9918 23.9463C36.9756 24.7747 37.6956 26.0491 38.1519 27.7695C38.171 27.8306 38.2398 27.8536 38.3545 27.8306C38.4692 27.8077 38.5265 27.7695 38.5265 27.7045L38.1442 24.2216C38.1385 24.0696 38.1181 23.9185 38.0831 23.7705C38.0188 23.675 37.9339 23.5953 37.8345 23.5372C37.0825 23.0874 36.2627 22.7621 35.4068 22.5738C35.0628 22.4897 34.7034 22.4285 34.3325 22.375L33.9961 22.9561Z" fill="url(#paint1_linear_1056_19690)"/>
<path d="M40.1268 34.4446C40.1167 34.4232 40.1011 34.4048 40.0817 34.3914C40.0622 34.3779 40.0395 34.3699 40.0159 34.3681C38.9582 34.4293 37.9629 34.4599 37.03 34.4599C36.0564 34.4599 34.7705 34.4076 33.1724 34.3031C33.1487 34.3045 33.1259 34.3124 33.1063 34.3259C33.0868 34.3394 33.0713 34.3579 33.0616 34.3796C33.0307 34.4316 33.0149 34.4911 33.0157 34.5516C33.0157 34.716 33.0769 34.8001 33.203 34.8001C34.0386 34.7654 34.8751 34.8386 35.6919 35.018C35.9066 35.0714 36.1045 35.1778 36.2675 35.3274C36.4304 35.477 36.5533 35.6651 36.6248 35.8744C36.8048 36.612 36.8782 37.3717 36.8427 38.1301C36.8427 39.4988 36.5266 40.4788 35.8945 41.0701C35.2624 41.6614 34.1792 41.9571 32.6448 41.9571C30.4682 41.9571 28.6382 41.4601 27.1548 40.4661C25.718 39.5233 24.5748 38.196 23.8554 36.6352C23.2963 35.4229 22.9509 34.123 22.8346 32.793L22.135 33.9399L20.7969 33.1371C20.9218 34.593 21.3614 36.0043 22.0853 37.2737C22.9859 38.8504 24.3104 40.143 25.9084 41.0051C27.7228 41.9631 29.7526 42.4396 31.8037 42.3891C33.9636 42.3387 36.1117 42.0567 38.2114 41.548C38.3125 41.5268 38.4078 41.4838 38.4905 41.4218C38.5406 41.3493 38.5624 41.2609 38.5516 41.1733C38.5316 40.9163 38.4946 40.6608 38.4408 40.4087C38.3519 39.7487 38.3161 39.0826 38.3337 38.4168C38.3181 37.5862 38.3487 36.7552 38.4255 35.928C38.4287 35.7484 38.469 35.5714 38.5441 35.4082C38.6191 35.245 38.7271 35.0992 38.8613 34.9798C39.2147 34.7991 39.6143 34.7285 40.0082 34.7772C40.1115 34.7772 40.165 34.7046 40.165 34.5593C40.1607 34.5187 40.1476 34.4796 40.1268 34.4446Z" fill="url(#paint2_linear_1056_19690)"/>
<path d="M46.6485 -0.000282562L0 47.6855L0.409941 48.0866L47.0585 0.400741L46.6485 -0.000282562Z" fill="url(#paint3_linear_1056_19690)"/>
<defs>
<linearGradient id="paint0_linear_1056_19690" x1="4.24615" y1="-73.4939" x2="36.8866" y2="-67.0016" gradientUnits="userSpaceOnUse">
<stop offset="0.0580958" stop-color="#E6D1BE"/>
<stop offset="0.929784" stop-color="#896954"/>
</linearGradient>
<linearGradient id="paint1_linear_1056_19690" x1="33.6476" y1="-0.17574" x2="43.3696" y2="1.88535" gradientUnits="userSpaceOnUse">
<stop offset="0.0580958" stop-color="#E6D1BE"/>
<stop offset="0.929784" stop-color="#896954"/>
</linearGradient>
<linearGradient id="paint2_linear_1056_19690" x1="19.307" y1="-6.824" x2="53.6082" y2="10.8721" gradientUnits="userSpaceOnUse">
<stop offset="0.0580958" stop-color="#E6D1BE"/>
<stop offset="0.929784" stop-color="#896954"/>
</linearGradient>
<linearGradient id="paint3_linear_1056_19690" x1="-5.28012" y1="49.6987" x2="-1.57117" y2="53.0907" gradientUnits="userSpaceOnUse">
<stop offset="0.0580958" stop-color="#E6D1BE"/>
<stop offset="0.929784" stop-color="#896954"/>
</linearGradient>
</defs>
</svg>
