<svg width="27" height="15" viewBox="0 0 27 15" fill="none" xmlns="http://www.w3.org/2000/svg">
<path d="M1.39206 0.496347C1.5491 0.339027 1.7357 0.214204 1.94116 0.129032C2.14663 0.0438607 2.36692 1.54857e-05 2.58939 1.54662e-05C2.81187 1.54468e-05 3.03215 0.0438606 3.23762 0.129032C3.44309 0.214204 3.62969 0.339027 3.78673 0.496347L13.857 10.5496L23.9302 0.496345C24.2477 0.179328 24.6784 0.00123043 25.1275 0.00123039C25.5766 0.00123035 26.0073 0.179328 26.3248 0.496345C26.6424 0.813361 26.8208 1.24333 26.8208 1.69166C26.8208 2.13999 26.6424 2.56995 26.3248 2.88697L15.0558 14.137C14.8987 14.2943 14.7121 14.4191 14.5067 14.5043C14.3012 14.5895 14.0809 14.6333 13.8585 14.6333C13.636 14.6333 13.4157 14.5895 13.2102 14.5043C13.0048 14.4191 12.8182 14.2943 12.6611 14.137L1.39206 2.88697C1.23447 2.7302 1.10943 2.54391 1.02412 2.33879C0.938802 2.13367 0.894881 1.91376 0.894881 1.69166C0.894881 1.46956 0.938802 1.24965 1.02412 1.04453C1.10943 0.83941 1.23447 0.653121 1.39206 0.496347Z" fill="url(#paint0_linear_2104_1245)"/>
<defs>
<linearGradient id="paint0_linear_2104_1245" x1="28.8151" y1="75.0229" x2="-19.4206" y2="53.1703" gradientUnits="userSpaceOnUse">
<stop offset="0.0580958" stop-color="#E6D1BE"/>
<stop offset="0.929784" stop-color="#896954"/>
</linearGradient>
</defs>
</svg>
