<svg width="27" height="15" viewBox="0 0 27 15" fill="none" xmlns="http://www.w3.org/2000/svg">
<path d="M0.885709 14.137C1.04275 14.2943 1.22935 14.4191 1.43482 14.5043C1.64028 14.5894 1.86057 14.6333 2.08304 14.6333C2.30552 14.6333 2.52581 14.5894 2.73127 14.5043C2.93674 14.4191 3.12334 14.2943 3.28038 14.137L13.3507 4.08367L23.4238 14.137C23.7414 14.454 24.1721 14.6321 24.6212 14.6321C25.0702 14.6321 25.5009 14.454 25.8185 14.137C26.1361 13.8199 26.3145 13.39 26.3145 12.9416C26.3145 12.4933 26.1361 12.0633 25.8185 11.7463L14.5494 0.496329C14.3924 0.339009 14.2058 0.214185 14.0003 0.129013C13.7949 0.0438416 13.5746 -1.11187e-06 13.3521 -1.13129e-06C13.1296 -1.1507e-06 12.9093 0.0438415 12.7039 0.129013C12.4984 0.214185 12.3118 0.339009 12.1548 0.496329L0.885709 11.7463C0.728122 11.9031 0.603085 12.0894 0.51777 12.2945C0.432454 12.4996 0.388533 12.7195 0.388533 12.9416C0.388533 13.1637 0.432454 13.3837 0.51777 13.5888C0.603085 13.7939 0.728121 13.9802 0.885709 14.137Z" fill="url(#paint0_linear_2104_1254)"/>
<defs>
<linearGradient id="paint0_linear_2104_1254" x1="28.3088" y1="-60.3896" x2="-19.9269" y2="-38.537" gradientUnits="userSpaceOnUse">
<stop offset="0.0580958" stop-color="#E6D1BE"/>
<stop offset="0.929784" stop-color="#896954"/>
</linearGradient>
</defs>
</svg>
