<svg width="15" height="26" viewBox="0 0 15 26" fill="none" xmlns="http://www.w3.org/2000/svg">
<path d="M13.8007 25.3151C13.9543 25.1621 14.0761 24.9802 14.1593 24.78C14.2424 24.5797 14.2852 24.3651 14.2852 24.1482C14.2852 23.9314 14.2424 23.7167 14.1593 23.5165C14.0761 23.3163 13.9543 23.1344 13.8007 22.9814L3.98654 13.1672L13.8007 3.3503C14.1102 3.04083 14.284 2.62109 14.284 2.18342C14.284 1.74576 14.1102 1.32602 13.8007 1.01654C13.4912 0.707065 13.0715 0.533203 12.6338 0.533203C12.1962 0.533203 11.7764 0.707065 11.4669 1.01654L0.484524 11.999C0.330946 12.152 0.209091 12.3339 0.125945 12.5341C0.0427997 12.7343 -1.48057e-07 12.949 -1.50643e-07 13.1658C-1.53228e-07 13.3827 0.0427997 13.5973 0.125945 13.7976C0.209091 13.9978 0.330946 14.1797 0.484524 14.3327L11.4669 25.3151C11.62 25.4687 11.8018 25.5906 12.0021 25.6737C12.2023 25.7569 12.417 25.7997 12.6338 25.7997C12.8506 25.7997 13.0653 25.7569 13.2656 25.6737C13.4658 25.5906 13.6477 25.4687 13.8007 25.3151Z" fill="url(#paint0_linear_892_11454)"/>
<defs>
<linearGradient id="paint0_linear_892_11454" x1="73.2384" y1="-1.41037" x2="51.9654" y2="45.6254" gradientUnits="userSpaceOnUse">
<stop offset="0.0580958" stop-color="#E6D1BE"/>
<stop offset="0.929784" stop-color="#896954"/>
</linearGradient>
</defs>
</svg>
