<svg width="15" height="26" viewBox="0 0 15 26" fill="none" xmlns="http://www.w3.org/2000/svg">
<path d="M0.484459 25.3151C0.330881 25.1621 0.209028 24.9802 0.125881 24.78C0.0427363 24.5797 -6.55193e-05 24.3651 -6.55219e-05 24.1482C-6.55245e-05 23.9314 0.0427363 23.7167 0.125881 23.5165C0.209028 23.3163 0.330881 23.1344 0.484459 22.9814L10.2986 13.1672L0.484459 3.3503C0.174983 3.04083 0.00112155 2.62109 0.00112154 2.18342C0.00112154 1.74576 0.174983 1.32602 0.484459 1.01654C0.793935 0.707065 1.21367 0.533203 1.65134 0.533203C2.08901 0.533203 2.50875 0.707065 2.81822 1.01654L13.8006 11.999C13.9542 12.152 14.0761 12.3339 14.1592 12.5341C14.2424 12.7343 14.2852 12.949 14.2852 13.1658C14.2852 13.3827 14.2424 13.5973 14.1592 13.7976C14.0761 13.9978 13.9542 14.1797 13.8006 14.3327L2.81822 25.3151C2.66518 25.4687 2.48332 25.5906 2.28308 25.6737C2.08284 25.7569 1.86816 25.7997 1.65134 25.7997C1.43452 25.7997 1.21984 25.7569 1.0196 25.6737C0.819362 25.5906 0.637505 25.4687 0.484459 25.3151Z" fill="url(#paint0_linear_892_11454)"/>
<defs>
<linearGradient id="paint0_linear_892_11454" x1="73.2384" y1="-1.41037" x2="51.9654" y2="45.6254" gradientUnits="userSpaceOnUse">
<stop offset="0.0580958" stop-color="#E6D1BE"/>
<stop offset="0.929784" stop-color="#896954"/>
</linearGradient>
</defs>
</svg>
