<svg width="80" height="44" viewBox="0 0 80 44" fill="none" xmlns="http://www.w3.org/2000/svg">
<rect width="80" height="44" fill="url(#paint0_linear_3312_1116)"/>
<path d="M40.4121 22.3825C40.3667 22.3372 40.3307 22.2833 40.3062 22.2241C40.2816 22.1649 40.269 22.1014 40.269 22.0373C40.269 21.9732 40.2816 21.9097 40.3062 21.8505C40.3307 21.7912 40.3667 21.7374 40.4121 21.6921L42.5069 19.5979H41.2451C41.1158 19.5979 40.9917 19.5465 40.9002 19.455C40.8087 19.3635 40.7573 19.2394 40.7573 19.11C40.7573 18.9806 40.8087 18.8565 40.9002 18.765C40.9917 18.6735 41.1158 18.6221 41.2451 18.6221H43.6845C43.8139 18.6221 43.938 18.6735 44.0295 18.765C44.121 18.8565 44.1724 18.9806 44.1724 19.11V21.5494C44.1724 21.6788 44.121 21.8029 44.0295 21.8944C43.938 21.9859 43.8139 22.0373 43.6845 22.0373C43.5552 22.0373 43.4311 21.9859 43.3396 21.8944C43.2481 21.8029 43.1967 21.6788 43.1967 21.5494V20.2876L41.1024 22.3825C41.0571 22.4278 41.0033 22.4638 40.9441 22.4884C40.8849 22.5129 40.8214 22.5255 40.7573 22.5255C40.6932 22.5255 40.6297 22.5129 40.5704 22.4884C40.5112 22.4638 40.4574 22.4278 40.4121 22.3825ZM44.5591 25.8464L41.6861 24.559L41.6781 24.5554C41.529 24.4916 41.3663 24.466 41.2048 24.4809C41.0432 24.4958 40.888 24.5507 40.753 24.6407C40.7371 24.6512 40.7218 24.6626 40.7073 24.6749L39.2247 25.9403C38.2843 25.4836 37.3134 24.52 36.8567 23.5918L38.1239 22.0849C38.1361 22.0696 38.1477 22.0544 38.1587 22.0379C38.2468 21.9033 38.3002 21.749 38.3143 21.5888C38.3283 21.4285 38.3025 21.2673 38.2392 21.1195V21.1121L36.9481 18.2343C36.8644 18.0411 36.7205 17.8802 36.5378 17.7756C36.3551 17.6709 36.1435 17.6282 35.9346 17.6537C35.1082 17.7624 34.3497 18.1683 33.8007 18.7954C33.2516 19.4225 32.9497 20.228 32.9512 21.0615C32.9512 25.9037 36.8908 29.8434 41.733 29.8434C42.5665 29.8449 43.372 29.5429 43.9992 28.9939C44.6263 28.4449 45.0321 27.6863 45.1409 26.86C45.1664 26.6511 45.1238 26.4395 45.0192 26.2569C44.9147 26.0742 44.754 25.9302 44.5609 25.8464H44.5591Z" fill="white"/>
<defs>
<linearGradient id="paint0_linear_3312_1116" x1="-6.15384" y1="-181.582" x2="141.353" y2="-113.003" gradientUnits="userSpaceOnUse">
<stop offset="0.0580958" stop-color="#E6D1BE"/>
<stop offset="0.929784" stop-color="#896954"/>
</linearGradient>
</defs>
</svg>
