<svg width="21" height="15" viewBox="0 0 21 15" fill="none" xmlns="http://www.w3.org/2000/svg">
<path d="M20.6426 2.0227L7.72337 14.6518C7.61085 14.7621 7.47714 14.8497 7.32992 14.9095C7.1827 14.9692 7.02486 15 6.86545 15C6.70604 15 6.5482 14.9692 6.40098 14.9095C6.25376 14.8497 6.12006 14.7621 6.00753 14.6518L0.355362 9.12655C0.242698 9.01642 0.153328 8.88567 0.0923554 8.74178C0.0313824 8.59788 1.67882e-09 8.44366 0 8.2879C-1.67882e-09 8.13215 0.0313824 7.97793 0.0923554 7.83403C0.153328 7.69013 0.242698 7.55939 0.355362 7.44925C0.468025 7.33912 0.601776 7.25176 0.748978 7.19216C0.89618 7.13255 1.05395 7.10187 1.21328 7.10187C1.37261 7.10187 1.53038 7.13255 1.67758 7.19216C1.82478 7.25176 1.95854 7.33912 2.0712 7.44925L6.86646 12.1368L18.9288 0.347379C19.1563 0.124956 19.4649 0 19.7867 0C20.1085 0 20.4171 0.124956 20.6446 0.347379C20.8722 0.569803 21 0.871474 21 1.18603C21 1.50058 20.8722 1.80225 20.6446 2.02468L20.6426 2.0227Z" fill="#D6B07C"/>
</svg>
