<svg width="13" height="9" viewBox="0 0 13 9" fill="none" xmlns="http://www.w3.org/2000/svg">
<path d="M12.7788 1.21359L4.78113 8.79103C4.71148 8.85726 4.62871 8.9098 4.53757 8.94566C4.44643 8.98151 4.34872 8.99997 4.25004 8.99997C4.15136 8.99997 4.05365 8.98151 3.96251 8.94566C3.87138 8.9098 3.78861 8.85726 3.71895 8.79103L0.219986 5.4759C0.150242 5.40982 0.0949176 5.33137 0.0571724 5.24504C0.0194272 5.1587 1.03927e-09 5.06616 0 4.97271C-1.03927e-09 4.87926 0.0194272 4.78672 0.0571724 4.70039C0.0949176 4.61405 0.150242 4.5356 0.219986 4.46952C0.28973 4.40344 0.372528 4.35103 0.463653 4.31526C0.554778 4.2795 0.652445 4.26109 0.751078 4.26109C0.849711 4.26109 0.947379 4.2795 1.0385 4.31526C1.12963 4.35103 1.21243 4.40344 1.28217 4.46952L4.25067 7.28205L11.7178 0.208397C11.8587 0.0749431 12.0497 -3.05176e-05 12.2489 -3.05176e-05C12.4481 -3.05176e-05 12.6392 0.0749431 12.78 0.208397C12.9209 0.341851 13 0.522854 13 0.711587C13 0.900319 12.9209 1.08132 12.78 1.21478L12.7788 1.21359Z" fill="#D6B07C"/>
</svg>
