<svg width="18" height="20" viewBox="0 0 18 20" fill="none" xmlns="http://www.w3.org/2000/svg">
<path d="M16.6553 9.46967C16.725 9.53932 16.7803 9.62204 16.8181 9.71309C16.8558 9.80413 16.8753 9.90173 16.8753 10.0003C16.8753 10.0989 16.8558 10.1964 16.8181 10.2875C16.7803 10.3785 16.725 10.4613 16.6553 10.5309L8.9631 18.2184C7.97836 19.203 6.64281 19.7561 5.25027 19.756C3.85772 19.756 2.52225 19.2027 1.53763 18.2179C0.553014 17.2332 -8.78825e-05 15.8977 1.04736e-08 14.5051C8.79035e-05 13.1126 0.553359 11.7771 1.5381 10.7925L10.8437 1.34998C11.5468 0.646202 12.5006 0.250528 13.4953 0.250001C14.4901 0.249473 15.4443 0.644135 16.1481 1.34717C16.8519 2.0502 17.2476 3.00401 17.2481 3.99877C17.2486 4.99353 16.8539 5.94776 16.1509 6.65154L6.84341 16.094C6.42072 16.5167 5.84743 16.7542 5.24966 16.7542C4.65189 16.7542 4.0786 16.5167 3.65591 16.094C3.23322 15.6714 2.99576 15.0981 2.99576 14.5003C2.99576 13.9025 3.23322 13.3292 3.65591 12.9065L11.4653 4.97342C11.5337 4.90044 11.616 4.84188 11.7074 4.8012C11.7988 4.76051 11.8974 4.73851 11.9974 4.7365C12.0974 4.73448 12.1968 4.7525 12.2897 4.78947C12.3827 4.82645 12.4673 4.88165 12.5386 4.95181C12.6098 5.02198 12.6664 5.10569 12.7048 5.19804C12.7433 5.29038 12.7629 5.38948 12.7625 5.4895C12.762 5.58953 12.7416 5.68846 12.7024 5.78048C12.6632 5.87249 12.6059 5.95573 12.534 6.02529L4.72372 13.9669C4.6538 14.0362 4.59822 14.1187 4.56016 14.2096C4.5221 14.3004 4.50231 14.3979 4.50192 14.4964C4.50153 14.5949 4.52054 14.6925 4.55787 14.7836C4.59521 14.8748 4.65013 14.9577 4.71951 15.0276C4.78888 15.0976 4.87135 15.1531 4.9622 15.1912C5.05306 15.2293 5.15052 15.249 5.24902 15.2494C5.34753 15.2498 5.44514 15.2308 5.53629 15.1935C5.62745 15.1562 5.71036 15.1012 5.78029 15.0319L15.0868 5.59404C15.5095 5.17222 15.7473 4.59977 15.748 4.00261C15.7486 3.40545 15.5119 2.83251 15.0901 2.40982C14.6683 1.98713 14.0959 1.74932 13.4987 1.74871C12.9015 1.74809 12.3286 1.98472 11.9059 2.40654L2.60216 11.8453C2.25363 12.1933 1.97704 12.6065 1.7882 13.0614C1.59936 13.5162 1.50197 14.0039 1.50158 14.4964C1.50119 14.9889 1.59781 15.4767 1.78592 15.9318C1.97403 16.387 2.24996 16.8007 2.59794 17.1492C2.94593 17.4977 3.35915 17.7743 3.81402 17.9632C4.2689 18.152 4.75651 18.2494 5.24902 18.2498C5.74154 18.2502 6.2293 18.1536 6.68448 17.9654C7.13965 17.7773 7.55331 17.5014 7.90185 17.1534L15.595 9.46592C15.7361 9.32587 15.9271 9.24759 16.1259 9.24829C16.3247 9.249 16.5151 9.32862 16.6553 9.46967Z" fill="url(#paint0_linear_670_16021)"/>
<defs>
<linearGradient id="paint0_linear_670_16021" x1="-1.32677" y1="-80.2488" x2="35.4688" y2="-71.9291" gradientUnits="userSpaceOnUse">
<stop offset="0.0580958" stop-color="#E6D1BE"/>
<stop offset="0.929784" stop-color="#896954"/>
</linearGradient>
</defs>
</svg>
