<svg width="18" height="18" viewBox="0 0 18 18" fill="none" xmlns="http://www.w3.org/2000/svg">
<path d="M9 0.0625C7.23233 0.0625 5.50436 0.586675 4.0346 1.56874C2.56483 2.55081 1.41929 3.94665 0.742831 5.57977C0.0663725 7.21288 -0.11062 9.00992 0.234236 10.7436C0.579091 12.4773 1.43031 14.0698 2.68024 15.3198C3.93017 16.5697 5.52268 17.4209 7.25638 17.7658C8.99009 18.1106 10.7871 17.9336 12.4202 17.2572C14.0534 16.5807 15.4492 15.4352 16.4313 13.9654C17.4133 12.4956 17.9375 10.7677 17.9375 9C17.935 6.6304 16.9926 4.35856 15.317 2.683C13.6414 1.00743 11.3696 0.0650023 9 0.0625ZM13.8125 9.6875H9C8.81767 9.6875 8.6428 9.61507 8.51387 9.48614C8.38494 9.35721 8.3125 9.18234 8.3125 9V4.1875C8.3125 4.00516 8.38494 3.8303 8.51387 3.70136C8.6428 3.57243 8.81767 3.5 9 3.5C9.18234 3.5 9.35721 3.57243 9.48614 3.70136C9.61507 3.8303 9.6875 4.00516 9.6875 4.1875V8.3125H13.8125C13.9948 8.3125 14.1697 8.38493 14.2986 8.51386C14.4276 8.6428 14.5 8.81766 14.5 9C14.5 9.18234 14.4276 9.35721 14.2986 9.48614C14.1697 9.61507 13.9948 9.6875 13.8125 9.6875Z" fill="url(#paint0_linear_670_17245)"/>
<defs>
<linearGradient id="paint0_linear_670_17245" x1="-1.3125" y1="-73.7052" x2="36.31" y2="-64.0849" gradientUnits="userSpaceOnUse">
<stop offset="0.0580958" stop-color="#E6D1BE"/>
<stop offset="0.929784" stop-color="#896954"/>
</linearGradient>
</defs>
</svg>
