<svg width="25" height="25" viewBox="0 0 25 25" fill="none" xmlns="http://www.w3.org/2000/svg">
<path d="M12.7915 0.691406C10.4146 0.691406 8.091 1.39625 6.11464 2.71682C4.13827 4.03738 2.59789 5.91435 1.68827 8.11037C0.778645 10.3064 0.540647 12.7228 1.00437 15.0541C1.46809 17.3854 2.6127 19.5268 4.29346 21.2076C5.97422 22.8883 8.11564 24.0329 10.4469 24.4967C12.7782 24.9604 15.1946 24.7224 17.3906 23.8128C19.5867 22.9031 21.4636 21.3627 22.7842 19.3864C24.1048 17.41 24.8096 15.0864 24.8096 12.7095C24.8062 9.52313 23.539 6.46824 21.2859 4.21514C19.0328 1.96204 15.9779 0.694771 12.7915 0.691406ZM19.2628 13.634H12.7915C12.5463 13.634 12.3112 13.5366 12.1378 13.3632C11.9645 13.1898 11.8671 12.9547 11.8671 12.7095V6.23822C11.8671 5.99303 11.9645 5.75789 12.1378 5.58452C12.3112 5.41115 12.5463 5.31375 12.7915 5.31375C13.0367 5.31375 13.2719 5.41115 13.4452 5.58452C13.6186 5.75789 13.716 5.99303 13.716 6.23822V11.785H19.2628C19.508 11.785 19.7431 11.8824 19.9165 12.0558C20.0899 12.2292 20.1873 12.4643 20.1873 12.7095C20.1873 12.9547 20.0899 13.1898 19.9165 13.3632C19.7431 13.5366 19.508 13.634 19.2628 13.634Z" fill="url(#paint0_linear_651_12202)"/>
<defs>
<linearGradient id="paint0_linear_651_12202" x1="-1.0755" y1="-98.5027" x2="49.5148" y2="-85.5664" gradientUnits="userSpaceOnUse">
<stop offset="0.0580958" stop-color="#E6D1BE"/>
<stop offset="0.929784" stop-color="#DEB194"/>
</linearGradient>
</defs>
</svg>
