<svg width="19" height="19" viewBox="0 0 19 19" fill="none" xmlns="http://www.w3.org/2000/svg">
<path d="M18.3388 0.661165C18.6201 0.94247 18.7781 1.324 18.7781 1.72183C18.7781 2.11965 18.6201 2.50118 18.3388 2.78249L11.6213 9.5L18.3388 16.2175C18.6201 16.4988 18.7781 16.8803 18.7781 17.2782C18.7781 17.676 18.6201 18.0575 18.3388 18.3388C18.0575 18.6201 17.6759 18.7782 17.2781 18.7782C16.8803 18.7782 16.4988 18.6201 16.2174 18.3388L9.49993 11.6213L2.78242 18.3388C2.50112 18.6201 2.11958 18.7782 1.72176 18.7782C1.32394 18.7782 0.942404 18.6201 0.6611 18.3388C0.379796 18.0575 0.22176 17.676 0.22176 17.2782C0.22176 16.8803 0.379796 16.4988 0.6611 16.2175L7.37861 9.5L0.6611 2.78249C0.379796 2.50118 0.22176 2.11965 0.22176 1.72183C0.22176 1.324 0.379796 0.94247 0.6611 0.661165C0.942404 0.379861 1.32394 0.221826 1.72176 0.221826C2.11958 0.221826 2.50112 0.379861 2.78242 0.661165L9.49993 7.37868L16.2174 0.661165C16.4988 0.37986 16.8803 0.221827 17.2781 0.221826C17.6759 0.221825 18.0575 0.379861 18.3388 0.661165Z" fill="#6C6C6C"/>
</svg>
