<svg width="20" height="19" viewBox="0 0 20 19" fill="none" xmlns="http://www.w3.org/2000/svg">
<path fill-rule="evenodd" clip-rule="evenodd" d="M19.8848 9.55739C19.8848 4.2795 15.631 0 10.3847 0C5.13857 0 0.884766 4.2795 0.884766 9.55739C0.884766 14.3276 4.35821 18.2815 8.9004 18.9992V12.321H6.48766V9.55739H8.9004V7.45179C8.9004 5.05689 10.319 3.73293 12.4888 3.73293C13.5283 3.73293 14.6157 3.91982 14.6157 3.91982V6.27205H13.4172C12.2377 6.27205 11.8687 7.00848 11.8687 7.76539V9.55739H14.5033L14.0825 12.321H11.8691V19C16.4114 18.2828 19.8848 14.3289 19.8848 9.55739Z" fill="url(#paint0_linear_670_17226)"/>
<defs>
<linearGradient id="paint0_linear_670_17226" x1="-0.576772" y1="-78.4104" x2="39.4136" y2="-68.1846" gradientUnits="userSpaceOnUse">
<stop offset="0.0580958" stop-color="#E6D1BE"/>
<stop offset="0.929784" stop-color="#896954"/>
</linearGradient>
</defs>
</svg>
