<svg width="57" height="65" viewBox="0 0 57 65" fill="none" xmlns="http://www.w3.org/2000/svg">
<path d="M22.143 53.1464C21.9441 53.1456 21.7474 53.1043 21.565 53.0249C21.3826 52.9455 21.2183 52.8296 21.0822 52.6845L18.6427 50.0865C18.5382 49.9766 18.4565 49.8472 18.4023 49.7056C18.3481 49.564 18.3223 49.4131 18.3266 49.2616C18.3309 49.11 18.3651 48.9608 18.4273 48.8225C18.4894 48.6843 18.5783 48.5596 18.6888 48.4558C18.7992 48.352 18.9292 48.271 19.071 48.2176C19.2129 48.1641 19.364 48.1393 19.5155 48.1444C19.667 48.1496 19.816 48.1846 19.9539 48.2475C20.0919 48.3105 20.216 48.4 20.3192 48.5111L22.1407 50.4506L27.9368 44.2376C28.0397 44.1266 28.1634 44.037 28.301 43.9739C28.4386 43.9108 28.5873 43.8755 28.7385 43.8699C28.8898 43.8644 29.0406 43.8887 29.1824 43.9416C29.3243 43.9944 29.4543 44.0748 29.565 44.178C29.6757 44.2811 29.765 44.4052 29.8277 44.5429C29.8904 44.6807 29.9253 44.8294 29.9305 44.9807C29.9356 45.132 29.9108 45.2828 29.8575 45.4244C29.8043 45.5661 29.7236 45.6959 29.6201 45.8063L23.2072 52.6812C23.0714 52.8269 22.9072 52.9434 22.7248 53.0234C22.5424 53.1034 22.3456 53.1453 22.1464 53.1464L22.143 53.1464Z" fill="url(#paint0_linear_884_1886)"/>
<path d="M56.8876 25.5531C56.5581 23.9168 55.7396 22.4191 54.5403 21.2583C53.758 20.393 52.7785 19.7291 51.685 19.3229C50.5916 18.9166 49.4162 18.7801 48.2587 18.9247V4.73531C48.2575 3.47981 47.7582 2.27611 46.8704 1.38834C45.9826 0.500575 44.7789 0.00127027 43.5234 0H4.7353C3.47981 0.00127027 2.27611 0.500575 1.38834 1.38834C0.500575 2.27611 0.00127027 3.47981 0 4.73531V59.7497C0.00127027 61.0052 0.500575 62.2089 1.38834 63.0967C2.27611 63.9844 3.47981 64.4837 4.7353 64.485H43.5234C44.7789 64.4837 45.9826 63.9844 46.8704 63.0967C47.7582 62.2089 48.2575 61.0052 48.2587 59.7497V44.3651L49.4218 43.202C51.5548 41.069 51.3724 37.1546 49.071 33.2625L51.4771 30.8568C51.5053 30.8622 51.5331 30.8745 51.5613 30.8795C51.8992 30.9401 52.2417 30.9709 52.585 30.9716C53.1681 30.9873 53.7484 30.887 54.2924 30.6766C54.8364 30.4661 55.3332 30.1497 55.7538 29.7456C56.2685 29.1911 56.6407 28.5197 56.8382 27.7893C57.0357 27.0589 57.0527 26.2915 56.8876 25.5531ZM45.9574 59.7497C45.9565 60.395 45.6998 61.0136 45.2435 61.4698C44.7873 61.9261 44.1687 62.1828 43.5234 62.1837H4.7353C4.09004 62.1828 3.47146 61.9261 3.01519 61.4698C2.55892 61.0136 2.30221 60.395 2.30135 59.7497V4.73531C2.30221 4.09004 2.55892 3.47146 3.01519 3.01519C3.47146 2.55892 4.09004 2.30221 4.7353 2.30135H43.5234C44.1687 2.30221 44.7873 2.55892 45.2435 3.01519C45.6998 3.47146 45.9565 4.09004 45.9574 4.73531V20.169C45.4708 20.7307 45.125 21.4003 44.9487 22.1223C44.7725 22.8443 44.7707 23.5978 44.9436 24.3206L42.5371 26.7272C38.6449 24.4293 34.7296 24.2448 32.5965 26.3768L28.9208 30.0535C28.0995 30.9502 27.5163 32.0385 27.2244 33.2189C26.9325 34.3993 26.9413 35.634 27.25 36.8101C24.8051 36.1595 22.2178 36.291 19.8513 37.186C17.4849 38.0809 15.4581 39.6945 14.0556 41.8002C12.653 43.9058 11.945 46.3978 12.0311 48.9264C12.1171 51.455 12.9928 53.8931 14.5353 55.8986C16.0777 57.904 18.2095 59.3761 20.6313 60.1081C23.0531 60.8402 25.6433 60.7954 28.0384 59.9802C30.4335 59.165 32.5132 57.6201 33.9854 55.5626C35.4577 53.5051 36.2487 51.0382 36.2474 48.5082C36.2474 48.2156 36.2062 47.9273 36.1854 47.6367C37.056 48.0391 37.9695 48.3413 38.9083 48.5374C39.5617 48.672 40.2268 48.7412 40.8939 48.7441C41.7862 48.7735 42.6753 48.6235 43.5085 48.3031C44.3418 47.9827 45.1023 47.4984 45.745 46.8788L45.9574 46.6664L45.9574 59.7497ZM44.1178 45.2517C43.4737 45.8055 42.7015 46.1897 41.8712 46.3694C41.041 46.5491 40.179 46.5188 39.3634 46.281C37.9895 45.9822 36.6833 45.43 35.5117 44.6528C35.3911 44.5201 35.2406 44.4182 35.0727 44.3555C34.3676 43.8623 33.7068 43.3087 33.0977 42.7009C31.3241 41.002 30.0806 38.8257 29.5175 36.4351C29.2796 35.6195 29.2492 34.7574 29.4292 33.9271C29.6091 33.0968 29.9937 32.3246 30.548 31.6807L31.1166 31.112C31.6155 34.5227 33.2676 37.6597 35.7979 40.0006C37.7741 42.0546 40.2464 43.5644 42.9762 44.3842C43.5397 44.5315 44.1151 44.6284 44.6958 44.6738L44.1178 45.2517ZM33.9461 48.5082C33.9461 50.4497 33.3703 52.3477 32.2916 53.962C31.213 55.5764 29.6798 56.8346 27.886 57.5776C26.0923 58.3206 24.1184 58.515 22.2142 58.1362C20.3099 57.7574 18.5608 56.8225 17.1879 55.4496C15.815 54.0767 14.88 52.3275 14.5013 50.4233C14.1225 48.519 14.3169 46.5452 15.0599 44.7514C15.8029 42.9577 17.0612 41.4245 18.6755 40.3458C20.2899 39.2672 22.1878 38.6914 24.1294 38.6915C25.5133 38.6922 26.8811 38.9889 28.1408 39.5618C28.9545 41.3382 30.0826 42.9528 31.4706 44.3279C32.1422 44.9967 32.8683 45.6085 33.6412 46.1571C33.837 46.9257 33.9394 47.7151 33.9461 48.5082ZM47.7946 41.5749C46.9226 42.448 45.4213 42.6536 43.5695 42.1615C41.2306 41.4461 39.1148 40.1417 37.425 38.3734C33.7472 34.6956 32.2818 29.9468 34.2236 28.0039C35.4978 26.7307 38.1167 26.9211 40.8656 28.3985L37.9914 31.2727C37.7371 31.5278 37.5364 31.8312 37.4013 32.1651C37.2662 32.499 37.1994 32.8566 37.2048 33.2167C37.2218 34.6376 37.7937 35.9955 38.7984 37.0004C39.8031 38.0053 41.1609 38.5775 42.5817 38.5948H42.6244C43.3373 38.5934 44.0208 38.3103 44.5258 37.8071L47.4004 34.9329C48.8774 37.6815 49.0678 40.3017 47.7946 41.5749ZM42.8986 36.18C42.8226 36.2504 42.7235 36.2907 42.6199 36.2935C41.7968 36.2837 41.0101 35.9522 40.4282 35.3698C39.8463 34.7875 39.5154 34.0006 39.5061 33.1774C39.5054 33.126 39.515 33.075 39.5343 33.0273C39.5536 32.9796 39.5822 32.9363 39.6185 32.8999L45.8475 26.6709C46.6271 28.0387 47.7593 29.1723 49.1261 29.9535L42.8986 36.18ZM54.1267 28.1185C53.8297 28.3643 53.4792 28.537 53.1033 28.6229C52.7275 28.7087 52.3367 28.7053 51.9624 28.6129C50.7923 28.3617 49.7237 27.767 48.8936 26.9049C47.1474 25.1575 46.5911 22.7618 47.68 21.6718C47.8849 21.4819 48.1255 21.3346 48.3879 21.2388C48.6503 21.1429 48.9292 21.1002 49.2082 21.1133C50.623 21.2135 51.9471 21.8468 52.9131 22.8853C53.7752 23.7155 54.3699 24.784 54.6211 25.9542C54.7136 26.3285 54.717 26.7192 54.6311 27.0951C54.5453 27.471 54.3725 27.8215 54.1267 28.1185Z" fill="url(#paint1_linear_884_1886)"/>
<path d="M31.035 9.65487H17.2268C16.9217 9.65487 16.629 9.53363 16.4132 9.31784C16.1974 9.10205 16.0762 8.80937 16.0762 8.50419C16.0762 8.19901 16.1974 7.90633 16.4132 7.69054C16.629 7.47475 16.9217 7.35352 17.2268 7.35352H31.035C31.3401 7.35352 31.6328 7.47475 31.8486 7.69054C32.0644 7.90633 32.1856 8.19901 32.1856 8.50419C32.1856 8.80937 32.0644 9.10205 31.8486 9.31784C31.6328 9.53363 31.3401 9.65487 31.035 9.65487Z" fill="url(#paint2_linear_884_1886)"/>
<path d="M40.2407 15.7701H8.02177C7.71659 15.7701 7.42391 15.6489 7.20812 15.4331C6.99233 15.2173 6.87109 14.9246 6.87109 14.6194C6.87109 14.3142 6.99233 14.0216 7.20812 13.8058C7.42391 13.59 7.71659 13.4688 8.02177 13.4688H40.2407C40.5459 13.4688 40.8385 13.59 41.0543 13.8058C41.2701 14.0216 41.3914 14.3142 41.3914 14.6194C41.3914 14.9246 41.2701 15.2173 41.0543 15.4331C40.8385 15.6489 40.5459 15.7701 40.2407 15.7701Z" fill="url(#paint3_linear_884_1886)"/>
<path d="M40.2407 21.8873H8.02177C7.71659 21.8873 7.42391 21.7661 7.20812 21.5503C6.99233 21.3345 6.87109 21.0418 6.87109 20.7366C6.87109 20.4314 6.99233 20.1388 7.20812 19.923C7.42391 19.7072 7.71659 19.5859 8.02177 19.5859H40.2407C40.5459 19.5859 40.8385 19.7072 41.0543 19.923C41.2701 20.1388 41.3914 20.4314 41.3914 20.7366C41.3914 21.0418 41.2701 21.3345 41.0543 21.5503C40.8385 21.7661 40.5459 21.8873 40.2407 21.8873Z" fill="url(#paint4_linear_884_1886)"/>
<path d="M28.4923 28.0025H8.02177C7.71659 28.0025 7.42391 27.8813 7.20812 27.6655C6.99233 27.4497 6.87109 27.157 6.87109 26.8518C6.87109 26.5467 6.99233 26.254 7.20812 26.0382C7.42391 25.8224 7.71659 25.7012 8.02177 25.7012H28.4923C28.7975 25.7012 29.0901 25.8224 29.3059 26.0382C29.5217 26.254 29.643 26.5467 29.643 26.8518C29.643 27.157 29.5217 27.4497 29.3059 27.6655C29.0901 27.8813 28.7975 28.0025 28.4923 28.0025Z" fill="url(#paint5_linear_884_1886)"/>
<path d="M24.3694 34.1178H8.02177C7.71659 34.1178 7.42391 33.9965 7.20812 33.7807C6.99233 33.5649 6.87109 33.2723 6.87109 32.9671C6.87109 32.6619 6.99233 32.3692 7.20812 32.1534C7.42391 31.9376 7.71659 31.8164 8.02177 31.8164H24.3694C24.6746 31.8164 24.9673 31.9376 25.1831 32.1534C25.3989 32.3692 25.5201 32.6619 25.5201 32.9671C25.5201 33.2723 25.3989 33.5649 25.1831 33.7807C24.9673 33.9965 24.6746 34.1178 24.3694 34.1178Z" fill="url(#paint6_linear_884_1886)"/>
<defs>
<linearGradient id="paint0_linear_884_1886" x1="17.4335" y1="5.58314" x2="41.0408" y2="13.1343" gradientUnits="userSpaceOnUse">
<stop offset="0.0580958" stop-color="#E6D1BE"/>
<stop offset="0.929784" stop-color="#896954"/>
</linearGradient>
<linearGradient id="paint1_linear_884_1886" x1="-4.38461" y1="-266.121" x2="117.218" y2="-238.636" gradientUnits="userSpaceOnUse">
<stop offset="0.0580958" stop-color="#E6D1BE"/>
<stop offset="0.929784" stop-color="#896954"/>
</linearGradient>
<linearGradient id="paint2_linear_884_1886" x1="14.837" y1="-2.14385" x2="23.4298" y2="13.2369" gradientUnits="userSpaceOnUse">
<stop offset="0.0580958" stop-color="#E6D1BE"/>
<stop offset="0.929784" stop-color="#896954"/>
</linearGradient>
<linearGradient id="paint3_linear_884_1886" x1="4.21569" y1="3.97138" x2="9.14239" y2="22.8682" gradientUnits="userSpaceOnUse">
<stop offset="0.0580958" stop-color="#E6D1BE"/>
<stop offset="0.929784" stop-color="#896954"/>
</linearGradient>
<linearGradient id="paint4_linear_884_1886" x1="4.21569" y1="10.0886" x2="9.14239" y2="28.9854" gradientUnits="userSpaceOnUse">
<stop offset="0.0580958" stop-color="#E6D1BE"/>
<stop offset="0.929784" stop-color="#896954"/>
</linearGradient>
<linearGradient id="paint5_linear_884_1886" x1="5.11941" y1="16.2038" x2="12.018" y2="33.6587" gradientUnits="userSpaceOnUse">
<stop offset="0.0580958" stop-color="#E6D1BE"/>
<stop offset="0.929784" stop-color="#896954"/>
</linearGradient>
<linearGradient id="paint6_linear_884_1886" x1="5.43656" y1="22.319" x2="13.3362" y2="38.688" gradientUnits="userSpaceOnUse">
<stop offset="0.0580958" stop-color="#E6D1BE"/>
<stop offset="0.929784" stop-color="#896954"/>
</linearGradient>
</defs>
</svg>
