<svg width="65" height="59" viewBox="0 0 65 59" fill="none" xmlns="http://www.w3.org/2000/svg">
<path fill-rule="evenodd" clip-rule="evenodd" d="M25.4866 56.2554C25.4866 56.4704 25.3238 56.6522 25.1315 56.6522H2.45619C2.25643 56.6522 2.09367 56.4704 2.09367 56.2554V53.4117C2.09367 53.1884 2.25643 53.0066 2.45619 53.0066H25.1315C25.3238 53.0066 25.4866 53.1884 25.4866 53.4117V56.2554ZM7.76065 50.4852C7.76065 49.9396 8.16014 49.4932 8.64842 49.4932H18.9318C19.4201 49.4932 19.8196 49.9396 19.8196 50.4852V50.6671H7.76065V50.4852ZM25.1315 50.6671H21.9133V50.4852C21.9133 48.65 20.5742 47.1537 18.9318 47.1537H8.64842C7.00605 47.1537 5.66699 48.65 5.66699 50.4852V50.6671H2.45619C1.10234 50.6671 0 51.8988 0 53.4117V56.2554C0 57.7682 1.10234 59 2.45619 59H25.1315C26.4853 59 27.5876 57.7682 27.5876 56.2554V53.4117C27.5876 51.8988 26.4853 50.6671 25.1315 50.6671ZM38.2484 15.3845H39.2915C39.8538 15.3845 40.3124 14.8885 40.342 14.2685C40.4604 11.3999 41.829 8.83717 43.9375 7.34915V13.4831C43.9375 14.1279 44.411 14.657 44.988 14.657H51.1655C51.7426 14.657 52.216 14.1279 52.216 13.4831V7.34915C54.3319 8.83717 55.7006 11.3999 55.8189 14.2685C55.8411 14.8885 56.3072 15.3845 56.862 15.3845H57.9052C58.5192 15.3845 59.0149 15.9383 59.0149 16.6162C59.0149 17.2941 58.5192 17.848 57.9052 17.848H38.2484C37.6417 17.848 37.146 17.2941 37.146 16.6162C37.146 15.9383 37.6417 15.3845 38.2484 15.3845ZM46.0386 3.65391V12.3092H50.115V3.65391C50.115 3.03388 49.2494 2.34775 48.0805 2.34775C46.9116 2.34775 46.0386 3.03388 46.0386 3.65391ZM53.2074 20.5429C53.2074 23.7008 50.9065 26.2718 48.0805 26.2718C45.1038 26.2718 42.7558 23.4071 42.961 20.1957H53.1926C53.2 20.3115 53.2074 20.4272 53.2074 20.5429ZM38.2484 20.1957H40.8673C40.8599 20.3115 40.8599 20.4272 40.8599 20.5429C40.8599 24.9905 44.0929 28.6113 48.0805 28.6113C52.0607 28.6113 55.301 24.9905 55.301 20.5429C55.301 20.4272 55.2936 20.3115 55.2936 20.1957H57.9052C59.6734 20.1957 61.1086 18.592 61.1086 16.6162C61.1086 14.6405 59.6734 13.0367 57.9052 13.0367H57.8164C57.3281 9.38277 55.2271 6.24142 52.216 4.68725V3.65391C52.216 1.64507 50.3591 0 48.0805 0C45.7944 0 43.9375 1.64507 43.9375 3.65391V4.68725C40.9265 6.24142 38.8254 9.38277 38.3445 13.0367H38.2484C36.4876 13.0367 35.0524 14.6405 35.0524 16.6162C35.0524 18.592 36.4876 20.1957 38.2484 20.1957ZM62.9063 56.4869C62.9063 56.5778 62.8323 56.6522 62.751 56.6522H52.142L34.971 37.465C36.0215 35.2495 37.5233 33.3069 39.3507 31.8188C39.5208 31.67 39.7354 31.6783 39.9056 31.8271C44.759 36.1539 51.3982 36.1508 56.2554 31.8271C56.4256 31.6783 56.6327 31.67 56.8103 31.8188C60.6277 34.9437 62.9063 39.9368 62.9063 45.178V56.4869ZM33.2472 56.4869C33.2472 56.5778 33.3212 56.6522 33.41 56.6522H42.3469L33.2472 46.4924V56.4869ZM19.9972 24.0563L18.0663 26.214L45.3136 56.6522H49.1754L19.9972 24.0563ZM7.64969 24.0398L18.0515 12.4084L22.7493 17.6661L12.3475 29.2892L7.64969 24.0398ZM11.7113 34.3237L12.7988 33.1084L4.23174 23.5355L3.14423 24.7507C2.53662 25.4211 2.54483 26.528 3.14423 27.1894L9.52881 34.3237C10.1347 35.0007 11.1132 34.9918 11.7113 34.3237ZM18.6951 7.37397L17.6002 8.58917L26.1746 18.1704L27.2621 16.9469C27.8597 16.2769 27.85 15.1647 27.2621 14.5082L20.8701 7.37397C20.2709 6.70432 19.2944 6.70432 18.6951 7.37397ZM58.0531 29.9257C57.0988 29.1486 55.8485 29.1817 54.9311 30.0084C50.933 33.6243 45.2162 33.6204 41.2224 30.0084C40.305 29.1817 39.0548 29.1486 38.1078 29.9257C36.2065 31.4881 34.6085 33.4805 33.4322 35.7455L21.4842 22.3947L24.2363 19.3195L24.9687 20.1378C25.6296 20.8764 26.7091 20.8798 27.3731 20.1378L28.7418 18.6085C30.1619 17.0216 30.1649 14.4451 28.7418 12.8548L22.3572 5.72059C20.9367 4.1334 18.6285 4.1334 17.2081 5.72059L15.832 7.24998C15.1696 7.98815 15.1749 9.19763 15.832 9.93664L16.5718 10.7551L6.16266 22.3782L5.43027 21.5597C4.76946 20.8214 3.69405 20.8214 3.03325 21.5597L1.65719 23.0974C0.233155 24.68 0.236917 27.2643 1.65719 28.8428L8.04917 35.9853C9.46198 37.564 11.7812 37.5604 13.1909 35.9853L14.5669 34.4477C15.227 33.7101 15.229 32.5127 14.5669 31.7692L13.8345 30.9425L16.5866 27.8673L31.1831 44.1777C31.1683 44.5083 31.1536 44.8473 31.1536 45.178V56.4869C31.1536 57.8674 32.1671 59 33.41 59H62.751C63.9938 59 65 57.8674 65 56.4869V45.178C65 39.1928 62.4032 33.4887 58.0531 29.9257Z" fill="url(#paint0_linear_699_314)"/>
<defs>
<linearGradient id="paint0_linear_699_314" x1="-13.6125" y1="19.0545" x2="102.343" y2="4.85467" gradientUnits="userSpaceOnUse">
<stop stop-color="#8A5929"/>
<stop offset="0.06" stop-color="#976837"/>
<stop offset="0.25" stop-color="#BD925F"/>
<stop offset="0.29" stop-color="#B58957"/>
<stop offset="0.46" stop-color="#986736"/>
<stop offset="0.6" stop-color="#865321"/>
<stop offset="0.69" stop-color="#804B1A"/>
<stop offset="0.75" stop-color="#844F1E"/>
<stop offset="0.81" stop-color="#8E5C2A"/>
<stop offset="0.88" stop-color="#A0713F"/>
<stop offset="0.94" stop-color="#BA8F5C"/>
<stop offset="1" stop-color="#D6B07C"/>
</linearGradient>
</defs>
</svg>
