<svg width="60" height="72" viewBox="0 0 60 72" fill="none" xmlns="http://www.w3.org/2000/svg">
<path d="M20.2964 46.2972C17.1222 43.5101 15.9609 42.4262 15.3415 41.8843C14.7222 41.3423 14.7222 41.3423 13.8706 40.6456C12.5544 39.5617 11.3931 39.1746 10.3867 39.252C9.6899 34.5294 7.59957 21.3681 7.05763 19.51C6.59311 18.039 5.27698 17.11 3.80601 17.2648C2.41246 17.4197 0.941483 18.5036 0.786644 20.6713C0.554385 23.5358 0.0898672 37.781 0.0124476 41.9617C-0.142392 46.7617 1.17374 48.2327 2.48988 49.7811C2.64471 49.9359 2.72213 50.0908 2.87697 50.1682C4.42537 51.9488 7.98667 55.8972 10.6964 58.4521C12.8641 60.5424 12.8641 61.0843 12.8641 62.6327V63.1747C12.9415 65.1876 12.477 70.607 12.477 70.6844C12.477 70.9941 12.5544 71.3037 12.7867 71.6134C13.0189 71.8457 13.3286 72.0005 13.6383 72.0005L24.477 71.7683C25.0964 71.7683 25.6383 71.2263 25.6383 70.607C25.6383 68.9037 25.6383 67.2779 25.7158 65.7295C25.8706 57.6779 26.0254 51.3295 20.2964 46.2972ZM23.3158 69.3682L14.877 69.6005C14.9544 68.5166 15.1093 66.8908 15.1093 65.4198L23.3932 64.7231C23.3932 65.0327 23.3932 65.265 23.3932 65.5747C23.3932 66.8134 23.3158 68.0521 23.3158 69.3682ZM23.4706 62.4005L15.2641 63.0198V62.5553C15.2641 60.5424 15.1093 59.3037 12.3222 56.7488C9.6899 54.194 6.20602 50.4004 4.65762 48.6198C4.50278 48.4649 4.42536 48.3101 4.27053 48.1553C3.10923 46.8391 2.25762 45.8327 2.33504 41.9617C2.48988 37.0068 2.95439 23.4584 3.10923 20.8261C3.18665 19.9745 3.65117 19.5874 4.03827 19.5874H4.11569C4.34795 19.5874 4.65762 19.6648 4.81246 20.2068C5.3544 21.91 7.44473 35.2262 8.29635 40.723C7.83183 41.7294 7.90925 43.0456 8.60602 44.3617C10.077 47.2262 12.6318 51.3295 12.7093 51.4843C13.0189 52.0262 13.7931 52.1811 14.3351 51.8714C14.877 51.5617 15.0319 50.7875 14.7222 50.2456C14.7222 50.1682 12.1673 46.0649 10.6964 43.2778C10.3093 42.4262 10.3093 41.8843 10.3867 41.652C10.3867 41.652 10.3867 41.5746 10.4641 41.5746C10.6189 41.4198 11.3157 41.4972 12.3996 42.4262C13.2512 43.123 13.2512 43.123 13.7931 43.6649C14.4125 44.2069 15.5738 45.2133 18.748 48.0778C22.9287 51.7166 23.4706 56.3617 23.4706 62.4005Z" fill="url(#paint0_linear_884_1956)"/>
<path d="M59.1625 41.8848C59.085 37.7815 58.6205 23.4589 58.3883 20.5944C58.2334 18.4266 56.7625 17.3428 55.3689 17.1879C53.8979 17.0331 52.5818 17.8847 52.1173 19.4331C51.4979 21.3686 49.485 34.4525 48.7882 39.1751C47.8592 39.0977 46.6979 39.4848 45.3818 40.5687C44.4527 41.3429 44.4527 41.3429 43.9108 41.8848C43.3689 42.4267 42.2076 43.4332 38.9559 46.2977C33.2269 51.33 33.3817 57.6784 33.5366 65.6526C33.5366 67.201 33.614 68.8268 33.614 70.53C33.614 71.1494 34.0785 71.6913 34.7753 71.6913L45.614 71.9236C45.9237 71.9236 46.2334 71.7688 46.4656 71.5365C46.6979 71.3042 46.7753 70.9946 46.7753 70.6075C46.7753 70.5301 46.3108 65.1107 46.3882 63.0978V62.5558C46.3882 61.0074 46.3882 60.4655 48.556 58.3752C51.2657 55.7429 54.827 51.8719 56.3754 50.0913C56.5302 49.9364 56.6076 49.7816 56.7625 49.7042C58.0012 48.1558 59.3173 46.6848 59.1625 41.8848ZM35.8592 69.3688C35.8592 68.0526 35.8592 66.8139 35.7817 65.5752C35.7817 65.2655 35.7817 65.0333 35.7817 64.7236L43.9882 65.3429C44.0656 66.8139 44.1431 68.4397 44.2205 69.5236L35.8592 69.3688ZM54.9044 48.1558C54.7495 48.3106 54.6721 48.4655 54.5173 48.6203C52.9689 50.4009 49.485 54.1945 46.8527 56.7494C44.0656 59.3816 43.9882 60.5429 43.9108 62.5558V63.0203L35.7043 62.3236C35.7043 56.2848 36.1688 51.7171 40.3495 48.0009C43.5237 45.1364 44.685 44.13 45.3044 43.588C45.8463 43.0461 45.8463 43.0461 46.6979 42.3493C47.7818 41.4203 48.4786 41.4203 48.6334 41.4977C48.6334 41.4977 48.6334 41.5751 48.7108 41.5751C48.7882 41.8074 48.8657 42.3493 48.4011 43.2009C47.0076 45.988 44.4527 50.0913 44.3753 50.1687C44.0656 50.7106 44.2205 51.4074 44.7624 51.7945C45.3043 52.1042 46.0011 51.9493 46.3882 51.4074C46.4656 51.2526 49.0205 47.1493 50.4915 44.2848C51.1882 42.9687 51.2657 41.6525 50.8011 40.6461C51.6528 35.1493 53.7431 21.8331 54.285 20.1299C54.4399 19.5879 54.827 19.5105 55.0592 19.5879C55.4463 19.6654 55.9108 19.975 55.9883 20.8267C56.2205 23.4589 56.685 37.0074 56.7625 41.9622C56.9947 45.8332 56.1431 46.7622 54.9044 48.1558Z" fill="url(#paint1_linear_884_1956)"/>
<path d="M7.67692 2.24517H13.7156L16.3479 15.2517L17.664 21.6775L18.9802 28.1033C18.9802 28.2582 19.0576 28.3356 19.135 28.4904C19.135 28.5678 19.2124 28.5678 19.2899 28.6453C19.3673 28.7227 19.3673 28.7227 19.4447 28.8001C19.5221 28.8775 19.5995 28.8775 19.677 28.9549C19.7544 28.9549 19.7544 29.0324 19.8318 29.0324C19.9866 29.1098 20.0641 29.1098 20.2189 29.1098H39.8835C40.4254 29.1098 40.8899 28.7227 41.0448 28.1807L42.3609 21.7549L43.677 15.3291L44.9932 8.90326C45.0706 8.59358 44.9932 8.20648 44.7609 7.97422C44.5287 7.74196 44.219 7.5097 43.8319 7.5097H17.1221L15.806 0.929036C15.7286 0.387098 15.1866 0 14.6447 0H7.67692C7.05756 0 6.51562 0.541937 6.51562 1.16129C6.51562 1.78065 7.05756 2.24517 7.67692 2.24517ZM33.3802 16.1807V20.2839H26.4899V16.1807H33.3802ZM26.4899 13.8581V9.75487H33.3028V13.8581H26.4899ZM40.1157 20.2839H35.7028V16.1807H40.9674L40.1157 20.2839ZM21.0705 26.7098L20.2189 22.6065H24.1673V26.7098H21.0705ZM26.4899 22.6065H33.3028V26.7098H26.4899V22.6065ZM24.1673 20.2839H19.7544L18.9028 16.1807H24.1673V20.2839ZM35.7028 26.7098V22.6065H39.6512L38.7996 26.7098H35.7028ZM41.4319 13.8581H35.7028V9.75487H42.2835L41.4319 13.8581ZM24.1673 9.83229V13.9355H18.4382L17.5866 9.83229H24.1673Z" fill="url(#paint2_linear_884_1956)"/>
<path d="M22.4653 30.5039C20.2201 30.5039 18.4395 32.362 18.4395 34.5297C18.4395 36.6975 20.2975 38.5555 22.4653 38.5555C24.633 38.5555 26.4911 36.6975 26.4911 34.5297C26.4911 32.362 24.7104 30.5039 22.4653 30.5039ZM22.4653 36.3104C21.5362 36.3104 20.762 35.5362 20.762 34.6071C20.762 33.6781 21.5362 32.9039 22.4653 32.9039C23.3943 32.9039 24.1685 33.6781 24.1685 34.6071C24.1685 35.5362 23.3943 36.3104 22.4653 36.3104Z" fill="url(#paint3_linear_884_1956)"/>
<path d="M37.4047 38.633C39.6499 38.633 41.4305 36.7749 41.4305 34.6071C41.4305 32.4394 39.6499 30.5039 37.4047 30.5039C35.1596 30.5039 33.3789 32.362 33.3789 34.5297C33.3789 36.6975 35.1596 38.633 37.4047 38.633ZM37.4047 32.8265C38.3338 32.8265 39.108 33.6007 39.108 34.5297C39.108 35.4588 38.3338 36.233 37.4047 36.233C36.4757 36.233 35.7015 35.4588 35.7015 34.5297C35.7015 33.6007 36.4757 32.8265 37.4047 32.8265Z" fill="url(#paint4_linear_884_1956)"/>
<defs>
<linearGradient id="paint0_linear_884_1956" x1="-1.982" y1="-208.708" x2="54.9704" y2="-201.855" gradientUnits="userSpaceOnUse">
<stop offset="0.0580958" stop-color="#E6D1BE"/>
<stop offset="0.929784" stop-color="#896954"/>
</linearGradient>
<linearGradient id="paint1_linear_884_1956" x1="31.5103" y1="-208.791" x2="88.2965" y2="-201.979" gradientUnits="userSpaceOnUse">
<stop offset="0.0580958" stop-color="#E6D1BE"/>
<stop offset="0.929784" stop-color="#896954"/>
</linearGradient>
<linearGradient id="paint2_linear_884_1956" x1="3.55358" y1="-120.132" x2="81.035" y2="-93.924" gradientUnits="userSpaceOnUse">
<stop offset="0.0580958" stop-color="#E6D1BE"/>
<stop offset="0.929784" stop-color="#896954"/>
</linearGradient>
<linearGradient id="paint3_linear_884_1956" x1="17.8201" y1="-2.72414" x2="34.7668" y2="1.60926" gradientUnits="userSpaceOnUse">
<stop offset="0.0580958" stop-color="#E6D1BE"/>
<stop offset="0.929784" stop-color="#896954"/>
</linearGradient>
<linearGradient id="paint4_linear_884_1956" x1="32.7595" y1="-3.04363" x2="49.726" y2="1.25349" gradientUnits="userSpaceOnUse">
<stop offset="0.0580958" stop-color="#E6D1BE"/>
<stop offset="0.929784" stop-color="#896954"/>
</linearGradient>
</defs>
</svg>
