<svg width="61" height="61" viewBox="0 0 61 61" fill="none" xmlns="http://www.w3.org/2000/svg">
<path d="M25.4229 8.81087C25.4229 8.66718 25.3946 8.5249 25.3397 8.39214C25.2847 8.25938 25.2041 8.13876 25.1025 8.03716C25.0009 7.93556 24.8803 7.85497 24.7475 7.8C24.6148 7.74503 24.4725 7.71676 24.3288 7.7168H20.2132C20.0695 7.71676 19.9272 7.74503 19.7945 7.8C19.6617 7.85497 19.5411 7.93555 19.4395 8.03716C19.3379 8.13876 19.2573 8.25938 19.2023 8.39214C19.1474 8.52489 19.1191 8.66718 19.1191 8.81087V12.927C19.1191 13.0707 19.1474 13.213 19.2023 13.3457C19.2573 13.4785 19.3379 13.5991 19.4395 13.7007C19.5411 13.8023 19.6617 13.8829 19.7945 13.9378C19.9272 13.9928 20.0695 14.0211 20.2132 14.021H24.3288C24.4725 14.0211 24.6148 13.9928 24.7475 13.9378C24.8803 13.8829 25.0009 13.8023 25.1025 13.7007C25.2041 13.5991 25.2847 13.4785 25.3397 13.3457C25.3946 13.213 25.4229 13.0707 25.4229 12.927V8.81087ZM23.2347 11.8329H21.3073V9.90494H23.2347V11.8329Z" fill="url(#paint0_linear_884_1940)"/>
<path d="M33.6553 8.81087C33.6553 8.66718 33.6271 8.5249 33.5721 8.39214C33.5171 8.25938 33.4365 8.13876 33.3349 8.03716C33.2333 7.93556 33.1127 7.85497 32.9799 7.8C32.8472 7.74503 32.7049 7.71676 32.5612 7.7168H28.4456C28.3019 7.71676 28.1597 7.74503 28.0269 7.8C27.8941 7.85497 27.7735 7.93556 27.6719 8.03716C27.5703 8.13876 27.4897 8.25938 27.4348 8.39214C27.3798 8.5249 27.3515 8.66718 27.3516 8.81087V12.927C27.3515 13.0707 27.3798 13.213 27.4348 13.3457C27.4897 13.4785 27.5703 13.5991 27.6719 13.7007C27.7735 13.8023 27.8941 13.8829 28.0269 13.9378C28.1597 13.9928 28.3019 14.0211 28.4456 14.021H32.5612C32.7049 14.0211 32.8472 13.9928 32.9799 13.9378C33.1127 13.8829 33.2333 13.8023 33.3349 13.7007C33.4365 13.5991 33.5171 13.4785 33.5721 13.3457C33.6271 13.213 33.6553 13.0707 33.6553 12.927V8.81087ZM31.4671 11.8329H29.5397V9.90494H31.4671V11.8329Z" fill="url(#paint1_linear_884_1940)"/>
<path d="M41.8858 8.81087C41.8858 8.66718 41.8575 8.52489 41.8026 8.39214C41.7476 8.25938 41.667 8.13876 41.5654 8.03716C41.4638 7.93555 41.3432 7.85497 41.2104 7.8C41.0777 7.74503 40.9354 7.71676 40.7917 7.7168H36.6761C36.5324 7.71676 36.3901 7.74503 36.2574 7.8C36.1246 7.85497 36.004 7.93556 35.9024 8.03716C35.8008 8.13876 35.7202 8.25938 35.6652 8.39214C35.6103 8.5249 35.582 8.66718 35.582 8.81087V12.927C35.582 13.0707 35.6103 13.213 35.6652 13.3457C35.7202 13.4785 35.8008 13.5991 35.9024 13.7007C36.004 13.8023 36.1246 13.8829 36.2574 13.9378C36.3901 13.9928 36.5324 14.0211 36.6761 14.021H40.7917C40.9354 14.0211 41.0777 13.9928 41.2104 13.9378C41.3432 13.8829 41.4638 13.8023 41.5654 13.7007C41.667 13.5991 41.7476 13.4785 41.8026 13.3457C41.8575 13.213 41.8858 13.0707 41.8858 12.927V8.81087ZM39.6976 11.8329H37.7702V9.90494H39.6976V11.8329Z" fill="url(#paint2_linear_884_1940)"/>
<path d="M25.4229 17.0433C25.4229 16.8996 25.3946 16.7573 25.3397 16.6246C25.2847 16.4918 25.2041 16.3712 25.1025 16.2696C25.0009 16.168 24.8803 16.0874 24.7475 16.0324C24.6148 15.9775 24.4725 15.9492 24.3288 15.9492H20.2132C20.0695 15.9492 19.9272 15.9775 19.7945 16.0324C19.6617 16.0874 19.5411 16.168 19.4395 16.2696C19.3379 16.3712 19.2573 16.4918 19.2023 16.6246C19.1474 16.7573 19.1191 16.8996 19.1191 17.0433V21.1589C19.1191 21.3026 19.1474 21.4448 19.2023 21.5776C19.2573 21.7104 19.3379 21.831 19.4395 21.9326C19.5411 22.0342 19.6617 22.1148 19.7945 22.1697C19.9272 22.2247 20.0695 22.253 20.2132 22.2529H24.3288C24.4725 22.253 24.6148 22.2247 24.7475 22.1697C24.8803 22.1148 25.0009 22.0342 25.1025 21.9326C25.2041 21.831 25.2847 21.7104 25.3397 21.5776C25.3946 21.4448 25.4229 21.3026 25.4229 21.1589V17.0433ZM23.2347 20.0648H21.3073V18.1374H23.2347V20.0648Z" fill="url(#paint3_linear_884_1940)"/>
<path d="M33.6553 17.0433C33.6553 16.8996 33.6271 16.7573 33.5721 16.6246C33.5171 16.4918 33.4365 16.3712 33.3349 16.2696C33.2333 16.168 33.1127 16.0874 32.9799 16.0324C32.8472 15.9775 32.7049 15.9492 32.5612 15.9492H28.4456C28.3019 15.9492 28.1597 15.9775 28.0269 16.0324C27.8941 16.0874 27.7735 16.168 27.6719 16.2696C27.5703 16.3712 27.4897 16.4918 27.4348 16.6246C27.3798 16.7573 27.3515 16.8996 27.3516 17.0433V21.1589C27.3515 21.3026 27.3798 21.4448 27.4348 21.5776C27.4897 21.7104 27.5703 21.831 27.6719 21.9326C27.7735 22.0342 27.8941 22.1148 28.0269 22.1697C28.1597 22.2247 28.3019 22.253 28.4456 22.2529H32.5612C32.7049 22.253 32.8472 22.2247 32.9799 22.1697C33.1127 22.1148 33.2333 22.0342 33.3349 21.9326C33.4365 21.831 33.5171 21.7104 33.5721 21.5776C33.6271 21.4448 33.6553 21.3026 33.6553 21.1589V17.0433ZM31.4671 20.0648H29.5397V18.1374H31.4671V20.0648Z" fill="url(#paint4_linear_884_1940)"/>
<path d="M40.7917 15.9492H36.6761C36.5324 15.9492 36.3901 15.9775 36.2574 16.0324C36.1246 16.0874 36.004 16.168 35.9024 16.2696C35.8008 16.3712 35.7202 16.4918 35.6652 16.6246C35.6103 16.7573 35.582 16.8996 35.582 17.0433V21.1589C35.582 21.3026 35.6103 21.4448 35.6652 21.5776C35.7202 21.7104 35.8008 21.831 35.9024 21.9326C36.004 22.0342 36.1246 22.1148 36.2574 22.1697C36.3901 22.2247 36.5324 22.253 36.6761 22.2529H40.7917C40.9354 22.253 41.0777 22.2247 41.2104 22.1697C41.3432 22.1148 41.4638 22.0342 41.5654 21.9326C41.667 21.831 41.7476 21.7104 41.8026 21.5776C41.8575 21.4448 41.8858 21.3026 41.8858 21.1589V17.0433C41.8858 16.8996 41.8575 16.7573 41.8026 16.6246C41.7476 16.4918 41.667 16.3712 41.5654 16.2696C41.4638 16.168 41.3432 16.0874 41.2104 16.0324C41.0777 15.9775 40.9354 15.9492 40.7917 15.9492ZM39.6976 20.0648H37.7702V18.1374H39.6976V20.0648Z" fill="url(#paint5_linear_884_1940)"/>
<path d="M25.4229 25.2757C25.4229 25.132 25.3946 24.9897 25.3397 24.857C25.2847 24.7242 25.2041 24.6036 25.1025 24.502C25.0009 24.4004 24.8803 24.3198 24.7475 24.2648C24.6148 24.2099 24.4725 24.1816 24.3288 24.1816H20.2132C20.0695 24.1816 19.9272 24.2099 19.7945 24.2648C19.6617 24.3198 19.5411 24.4004 19.4395 24.502C19.3379 24.6036 19.2573 24.7242 19.2023 24.857C19.1474 24.9897 19.1191 25.132 19.1191 25.2757V29.3918C19.1191 29.5355 19.1474 29.6778 19.2023 29.8106C19.2573 29.9433 19.3379 30.0639 19.4395 30.1655C19.5411 30.2671 19.6617 30.3477 19.7945 30.4027C19.9272 30.4577 20.0695 30.4859 20.2132 30.4859H24.3288C24.4725 30.4859 24.6148 30.4577 24.7475 30.4027C24.8803 30.3477 25.0009 30.2671 25.1025 30.1655C25.2041 30.0639 25.2847 29.9433 25.3397 29.8105C25.3946 29.6778 25.4229 29.5355 25.4229 29.3918V25.2757ZM23.2347 28.2978H21.3073V26.3698H23.2347V28.2978Z" fill="url(#paint6_linear_884_1940)"/>
<path d="M33.6553 25.2757C33.6553 25.132 33.6271 24.9897 33.5721 24.857C33.5171 24.7242 33.4365 24.6036 33.3349 24.502C33.2333 24.4004 33.1127 24.3198 32.9799 24.2648C32.8472 24.2099 32.7049 24.1816 32.5612 24.1816H28.4456C28.3019 24.1816 28.1597 24.2099 28.0269 24.2648C27.8941 24.3198 27.7735 24.4004 27.6719 24.502C27.5703 24.6036 27.4897 24.7242 27.4348 24.857C27.3798 24.9897 27.3515 25.132 27.3516 25.2757V29.3918C27.3515 29.5355 27.3798 29.6778 27.4348 29.8105C27.4897 29.9433 27.5703 30.0639 27.6719 30.1655C27.7735 30.2671 27.8941 30.3477 28.0269 30.4027C28.1597 30.4577 28.3019 30.4859 28.4456 30.4859H32.5612C32.7049 30.4859 32.8472 30.4577 32.9799 30.4027C33.1127 30.3477 33.2333 30.2671 33.3349 30.1655C33.4365 30.0639 33.5171 29.9433 33.5721 29.8105C33.6271 29.6778 33.6553 29.5355 33.6553 29.3918V25.2757ZM31.4671 28.2978H29.5397V26.3698H31.4671V28.2978Z" fill="url(#paint7_linear_884_1940)"/>
<path d="M24.3288 32.4707H20.2132C20.0695 32.4707 19.9272 32.4989 19.7945 32.5539C19.6617 32.6089 19.5411 32.6895 19.4395 32.7911C19.3379 32.8927 19.2573 33.0133 19.2023 33.146C19.1474 33.2788 19.1191 33.4211 19.1191 33.5648V37.6804C19.1191 37.824 19.1474 37.9663 19.2023 38.0991C19.2573 38.2318 19.3379 38.3525 19.4395 38.4541C19.5411 38.5557 19.6617 38.6363 19.7945 38.6912C19.9272 38.7462 20.0695 38.7745 20.2132 38.7744H24.3288C24.4725 38.7745 24.6148 38.7462 24.7475 38.6912C24.8803 38.6363 25.0009 38.5557 25.1025 38.4541C25.2041 38.3525 25.2847 38.2318 25.3397 38.0991C25.3946 37.9663 25.4229 37.824 25.4229 37.6804V33.5648C25.4229 33.4211 25.3946 33.2788 25.3397 33.146C25.2847 33.0133 25.2041 32.8927 25.1025 32.7911C25.0009 32.6895 24.8803 32.6089 24.7475 32.5539C24.6148 32.4989 24.4725 32.4707 24.3288 32.4707ZM23.2347 36.5863H21.3073V34.6588H23.2347V36.5863Z" fill="url(#paint8_linear_884_1940)"/>
<path d="M32.5612 32.4707H28.4456C28.3019 32.4707 28.1597 32.4989 28.0269 32.5539C27.8941 32.6089 27.7735 32.6895 27.6719 32.7911C27.5703 32.8927 27.4897 33.0133 27.4348 33.146C27.3798 33.2788 27.3515 33.4211 27.3516 33.5648V37.6804C27.3515 37.824 27.3798 37.9663 27.4348 38.0991C27.4897 38.2318 27.5703 38.3525 27.6719 38.4541C27.7735 38.5557 27.8941 38.6363 28.0269 38.6912C28.1597 38.7462 28.3019 38.7745 28.4456 38.7744H32.5612C32.7049 38.7745 32.8472 38.7462 32.9799 38.6912C33.1127 38.6363 33.2333 38.5557 33.3349 38.4541C33.4365 38.3525 33.5171 38.2318 33.5721 38.0991C33.6271 37.9663 33.6553 37.824 33.6553 37.6804V33.5648C33.6553 33.4211 33.6271 33.2788 33.5721 33.146C33.5171 33.0133 33.4365 32.8927 33.3349 32.7911C33.2333 32.6895 33.1127 32.6089 32.9799 32.5539C32.8472 32.4989 32.7049 32.4707 32.5612 32.4707ZM31.4671 36.5863H29.5397V34.6588H31.4671V36.5863Z" fill="url(#paint9_linear_884_1940)"/>
<path d="M61 32.0416V29.6457C60.9992 29.0257 60.7525 28.4314 60.3141 27.993C59.8756 27.5547 59.2812 27.3081 58.6612 27.3074H54.2347V14.0061C54.7914 13.9697 55.3135 13.7233 55.6955 13.3167C56.0775 12.9101 56.2909 12.3737 56.2925 11.8158V9.92195C56.2918 9.33729 56.0593 8.77678 55.6458 8.36337C55.2324 7.94996 54.6719 7.71741 54.0873 7.71672H44.9084C44.7647 7.71668 44.6224 7.74496 44.4897 7.79992C44.3569 7.85489 44.2363 7.93548 44.1347 8.03708C44.0331 8.13868 43.9525 8.25931 43.8975 8.39206C43.8426 8.52482 43.8143 8.6671 43.8143 8.81079V27.3074H41.8869V25.2748C41.8869 25.1311 41.8587 24.9888 41.8037 24.856C41.7487 24.7233 41.6681 24.6027 41.5665 24.5011C41.4649 24.3995 41.3443 24.3189 41.2115 24.2639C41.0788 24.2089 40.9365 24.1807 40.7928 24.1807H36.6772C36.5335 24.1807 36.3913 24.2089 36.2585 24.2639C36.1257 24.3189 36.0051 24.3995 35.9035 24.5011C35.8019 24.6027 35.7213 24.7233 35.6664 24.856C35.6114 24.9888 35.5831 25.1311 35.5832 25.2748V29.3909C35.5831 29.5346 35.6114 29.6768 35.6664 29.8096C35.7213 29.9424 35.8019 30.063 35.9035 30.1646C36.0051 30.2662 36.1257 30.3468 36.2585 30.4017C36.3913 30.4567 36.5335 30.485 36.6772 30.4849H39.3073L39.3066 32.0416C39.3078 32.1859 39.3224 32.3296 39.3501 32.4712H36.6772C36.5335 32.4711 36.3913 32.4994 36.2585 32.5544C36.1257 32.6093 36.0051 32.6899 35.9035 32.7915C35.8019 32.8931 35.7213 33.0137 35.6664 33.1465C35.6114 33.2793 35.5831 33.4215 35.5832 33.5652V37.6808C35.5831 37.8245 35.6114 37.9668 35.6664 38.0995C35.7213 38.2323 35.8019 38.3529 35.9035 38.4545C36.0051 38.5561 36.1257 38.6367 36.2585 38.6917C36.3913 38.7466 36.5335 38.7749 36.6772 38.7749H40.7928C41.0024 38.7696 41.2057 38.7025 41.3772 38.5821V40.7514L17.1912 40.0385V6.30429H45.8561C46.4406 6.30367 47.0009 6.07118 47.4142 5.65783C47.8274 5.24449 48.0598 4.68407 48.0603 4.09958V2.20526C48.0598 1.62072 47.8275 1.06022 47.4143 0.646786C47.001 0.233347 46.4406 0.000735877 45.8561 0H15.1495C14.5649 0.000735868 14.0046 0.233343 13.5913 0.646778C13.1781 1.06021 12.9458 1.6207 12.9453 2.20524V4.09958C12.9468 4.65747 13.1601 5.19398 13.5421 5.60054C13.9242 6.00711 14.4464 6.25336 15.0031 6.28946V7.71675H6.91831C6.33366 7.71744 5.77315 7.94999 5.35973 8.36341C4.94632 8.77682 4.71376 9.33733 4.71307 9.92198V11.8158C4.71472 12.3737 4.92811 12.9101 5.31009 13.3167C5.69208 13.7233 6.21418 13.9697 6.77086 14.0061V39.7313L4.60623 39.6676C4.00032 39.6668 3.40021 39.7857 2.84038 40.0175C2.28056 40.2493 1.77204 40.5894 1.34403 41.0182C0.916019 41.4471 0.576955 41.9563 0.346311 42.5167C0.115667 43.077 -0.00201448 43.6773 2.60893e-05 44.2832C0.00206666 44.8891 0.123789 45.4887 0.358202 46.0474C0.592615 46.6061 0.9351 47.1131 1.36599 47.5391C1.79687 47.965 2.30768 48.3017 2.86905 48.5297C3.43043 48.7578 4.03132 48.8726 4.63722 48.8677L41.3773 47.785V53.4036C40.8088 53.4682 40.2838 53.7393 39.9021 54.1654C39.5203 54.5916 39.3085 55.1432 39.3067 55.7153V58.1107C39.3075 58.7307 39.5542 59.3251 39.9926 59.7634C40.431 60.2018 41.0255 60.4483 41.6454 60.449L58.6612 60.4496C59.2813 60.4489 59.8757 60.2022 60.3142 59.7638C60.7527 59.3253 60.9993 58.7309 61 58.1108V55.7153C60.9985 55.1133 60.7647 54.535 60.3473 54.1012C59.9298 53.6673 59.3611 53.4113 58.7595 53.3865V34.37C59.361 34.3452 59.9297 34.0893 60.3471 33.6555C60.7645 33.2218 60.9984 32.6436 61 32.0416ZM58.8119 29.6457V32.0416C58.8118 32.0614 58.8079 32.0809 58.8003 32.0992C58.7927 32.1174 58.7816 32.134 58.7676 32.1479C58.7536 32.1618 58.737 32.1729 58.7188 32.1804C58.7005 32.1879 58.681 32.1918 58.6612 32.1918H41.6454C41.6056 32.1919 41.5674 32.1762 41.5392 32.1481C41.5109 32.1201 41.495 32.082 41.4948 32.0422L41.4959 29.6457C41.4959 29.606 41.5116 29.5679 41.5397 29.5397C41.5677 29.5116 41.6057 29.4957 41.6455 29.4956H58.6612C58.681 29.4955 58.7005 29.4994 58.7188 29.5069C58.737 29.5144 58.7536 29.5255 58.7676 29.5394C58.7816 29.5534 58.7927 29.5699 58.8003 29.5882C58.8079 29.6064 58.8118 29.6259 58.8119 29.6457ZM56.5714 53.3765H43.5654V34.3799H56.5714V53.3765ZM46.0025 9.90703L54.1044 9.92198V11.8158C54.1045 11.8181 54.1041 11.8203 54.1032 11.8224C54.1024 11.8246 54.1011 11.8265 54.0995 11.8281C54.0979 11.8297 54.096 11.8309 54.0939 11.8318C54.0918 11.8326 54.0895 11.833 54.0873 11.8329H46.0025V9.90703ZM46.0025 14.021H52.0466V27.3074H46.0025V14.021ZM37.7713 26.3688H39.6987V28.2968H37.7713V26.3688ZM39.6987 36.5867H37.7713V34.6593H39.6987V36.5867ZM15.1495 2.18814L45.8721 2.20524V4.09958C45.8721 4.10388 45.8705 4.10802 45.8675 4.11111C45.8645 4.11421 45.8604 4.11601 45.8561 4.11614L15.1335 4.09958L15.1495 2.18814ZM6.91831 9.90487H15.0031V11.8307L6.9012 11.8158L6.91831 9.90487ZM8.959 14.021H15.0031V39.974L8.95899 39.7959L8.959 14.021ZM4.60623 46.6802C3.96922 46.6801 3.3581 46.428 2.90621 45.979C2.45432 45.5301 2.19833 44.9206 2.1941 44.2836C2.18987 43.6466 2.43773 43.0338 2.88362 42.5788C3.3295 42.1239 3.93722 41.8637 4.57418 41.8552L41.3772 42.9403V45.5961L4.60623 46.6802ZM58.8119 55.7153V58.1108C58.8118 58.1507 58.7959 58.189 58.7677 58.2172C58.7394 58.2455 58.7011 58.2614 58.6612 58.2614L41.6454 58.2609C41.6257 58.2609 41.6061 58.2571 41.5879 58.2495C41.5696 58.242 41.553 58.231 41.539 58.217C41.525 58.2031 41.5139 58.1865 41.5063 58.1683C41.4987 58.1501 41.4948 58.1305 41.4948 58.1108V55.7153C41.4948 55.6754 41.5107 55.6371 41.539 55.6089C41.5672 55.5806 41.6055 55.5647 41.6454 55.5647H58.6612C58.7011 55.5647 58.7394 55.5806 58.7677 55.6089C58.7959 55.6371 58.8118 55.6754 58.8119 55.7153Z" fill="url(#paint10_linear_884_1940)"/>
<defs>
<linearGradient id="paint0_linear_884_1940" x1="18.6342" y1="-18.3" x2="31.9022" y2="-14.9076" gradientUnits="userSpaceOnUse">
<stop offset="0.0580958" stop-color="#E6D1BE"/>
<stop offset="0.929784" stop-color="#896954"/>
</linearGradient>
<linearGradient id="paint1_linear_884_1940" x1="26.8667" y1="-18.3" x2="40.1346" y2="-14.9076" gradientUnits="userSpaceOnUse">
<stop offset="0.0580958" stop-color="#E6D1BE"/>
<stop offset="0.929784" stop-color="#896954"/>
</linearGradient>
<linearGradient id="paint2_linear_884_1940" x1="35.0971" y1="-18.3" x2="48.3651" y2="-14.9076" gradientUnits="userSpaceOnUse">
<stop offset="0.0580958" stop-color="#E6D1BE"/>
<stop offset="0.929784" stop-color="#896954"/>
</linearGradient>
<linearGradient id="paint3_linear_884_1940" x1="18.6342" y1="-10.0654" x2="31.902" y2="-6.67275" gradientUnits="userSpaceOnUse">
<stop offset="0.0580958" stop-color="#E6D1BE"/>
<stop offset="0.929784" stop-color="#896954"/>
</linearGradient>
<linearGradient id="paint4_linear_884_1940" x1="26.8667" y1="-10.0654" x2="40.1345" y2="-6.67275" gradientUnits="userSpaceOnUse">
<stop offset="0.0580958" stop-color="#E6D1BE"/>
<stop offset="0.929784" stop-color="#896954"/>
</linearGradient>
<linearGradient id="paint5_linear_884_1940" x1="35.0971" y1="-10.0654" x2="48.3649" y2="-6.67275" gradientUnits="userSpaceOnUse">
<stop offset="0.0580958" stop-color="#E6D1BE"/>
<stop offset="0.929784" stop-color="#896954"/>
</linearGradient>
<linearGradient id="paint6_linear_884_1940" x1="18.6342" y1="-1.83516" x2="31.9022" y2="1.55726" gradientUnits="userSpaceOnUse">
<stop offset="0.0580958" stop-color="#E6D1BE"/>
<stop offset="0.929784" stop-color="#896954"/>
</linearGradient>
<linearGradient id="paint7_linear_884_1940" x1="26.8667" y1="-1.83516" x2="40.1346" y2="1.55726" gradientUnits="userSpaceOnUse">
<stop offset="0.0580958" stop-color="#E6D1BE"/>
<stop offset="0.929784" stop-color="#896954"/>
</linearGradient>
<linearGradient id="paint8_linear_884_1940" x1="18.6342" y1="6.45606" x2="31.902" y2="9.84872" gradientUnits="userSpaceOnUse">
<stop offset="0.0580958" stop-color="#E6D1BE"/>
<stop offset="0.929784" stop-color="#896954"/>
</linearGradient>
<linearGradient id="paint9_linear_884_1940" x1="26.8667" y1="6.45606" x2="40.1345" y2="9.84872" gradientUnits="userSpaceOnUse">
<stop offset="0.0580958" stop-color="#E6D1BE"/>
<stop offset="0.929784" stop-color="#896954"/>
</linearGradient>
<linearGradient id="paint10_linear_884_1940" x1="-4.6923" y1="-249.467" x2="123.554" y2="-216.375" gradientUnits="userSpaceOnUse">
<stop offset="0.0580958" stop-color="#E6D1BE"/>
<stop offset="0.929784" stop-color="#896954"/>
</linearGradient>
</defs>
</svg>
