<svg width="67" height="67" viewBox="0 0 67 67" fill="none" xmlns="http://www.w3.org/2000/svg">
<path d="M66.9639 54.9707L63.8473 39.4199C63.647 38.423 62.6672 37.7731 61.6651 37.9715L57.655 38.7656C56.6916 38.9566 56.0521 39.8625 56.1809 40.8173C53.9249 41.4989 51.2037 41.5818 47.8458 38.8285C47.2033 38.3016 46.4893 37.9589 45.7604 37.7998V3.18403C45.7604 1.42845 44.3235 0 42.5574 0H13.0717C12.2036 0 11.4204 0.322696 10.8069 0.93256L0.93811 10.7429C0.324616 11.3528 0 12.1314 0 12.9944V58.695C0 60.4506 1.43695 61.8791 3.20297 61.8791H33.7787L37.951 66.0267C38.604 66.6758 39.4609 67 40.3186 67C41.1763 67 42.0333 66.6758 42.6862 66.0267C42.99 65.7248 43.2275 65.3754 43.3928 64.9935L44.3108 65.9061C45.6167 67.2035 47.7409 67.2035 49.0468 65.9061C49.3691 65.5856 49.6119 65.2163 49.7749 64.8211C50.3311 65.2067 50.9922 65.4139 51.6876 65.4139C52.584 65.4139 53.4246 65.0683 54.0552 64.4414C54.6814 63.8189 55.0075 63.0085 55.0328 62.1907C55.8898 62.1647 56.6894 61.8221 57.2954 61.2196C58.1271 60.3936 58.4442 59.1828 58.1762 58.0726L59.4218 56.8344C59.561 57.1674 59.7956 57.4531 60.1053 57.6581C60.4143 57.8631 60.7694 57.9697 61.1327 57.9697C61.2541 57.9697 61.3762 57.9579 61.4976 57.9334L65.5076 57.1393C66.5105 56.9409 67.1642 55.9677 66.9639 54.9707ZM56.5904 42.8896L58.8947 54.386L56.9589 56.3096L47.787 47.0602C47.7736 47.0469 47.7602 47.0336 47.7461 47.021C45.7373 45.201 43.8797 44.4187 42.649 44.8746C42.0102 45.1115 41.5955 45.6488 41.5121 46.349C41.5114 46.3571 41.5099 46.366 41.5091 46.3741C41.4905 46.5747 41.4726 46.7746 41.4548 46.9736C41.215 49.6855 40.9686 51.2952 38.9263 52.1523L37.543 45.8524C37.4395 45.3809 37.7366 45.0175 38.0039 44.7947L43.3816 40.3317C44.2795 39.5864 45.5035 39.6331 46.4997 40.4494C50.5254 43.7504 53.9279 43.6549 56.5904 42.8896ZM11.1255 3.58814V10.1841C11.1255 10.6667 10.7309 11.059 10.2455 11.059H3.60949L11.1255 3.58814ZM3.20297 59.7764C2.60288 59.7764 2.11447 59.2908 2.11447 58.6943V13.1617H10.2448C11.8961 13.1617 13.2393 11.8265 13.2393 10.1849V2.10196H42.5574C43.1575 2.10196 43.6459 2.58748 43.6459 3.18403V37.8597C43.0711 38.0233 42.5209 38.3082 42.0273 38.7183L40.5025 39.9839H32.0662C31.86 39.3807 31.3455 38.8989 30.6732 38.7656L26.6632 37.9715C25.6603 37.7731 24.6812 38.423 24.4809 39.4199L24.0417 41.6122H6.74322C6.15951 41.6122 5.68599 42.0829 5.68599 42.6631C5.68599 43.2434 6.15951 43.7141 6.74322 43.7141H23.6203L21.7135 53.2277C21.243 53.5289 20.832 53.674 20.4411 53.674C19.6906 53.674 19.4568 53.3032 19.0533 51.4684C18.7116 49.9142 18.1941 47.5657 15.5391 47.5657C13.5966 47.5657 12.5766 48.5797 11.6772 49.4745C10.6103 50.5359 9.60297 51.538 6.74248 51.538C6.15876 51.538 5.68524 52.0087 5.68524 52.589C5.68524 53.1692 6.15876 53.64 6.74248 53.64C10.4785 53.64 12.0354 52.0909 13.1723 50.96C14.0501 50.0866 14.5176 49.667 15.5384 49.667C16.3313 49.667 16.5755 50.0452 16.9872 51.917C17.3252 53.4535 17.8367 55.7752 20.4404 55.7752C20.7501 55.7752 21.0554 55.7382 21.3599 55.6642C21.4939 56.3844 22.0553 56.9876 22.8206 57.1393L26.8314 57.9334C26.9535 57.9579 27.0749 57.969 27.194 57.969C27.8894 57.969 28.526 57.5774 28.8417 56.9698L31.6642 59.7756L3.20297 59.7764ZM26.9908 55.8226L23.4885 55.1291L26.5038 40.0831L30.0061 40.7766L26.9908 55.8226ZM55.8004 59.7334C55.5689 59.9636 55.2591 60.0902 54.9278 60.0902C54.5965 60.0902 54.2868 59.9636 54.056 59.7342L47.2331 52.9516C46.8199 52.5416 46.1513 52.5409 45.7381 52.9516C45.3256 53.3617 45.3256 54.0278 45.7381 54.4378L52.5602 61.2196L52.561 61.2203C53.0419 61.6985 53.0419 62.4771 52.561 62.9552C52.3294 63.1854 52.0197 63.3119 51.6884 63.3119C51.357 63.3119 51.0473 63.1854 50.8158 62.9552L43.6065 55.7886C43.194 55.3785 42.5247 55.3778 42.1115 55.7886C41.699 56.1986 41.699 56.8647 42.1115 57.2747L47.5525 62.6843C48.0335 63.1624 48.0342 63.9411 47.5525 64.4192C47.0715 64.8973 46.2883 64.8973 45.8073 64.4192L39.9791 58.6255C39.5659 58.2147 38.8966 58.2154 38.4841 58.6255C38.0709 59.0362 38.0709 59.7016 38.4841 60.1116L41.1927 62.8042C41.4235 63.0344 41.5516 63.3423 41.5516 63.6716C41.5516 64.001 41.4242 64.3089 41.1927 64.5391C40.7117 65.0172 39.9285 65.0172 39.4475 64.5391L29.4008 54.5533L31.8995 42.0851H37.9704L36.6503 43.1805C35.6526 44.0087 35.2253 45.1455 35.4784 46.2994L37.1097 53.7303C37.1707 54.0071 37.3412 54.2484 37.5832 54.3979C37.8252 54.5481 38.1185 54.594 38.3955 54.5266C43.0101 53.3965 43.3034 50.0814 43.5618 47.1572C43.57 47.0602 43.5789 46.964 43.5879 46.8671C44.0055 46.9514 44.9377 47.3245 46.3017 48.5553L56.0714 58.4086C56.2509 58.8601 56.1481 59.3878 55.8004 59.7334ZM61.3375 55.8226L58.3221 40.7766L61.8244 40.0831L64.8398 55.1291L61.3375 55.8226ZM5.68599 28.7969C5.68599 28.2166 6.15951 27.7459 6.74322 27.7459H11.0377C11.6214 27.7459 12.0949 28.2166 12.0949 28.7969C12.0949 29.3771 11.6214 29.8478 11.0377 29.8478H6.74322C6.15877 29.8478 5.68599 29.3779 5.68599 28.7969ZM5.68599 35.7304C5.68599 35.1501 6.15951 34.6794 6.74322 34.6794H34.6758C35.2595 34.6794 35.733 35.1501 35.733 35.7304C35.733 36.3106 35.2595 36.7814 34.6758 36.7814H6.74322C6.15877 36.7814 5.68599 36.3106 5.68599 35.7304ZM5.68599 21.8641C5.68599 21.2838 6.15951 20.8131 6.74322 20.8131H11.0377C11.6214 20.8131 12.0949 21.2838 12.0949 21.8641C12.0949 22.4444 11.6214 22.9151 11.0377 22.9151H6.74322C6.15877 22.9151 5.68599 22.4451 5.68599 21.8641ZM13.5296 18.7015C13.6651 18.723 13.8014 18.7334 13.9361 18.7334C14.47 18.7334 14.9889 18.5668 15.4297 18.2486L15.4736 18.2167V29.6969C15.4736 30.9469 16.4966 31.9631 17.7534 31.9631H35.6229C36.8804 31.9631 37.9026 30.9462 37.9026 29.6969V18.2167L37.9465 18.2486C38.4982 18.6468 39.1728 18.8074 39.8466 18.7008C40.5211 18.5942 41.113 18.233 41.5128 17.6839C42.337 16.5522 42.0824 14.9639 40.9455 14.1416L28.1872 4.92703C27.2893 4.27867 26.0489 4.28534 25.1667 4.94257L12.4307 14.1416C11.2931 14.9631 11.0384 16.5522 11.8634 17.6839C12.2632 18.2338 12.8551 18.595 13.5296 18.7015ZM29.6673 29.8619H23.7089V22.2371C23.7089 21.8671 24.0231 21.5547 24.3953 21.5547H28.9809C29.3532 21.5547 29.6673 21.8671 29.6673 22.2371V29.8619ZM35.7889 29.6969C35.7889 29.7864 35.7129 29.8612 35.6236 29.8612H31.7826V22.2371C31.7826 20.7021 30.5258 19.4528 28.9816 19.4528H24.3961C22.8519 19.4528 21.5951 20.7021 21.5951 22.2371V29.8619H17.7534C17.664 29.8619 17.5881 29.7864 17.5881 29.6976V16.6899L26.6885 10.1175L35.7889 16.6899V29.6969ZM13.6733 15.8424L26.4175 6.6382C26.4234 6.63376 26.4286 6.63006 26.4346 6.62562C26.5061 6.57159 26.5947 6.54494 26.6848 6.54494C26.7763 6.54494 26.8687 6.57233 26.9453 6.62784L39.7036 15.8424C39.8994 15.9838 39.9434 16.2569 39.8019 16.4508C39.7096 16.5781 39.583 16.6151 39.516 16.6255C39.449 16.6358 39.318 16.6403 39.1907 16.5485L27.3094 7.96747C26.9394 7.69954 26.4368 7.69954 26.0668 7.96747L14.1863 16.5485C14.059 16.6403 13.928 16.6358 13.8609 16.6255C13.7939 16.6151 13.6674 16.5781 13.575 16.4508C13.4336 16.2569 13.4775 15.9838 13.6733 15.8424Z" fill="url(#paint0_linear_884_2000)"/>
<defs>
<linearGradient id="paint0_linear_884_2000" x1="-5.15384" y1="-276.5" x2="135.865" y2="-240.441" gradientUnits="userSpaceOnUse">
<stop offset="0.0580958" stop-color="#E6D1BE"/>
<stop offset="0.929784" stop-color="#896954"/>
</linearGradient>
</defs>
</svg>
