<svg width="57" height="57" viewBox="0 0 57 57" fill="none" xmlns="http://www.w3.org/2000/svg">
<path d="M28.313 43.1768C27.2185 43.1768 26.1486 42.8522 25.2386 42.2442C24.3286 41.6361 23.6194 40.7719 23.2005 39.7607C22.7817 38.7496 22.6721 37.6369 22.8856 36.5635C23.0991 35.4901 23.6262 34.504 24.4001 33.7301C25.174 32.9563 26.16 32.4292 27.2334 32.2157C28.3069 32.0022 29.4195 32.1118 30.4307 32.5306C31.4418 32.9494 32.306 33.6587 32.9141 34.5687C33.5221 35.4787 33.8467 36.5486 33.8467 37.6431C33.845 39.1102 33.2615 40.5167 32.224 41.5541C31.1866 42.5915 29.7801 43.1751 28.313 43.1768ZM28.313 34.1094C27.6141 34.1094 26.9309 34.3166 26.3498 34.7049C25.7687 35.0932 25.3157 35.6451 25.0483 36.2908C24.7808 36.9365 24.7109 37.647 24.8472 38.3324C24.9835 39.0179 25.3201 39.6476 25.8143 40.1418C26.3085 40.636 26.9381 40.9725 27.6236 41.1089C28.3091 41.2452 29.0196 41.1752 29.6653 40.9078C30.311 40.6403 30.8628 40.1874 31.2511 39.6063C31.6394 39.0252 31.8467 38.342 31.8467 37.6431C31.8455 36.7062 31.4729 35.8081 30.8104 35.1456C30.148 34.4832 29.2498 34.1105 28.313 34.1094Z" fill="url(#paint0_linear_884_1913)"/>
<path d="M35.733 56.0322H20.8951C20.6299 56.0322 20.3755 55.9268 20.188 55.7393C20.0005 55.5518 19.8951 55.2974 19.8951 55.0322V48.5283C19.8787 47.6015 20.2305 46.7059 20.8733 46.0379C21.5161 45.37 22.3975 44.9841 23.3243 44.9648H33.3038C34.2306 44.9841 35.112 45.37 35.7548 46.0379C36.3976 46.7059 36.7493 47.6015 36.733 48.5283V55.0322C36.733 55.2974 36.6276 55.5518 36.4401 55.7393C36.2526 55.9268 35.9982 56.0322 35.733 56.0322ZM21.8951 54.0322H34.733V48.5283C34.7496 48.1318 34.6086 47.7448 34.3408 47.4519C34.0731 47.1589 33.7003 46.9838 33.3038 46.9648H23.3243C22.9279 46.9838 22.5551 47.1589 22.2873 47.4519C22.0195 47.7448 21.8785 48.1318 21.8951 48.5283V54.0322Z" fill="url(#paint1_linear_884_1913)"/>
<path d="M48.2075 43.1748C47.1131 43.1748 46.0432 42.8503 45.1332 42.2422C44.2232 41.6342 43.5139 40.7699 43.0951 39.7588C42.6762 38.7476 42.5666 37.635 42.7802 36.5615C42.9937 35.4881 43.5207 34.5021 44.2946 33.7282C45.0685 32.9543 46.0545 32.4273 47.128 32.2138C48.2014 32.0002 49.314 32.1098 50.3252 32.5287C51.3363 32.9475 52.2006 33.6568 52.8086 34.5668C53.4167 35.4768 53.7412 36.5467 53.7412 37.6411C53.7396 39.1082 53.156 40.5148 52.1186 41.5522C51.0812 42.5896 49.6746 43.1732 48.2075 43.1748ZM48.2075 34.1074C47.5086 34.1074 46.8254 34.3147 46.2443 34.703C45.6632 35.0913 45.2103 35.6431 44.9428 36.2888C44.6754 36.9345 44.6054 37.645 44.7417 38.3305C44.8781 39.016 45.2146 39.6456 45.7088 40.1398C46.203 40.634 46.8327 40.9706 47.5181 41.1069C48.2036 41.2433 48.9141 41.1733 49.5598 40.9058C50.2055 40.6384 50.7574 40.1854 51.1457 39.6043C51.534 39.0232 51.7412 38.34 51.7412 37.6411C51.7402 36.7042 51.3676 35.806 50.7051 35.1436C50.0426 34.4811 49.1444 34.1085 48.2075 34.1074Z" fill="url(#paint2_linear_884_1913)"/>
<path d="M55.6251 56.0322H40.7877C40.5224 56.0322 40.2681 55.9269 40.0806 55.7393C39.893 55.5518 39.7877 55.2974 39.7877 55.0322V48.5283C39.7712 47.6015 40.1228 46.706 40.7656 46.038C41.4083 45.37 42.2896 44.9841 43.2164 44.9648H53.1964C54.1231 44.9841 55.0045 45.37 55.6472 46.038C56.2899 46.706 56.6416 47.6015 56.6251 48.5283V55.0322C56.6251 55.1635 56.5992 55.2936 56.549 55.4149C56.4987 55.5362 56.425 55.6465 56.3322 55.7393C56.2393 55.8322 56.1291 55.9059 56.0078 55.9561C55.8864 56.0064 55.7564 56.0322 55.6251 56.0322ZM41.7877 54.0322H54.6251V48.5283C54.6417 48.1319 54.5007 47.7449 54.2331 47.452C53.9654 47.1591 53.5927 46.9839 53.1964 46.9648H43.2164C42.82 46.9839 42.4473 47.1591 42.1796 47.452C41.912 47.7449 41.771 48.1319 41.7876 48.5283L41.7877 54.0322Z" fill="url(#paint3_linear_884_1913)"/>
<path d="M8.41895 43.1768C7.32447 43.1769 6.25454 42.8524 5.34446 42.2444C4.43439 41.6364 3.72504 40.7722 3.30614 39.7611C2.88723 38.7499 2.77757 37.6373 2.99104 36.5638C3.2045 35.4903 3.73149 34.5043 4.50537 33.7303C5.27926 32.9564 6.26526 32.4293 7.33871 32.2157C8.41215 32.0022 9.52482 32.1117 10.536 32.5306C11.5472 32.9494 12.4114 33.6586 13.0195 34.5687C13.6276 35.4787 13.9521 36.5486 13.9521 37.6431C13.9505 39.1101 13.367 40.5166 12.3297 41.554C11.2924 42.5914 9.88598 43.175 8.41895 43.1768ZM8.41895 34.1094C7.72003 34.1093 7.03678 34.3164 6.4556 34.7047C5.87442 35.0929 5.42143 35.6448 5.15389 36.2904C4.88636 36.9361 4.81631 37.6467 4.95261 38.3322C5.0889 39.0177 5.42541 39.6473 5.91959 40.1416C6.41376 40.6358 7.04341 40.9724 7.72889 41.1088C8.41437 41.2452 9.1249 41.1753 9.77063 40.9078C10.4164 40.6404 10.9683 40.1875 11.3566 39.6063C11.7449 39.0252 11.9521 38.342 11.9521 37.6431C11.951 36.7063 11.5784 35.8082 10.9161 35.1458C10.2537 34.4834 9.35571 34.1106 8.41895 34.1094Z" fill="url(#paint4_linear_884_1913)"/>
<path d="M15.838 56.0322H1.00055C0.735337 56.0322 0.480983 55.9269 0.293447 55.7393C0.105911 55.5518 0.000553744 55.2974 0.000553744 55.0322V48.5283C-0.0159198 47.6015 0.33574 46.706 0.978453 46.038C1.62117 45.37 2.5025 44.9841 3.42926 44.9648H13.4093C14.336 44.9841 15.2174 45.37 15.8601 46.038C16.5028 46.706 16.8544 47.6015 16.838 48.5283V55.0322C16.838 55.1635 16.8121 55.2936 16.7619 55.4149C16.7116 55.5362 16.6379 55.6465 16.5451 55.7393C16.4522 55.8322 16.342 55.9059 16.2206 55.9561C16.0993 56.0064 15.9693 56.0322 15.838 56.0322ZM2.00055 54.0322H14.838V48.5283C14.8546 48.1319 14.7136 47.7449 14.446 47.452C14.1783 47.1591 13.8056 46.9839 13.4092 46.9648H3.42924C3.0329 46.984 2.66021 47.1591 2.39254 47.452C2.12487 47.7449 1.98395 48.1319 2.00055 48.5283V54.0322Z" fill="url(#paint5_linear_884_1913)"/>
<path d="M44.568 14.9788L40.5078 7.81311C41.06 7.62193 41.5859 7.36204 42.0732 7.03955C42.295 6.89386 42.4497 6.66607 42.5035 6.40628C42.5572 6.14649 42.5056 5.87599 42.3599 5.65429C42.2142 5.43258 41.9864 5.27783 41.7266 5.22408C41.4668 5.17033 41.1963 5.22198 40.9746 5.36767C40.4044 5.7636 39.7465 6.01477 39.0575 6.09948C39.0204 6.09231 38.983 6.0873 38.9453 6.08448C38.8554 6.08462 38.7659 6.09689 38.6792 6.12098C38.6669 6.12067 38.6544 6.12354 38.6421 6.12305C37.314 6.08497 36.2788 5.1836 35.1826 4.22905C33.9614 3.16557 32.5669 1.95952 30.6865 2.10454C30.2466 2.14568 29.8157 2.2554 29.4097 2.42973V1C29.4097 0.734784 29.3043 0.480429 29.1168 0.292893C28.9292 0.105357 28.6749 0 28.4097 0C28.1445 0 27.8901 0.105357 27.7026 0.292893C27.515 0.480429 27.4097 0.734784 27.4097 1V2.50378C26.9482 2.28403 26.4511 2.14879 25.9419 2.10449C24.0396 1.95749 22.666 3.16549 21.4453 4.229C20.3491 5.18359 19.314 6.085 17.9858 6.123C17.1485 6.12136 16.3327 5.85717 15.6533 5.36763C15.5436 5.29549 15.4206 5.24568 15.2916 5.22105C15.1626 5.19641 15.03 5.19743 14.9013 5.22404C14.7727 5.25066 14.6506 5.30235 14.5419 5.37616C14.4333 5.44998 14.3402 5.54447 14.2681 5.65425C14.1224 5.87595 14.0707 6.14645 14.1245 6.40624C14.1782 6.66603 14.333 6.89382 14.5547 7.03951C15.042 7.36202 15.5679 7.62197 16.1201 7.81325L12.06 14.9788C11.8167 15.003 11.5911 15.1163 11.4264 15.2969C11.2617 15.4775 11.1696 15.7126 11.168 15.957C11.2239 17.6312 11.9408 19.215 13.1618 20.3618C14.3827 21.5086 16.0082 22.125 17.6826 22.0762C19.357 22.1251 20.9826 21.5087 22.2037 20.3619C23.4247 19.215 24.1417 17.6312 24.1978 15.957C24.1961 15.7126 24.1041 15.4775 23.9394 15.2968C23.7747 15.1162 23.549 15.003 23.3058 14.9788L19.3046 7.91811C20.6031 7.45582 21.7827 6.71096 22.7583 5.73732C23.8174 4.81496 24.7344 4.03132 25.791 4.09865C26.3982 4.17936 26.9646 4.44927 27.4097 4.87007V17.7349C26.9234 17.9336 26.5071 18.2724 26.2138 18.7082C25.9206 19.1441 25.7635 19.6573 25.7627 20.1826V23.7783H20.749C20.2202 23.779 19.7133 23.9894 19.3394 24.3633C18.9654 24.7372 18.7551 25.2441 18.7544 25.7729V26.79C18.7549 27.2326 18.931 27.6569 19.244 27.9699C19.5569 28.2829 19.9812 28.4589 20.4238 28.4595H36.3193C36.7619 28.4589 37.1862 28.2829 37.4992 27.9699C37.8122 27.6569 37.9882 27.2326 37.9888 26.79V25.7729C37.9881 25.2442 37.7777 24.7372 37.4038 24.3633C37.0299 23.9894 36.5229 23.779 35.9941 23.7783H31.0566V20.1826C31.0558 19.6573 30.8987 19.1441 30.6055 18.7082C30.3122 18.2724 29.896 17.9336 29.4096 17.7349V4.70636C29.8168 4.37008 30.3127 4.15899 30.8374 4.09863C31.8965 4.02246 32.8105 4.81494 33.8696 5.7373C34.8452 6.71095 36.0249 7.45582 37.3234 7.91811L33.3222 14.9788C33.079 15.003 32.8533 15.1163 32.6886 15.2969C32.5239 15.4775 32.4319 15.7126 32.4302 15.9571C32.5341 17.6143 33.2657 19.1697 34.4761 20.3066C35.6865 21.4434 37.2846 22.0762 38.9451 22.0762C40.6056 22.0762 42.2038 21.4434 43.4141 20.3066C44.6245 19.1697 45.3561 17.6143 45.46 15.9571C45.4583 15.7126 45.3663 15.4775 45.2016 15.2969C45.0369 15.1162 44.8112 15.003 44.568 14.9788ZM20.9943 14.957H14.3714L17.6826 9.11279L20.9943 14.957ZM17.6826 20.0762C16.7127 20.1028 15.7606 19.8128 14.9702 19.25C14.1799 18.6872 13.5943 17.8823 13.3022 16.957H22.063C21.771 17.8823 21.1855 18.6873 20.3951 19.2501C19.6048 19.813 18.6525 20.1029 17.6826 20.0762ZM35.9888 26.4595H20.7524L20.749 25.7783L26.7522 25.7762L26.7627 25.7783H30.0566L30.0729 25.775L35.9888 25.7729V26.4595ZM27.7627 23.7783V20.1826C27.7642 20.012 27.833 19.8489 27.9542 19.7288C28.0754 19.6087 28.2391 19.5413 28.4097 19.5413C28.5803 19.5413 28.744 19.6087 28.8652 19.7288C28.9863 19.8489 29.0551 20.012 29.0566 20.1826V23.7783H27.7627ZM42.2565 14.957H35.6337L38.9453 9.11279L42.2565 14.957ZM38.9453 20.0762C37.9754 20.1029 37.0232 19.813 36.2328 19.2501C35.4424 18.6873 34.8569 17.8823 34.565 16.957H43.3257C43.0336 17.8823 42.4481 18.6872 41.6577 19.25C40.8674 19.8128 39.9152 20.1028 38.9453 20.0762Z" fill="url(#paint6_linear_884_1913)"/>
<defs>
<linearGradient id="paint0_linear_884_1913" x1="21.928" y1="-13.5642" x2="45.2221" y2="-7.60777" gradientUnits="userSpaceOnUse">
<stop offset="0.0580958" stop-color="#E6D1BE"/>
<stop offset="0.929784" stop-color="#896954"/>
</linearGradient>
<linearGradient id="paint1_linear_884_1913" x1="18.5992" y1="-0.708744" x2="51.3945" y2="12.0505" gradientUnits="userSpaceOnUse">
<stop offset="0.0580958" stop-color="#E6D1BE"/>
<stop offset="0.929784" stop-color="#896954"/>
</linearGradient>
<linearGradient id="paint2_linear_884_1913" x1="41.8225" y1="-13.5662" x2="65.1166" y2="-7.60972" gradientUnits="userSpaceOnUse">
<stop offset="0.0580958" stop-color="#E6D1BE"/>
<stop offset="0.929784" stop-color="#896954"/>
</linearGradient>
<linearGradient id="paint3_linear_884_1913" x1="38.4918" y1="-0.708744" x2="71.2865" y2="12.0499" gradientUnits="userSpaceOnUse">
<stop offset="0.0580958" stop-color="#E6D1BE"/>
<stop offset="0.929784" stop-color="#896954"/>
</linearGradient>
<linearGradient id="paint4_linear_884_1913" x1="2.03343" y1="-13.5642" x2="25.3276" y2="-7.60777" gradientUnits="userSpaceOnUse">
<stop offset="0.0580958" stop-color="#E6D1BE"/>
<stop offset="0.929784" stop-color="#896954"/>
</linearGradient>
<linearGradient id="paint5_linear_884_1913" x1="-1.29527" y1="-0.708744" x2="31.4994" y2="12.0499" gradientUnits="userSpaceOnUse">
<stop offset="0.0580958" stop-color="#E6D1BE"/>
<stop offset="0.929784" stop-color="#896954"/>
</linearGradient>
<linearGradient id="paint6_linear_884_1913" x1="8.53012" y1="-117.448" x2="78.7588" y2="-95.8101" gradientUnits="userSpaceOnUse">
<stop offset="0.0580958" stop-color="#E6D1BE"/>
<stop offset="0.929784" stop-color="#896954"/>
</linearGradient>
</defs>
</svg>
