<svg width="24" height="24" viewBox="0 0 24 24" fill="none" xmlns="http://www.w3.org/2000/svg">
<path d="M21.3184 10.4986H21.0602V9.13998C21.0602 5.87544 19.3329 2.85737 16.5292 1.22466C13.7245 -0.408221 10.2701 -0.408221 7.46537 1.22466C4.66176 2.85755 2.93445 5.87544 2.93445 9.13998V10.4986H2.67617C1.19927 10.5009 0.00113601 11.7081 0 13.1975V19.1094C0.00113775 20.6 1.19927 21.8072 2.67617 21.8083H4.97343C5.88369 21.8071 6.62215 21.0624 6.62329 20.1444V12.1671C6.62329 11.2468 5.88483 10.501 4.97343 10.4987H3.38958V9.14004C3.39299 8.25074 3.53294 7.36715 3.80489 6.52145C4.76181 7.03781 5.95311 6.70963 6.51747 5.77442C7.68033 3.834 9.7647 2.64854 12.0119 2.64854C14.2603 2.64854 16.3448 3.83391 17.5076 5.77442C18.072 6.70963 19.2621 7.03781 20.2202 6.52145C20.4864 7.36829 20.6218 8.25186 20.6207 9.14004V10.4987H19.0209C18.1095 10.501 17.371 11.2468 17.371 12.1671V20.1444C17.3722 21.0624 18.1106 21.8072 19.0209 21.8083H20.5934C20.4784 22.7917 19.6546 23.5353 18.6727 23.541H11.427C11.3007 23.541 11.1995 23.6431 11.1995 23.7705C11.1995 23.8967 11.3007 24 11.427 24H18.6727C19.9084 23.9977 20.9404 23.0487 21.0576 21.8083H21.325H21.3238C22.8019 21.8071 23.9989 20.6 24 19.1094V13.1975C24 12.4815 23.7167 11.7941 23.2138 11.2881C22.7108 10.782 22.0284 10.4986 21.3184 10.4986ZM0.467784 19.1092V13.1974C0.468921 11.9615 1.46225 10.9598 2.68882 10.9575H2.94711V21.3618H2.68882C2.09716 21.3606 1.53164 21.1231 1.11408 20.7008C0.697635 20.2774 0.465512 19.706 0.467784 19.1092ZM4.97365 10.9575C5.63017 10.9678 6.16039 11.5037 6.16838 12.1669V20.1442C6.15927 20.8052 5.62904 21.3399 4.97365 21.3491H3.38979V10.9448L4.97365 10.9575ZM18.8664 6.26085C18.4556 6.16217 18.1007 5.90053 17.8811 5.53562C16.6363 3.45752 14.4049 2.18737 11.9974 2.18737C9.58996 2.18737 7.35844 3.45764 6.11379 5.53562C5.65979 6.28609 4.69151 6.52935 3.94169 6.08069C4.76888 3.86487 6.45855 2.08499 8.61708 1.15554C10.7767 0.226062 13.2185 0.226062 15.3781 1.15554C17.5365 2.08502 19.2262 3.86479 20.0535 6.08069C19.6962 6.29412 19.2703 6.35839 18.8664 6.26085ZM17.8264 20.1445V12.1672C17.8344 11.5039 18.3646 10.968 19.0212 10.9577H20.605V21.362H19.0212C18.3612 21.3517 17.8299 20.8111 17.8264 20.1445ZM23.5269 19.1094C23.5257 20.3464 22.5324 21.3482 21.3058 21.3493H21.0475V10.945H21.3058V10.9462C21.8975 10.9462 22.463 11.1848 22.8806 11.6071C23.297 12.0294 23.5291 12.602 23.5269 13.1975V19.1094ZM16.4085 15.3949C16.4107 14.3082 16.0194 13.2582 15.3059 12.4423C14.5925 11.6276 13.6083 11.1043 12.5387 10.9724C11.468 10.8392 10.3882 11.1066 9.49946 11.7228C9.4585 11.5381 9.43233 11.3487 9.42095 11.1594C9.41527 11.0619 9.34927 10.9769 9.25483 10.9505C9.16039 10.9242 9.06026 10.962 9.00565 11.0435C8.61422 11.6081 8.37415 12.2644 8.30703 12.9495C7.54355 14.1245 7.37516 15.5945 7.8519 16.914C8.32978 18.2337 9.39707 19.248 10.7306 19.6508C12.0653 20.0547 13.5092 19.7988 14.6277 18.9612C15.7462 18.1235 16.4061 16.8027 16.4084 15.3982L16.4085 15.3949ZM8.05213 15.3949C8.05213 14.5974 8.2888 13.8182 8.73254 13.1584C8.75416 13.1228 8.76782 13.0827 8.77123 13.0413C8.79626 12.6363 8.89867 12.2392 9.07504 11.8732C9.09552 11.9707 9.12283 12.0728 9.15696 12.1796V12.1784C9.17972 12.2507 9.23661 12.3081 9.30829 12.3287C9.37542 12.3517 9.44938 12.3425 9.50855 12.3046C10.2094 11.7229 11.089 11.405 11.997 11.405C13.5922 11.405 15.0304 12.3735 15.6415 13.8607C16.2514 15.3467 15.9146 17.0576 14.7859 18.1959C13.6583 19.3331 11.9618 19.6739 10.4871 19.0577C9.01363 18.4426 8.05216 16.9911 8.05216 15.3822L8.05213 15.3949ZM9.50855 14.3449C9.51083 14.2187 9.61096 14.1177 9.73612 14.1154H12.1642C12.2894 14.1154 12.3918 14.2187 12.3918 14.3449C12.3918 14.4723 12.2894 14.5744 12.1642 14.5744H9.73612C9.67354 14.5778 9.61323 14.5549 9.56772 14.5124C9.52221 14.4688 9.49718 14.408 9.49718 14.3449H9.50855ZM9.50855 15.3949C9.51083 15.2686 9.61096 15.1665 9.73612 15.1654H14.2874C14.4137 15.1654 14.515 15.2686 14.515 15.3949C14.515 15.5211 14.4137 15.6244 14.2874 15.6244H9.73612C9.67354 15.6278 9.61323 15.6048 9.56772 15.5612C9.52221 15.5188 9.49718 15.458 9.49718 15.3949H9.50855ZM12.1483 16.6766H9.72133C9.59617 16.6766 9.49377 16.5745 9.49377 16.4471C9.49377 16.3209 9.59617 16.2176 9.72133 16.2176H12.1483C12.2746 16.2176 12.3759 16.3209 12.3759 16.4471C12.3759 16.5745 12.2746 16.6766 12.1483 16.6766Z" fill="url(#paint0_linear_982_3307)"/>
<defs>
<linearGradient id="paint0_linear_982_3307" x1="-1.84615" y1="-99.0448" x2="48.668" y2="-86.128" gradientUnits="userSpaceOnUse">
<stop offset="0.0580958" stop-color="#E6D1BE"/>
<stop offset="0.929784" stop-color="#896954"/>
</linearGradient>
</defs>
</svg>
