<svg width="69" height="68" viewBox="0 0 69 68" fill="none" xmlns="http://www.w3.org/2000/svg">
<path d="M68.9754 46.7465L63.483 26.3143C63.4335 26.1281 63.3096 25.9665 63.1416 25.8707C62.9737 25.7748 62.77 25.7474 62.5828 25.7967L54.778 27.8862C54.3871 27.9903 54.1558 28.3901 54.2604 28.7789L54.5137 29.721L53.4593 30.0223C50.8053 30.7726 48.6029 31.26 45.8307 31.3614C45.159 31.3861 44.3908 31.3614 43.5815 31.3368C40.2365 31.2382 35.6555 31.1012 32.2746 34.2067L32.0626 34.3738C28.8058 32.4979 25.9784 32.3199 23.2444 32.1528C20.9896 32.0132 18.856 31.8845 16.4333 30.8602L14.4401 30.0113L14.7732 28.779C14.8778 28.3902 14.6466 27.9876 14.2556 27.8836L13.0305 27.5549L13.0195 2.16065C13.0195 1.77453 13.3361 1.46234 13.7215 1.46234H55.2791C55.6645 1.46234 55.9811 1.77453 55.9811 2.16065V24.7038C55.9811 25.1063 56.3087 25.435 56.7162 25.435C57.1209 25.435 57.4513 25.1091 57.4513 24.7038L57.4485 2.16065C57.4485 0.969422 56.4767 0.00273833 55.2791 0.00273833L13.7216 0C12.524 0 11.5494 0.969418 11.5494 2.15792V27.1687L6.42053 25.7968C6.23057 25.7475 6.03235 25.7721 5.86166 25.8707C5.69372 25.9666 5.56984 26.1281 5.52027 26.3143L0.0251495 46.7466C-0.0794685 47.1354 0.151792 47.5353 0.542728 47.6393L8.3475 49.7288C8.41082 49.7452 8.47414 49.7534 8.53746 49.7534C8.6641 49.7534 8.79074 49.7206 8.90361 49.6576C9.07155 49.5617 9.19544 49.4002 9.24775 49.214L9.39641 48.658L12.3064 50.4709L11.5631 51.2952C10.2829 52.7521 10.415 54.9757 11.8521 56.2491C12.4963 56.8324 13.3333 57.1529 14.206 57.1529C14.44 57.1529 14.6685 57.1255 14.8915 57.0789C14.8171 58.136 15.1943 59.2177 16.0395 59.979C16.681 60.5486 17.5152 60.8635 18.3851 60.8635C18.6191 60.8635 18.8476 60.8361 19.0734 60.7923C18.9963 61.8439 19.3789 62.9229 20.2269 63.6896C20.8793 64.2565 21.7108 64.5687 22.578 64.5687C22.9166 64.5687 23.247 64.5029 23.5663 64.4098C23.5443 65.4423 23.9627 66.4801 24.8216 67.2004C25.4493 67.7179 26.2504 68 27.0736 68C28.1418 68 29.1384 67.5372 29.8074 66.7293L31.8915 64.2291L34.1848 65.9927C34.829 66.4883 35.6053 66.7485 36.4064 66.7485C36.5606 66.7485 36.7175 66.7375 36.8745 66.7184C37.8408 66.5951 38.6997 66.1077 39.2944 65.3437C39.8175 64.6672 40.046 63.8594 40.0267 63.0625C40.5085 63.2898 41.0289 63.4158 41.5657 63.4158C41.7309 63.4158 41.8933 63.4048 42.0613 63.3829C43.0193 63.2542 43.8645 62.764 44.4317 62.0164C44.9547 61.3537 45.1997 60.5431 45.175 59.7078C45.6292 59.9077 46.1165 60.0228 46.6204 60.0228C46.7745 60.0228 46.9287 60.0145 47.0856 59.9926C48.0465 59.8694 48.9026 59.382 49.4946 58.6179C50.0617 57.8867 50.2902 57.0077 50.2297 56.1533C50.571 56.2574 50.9262 56.3176 51.2896 56.3176C51.4438 56.3176 51.6007 56.3067 51.7576 56.2875C52.7239 56.1643 53.5829 55.6768 54.1721 54.9155C55.1521 53.6723 55.1494 51.9826 54.3097 50.7174L59.3781 47.8092L59.7553 49.2085C59.8048 49.3975 59.9287 49.5563 60.0966 49.6522C60.2095 49.7152 60.3362 49.7508 60.4628 49.7508C60.5261 49.7508 60.5922 49.7425 60.6528 49.7261L68.4547 47.6366C68.8456 47.5353 69.08 47.1354 68.9754 46.7465ZM8.02292 48.1295L1.63582 46.4179L6.751 27.3962L13.1573 29.1078L8.02292 48.1295ZM15.748 55.0031C15.0295 55.8192 13.6557 55.9069 12.8353 55.1674C11.9929 54.4198 11.9185 53.1163 12.6646 52.2674L15.3131 49.3208C15.6985 48.8799 16.2602 48.628 16.8548 48.628C17.3641 48.628 17.8487 48.8142 18.234 49.1592C19.082 49.8959 19.1536 51.1994 18.3992 52.0565L15.748 55.0031ZM19.9382 58.7248C19.2169 59.5298 17.8238 59.6038 17.0255 58.8973C16.1803 58.1333 16.1032 56.8188 16.8493 55.9698L19.4977 53.0232C19.8831 52.5823 20.4448 52.3304 21.0367 52.3304C21.546 52.3304 22.0306 52.5166 22.4159 52.8644C22.8289 53.2259 23.0767 53.727 23.107 54.2774C23.14 54.8279 22.9528 55.3537 22.5784 55.7617L19.9382 58.7248ZM24.1201 62.43C23.3988 63.2351 22.014 63.3035 21.2074 62.6025C20.3622 61.8357 20.2823 60.5322 21.0339 59.6942L23.6714 56.7394L23.6741 56.7367C24.0706 56.2931 24.6377 56.0384 25.2241 56.0384C25.7279 56.0384 26.2097 56.2246 26.5951 56.5696C27.0081 56.9311 27.2558 57.4323 27.2916 57.9854C27.3136 58.3524 27.2338 58.7029 27.0769 59.0206C27.0218 59.0808 26.964 59.1356 26.9117 59.1986L25.4526 60.9485L24.1201 62.43ZM31.2201 62.7613L28.6817 65.8066C28.2908 66.2776 27.7072 66.546 27.0795 66.546C26.5977 66.546 26.1269 66.3789 25.7663 66.0832C24.888 65.3465 24.7696 64.0429 25.5047 63.1749L26.5674 61.9015L27.8806 60.4419C28.0265 60.2803 28.1504 60.1051 28.2633 59.9216C28.6377 59.5875 29.1195 59.3903 29.6371 59.3903C30.1161 59.3903 30.5813 59.5574 30.942 59.8531C31.812 60.5871 31.9387 61.8905 31.2201 62.7613ZM53.2474 49.6439L48.5892 46.0674C48.2671 45.8209 47.8046 45.8812 47.5596 46.1988C47.3118 46.5192 47.3696 46.9766 47.6917 47.223L52.6197 51.0076C53.564 51.7443 53.7402 53.0943 53.0106 54.0227C52.6582 54.4773 52.1461 54.7676 51.5708 54.8415C50.9954 54.9155 50.4227 54.7594 49.9658 54.4088L46.9677 52.0893C46.9181 52.051 46.8603 52.0346 46.808 52.0099C46.5079 51.8785 46.15 51.9497 45.938 52.218C45.9077 52.2564 45.894 52.3029 45.8747 52.3467C45.7233 52.6507 45.7866 53.0259 46.0674 53.2422L47.2622 54.1678L47.9422 54.6936C48.8893 55.4193 49.0627 56.7803 48.3304 57.7251C47.978 58.1797 47.4687 58.47 46.8989 58.5439C46.3235 58.6179 45.7591 58.4618 45.3021 58.1112L42.8271 56.208C42.7886 56.1779 42.7418 56.1669 42.7005 56.145C42.6564 56.1231 42.6151 56.093 42.5683 56.0793C42.5188 56.0656 42.4637 56.0711 42.4114 56.0684C42.3701 56.0656 42.3288 56.0547 42.2875 56.0601C42.2352 56.0656 42.1884 56.0903 42.1389 56.1094C42.1003 56.1231 42.059 56.1286 42.0205 56.1478C41.9737 56.1724 41.9406 56.2162 41.8993 56.2518C41.8663 56.282 41.8278 56.3011 41.8002 56.3367V56.3395C41.8002 56.3395 41.7975 56.3395 41.7975 56.3422C41.7672 56.3805 41.7562 56.4271 41.7342 56.4682C41.7121 56.512 41.6818 56.5531 41.6681 56.5996C41.6571 56.6407 41.6626 56.6845 41.6598 56.7283C41.6543 56.7776 41.6433 56.8297 41.6488 56.8789C41.6543 56.9228 41.6763 56.9611 41.6901 57.0049C41.7066 57.0515 41.7121 57.1008 41.7369 57.1446C41.7617 57.1857 41.8002 57.2185 41.8333 57.2569C41.8636 57.2925 41.8856 57.3335 41.9241 57.3637L41.9324 57.3719L42.885 58.114C43.3447 58.4645 43.6365 58.9739 43.7081 59.5463C43.7797 60.1159 43.6256 60.6745 43.2677 61.1291C42.929 61.5755 42.4307 61.863 41.8636 61.9397C41.2827 62.0191 40.7073 61.863 40.242 61.507L38.6398 60.2856C38.6012 60.2555 38.5572 60.2445 38.5131 60.2254C38.4691 60.2034 38.4278 60.1733 38.3782 60.1596C38.3507 60.1514 38.3204 60.1569 38.2929 60.1542C38.2268 60.1459 38.1635 60.135 38.0974 60.1432C38.0699 60.1459 38.0451 60.1624 38.0176 60.1706C37.9543 60.187 37.8909 60.2007 37.8331 60.2336C37.7973 60.2527 37.7726 60.2883 37.7395 60.313C37.6982 60.3459 37.6514 60.3732 37.6156 60.4198C37.6156 60.4198 37.6156 60.4225 37.6129 60.4225L37.6101 60.4253C37.5798 60.4663 37.5661 60.5129 37.5468 60.5567C37.5275 60.5978 37.4973 60.6389 37.4835 60.6827C37.4697 60.732 37.4752 60.7813 37.4725 60.8306C37.4697 60.8744 37.4587 60.9182 37.4642 60.962C37.4697 61.014 37.4945 61.0633 37.5138 61.1126C37.5275 61.151 37.533 61.192 37.5523 61.2276C37.5798 61.2797 37.6294 61.3207 37.6707 61.3673C37.6955 61.3919 37.7092 61.4248 37.7395 61.4467C38.6783 62.1779 38.8545 63.5307 38.1305 64.4618C37.7781 64.9164 37.266 65.2067 36.6906 65.2806C36.118 65.3518 35.5426 65.1985 35.0856 64.848L32.7647 63.0624C33.4998 61.6329 33.1722 59.8201 31.8783 58.7356C31.2478 58.218 30.4522 57.936 29.6345 57.936C29.3344 57.936 29.0399 57.9771 28.7563 58.0483C28.7535 57.999 28.7645 57.9524 28.7618 57.9031C28.704 56.9583 28.28 56.0985 27.578 55.4878C26.9337 54.9045 26.0995 54.5841 25.2296 54.5841C25.0011 54.5841 24.7781 54.6142 24.5579 54.6553C24.5689 54.5046 24.5854 54.354 24.5772 54.2007C24.5221 53.2559 24.1009 52.3933 23.3961 51.7826C22.7491 51.1938 21.9122 50.8734 21.0367 50.8734C20.8082 50.8734 20.5824 50.9035 20.3622 50.9446C20.442 49.8848 20.0593 48.8113 19.2087 48.0719C18.5644 47.4886 17.7275 47.1681 16.8548 47.1681C15.8389 47.1681 14.8754 47.6008 14.2146 48.3539L13.3033 49.3699L9.79867 47.1873L14.0466 31.4437L15.8471 32.2105C18.5065 33.3306 20.8632 33.4757 23.143 33.6154C25.6621 33.7715 28.06 33.9221 30.7991 35.3571L22.1267 42.1184C21.6807 42.499 21.4247 43.0002 21.3944 43.5588C21.3283 44.594 21.9312 45.5278 23.0958 46.1878C24.0126 46.7081 25.257 47.023 26.5124 47.023C27.6632 47.023 28.8222 46.7547 29.7417 46.133L34.9725 42.5949C37.007 44.5173 39.7161 45.5908 42.4884 45.5908C43.2372 45.5908 43.9915 45.5141 44.7376 45.3553C45.134 45.2704 45.3873 44.8815 45.302 44.4871C45.2166 44.0928 44.8284 43.8381 44.4292 43.9258C41.2247 44.6104 37.8356 43.5506 35.5891 41.1599C35.5699 41.138 35.5396 41.1298 35.5176 41.1079C35.479 41.075 35.4405 41.0449 35.3964 41.023C35.3551 41.0011 35.3138 40.9874 35.2698 40.9737C35.223 40.96 35.1789 40.9463 35.1321 40.9435C35.0853 40.9381 35.044 40.9408 34.9972 40.9435C34.9504 40.9463 34.9036 40.9518 34.8568 40.9655C34.81 40.9791 34.7687 40.9983 34.7274 41.0202C34.6999 41.0339 34.6696 41.0367 34.6421 41.0558L28.9185 44.928C27.5337 45.8646 25.1688 45.6811 23.8253 44.9198C23.4481 44.7062 22.8259 44.2598 22.8617 43.6464C22.8727 43.4794 22.9415 43.3507 23.0599 43.2493L32.5442 35.8497C32.5745 35.8278 32.6048 35.8086 32.6295 35.7812L33.2187 35.3239C36.2058 32.5855 40.2693 32.7059 43.5318 32.8017C44.3715 32.8264 45.1589 32.8483 45.8801 32.8264C48.8011 32.7196 51.0999 32.213 53.8583 31.4325L54.8906 31.1395L58.9844 46.3572L53.2474 49.6439ZM60.981 48.1295L55.8658 29.1106L62.2529 27.399L67.3681 46.4207L60.981 48.1295ZM34.5128 14.6485C34.1081 14.6485 33.7777 14.3226 33.7777 13.9173V13.5421C32.5664 13.3012 31.6964 12.4714 31.6964 11.4554C31.6964 11.0528 32.0241 10.7242 32.4315 10.7242C32.8362 10.7242 33.1666 11.0501 33.1666 11.4554C33.1666 11.7402 33.6925 12.1537 34.5157 12.1537C35.325 12.1537 35.8399 11.7402 35.8399 11.4554C35.8399 11.0857 35.6472 10.946 34.3835 10.7379C33.3153 10.5599 31.6993 10.2943 31.6993 8.57728C31.6993 7.56131 32.5693 6.73154 33.7806 6.49052L33.7778 6.09343C33.7778 5.69087 34.1054 5.36223 34.5129 5.36223C34.9176 5.36223 35.248 5.68811 35.248 6.09343V6.49052C36.4483 6.73425 37.3073 7.56397 37.3073 8.57728C37.3073 8.97984 36.9797 9.30848 36.5722 9.30848C36.1675 9.30848 35.8371 8.9826 35.8371 8.57728C35.8371 8.29247 35.3223 7.87896 34.5129 7.87896C33.6897 7.87896 33.1639 8.29247 33.1639 8.57728C33.1639 8.94697 33.3566 9.08663 34.6202 9.29473C35.6884 9.47274 37.3045 9.73837 37.3045 11.4554C37.3045 12.4686 36.4455 13.2984 35.2452 13.5421V13.9201C35.2452 14.3226 34.9176 14.6485 34.5128 14.6485ZM41.1147 10.0068C41.1147 6.38645 38.1524 3.43985 34.5128 3.43985C30.8595 3.43985 27.889 6.38645 27.889 10.0068C27.889 13.6271 30.8595 16.5737 34.5128 16.5737C38.1524 16.5737 41.1147 13.6271 41.1147 10.0068ZM29.3561 10.0068C29.3561 7.19161 31.6686 4.89945 34.5126 4.89945C37.3427 4.89945 39.647 7.19154 39.647 10.0068C39.647 12.822 37.3428 15.1141 34.5126 15.1141C31.6686 15.1141 29.3561 12.822 29.3561 10.0068ZM52.2672 19.3834C52.2672 19.7859 51.9396 20.1146 51.5321 20.1146L17.4685 20.1118C17.0638 20.1118 16.7334 19.786 16.7334 19.3806C16.7334 18.9781 17.061 18.6494 17.4685 18.6494H51.5349C51.9396 18.6522 52.2672 18.9808 52.2672 19.3834ZM52.2672 23.7924C52.2672 24.1949 51.9396 24.5236 51.5321 24.5236H17.4685C17.0638 24.5236 16.7334 24.1977 16.7334 23.7924C16.7334 23.3898 17.061 23.0612 17.4685 23.0612H51.5349C51.9396 23.0612 52.2672 23.387 52.2672 23.7924ZM52.2672 28.2232C52.2672 28.6258 51.9396 28.9544 51.5321 28.9544L17.4685 28.9517C17.0638 28.9517 16.7334 28.6258 16.7334 28.2205C16.7334 27.8179 17.061 27.4893 17.4685 27.4893H51.5349C51.9396 27.492 52.2672 27.8179 52.2672 28.2232Z" fill="url(#paint0_linear_884_1925)"/>
<defs>
<linearGradient id="paint0_linear_884_1925" x1="-5.30771" y1="-280.627" x2="139.657" y2="-243.013" gradientUnits="userSpaceOnUse">
<stop offset="0.0580958" stop-color="#E6D1BE"/>
<stop offset="0.929784" stop-color="#896954"/>
</linearGradient>
</defs>
</svg>
