<svg width="69" height="59" viewBox="0 0 69 59" fill="none" xmlns="http://www.w3.org/2000/svg">
<path d="M66.9614 20.5623H65.505L57.0743 6.7403C57.5795 6.14077 57.8851 5.36797 57.8851 4.52497C57.8851 2.62476 56.3388 1.07988 54.4393 1.07988C52.923 1.07988 51.6347 2.06545 51.1748 3.42828H37.4434V3.30691C37.4434 1.48273 35.96 0 34.138 0C32.3146 0 30.8311 1.48273 30.8311 3.30691V3.42828H17.1004C16.6406 2.06545 15.3523 1.07988 13.8359 1.07988C11.9365 1.07988 10.3901 2.62476 10.3901 4.52497C10.3901 5.36797 10.6957 6.14004 11.2009 6.7403L2.77026 20.5623H1.0967C0.49132 20.5623 0 21.0537 0 21.6598C0 22.2659 0.49132 22.7572 1.0967 22.7572H2.09908C2.36887 25.5962 4.76478 27.8254 7.67396 27.8254H19.9972C22.9049 27.8254 25.3023 25.5962 25.5706 22.7572H26.5744C27.1798 22.7572 27.6711 22.2659 27.6711 21.6598C27.6711 21.0537 27.1798 20.5623 26.5744 20.5623H24.9009L16.4717 6.7403C16.7458 6.41349 16.9601 6.03476 17.0982 5.62313H30.8296V33.7066C25.3344 35.1704 21.2737 40.1866 21.2737 46.1366C21.2737 48.2474 21.7877 50.2382 22.6914 51.9973H16.324C14.3916 51.9973 12.8211 53.5678 12.8211 55.4987V57.9027C12.8211 58.5088 13.3124 59.0001 13.9193 59.0001H34.1365H53.1306C54.557 59.0001 55.7166 57.8398 55.7166 56.4141V54.1169C55.7166 53.5612 55.5368 53.0494 55.237 52.6276C55.5368 52.2065 55.7166 51.6947 55.7166 51.1397V48.8418C55.7166 48.2861 55.5368 47.7751 55.237 47.3532C55.5368 46.9313 55.7166 46.4203 55.7166 45.8653V43.5667C55.7166 42.141 54.557 40.9814 53.1306 40.9814H50.5863C50.606 40.852 50.6265 40.7233 50.6265 40.5895V38.2923C50.6265 38.1578 50.6067 38.0298 50.5863 37.9011H57.649C59.074 37.9011 60.2335 36.7408 60.2335 35.3151V33.0179C60.2335 31.5915 59.074 30.4319 57.649 30.4319H37.4434V5.62313H51.1763C51.3145 6.03476 51.5287 6.41349 51.8014 6.73884L43.3736 20.5623H41.4829C40.8776 20.5623 40.3862 21.0537 40.3862 21.6598C40.3862 22.2659 40.8776 22.7572 41.4829 22.7572H42.4853C42.7551 25.5962 45.1525 27.8254 48.0602 27.8254H60.3834C63.2926 27.8254 65.6885 25.5962 65.9583 22.7572H66.9607C67.5661 22.7572 68.0574 22.2659 68.0574 21.6598C68.0574 21.0537 67.5668 20.5623 66.9614 20.5623ZM13.8359 7.9708C14.0984 7.9708 14.3528 7.93863 14.5985 7.88306L22.3324 20.5631H5.34092L13.0719 7.88306C13.319 7.93863 13.5727 7.9708 13.8359 7.9708ZM13.8359 3.27401C14.5254 3.27401 15.0869 3.83552 15.0869 4.52497C15.0869 5.21443 14.5254 5.77594 13.8359 5.77594C13.1465 5.77594 12.585 5.21443 12.585 4.52497C12.585 3.83552 13.1465 3.27401 13.8359 3.27401ZM19.9979 25.6305H7.67396C5.97773 25.6305 4.57103 24.3825 4.31221 22.7572H23.3575C23.1008 24.3825 21.6941 25.6305 19.9979 25.6305ZM33.0252 3.30691C33.0252 2.69349 33.5253 2.19486 34.1373 2.19486C34.7492 2.19486 35.2486 2.69422 35.2486 3.30691V30.6454C34.3317 31.0431 33.6862 31.9556 33.6862 33.0186V33.2848C33.4646 33.2928 33.2445 33.306 33.0252 33.3257V3.30691ZM34.1373 35.4679C40.0192 35.4679 44.8059 40.2539 44.8059 46.1366C44.8059 52.0193 40.0192 56.8053 34.1373 56.8053C28.2538 56.8053 23.4686 52.0193 23.4686 46.1366C23.4686 40.2539 28.2546 35.4679 34.1373 35.4679ZM53.5225 48.8418V51.1397C53.5225 51.3518 53.3426 51.5302 53.1313 51.5302H45.8098C46.2594 50.5629 46.5906 49.5305 46.788 48.4506H53.1313C53.3426 48.4506 53.5225 48.6298 53.5225 48.8418ZM15.0167 56.8053V55.4987C15.0167 54.7786 15.6038 54.1915 16.3247 54.1915H24.1186C24.9294 55.1975 25.8864 56.0814 26.959 56.8053H15.0167ZM53.5225 56.4141C53.5225 56.6261 53.3426 56.8053 53.1313 56.8053H41.3162C42.5511 55.9703 43.6354 54.9263 44.5149 53.725H53.1313C53.3426 53.725 53.5225 53.9049 53.5225 54.1169V56.4141ZM53.5225 43.5667V45.8653C53.5225 46.0766 53.3426 46.2558 53.1313 46.2558H46.9964C46.9979 46.2156 46.9993 46.1768 46.9993 46.1366C46.9993 45.1167 46.8765 44.1274 46.652 43.1762H48.0397H53.1306C53.3426 43.1762 53.5225 43.3546 53.5225 43.5667ZM45.9187 40.9814C45.4274 39.8635 44.7833 38.8275 44.0097 37.9019H48.0412C48.254 37.9019 48.4323 38.0803 48.4323 38.2923V40.5895C48.4323 40.8015 48.254 40.9814 48.0412 40.9814H45.9187ZM58.0394 33.0186V35.3158C58.0394 35.5279 57.861 35.707 57.6497 35.707H41.6518C39.9841 34.5014 38.0159 33.6862 35.881 33.3959V33.0186C35.881 32.8066 36.0609 32.6275 36.2722 32.6275H57.649C57.861 32.6267 58.0394 32.8059 58.0394 33.0186ZM54.4393 7.9708C54.7003 7.9708 54.9562 7.93863 55.2019 7.88306L62.9343 20.5631H45.9443L53.6768 7.88306C53.9224 7.93863 54.1768 7.9708 54.4393 7.9708ZM54.4393 3.27401C55.1288 3.27401 55.6903 3.83552 55.6903 4.52497C55.6903 5.21443 55.1288 5.77594 54.4393 5.77594C53.7499 5.77594 53.1869 5.21443 53.1869 4.52497C53.1869 3.83552 53.7499 3.27401 54.4393 3.27401ZM60.3842 25.6305H48.0602C46.364 25.6305 44.9573 24.3825 44.6999 22.7572H63.7452C63.4871 24.3825 62.0804 25.6305 60.3842 25.6305Z" fill="url(#paint0_linear_884_1995)"/>
<path d="M33.8471 47.0404C35.0797 47.1998 35.8635 47.3372 36.4543 48.1473C36.7899 48.6057 36.8871 49.1475 36.7226 49.6344C36.5113 50.2544 35.9001 50.7428 35.0008 51.009C33.6372 51.4104 32.0551 51.0221 31.3152 50.1046C30.935 49.633 30.244 49.5599 29.7717 49.9393C29.3002 50.3202 29.2263 51.0104 29.6072 51.4827C30.4151 52.4844 31.6719 53.1161 33.0384 53.3018V53.625C33.0384 54.2311 33.5297 54.7224 34.1366 54.7224C34.742 54.7224 35.2333 54.2311 35.2333 53.625V53.2126C35.3649 53.1833 35.4928 53.1512 35.6215 53.1132C37.2263 52.6387 38.3559 51.6531 38.8019 50.3363C39.1975 49.1643 38.9891 47.8951 38.228 46.8525C37.0501 45.2396 35.4278 45.0312 34.1256 44.8631C32.776 44.6891 32.1077 44.564 31.6368 43.6238C31.4387 43.2283 31.4182 42.7991 31.5857 42.4182C31.8087 41.9049 32.3556 41.4947 33.1276 41.2674C34.3874 40.893 35.8547 41.252 36.5391 42.1001C36.92 42.5724 37.6117 42.6448 38.0825 42.2654C38.5541 41.8844 38.6279 41.1935 38.247 40.7219C37.5276 39.8314 36.4345 39.2524 35.234 39.0316V38.6463C35.234 38.0402 34.7427 37.5488 34.1373 37.5488C33.5305 37.5488 33.0392 38.0402 33.0392 38.6463V39.0462C32.8608 39.0813 32.6824 39.1113 32.5062 39.1632C31.0995 39.5784 30.0583 40.4251 29.5714 41.5459C29.1488 42.5191 29.1861 43.6355 29.6745 44.6079C30.6886 46.6353 32.4404 46.8598 33.8471 47.0404Z" fill="url(#paint1_linear_884_1995)"/>
<defs>
<linearGradient id="paint0_linear_884_1995" x1="-5.23518" y1="-243.486" x2="135.16" y2="-202.074" gradientUnits="userSpaceOnUse">
<stop offset="0.0580958" stop-color="#E6D1BE"/>
<stop offset="0.929784" stop-color="#896954"/>
</linearGradient>
<linearGradient id="paint1_linear_884_1995" x1="28.5317" y1="-33.3241" x2="49.8779" y2="-30.2351" gradientUnits="userSpaceOnUse">
<stop offset="0.0580958" stop-color="#E6D1BE"/>
<stop offset="0.929784" stop-color="#896954"/>
</linearGradient>
</defs>
</svg>
