<svg width="20" height="17" viewBox="0 0 20 17" fill="none" xmlns="http://www.w3.org/2000/svg">
<path d="M19.1663 1.34432C18.3683 1.90722 17.4848 2.33774 16.5497 2.61932C16.0478 2.04224 15.3808 1.63323 14.6389 1.44759C13.897 1.26195 13.1159 1.30865 12.4014 1.58136C11.6869 1.85408 11.0734 2.33965 10.6438 2.97241C10.2143 3.60518 9.98942 4.3546 9.99967 5.11932V5.95265C8.5352 5.99062 7.08407 5.66583 5.77552 5.00719C4.46696 4.34855 3.34161 3.37651 2.49967 2.17765C2.49967 2.17765 -0.833659 9.67765 6.66634 13.011C4.95011 14.176 2.90564 14.7601 0.833008 14.6777C8.33301 18.8443 17.4997 14.6777 17.4997 5.09432C17.4989 4.8622 17.4766 4.63065 17.433 4.40265C18.2835 3.56389 18.8837 2.50491 19.1663 1.34432Z" stroke="white" stroke-linecap="round" stroke-linejoin="round"/>
</svg>
