<svg width="56" height="57" viewBox="0 0 56 57" fill="none" xmlns="http://www.w3.org/2000/svg">
<path d="M20.7544 21.8804C20.8757 21.9147 21.004 21.9147 21.1253 21.8804C22.9119 21.4007 24.5682 20.5212 25.971 19.3072C27.3739 18.0933 28.4871 16.5762 29.2281 14.8687C29.2648 14.7823 29.2838 14.6893 29.284 14.5954V4.57738C29.284 4.4174 29.2292 4.26234 29.129 4.13831C29.0287 4.01427 28.8892 3.92885 28.7337 3.89644C26.0103 3.32899 23.4832 2.04835 21.4068 0.183441C21.2795 0.0654679 21.1128 0 20.9399 0C20.7669 0 20.6002 0.0654679 20.4729 0.183441C18.3966 2.04858 15.8695 3.32943 13.146 3.89705C12.9911 3.92998 12.8521 4.01563 12.7525 4.13963C12.6528 4.26363 12.5985 4.41841 12.5987 4.57799V14.5954C12.5988 14.6893 12.6176 14.7823 12.6541 14.8687C13.3948 16.5759 14.5077 18.0928 15.9101 19.3068C17.3125 20.5207 18.9683 21.4004 20.7544 21.8804ZM13.9754 5.13329C16.5305 4.50801 18.9117 3.30683 20.9399 1.6201C22.968 3.30683 25.3492 4.50801 27.9044 5.13329V14.4495C27.2484 15.9056 26.2856 17.2002 25.0828 18.2431C23.88 19.2861 22.4663 20.0523 20.9399 20.4885C19.4135 20.0524 17.9998 19.2862 16.797 18.2434C15.5943 17.2006 14.6314 15.9061 13.9754 14.4501V5.13329ZM16.9359 12.0236C16.821 11.8909 16.7605 11.7191 16.7664 11.5431C16.7724 11.367 16.8444 11.1998 16.968 11.0752C17.0915 10.9507 17.2574 10.8781 17.432 10.8721C17.6067 10.8661 17.7771 10.9272 17.9088 11.0429L19.9554 13.106L25.1414 7.8785C25.2036 7.80671 25.2796 7.74857 25.365 7.70767C25.4503 7.66677 25.5431 7.64399 25.6376 7.64074C25.732 7.6375 25.8261 7.65386 25.914 7.68881C26.0019 7.72376 26.0818 7.77655 26.1486 7.84391C26.2154 7.91127 26.2678 7.99176 26.3025 8.08037C26.3372 8.16899 26.3534 8.26384 26.3502 8.35904C26.3469 8.45425 26.3243 8.54777 26.2838 8.6338C26.2432 8.71983 26.1855 8.79653 26.1143 8.85915L20.4431 14.5757C20.3138 14.7052 20.1389 14.7779 19.9567 14.7779C19.7744 14.7779 19.5995 14.7052 19.4702 14.5757L16.9359 12.0236ZM55.3721 32.2606C55.5893 32.1132 55.762 31.9082 55.871 31.6683C55.98 31.4283 56.0211 31.1626 55.9898 30.9005C55.9563 30.6417 55.8563 30.3962 55.6999 30.1883C55.5435 29.9803 55.336 29.817 55.0978 29.7146L53.3704 28.9074C53.0043 28.7339 52.5902 28.6926 52.1975 28.7903L50.1976 29.2653L48.3735 26.2332C47.8108 25.3169 47.0188 24.566 46.077 24.056C45.1351 23.5461 44.0767 23.295 43.0081 23.3281H34.3606C33.2921 23.2948 32.2337 23.5457 31.2919 24.0554C30.3501 24.5652 29.558 25.3159 28.9952 26.232L27.8217 28.1805L27.4088 27.7851C26.5519 26.9789 25.4994 26.4144 24.3573 26.1483C23.2152 25.8822 22.0238 25.924 20.9028 26.2694L11.6575 28.8062C10.5177 29.081 9.46976 29.6533 8.61898 30.4657C7.76819 31.2781 7.14457 32.3019 6.81079 33.4343L5.71632 37.2644L3.3863 37.344C2.95492 37.3544 2.54016 37.5138 2.21156 37.7958L0.599644 39.1644C0.384665 39.3359 0.217646 39.5609 0.114988 39.8172C0.0123294 40.0735 -0.022438 40.3522 0.0140998 40.6262C0.0545462 40.902 0.169805 41.1613 0.347162 41.3753C0.524519 41.5894 0.757081 41.7499 1.01919 41.8391L2.50342 42.3993C2.70858 42.4777 2.9261 42.5182 3.14552 42.5188C3.28154 42.5193 3.41719 42.5043 3.54986 42.4741C2.80988 44.026 2.20183 45.5999 2.2523 46.5009C2.25956 46.6282 2.30165 46.7511 2.37391 46.8558L3.87821 49.0622L3.3486 50.5841C3.29252 50.7449 3.29707 50.921 3.36137 51.0787L4.5963 54.1034C4.64408 54.2209 4.72281 54.3229 4.82398 54.3985C4.92515 54.4742 5.04491 54.5205 5.1703 54.5324L5.53512 54.5674L5.88718 54.6005L6.13039 55.4941C6.25179 55.9574 6.5226 56.3668 6.90017 56.658C7.18246 56.8756 7.52685 56.9955 7.88216 57C8.01215 57 8.14157 56.9827 8.26705 56.9485L12.5586 55.7742C12.9179 55.6548 13.2285 55.4203 13.4431 55.1063C13.6578 54.7924 13.7646 54.4163 13.7473 54.0354L31.8907 49.0573C32.0416 49.3326 32.2603 49.564 32.5257 49.7293C32.7911 49.8946 33.0942 49.9882 33.4059 50.0012C33.5355 50.0013 33.6646 49.984 33.7896 49.9497L38.0806 48.7729C38.3133 48.7048 38.5274 48.5839 38.7066 48.4194C38.8857 48.255 39.0252 48.0513 39.1142 47.8242C39.2936 47.3785 39.3205 46.8853 39.1908 46.4224L39.0571 45.9278H47.1714C47.2569 46.267 47.4481 46.5697 47.7169 46.7912C47.9857 47.0127 48.3179 47.1415 48.6647 47.1585H52.6778C53.1309 47.1231 53.5518 46.909 53.8492 46.5627C54.1467 46.2164 54.2966 45.7658 54.2666 45.3088V44.4801L54.4162 44.4237L54.7269 44.3061C54.8446 44.2614 54.9479 44.1852 55.0258 44.0857C55.1037 43.9863 55.1532 43.8673 55.169 43.7416L55.5338 40.8131C55.5545 40.644 55.5132 40.4731 55.4177 40.3326L54.6157 39.1644L55.3964 36.9193C55.4382 36.7988 55.4464 36.6691 55.4201 36.5442C55.2541 35.7591 54.3937 34.5694 53.4136 33.4184C53.7018 33.3851 53.9767 33.2776 54.2119 33.1064L55.3721 32.2606ZM52.9897 35.0898C52.4108 35.1452 51.8291 35.1657 51.2477 35.1511C50.3217 35.1213 49.395 35.1777 48.4793 35.3196C47.8752 35.4624 47.3294 35.7892 46.916 36.2555C46.7385 36.4277 46.5372 36.6233 46.4472 36.6233H42.4767L47.3891 32.9011C47.4025 32.8907 47.414 32.8778 47.4268 32.8667C48.4515 32.6939 49.467 32.4896 50.4731 32.2538C51.3602 33.1545 52.2002 34.1011 52.9897 35.0898ZM27.6739 48.7736L14.1663 52.4774C14.1249 52.0563 14.4502 51.8283 15.1574 51.3888C15.6873 51.1107 16.1485 50.7163 16.5072 50.2347L17.1603 49.1873C17.3887 48.8401 17.741 48.5949 18.1441 48.5026L25.2114 46.5646C25.3792 46.5172 25.5526 46.4925 25.727 46.4911C25.9623 46.4888 26.1946 46.5446 26.4037 46.6535L27.4982 47.2253C28.0477 47.4555 28.6411 47.5591 29.2354 47.5287C30.066 47.5465 30.4606 47.5772 30.6369 47.9614L27.6739 48.7736ZM29.264 46.138C28.8789 46.1606 28.4931 46.1095 28.1269 45.9873L27.0373 45.4185C26.3591 45.0743 25.5761 45.0042 24.8484 45.2224L17.7841 47.161C17.0467 47.3444 16.4066 47.8048 15.9947 48.4481L15.3447 49.49C15.09 49.7847 14.7819 50.0277 14.4369 50.2059C13.6987 50.6644 12.5355 51.3888 12.8347 52.8414L11.0397 53.3317C10.9616 53.3522 10.8825 53.3682 10.8026 53.3796L9.68318 50.5148C9.64452 50.416 9.58393 50.3273 9.50604 50.2557C9.42816 50.1841 9.33504 50.1315 9.23384 50.1017L7.2273 49.5133L9.97079 48.7613C10.0611 48.7362 10.1454 48.6928 10.2186 48.6338C10.2918 48.5748 10.3523 48.5014 10.3964 48.4181L11.9901 45.416C12.0538 45.4077 12.117 45.3954 12.1792 45.3793L28.7897 40.8192C28.8484 40.8022 28.906 40.7818 28.9624 40.7579L31.8512 42.5354C31.9593 42.6021 32.0837 42.6373 32.2105 42.6371C32.2721 42.6372 32.3334 42.6292 32.3929 42.6132L35.1364 41.8612L33.6996 43.3934C33.6267 43.4704 33.5724 43.5632 33.5407 43.6647C33.5091 43.7662 33.5011 43.8736 33.5172 43.9788L33.9915 47.0206C33.9167 47.0513 33.8404 47.0779 33.7629 47.1003L31.9673 47.5906C31.4979 46.1877 30.1304 46.1564 29.264 46.138ZM6.18816 40.4C15.0181 40.0405 23.653 37.6729 31.4468 33.4741C32.7081 34.2021 33.9283 35.0001 35.1018 35.8645C34.46 36.1223 33.8008 36.3337 33.1293 36.497C32.1347 36.7346 31.1644 37.0651 30.2307 37.4844C29.6388 37.8096 29.1605 38.3105 28.8608 38.9192C28.6991 39.1913 28.5465 39.4488 28.4212 39.4843L11.8253 44.0327C11.6909 44.0683 11.4307 43.9242 11.1565 43.7716C10.5923 43.4018 9.92896 43.2156 9.25634 43.2384C8.24079 43.3539 7.23809 43.5642 6.26112 43.8666C5.59773 44.07 4.92064 44.2249 4.23513 44.33C4.81335 42.9845 5.46537 41.6725 6.18816 40.4ZM30.7251 29.6128L31.1045 30.0762L30.7512 30.2692L30.7251 29.6128ZM39.7484 33.5158C39.7204 33.6297 39.7214 33.7489 39.7513 33.8622C39.7812 33.9756 39.8391 34.0795 39.9196 34.1643C40 34.2491 40.1004 34.312 40.2115 34.3471C40.3225 34.3822 40.4406 34.3885 40.5547 34.3653L44.1233 33.6372L40.3662 36.486C40.2841 36.5481 40.2168 36.628 40.1692 36.7198C40.1217 36.8116 40.0951 36.9129 40.0914 37.0164C40.0877 37.1199 40.1071 37.2229 40.148 37.3179C40.1889 37.4128 40.2504 37.4974 40.3279 37.5653L42.3381 39.3305L40.1449 39.1166C40.0261 39.105 39.9063 39.1247 39.7973 39.1738C39.6884 39.2229 39.5939 39.2997 39.5232 39.3966C39.4524 39.4935 39.4079 39.6073 39.3939 39.7268C39.3799 39.8462 39.3968 39.9673 39.4432 40.0782L40.6459 42.9589L39.4572 42.7192L39.248 41.2348C39.2243 41.0659 39.1399 40.9117 39.0109 40.8015L37.7893 39.7595L37.979 37.0915C37.9877 36.9644 37.9619 36.8372 37.9042 36.7238C37.495 35.9221 36.1452 34.8587 34.754 33.9148C35.0972 33.807 35.4012 33.5993 35.6277 33.3178L36.6261 32.0773C36.6395 32.0608 36.6517 32.0436 36.6644 32.0265L36.786 32.3703C36.8257 32.4819 36.8931 32.5814 36.9817 32.6593C37.0702 32.7373 37.1771 32.7911 37.2922 32.8157C37.4072 32.8402 37.5266 32.8347 37.6389 32.7997C37.7513 32.7646 37.8529 32.7012 37.934 32.6155L40.6878 29.7048L39.7484 33.5158ZM46.4563 38.0146C46.5038 38.0146 46.55 38.0103 46.595 38.006L48.669 40.2186C48.7334 40.2874 48.8111 40.3421 48.8972 40.3795C48.9834 40.417 49.0762 40.4362 49.17 40.4362H51.4964L50.09 41.3028C50 41.358 49.9239 41.4333 49.8674 41.5229C49.8109 41.6125 49.7755 41.714 49.7641 41.8195L49.468 44.5273C49.412 44.5328 49.3585 44.5359 49.3111 44.5359H47.6943C47.5727 43.1998 46.3457 42.8351 45.6373 42.6242C45.3067 42.554 44.9919 42.4227 44.7088 42.2369L43.894 41.4806C43.3714 41.0079 42.6898 40.7539 41.9878 40.7702H41.2296L41.1627 40.6108L44.3476 40.921C44.4931 40.9352 44.6392 40.9025 44.765 40.8275C44.8908 40.7526 44.9897 40.6393 45.0475 40.504C45.1053 40.3687 45.1189 40.2184 45.0865 40.0748C45.054 39.9312 44.9771 39.8017 44.8669 39.705L42.9412 38.0146H46.4563ZM36.5878 37.2129L36.3902 40.0126C36.389 40.0347 36.389 40.0568 36.3902 40.0788L32.3163 41.1949L29.9705 39.7515C29.9954 39.7111 30.0191 39.6706 30.0429 39.629C30.2101 39.2591 30.4838 38.9484 30.8284 38.7372C31.6857 38.3573 32.5755 38.0569 33.4868 37.8399C34.4483 37.6312 35.3769 37.2907 36.2467 36.828C36.3706 36.9473 36.4847 37.0767 36.5878 37.2147V37.2129ZM35.4125 30.9275C35.5706 30.9545 35.5949 31.0201 35.6052 31.0409C35.6156 31.0617 35.632 31.1065 35.5554 31.2015L34.5576 32.4414C34.4915 32.5231 34.4 32.5799 34.2979 32.6026L33.271 32.8845C33.2418 32.8907 33.2144 32.8968 33.1876 32.9035C32.7523 32.6351 32.3522 32.3966 32.0202 32.2036L31.3258 31.5386L32.9815 30.6327C33.0875 30.5707 33.2119 30.549 33.3324 30.5714L35.4125 30.9275ZM35.2817 46.325L34.9352 44.1026L37.5163 41.3476L37.92 41.692L38.2794 44.2521C37.5382 44.7927 36.3203 45.6777 35.2817 46.325ZM39.7034 44.4728L39.6621 44.1774L41.4667 44.5377H39.7083C39.7071 44.5163 39.7065 44.4967 39.7034 44.4728ZM42.4208 43.6227L41.8127 42.1621H41.9903C42.3464 42.1463 42.6948 42.2694 42.9631 42.506L43.7828 43.266C44.2141 43.605 44.7155 43.8419 45.25 43.9592C45.9158 44.1577 46.2156 44.2748 46.3043 44.5377H42.0395C42.1249 44.5039 42.2028 44.4532 42.2684 44.3885C42.3341 44.3239 42.3862 44.2466 42.4217 44.1613C42.4573 44.076 42.4755 43.9844 42.4753 43.8919C42.4752 43.7994 42.4566 43.7078 42.4208 43.6227ZM51.0975 42.3129L53.9103 40.5808L54.1298 40.9026L53.8501 43.152C53.0986 43.437 51.9044 43.8875 50.892 44.1939L51.0975 42.3129ZM54.0234 36.6692L53.1977 39.0357V39.0479H49.4704L47.8336 37.3011L47.8761 37.2595C48.0996 36.9878 48.3979 36.789 48.7335 36.6882C49.5652 36.5632 50.4066 36.5146 51.2471 36.543C52.1226 36.5869 53 36.516 53.8574 36.3321C53.9204 36.4405 53.9759 36.5531 54.0234 36.6692ZM34.3606 24.7181H43.0069C43.838 24.6882 44.6622 24.8791 45.397 25.2717C46.1318 25.6642 46.7513 26.2446 47.1933 26.9546L49.6455 31.0225C46.9694 31.6106 44.2505 31.9795 41.5154 32.1257L42.6597 27.4897C42.6967 27.3405 42.6835 27.1831 42.6223 27.0423C42.5611 26.9014 42.4552 26.785 42.3213 26.7113C42.1874 26.6376 42.033 26.6107 41.8823 26.6349C41.7317 26.6591 41.5932 26.7329 41.4886 26.8449L37.7066 30.8417L36.6231 27.817C36.5791 27.6942 36.5017 27.5864 36.3997 27.5059C36.2977 27.4254 36.1753 27.3755 36.0465 27.3618C35.9177 27.3482 35.7877 27.3714 35.6713 27.4288C35.555 27.4863 35.4571 27.5755 35.3888 27.6865L34.3721 29.3413L33.5634 29.2028C33.1446 29.1289 32.7133 29.2005 32.34 29.4057L30.4879 27.141C30.4091 27.0456 30.3065 26.9733 30.1906 26.9314C30.634 26.2281 31.2521 25.6539 31.9836 25.2657C32.715 24.8775 33.5344 24.6887 34.3606 24.7181ZM29.298 28.4103L29.346 29.6422L28.845 29.1623L29.298 28.4103ZM8.13815 33.8192C8.40906 32.9177 8.91046 32.1039 9.59201 31.4595C10.2736 30.8151 11.1113 30.3628 12.0211 30.1479L21.2676 27.6129C22.16 27.3334 23.1097 27.2955 24.0213 27.5031C24.9329 27.7106 25.7742 28.1562 26.4609 28.7952L30.3292 32.4996C22.9982 36.3604 14.9241 38.5735 6.66304 38.9866L8.13815 33.8192ZM3.27564 41.1091C3.18108 41.1398 3.0788 41.1359 2.98682 41.0981L1.50259 40.5385C1.38888 40.4956 1.38098 40.4521 1.38098 40.4264C1.38098 40.4006 1.36699 40.3332 1.48982 40.229L3.10234 38.8579C3.19508 38.7787 3.31275 38.7352 3.43434 38.7353L5.31927 38.674L5.05477 39.6014C4.85472 39.9563 4.63643 40.3528 4.41267 40.7739L3.27564 41.1091ZM3.63377 46.2496C3.65246 46.0789 3.685 45.9099 3.73106 45.7446C3.76025 45.7446 3.78822 45.7446 3.8174 45.7446C4.77191 45.6862 5.71512 45.5051 6.62412 45.2058C7.51922 44.9279 8.43747 44.7324 9.36761 44.6217C9.77067 44.6278 10.1626 44.7559 10.4925 44.9895L10.6141 45.0556L9.31653 47.4999L5.24569 48.616C5.23537 48.5966 5.22401 48.5778 5.21164 48.5596L3.63377 46.2496ZM4.73554 50.7906L4.91066 50.288L8.52061 51.3453L9.33842 53.4384C8.11808 53.4108 6.62352 53.2692 5.71206 53.1822L4.73554 50.7906ZM7.90527 55.6069C7.87233 55.6097 7.83916 55.6057 7.8078 55.5952C7.77643 55.5846 7.74753 55.5677 7.72286 55.5456C7.59224 55.438 7.49967 55.2907 7.45896 55.1257L7.35073 54.7243C8.20199 54.7905 9.01069 54.8358 9.70933 54.8358C10.1433 54.8413 10.5772 54.8153 11.0075 54.758L7.90527 55.6069ZM37.8459 47.2842C37.8362 47.3161 37.8201 47.3457 37.7986 47.371C37.777 47.3963 37.7504 47.4168 37.7206 47.4313L34.498 48.3151C35.6422 47.769 36.7296 47.1091 37.7437 46.3452L37.8653 46.7871C37.9126 46.9505 37.9058 47.125 37.8459 47.2842ZM52.8852 45.3088C52.8852 45.5999 52.7277 45.7679 52.6778 45.7679H50.4056C51.2454 45.5543 52.0731 45.295 52.8852 44.9913V45.3088ZM51.348 31.1733L50.9516 30.515L52.5161 30.1436C52.6081 30.1183 52.7061 30.1273 52.7921 30.1687L54.5196 30.9759C54.564 30.9962 54.6175 31.0293 54.623 31.0777C54.6092 31.0996 54.5907 31.118 54.5688 31.1316L53.4081 31.9731C53.3432 32.0207 53.2639 32.0441 53.1837 32.0393H52.1804C51.8855 31.7267 51.6028 31.4344 51.348 31.1733Z" fill="url(#paint0_linear_884_2013)"/>
<defs>
<linearGradient id="paint0_linear_884_2013" x1="-4.30769" y1="-235.231" x2="113.811" y2="-205.558" gradientUnits="userSpaceOnUse">
<stop offset="0.0580958" stop-color="#E6D1BE"/>
<stop offset="0.929784" stop-color="#896954"/>
</linearGradient>
</defs>
</svg>
