<svg width="61" height="59" viewBox="0 0 61 59" fill="none" xmlns="http://www.w3.org/2000/svg">
<path fill-rule="evenodd" clip-rule="evenodd" d="M60.7519 31.9379C60.4002 32.3232 59.8059 32.348 59.425 31.9941L57.3296 30.0453C58.1864 45.7791 45.7842 59 30.1789 59C26.7122 59 23.3336 58.3491 20.1378 57.0659C19.6555 56.8712 19.421 56.3206 19.6118 55.8342C19.8032 55.3472 20.3505 55.1104 20.8314 55.3037C23.8066 56.4986 26.9507 57.104 30.1789 57.104C44.7731 57.104 56.3874 44.627 55.4369 29.8425L53.2415 32.2496C52.8894 32.6363 52.2941 32.6579 51.9139 32.3052C51.5323 31.9499 51.5078 31.3498 51.8596 30.9651L55.4608 27.0173C55.8133 26.6291 56.4213 26.6128 56.7844 26.9591C56.7857 26.9604 56.7877 26.9618 56.7877 26.9618L60.6969 30.5985C61.0785 30.9531 61.103 31.5532 60.7519 31.9379ZM3.27791 35.5572C3.34613 36.0296 3.7476 36.3681 4.20539 36.3681C4.77195 36.3681 5.2185 35.8516 5.13613 35.2829C2.89669 19.822 14.7628 5.9756 30.1789 5.9756C32.7188 5.9756 35.2071 6.35291 37.6005 7.09352L34.7771 8.69178C34.3253 8.94802 34.1636 9.5267 34.4167 9.98299C34.6729 10.4439 35.248 10.5995 35.6959 10.3463L40.3319 7.72172C40.5317 7.60672 40.7076 7.40075 40.7685 7.17849C40.8719 6.80077 40.7923 6.67197 40.693 6.4332L38.0928 1.74812C37.839 1.29187 37.2673 1.12864 36.8142 1.38419C36.3624 1.64043 36.2021 2.21844 36.4551 2.67469L37.8497 5.18752C35.37 4.45158 32.7996 4.07961 30.1789 4.07961C13.562 4.07961 0.860684 18.9638 3.27791 35.5572ZM51.6708 5.89265C52.8056 5.89265 53.7284 6.82526 53.7284 7.97127C53.7284 9.11659 52.8056 10.0492 51.6708 10.0492C50.5373 10.0492 49.6138 9.11659 49.6138 7.97127C49.6138 6.82526 50.5373 5.89265 51.6708 5.89265ZM51.6708 11.9452C53.841 11.9452 55.6059 10.1616 55.6059 7.97127C55.6059 5.78025 53.841 3.99666 51.6708 3.99666C49.5005 3.99666 47.7357 5.78025 47.7357 7.97127C47.7357 10.1616 49.5005 11.9452 51.6708 11.9452ZM51.6708 1.89665C48.475 1.89665 45.8748 4.5225 45.8748 7.74981C45.8748 8.77607 46.1411 9.78495 46.6446 10.668C46.6585 10.6914 46.6711 10.7162 46.6817 10.741L51.6814 21.6057L57.0361 9.96824C57.323 9.26445 57.4681 8.51782 57.4681 7.74981C57.4681 4.5225 54.8679 1.89665 51.6708 1.89665ZM50.4949 23.5278C50.9642 24.5465 52.3996 24.5463 52.8679 23.5278L58.4929 11.3029C59.0551 10.1483 59.3462 9.09402 59.3462 7.74981C59.3462 3.47617 55.9026 0 51.6708 0C47.4402 0 43.9967 3.47617 43.9967 7.74981C43.9967 9.09385 44.3419 10.4152 44.997 11.5772L50.4949 23.5278ZM9.19776 41.9523C9.19776 42.9779 8.37297 43.8122 7.35739 43.8122C6.34249 43.8122 5.5164 42.9779 5.5164 41.9523C5.5164 40.9274 6.34249 40.0945 7.35739 40.0945C8.37297 40.0945 9.19776 40.9274 9.19776 41.9523ZM3.63828 41.9523C3.63828 44.0229 5.30706 45.7088 7.35739 45.7088C9.40774 45.7088 11.0752 44.0229 11.0752 41.9523C11.0752 39.8824 9.40774 38.1978 7.35739 38.1978C5.30706 38.1978 3.63828 39.8824 3.63828 41.9523ZM12.836 56.4558H1.87809V54.5156C1.87809 51.4649 4.33653 48.9816 7.35739 48.9816C10.3783 48.9816 12.836 51.4649 12.836 54.5156V56.4558ZM7.35739 47.0856C3.30043 47.0856 0 50.4179 0 54.5156V57.4038C0 57.9263 0.421329 58.3517 0.939396 58.3517H13.7748C14.2935 58.3517 14.7135 57.9263 14.7135 57.4038V54.5156C14.7135 50.4179 11.4137 47.0856 7.35739 47.0856ZM17.0076 24.839C14.9032 29.0434 14.9018 34.035 17.0076 38.2393C18.4478 37.5388 20.0477 36.9595 21.7655 36.5139C21.3112 33.2711 21.2731 29.8179 21.6648 26.5383C19.9854 26.0961 18.42 25.5261 17.0076 24.839ZM23.8132 18.1048C22.9838 20.0469 22.3505 22.266 21.939 24.641C20.5041 24.2536 19.166 23.7686 17.9642 23.1972C19.4276 21.0203 21.4462 19.2521 23.8132 18.1048ZM33.9954 17.1508C35.221 19.3752 36.1186 22.1797 36.6208 25.2665C32.4366 25.9796 27.9063 25.9166 23.7688 25.0732C24.2769 22.062 25.162 19.329 26.3624 17.1508C28.854 16.4762 31.5037 16.4762 33.9954 17.1508ZM42.6274 23.5565C41.3481 24.1004 39.9503 24.5507 38.4611 24.8979C38.0537 22.4259 37.4051 20.1171 36.5446 18.1048C39.0408 19.315 41.1487 21.2143 42.6274 23.5565ZM43.5369 37.8506C45.3936 33.8582 45.3935 29.2198 43.5369 25.2277C42.0676 25.8666 40.4465 26.3864 38.7214 26.7805C39.0732 29.9132 39.0377 33.1792 38.6241 36.2778C40.3849 36.6725 42.0391 37.2003 43.5369 37.8506ZM36.0457 45.205C38.7592 44.0122 41.0507 42.0192 42.6274 39.5218C41.3091 38.9625 39.8635 38.5015 38.324 38.151C37.8298 40.7688 37.0587 43.1652 36.0457 45.205ZM23.274 31.107C23.274 32.8089 23.3899 34.4848 23.6105 36.0931C27.8242 35.2658 32.4926 35.2085 36.7698 35.9178C37.1518 33.0441 37.1852 30.0413 36.8745 27.1438C32.5329 27.8787 27.7794 27.8198 23.5038 26.9638C23.3521 28.3112 23.274 29.6994 23.274 31.107ZM26.9738 46.0794C28.0067 46.3115 29.0778 46.4347 30.1789 46.4347C31.2799 46.4347 32.3511 46.3115 33.3839 46.0794C34.791 43.9299 35.8523 41.0391 36.469 37.7877C32.3857 37.1103 27.964 37.1715 23.9252 37.9744C24.5472 41.1488 25.5926 43.9707 26.9738 46.0794ZM17.9642 39.881C19.5297 42.2099 21.7304 44.0697 24.3121 45.205C23.3309 43.2301 22.5777 40.9213 22.0828 38.3998C20.5936 38.7939 19.205 39.2923 17.9642 39.881ZM26.1537 47.8322C26.1736 47.8383 26.1928 47.8429 26.2127 47.8463C27.4833 48.1627 28.8115 48.3313 30.1789 48.3313C31.5462 48.3313 32.8745 48.1627 34.1458 47.8463C34.1656 47.8429 34.1849 47.8383 34.2034 47.8322C38.7347 46.6909 42.5366 43.6663 44.7433 39.6335L44.842 39.4509C46.0941 37.0926 46.8063 34.3985 46.8063 31.5398C46.8063 28.6812 46.0947 25.987 44.842 23.6288L44.7433 23.4448C42.6579 19.6348 39.1501 16.7253 34.9473 15.4521C34.9096 15.4381 34.8712 15.4274 34.8321 15.418C33.3548 14.9818 31.794 14.7483 30.1789 14.7483C28.5644 14.7483 27.0023 14.9831 25.5244 15.418C25.4873 15.4274 25.4482 15.4381 25.4117 15.4521C21.37 16.6758 17.9715 19.4133 15.8629 23.01L15.7642 23.1758C14.3564 25.6398 13.5515 28.4965 13.5515 31.5398C13.5515 34.5818 14.3564 37.4385 15.7642 39.9024L15.8649 40.0757C18.1027 43.8864 21.7893 46.7324 26.1537 47.8322Z" fill="url(#paint0_linear_699_302)"/>
<defs>
<linearGradient id="paint0_linear_699_302" x1="-12.7748" y1="19.0545" x2="96.2375" y2="6.52649" gradientUnits="userSpaceOnUse">
<stop stop-color="#8A5929"/>
<stop offset="0.06" stop-color="#976837"/>
<stop offset="0.25" stop-color="#BD925F"/>
<stop offset="0.29" stop-color="#B58957"/>
<stop offset="0.46" stop-color="#986736"/>
<stop offset="0.6" stop-color="#865321"/>
<stop offset="0.69" stop-color="#804B1A"/>
<stop offset="0.75" stop-color="#844F1E"/>
<stop offset="0.81" stop-color="#8E5C2A"/>
<stop offset="0.88" stop-color="#A0713F"/>
<stop offset="0.94" stop-color="#BA8F5C"/>
<stop offset="1" stop-color="#D6B07C"/>
</linearGradient>
</defs>
</svg>
