<svg width="16" height="23" viewBox="0 0 16 23" fill="none" xmlns="http://www.w3.org/2000/svg">
<path d="M9.91138 18.1543H6.08951C5.99235 18.1543 5.89518 18.0895 5.8304 18.0247C5.76563 17.9276 5.76563 17.8304 5.79801 17.7332L6.89923 14.3324C6.21907 13.9438 5.76562 13.1988 5.76562 12.3891C5.76562 11.1583 6.76967 10.1543 8.00044 10.1543C9.23121 10.1543 10.2353 11.1583 10.2353 12.3891C10.2353 13.1988 9.81421 13.9438 9.10166 14.3324L10.2029 17.7332C10.2353 17.8304 10.2029 17.9276 10.1705 18.0247C10.1057 18.1219 10.0085 18.1543 9.91138 18.1543ZM6.54295 17.5065H9.45793L8.38911 14.2677C8.32433 14.1057 8.4215 13.9438 8.58344 13.879C9.19882 13.6199 9.58749 13.0693 9.58749 12.4215C9.58749 11.547 8.87494 10.8345 8.00044 10.8345C7.12595 10.8345 6.4134 11.547 6.4134 12.4215C6.4134 13.0693 6.80206 13.6523 7.41745 13.879C7.57939 13.9438 7.64417 14.1057 7.61178 14.2677L6.54295 17.5065Z" fill="white"/>
<path d="M14.0575 8.69774H11.7255C11.5312 8.69774 11.4017 8.56819 11.4017 8.37385V5.29693C11.4017 4.03377 10.3652 2.99734 9.10206 2.99734H6.86724C5.60408 2.99734 4.56765 4.03377 4.56765 5.29693V8.37385C4.56765 8.56819 4.43809 8.69774 4.24376 8.69774H1.91178C1.71745 8.69774 1.58789 8.56819 1.58789 8.37385V5.29693C1.58789 2.38195 3.95226 0.0175781 6.86724 0.0175781H9.10206C12.017 0.0175781 14.3814 2.38195 14.3814 5.29693V8.37385C14.3814 8.56819 14.2519 8.69774 14.0575 8.69774ZM12.0818 8.04997H13.766V5.29693C13.766 2.73823 11.6932 0.665351 9.13445 0.665351H6.89963C4.34093 0.665351 2.26805 2.73823 2.26805 5.29693V8.04997H3.95226V5.29693C3.95226 3.6775 5.2802 2.34956 6.89963 2.34956H9.13445C10.7539 2.34956 12.0818 3.6775 12.0818 5.29693V8.04997Z" fill="white"/>
<path d="M15.6761 22.9815H0.323887C0.129555 22.9815 0 22.852 0 22.6576V18.9977C0 18.8034 0.129555 18.6738 0.323887 18.6738C0.518219 18.6738 0.647773 18.8034 0.647773 18.9977V22.3337H15.3522V18.9977C15.3522 18.8034 15.4818 18.6738 15.6761 18.6738C15.8704 18.6738 16 18.8034 16 18.9977V22.6576C16 22.852 15.8704 22.9815 15.6761 22.9815Z" fill="white"/>
<path d="M15.6761 20.2937H0.323887C0.129555 20.2937 0 20.1641 0 19.9698V8.37467C0 8.18034 0.129555 8.05078 0.323887 8.05078H15.6761C15.8704 8.05078 16 8.18034 16 8.37467V19.9698C16 20.1641 15.8704 20.2937 15.6761 20.2937ZM0.647773 19.6459H15.3522V8.69855H0.647773V19.6459Z" fill="white"/>
</svg>
