<svg width="58" height="60" viewBox="0 0 58 60" fill="none" xmlns="http://www.w3.org/2000/svg">
<path d="M23.9516 25.7812H15.6502C15.2518 25.7812 14.9272 26.1035 14.9272 26.499V34.7396C14.9272 35.1351 15.2518 35.4573 15.6502 35.4573H23.9516C24.35 35.4573 24.6747 35.1351 24.6747 34.7396V26.499C24.6747 26.1035 24.35 25.7812 23.9516 25.7812ZM23.2286 34.0218H16.3701V27.2136H23.2286V34.0218ZM17.0547 31.4409C16.7744 31.1626 16.7744 30.7056 17.0547 30.4273C17.3351 30.1489 17.7955 30.149 18.0758 30.4273L18.8431 31.1889L21.5258 28.526C21.8091 28.2477 22.2665 28.2477 22.5469 28.526C22.8273 28.8043 22.8273 29.2613 22.5469 29.5396L19.3537 32.7094C19.212 32.85 19.0291 32.9203 18.8432 32.9203C18.6572 32.9203 18.4743 32.85 18.3326 32.7094L17.0547 31.4409ZM23.9516 13.0991H15.6502C15.2518 13.0991 14.9271 13.4213 14.9271 13.8168V22.0574C14.9271 22.4529 15.2518 22.7751 15.6502 22.7751H23.9516C24.35 22.7751 24.6746 22.4529 24.6746 22.0574V13.8168C24.6746 13.4213 24.35 13.0991 23.9516 13.0991ZM23.2286 21.3397H16.3701V14.5314H23.2286V21.3397ZM17.5387 19.166L18.7782 17.9356L17.5387 16.7052C17.2584 16.4269 17.2584 15.9699 17.5387 15.6915C17.8191 15.4132 18.2795 15.4132 18.5599 15.6915L19.7993 16.9219L21.0388 15.6915C21.3192 15.4132 21.7796 15.4132 22.06 15.6915C22.3403 15.9698 22.3403 16.4268 22.06 16.7052L20.8205 17.9356L22.06 19.166C22.3403 19.4443 22.3403 19.9013 22.06 20.1796C21.9183 20.3202 21.7353 20.3905 21.5494 20.3905C21.3635 20.3905 21.1805 20.3202 21.0389 20.1796L19.7994 18.9492L18.5599 20.1796C18.4182 20.3202 18.2353 20.3905 18.0494 20.3905C17.8634 20.3905 17.6805 20.3202 17.5388 20.1796C17.2584 19.9013 17.2584 19.4443 17.5387 19.166ZM23.9517 38.4573H15.6502C15.2518 38.4573 14.9272 38.7795 14.9272 39.175V47.4156C14.9272 47.8111 15.2518 48.1334 15.6502 48.1334H23.9517C24.3501 48.1334 24.6747 47.8111 24.6747 47.4156V39.175C24.6747 38.7795 24.3501 38.4573 23.9517 38.4573ZM23.2286 46.6979H16.3701V39.8896H23.2286V46.6979ZM17.0547 44.117C16.7744 43.8386 16.7744 43.3816 17.0547 43.1033C17.3351 42.825 17.7955 42.825 18.0759 43.1033L18.8432 43.865L21.5258 41.202C21.8091 40.9237 22.2665 40.9237 22.5469 41.202C22.8273 41.4803 22.8273 41.9373 22.5469 42.2156L19.3537 45.3854C19.2121 45.5261 19.0291 45.5964 18.8432 45.5964C18.6573 45.5964 18.4743 45.5261 18.3326 45.3854L17.0547 44.117ZM41.9953 16.6698H26.667C26.2686 16.6698 25.9439 16.3475 25.9439 15.952C25.9439 15.5566 26.2686 15.2343 26.667 15.2343H41.9953C42.3937 15.2343 42.7183 15.5566 42.7183 15.952C42.7183 16.3475 42.3937 16.6698 41.9953 16.6698ZM37.7692 19.9157C37.7692 20.3112 37.4446 20.6334 37.0462 20.6334H26.6671C26.2687 20.6334 25.9441 20.3112 25.9441 19.9157C25.9441 19.5202 26.2687 19.198 26.6671 19.198H37.0462C37.4446 19.198 37.7692 19.5202 37.7692 19.9157ZM36.332 28.631C36.332 29.0265 36.0074 29.3488 35.609 29.3488H26.6669C26.2685 29.3488 25.9438 29.0265 25.9438 28.631C25.9438 28.2355 26.2685 27.9133 26.6669 27.9133H35.609C36.0074 27.9133 36.332 28.2355 36.332 28.631ZM36.332 32.5917C36.332 32.9872 36.0074 33.3095 35.609 33.3095H26.6669C26.2685 33.3095 25.9438 32.9872 25.9438 32.5917C25.9438 32.1962 26.2685 31.874 26.6669 31.874H35.609C36.0074 31.874 36.332 32.1962 36.332 32.5917ZM35.0541 41.3071C35.0541 41.7025 34.7295 42.0248 34.3311 42.0248H26.6666C26.2682 42.0248 25.9435 41.7025 25.9435 41.3071C25.9435 40.9116 26.2682 40.5893 26.6666 40.5893H34.3311C34.7295 40.5893 35.0541 40.9116 35.0541 41.3071ZM35.0541 45.2678C35.0541 45.6633 34.7295 45.9855 34.3311 45.9855H26.6666C26.2682 45.9855 25.9435 45.6633 25.9435 45.2678C25.9435 44.8723 26.2682 44.55 26.6666 44.55H34.3311C34.7295 44.55 35.0541 44.8723 35.0541 45.2678ZM6.15024 7.13662H0.723036C0.324631 7.13662 0 7.45888 0 7.85436V39.8688V39.8864C0 39.901 1.5374e-07 39.9186 0.00295189 39.9333C0.00295189 39.945 0.00590306 39.9538 0.00590306 39.9626C0.00885404 39.9743 0.0088537 39.9889 0.0118047 40.0006C0.0147557 40.0153 0.0177072 40.027 0.0206582 40.0387C0.0236092 40.0475 0.0265614 40.0563 0.0295124 40.068C0.0354144 40.0827 0.0383648 40.0973 0.0442676 40.1149C0.0472185 40.1207 0.0472189 40.1266 0.0501706 40.1325L2.76529 46.9466L2.76824 46.9524C2.78004 46.9817 2.7948 47.011 2.8125 47.0403C2.81545 47.0462 2.81841 47.052 2.82431 47.0579C2.83906 47.0813 2.85677 47.1048 2.87448 47.1282C2.87743 47.1311 2.88038 47.137 2.88333 47.1399C2.90399 47.1633 2.92465 47.1868 2.94826 47.2073C2.95416 47.2132 2.96006 47.2161 2.96301 47.2219C2.98367 47.2424 3.00728 47.26 3.03384 47.2747C3.03679 47.2776 3.03974 47.2776 3.03974 47.2805C3.0663 47.2981 3.09286 47.3128 3.12238 47.3274C3.12828 47.3303 3.13714 47.3333 3.14304 47.3362C3.15189 47.342 3.1637 47.345 3.17255 47.3508C3.17845 47.3538 3.18731 47.3538 3.19321 47.3567C3.21977 47.3655 3.24928 47.3743 3.27879 47.3801C3.2906 47.3831 3.3024 47.386 3.31716 47.3889C3.35552 47.3948 3.39684 47.4006 3.4352 47.4006H3.43815H3.44111C3.48242 47.4006 3.52079 47.3948 3.55915 47.3889C3.57096 47.386 3.58276 47.3831 3.59457 47.3801C3.62408 47.3743 3.65359 47.3655 3.68015 47.3567C3.68605 47.3538 3.69491 47.3538 3.70081 47.3508C3.71261 47.345 3.72147 47.342 3.73032 47.3362C3.73622 47.3333 3.74508 47.3303 3.75098 47.3274C3.78049 47.3128 3.80705 47.2981 3.83362 47.2805L3.83952 47.2747C3.86313 47.2571 3.88673 47.2395 3.91034 47.219C3.91625 47.2132 3.92215 47.2102 3.9251 47.2044C3.94871 47.1839 3.96937 47.1604 3.99003 47.137C3.99298 47.1341 3.99593 47.1282 3.99888 47.1253C4.01659 47.1018 4.03429 47.0784 4.04905 47.055C4.052 47.0491 4.05495 47.0432 4.06085 47.0374C4.07856 47.0081 4.09037 46.9788 4.10512 46.9495C4.10512 46.9466 4.10807 46.9436 4.10807 46.9436L6.82319 40.1295C6.82614 40.1237 6.82614 40.1178 6.82909 40.112C6.83499 40.0973 6.8409 40.0827 6.84385 40.0651C6.8468 40.0563 6.84975 40.0475 6.8527 40.0358C6.85565 40.0241 6.8586 40.0094 6.86155 39.9977C6.86451 39.986 6.8645 39.9713 6.86746 39.9596C6.87041 39.9508 6.87041 39.9391 6.87041 39.9303C6.87336 39.9157 6.87336 39.8981 6.87336 39.8835V39.8659V7.85143C6.87336 7.45595 6.54873 7.13369 6.15032 7.13369L6.15024 7.13662ZM3.43513 44.7345L1.4431 39.7338V12.0556H5.42716V39.7308L3.43513 44.7315V44.7345ZM5.42716 8.57205V10.6257H1.4431V8.57205H5.42716ZM54.2309 41.131H53.7322V35.3481C53.7322 32.5914 52.0559 30.2155 49.6596 29.1726V4.72826C49.6596 4.33278 49.3349 4.01053 48.9365 4.01053H37.0465V3.72929C37.0465 3.33381 36.7219 3.01155 36.3234 3.01155H32.5046C32.1682 1.29774 30.6425 0 28.8186 0C26.9948 0 25.469 1.29781 25.1326 3.01155H21.3138C20.9154 3.01155 20.5907 3.33381 20.5907 3.72929V4.01053H8.7007C8.30229 4.01053 7.97766 4.33278 7.97766 4.72826V56.508C7.97766 56.9035 8.30229 57.2257 8.7007 57.2257H36.0815C36.5891 58.837 37.9969 60 39.6495 60H54.2284C56.309 60 58 58.1632 58 55.9045V45.2265C58 42.9679 56.309 41.1311 54.2284 41.1311L54.2309 41.131ZM52.2861 35.3481V41.131H41.5973V35.3481C41.5973 32.4215 43.9966 30.0427 46.9419 30.0427C47.5587 30.0427 48.1519 30.1481 48.7037 30.3415C48.7125 30.3444 48.7214 30.3474 48.7302 30.3503C50.802 31.0827 52.2861 33.0455 52.2861 35.3481ZM39.6519 41.131C37.5713 41.131 35.8803 42.9678 35.8803 45.2264V52.7673H12.5603V8.47298H20.5935V8.80402C20.5935 9.19951 20.9181 9.52176 21.3165 9.52176H36.323C36.7214 9.52176 37.0461 9.19951 37.0461 8.80402V8.47298H45.0793V28.8682C42.2373 29.6739 40.1509 32.2724 40.1509 35.3484V41.1313L39.6519 41.131ZM48.2132 5.4492V28.7333C47.8001 28.6542 47.3751 28.6132 46.9383 28.6132C46.7996 28.6132 46.6609 28.6191 46.5222 28.6279V7.76087C46.5222 7.36538 46.1976 7.04313 45.7992 7.04313H37.0429V5.45239H48.21L48.2132 5.4492ZM22.0367 4.45318H25.7846C26.183 4.45318 26.5077 4.13093 26.5077 3.73544C26.5077 2.46988 27.5435 1.4416 28.8184 1.4416C30.0933 1.4416 31.1292 2.46988 31.1292 3.73544C31.1292 4.13093 31.4538 4.45318 31.8522 4.45318H35.6002V8.0917H22.0367L22.0367 4.45318ZM9.4236 5.4492H20.5906V7.03995H11.8344C11.436 7.03995 11.1114 7.3622 11.1114 7.75769V53.4852C11.1114 53.8807 11.436 54.203 11.8344 54.203H35.8774V55.7937H9.42586V5.4464L9.4236 5.4492ZM56.557 55.9075C56.557 57.3752 55.5122 58.5705 54.2314 58.5705H39.6526C38.3688 58.5705 37.3271 57.3752 37.3271 55.9075V45.2295C37.3271 43.7618 38.3718 42.5666 39.6526 42.5666H54.2314C55.5152 42.5666 56.557 43.7618 56.557 45.2295V55.9075ZM46.9417 46.9664C45.5104 46.9664 44.3447 48.1236 44.3447 49.5444C44.3447 50.7163 45.1386 51.7094 46.2216 52.0199V53.4495C46.2216 53.845 46.5463 54.1672 46.9447 54.1672C47.3431 54.1672 47.6677 53.845 47.6677 53.4495V52.0199C48.7508 51.7094 49.5447 50.7163 49.5447 49.5444C49.5447 48.1236 48.3789 46.9664 46.9477 46.9664H46.9417ZM46.9417 50.6899C46.3043 50.6899 45.7878 50.1772 45.7878 49.5444C45.7878 48.9117 46.3043 48.399 46.9417 48.399C47.5791 48.399 48.0956 48.9117 48.0956 49.5444C48.0956 50.1772 47.5791 50.6899 46.9417 50.6899Z" fill="url(#paint0_linear_884_1898)"/>
<defs>
<linearGradient id="paint0_linear_884_1898" x1="-4.46154" y1="-247.612" x2="118.107" y2="-217.315" gradientUnits="userSpaceOnUse">
<stop offset="0.0580958" stop-color="#E6D1BE"/>
<stop offset="0.929784" stop-color="#896954"/>
</linearGradient>
</defs>
</svg>
