<svg width="61" height="61" viewBox="0 0 61 61" fill="none" xmlns="http://www.w3.org/2000/svg">
<path d="M60.6915 49.6462C59.8718 47.6046 57.5558 46.4118 55.5066 46.9729L42.5759 49.5096C42.2461 48.3851 41.3779 47.4802 40.1557 47.0046C38.5479 46.2607 37.1631 45.6118 35.9579 45.0509C34.2821 44.263 32.9532 43.6386 31.8303 43.1459V24.4451C37.8034 23.989 42.5713 19.1863 43.0295 13.1811H51.1561L45.1224 25.9818C45.0593 26.1062 45.0302 26.2452 45.0302 26.3818C45.0302 29.9478 48.4375 32.8458 52.6354 32.8458C56.8333 32.8458 60.2405 29.9481 60.2405 26.3818C60.2405 26.3135 60.2333 26.2452 60.2163 26.1818C60.209 26.1623 60.2042 26.1501 60.2042 26.133C60.192 26.0842 60.1799 26.0403 60.1557 25.9964C60.1557 25.9891 60.1484 25.9842 60.1484 25.9769L53.472 11.8444C53.3047 11.4883 52.9433 11.2883 52.5771 11.3126H43.022C42.5442 4.99537 37.2914 0 30.8916 0C24.4918 0 19.2386 4.99537 18.7612 11.3076H9.23026C8.86407 11.2881 8.50272 11.4881 8.3354 11.8394L1.64908 25.9863C1.64908 25.9936 1.6418 25.9985 1.6418 26.0058C1.6224 26.0497 1.61028 26.0936 1.5933 26.1424C1.58603 26.1619 1.58117 26.1741 1.5739 26.1912C1.56177 26.2546 1.54965 26.3229 1.54965 26.3912C1.54965 29.9572 4.97147 32.8552 9.16721 32.8552C13.3578 32.8552 16.7724 29.9575 16.7724 26.3912C16.7724 26.2546 16.7408 26.1155 16.6802 25.9911L10.6465 13.1905H18.7539C19.2074 19.1981 23.9825 23.9936 29.953 24.4544V42.3941C26.9847 41.2892 25.4399 41.4257 20.9945 41.9501C19.2872 42.1502 17.2137 42.3941 14.4273 42.638C14.4467 42.1819 14.1412 41.7697 13.6877 41.677L4.25855 39.7354C4.01118 39.6866 3.75655 39.7354 3.54559 39.8793C3.34188 40.0232 3.1988 40.2403 3.15514 40.4915L0.795497 54.0165C0.70819 54.5165 1.03073 54.997 1.52789 55.097L10.9589 57.0459C11.0219 57.0581 11.0826 57.0654 11.1456 57.0654C11.3324 57.0654 11.5118 57.0093 11.6743 56.902C11.861 56.7776 11.9847 56.5898 12.0478 56.3703C20.4097 59.3607 26.5305 60.5607 32.0695 60.5607C38.8427 60.5607 44.748 58.7801 52.8306 56.3532C54.5743 55.8288 56.4247 55.2726 58.4181 54.6921C59.4124 54.4043 60.2054 53.736 60.6467 52.8115C61.1002 51.8505 61.1196 50.6944 60.6904 49.6455L60.6915 49.6462ZM52.6282 30.9697C49.866 30.9697 47.5621 29.4014 47.0164 27.3232H58.2348C57.694 29.4038 55.3903 30.9697 52.6282 30.9697ZM52.6282 14.43L57.8252 25.4498H47.4313L52.6282 14.43ZM9.18257 14.43L14.3796 25.4498H3.96643L9.18257 14.43ZM9.1753 30.9697C6.40584 30.9697 4.08984 29.4014 3.55146 27.3232H14.7897C14.2416 29.4038 11.9375 30.9697 9.1753 30.9697ZM20.5805 12.2446C20.5805 6.52475 25.2052 1.87356 30.8919 1.87356C36.5785 1.87356 41.2032 6.525 41.2032 12.2446C41.2032 17.9641 36.5785 22.6156 30.8919 22.6156C25.2052 22.6156 20.5805 17.9641 20.5805 12.2446ZM4.8295 41.7653L12.4346 43.3191L12.4104 43.4508C12.3983 43.4947 12.391 43.5313 12.3861 43.5752L10.3927 55.0077L2.79254 53.4442L4.8295 41.7653ZM58.9602 51.9952C58.7564 52.4318 58.3757 52.744 57.8931 52.8831C55.8997 53.4636 54.0444 54.0197 52.2935 54.5515C37.4688 59.0102 30.5887 61.0711 12.3811 54.4954L14.1126 44.5365C17.1683 44.2804 19.4018 44.0194 21.2155 43.8047C27.3438 43.0877 27.3438 43.0877 35.1717 46.7513C36.377 47.3123 37.7618 47.9635 39.4303 48.7319C40.262 49.0563 40.7471 49.588 40.8392 50.2807C40.9387 51.0247 40.5603 51.8491 39.9007 52.3345C39.1999 52.8516 38.3171 52.9028 37.4174 52.4784L28.3036 48.2148C27.838 47.9953 27.2803 48.2026 27.062 48.6709C26.8437 49.1393 27.0499 49.7002 27.5155 49.9198L36.6292 54.1834C37.2865 54.4883 37.9582 54.6444 38.6106 54.6444C39.4739 54.6444 40.2936 54.3761 41.0066 53.8517C41.8263 53.2468 42.3792 52.3663 42.6071 51.4223L55.9115 48.8173C55.9358 48.81 55.96 48.8051 55.9915 48.7978C57.1411 48.4661 58.4991 49.1783 58.972 50.3588C59.1951 50.9272 59.1954 51.5074 58.9602 51.9952Z" fill="url(#paint0_linear_884_1879)"/>
<path d="M37.5662 18.5994C37.9687 18.4872 38.2501 18.1189 38.2501 17.6945V13.9772C38.2501 12.1966 36.698 11.1039 35.3205 10.138C35.0101 9.91852 34.7118 9.71363 34.4377 9.50145C34.9397 8.77699 35.221 7.9038 35.221 6.98428C35.221 4.58663 33.2785 2.63281 30.8946 2.63281C28.5107 2.63281 26.5682 4.58656 26.5682 6.98428C26.5682 7.8965 26.8471 8.77706 27.3515 9.50145C27.0774 9.71365 26.7792 9.92098 26.476 10.138C25.1107 11.1064 23.5586 12.1991 23.5586 13.9772V17.692C23.5586 18.1116 23.8375 18.4847 24.2425 18.597C26.3281 19.1848 28.5689 19.4848 30.8972 19.4848C33.2325 19.4848 35.4807 19.1848 37.5662 18.5994ZM25.4234 13.9772C25.4234 13.1723 26.4541 12.4406 27.5478 11.6722C28.1686 11.2356 28.8137 10.7795 29.3351 10.2551C29.5218 10.0673 29.6213 9.81852 29.6091 9.55508C29.597 9.29165 29.4782 9.05018 29.2793 8.8819C28.7385 8.4209 28.4281 7.72572 28.4281 6.99646C28.4281 5.6281 29.5339 4.51825 30.892 4.51825C32.2525 4.51825 33.356 5.63047 33.356 6.99646C33.356 7.73309 33.0456 8.42089 32.5048 8.8819C32.3059 9.0502 32.1871 9.30143 32.175 9.55508C32.1628 9.81852 32.2623 10.0722 32.449 10.2551C32.9777 10.7869 33.6227 11.2405 34.2484 11.6796C35.3421 12.4479 36.3777 13.1772 36.3777 13.9772V16.9677C34.6461 17.3921 32.8006 17.6043 30.8897 17.6043C28.9835 17.6043 27.1453 17.392 25.4138 16.9677L25.4162 13.9772H25.4234Z" fill="url(#paint1_linear_884_1879)"/>
<defs>
<linearGradient id="paint0_linear_884_1879" x1="-3.85096" y1="-249.926" x2="122.982" y2="-217.677" gradientUnits="userSpaceOnUse">
<stop offset="0.0580958" stop-color="#E6D1BE"/>
<stop offset="0.929784" stop-color="#896954"/>
</linearGradient>
<linearGradient id="paint1_linear_884_1879" x1="22.4285" y1="-66.9132" x2="53.8127" y2="-59.9169" gradientUnits="userSpaceOnUse">
<stop offset="0.0580958" stop-color="#E6D1BE"/>
<stop offset="0.929784" stop-color="#896954"/>
</linearGradient>
</defs>
</svg>
