<svg width="73" height="61" viewBox="0 0 73 61" fill="none" xmlns="http://www.w3.org/2000/svg">
<path d="M72.0869 42.9001H71.8815L68.2072 34.8346C68.9605 34.6207 69.5113 33.9283 69.5113 33.1081V31.9076C69.5113 30.918 68.7044 30.1126 67.7129 30.1126L59.6376 30.1097C59.4857 29.9433 59.3101 29.7976 59.1254 29.6609C59.584 28.817 59.8281 27.866 59.8281 26.8854V19.0725C59.8281 15.878 57.2287 13.2836 54.0279 13.2836H45.4137V8.34765C45.4137 3.7445 41.662 0.00297096 37.0526 0.00297096L22.784 0C18.1718 0 14.4229 3.74434 14.4229 8.34468V13.2807L5.80027 13.2836C2.59943 13.2836 0 15.878 0 19.0725V26.8938C0 28.6501 0.786033 30.2489 2.05747 31.3216V49.7789C2.05747 52.9735 4.65689 55.5678 7.85774 55.5678H48.7837V55.6748V56.3583C48.1138 56.6941 47.6493 57.3865 47.6493 58.1769V58.9614C47.6493 60.0877 48.5634 61 49.6919 61H64.4575C65.586 61 66.5001 60.0877 66.5001 58.9614V58.1769C66.5001 57.3775 66.0356 56.6941 65.3656 56.3583V55.6748C65.3656 53.2469 63.3825 51.2707 60.9528 51.2707H59.4819L59.476 35.0781C59.5355 35.0246 59.5891 34.9652 59.6427 34.9117H65.4191L61.7747 42.8996H61.5692C61.066 42.8996 60.6611 43.3037 60.6611 43.806V45.2353C60.6611 47.6156 62.6054 49.5562 64.9904 49.5562H68.6706C71.0556 49.5562 73 47.6156 73 45.2353V43.806C72.9911 43.3008 72.5802 42.8996 72.0859 42.8996L72.0869 42.9001ZM42.9606 44.7099H51.6639V45.2269C51.6639 46.6117 50.5354 47.7291 49.1568 47.7291H45.4766C44.0891 47.7291 42.9695 46.6028 42.9695 45.2269L42.9665 44.7099H42.9606ZM44.2498 42.9001L47.3077 36.1901L50.3657 42.9001H44.2498ZM46.4443 33.0933V31.9284H53.5933C53.5636 32.1186 53.5487 32.3088 53.5487 32.5138C53.5487 32.7129 53.5636 32.9091 53.5933 33.0992L46.4443 33.1022V33.0933ZM55.3618 32.5138C55.3618 31.5777 56.1241 30.8169 57.062 30.8169C58 30.8169 58.7622 31.5777 58.7622 32.5138C58.7622 33.4499 58 34.2106 57.062 34.2106C56.133 34.2106 55.3618 33.4499 55.3618 32.5138ZM16.237 8.35384C16.237 4.74917 19.1729 1.81913 22.7846 1.81913H37.0532C40.665 1.81913 43.6008 4.74924 43.6008 8.35384V13.2898H41.0252V8.35384C41.0252 6.16964 39.2417 4.38964 37.0532 4.38964H22.7846C20.5961 4.38964 18.8126 6.16964 18.8126 8.35384V13.2898H16.237V8.35384ZM39.1937 13.2839H20.6345V8.3479C20.6345 7.1622 21.6021 6.20236 22.7842 6.20236H37.0528C38.2408 6.20236 39.2026 7.16813 39.2026 8.3479V13.2839H39.1937ZM1.82287 19.0727C1.82287 16.8826 3.60638 15.0936 5.80982 15.0936H54.0283C56.2227 15.0936 58.0152 16.8736 58.0152 19.0727V26.894C58.0152 27.6637 57.8098 28.3918 57.4138 29.0159C57.3006 29.0069 57.1845 29.001 57.0714 29.001C56.059 29.001 55.1419 29.4349 54.5017 30.1184H46.4295C45.438 30.1184 44.631 30.9237 44.631 31.9133V33.1138C44.631 33.1584 44.631 33.206 44.64 33.2505L35.6058 35.4347V32.0025C35.6058 31.5002 35.2008 31.0961 34.6976 31.0961L25.1398 31.0991C24.6366 31.0991 24.2316 31.5032 24.2316 32.0054V35.4377L4.86283 30.7573C3.04059 30.3175 1.81383 28.7633 1.81383 26.8942V19.0729L1.82287 19.0727ZM33.784 32.9116V38.9589C33.784 41.0897 32.0452 42.8221 29.9133 42.8221C27.7783 42.8221 26.0425 41.0867 26.0425 38.9589V32.9116H33.784ZM7.85837 53.7463C5.66393 53.7463 3.87142 51.9663 3.87142 49.7672V32.3475C4.05305 32.4069 4.24361 32.4693 4.43417 32.5139L24.223 37.2923V38.9446C24.223 42.0708 26.7777 44.6205 29.91 44.6205C33.0424 44.6205 35.5971 42.0708 35.5971 38.9446V37.2923L45.8639 34.811C45.8877 34.8199 45.9026 34.8258 45.9234 34.8258L42.2521 42.8997H42.0467C41.5435 42.8997 41.1385 43.3039 41.1385 43.8061V45.2354C41.1385 47.6158 43.0829 49.5563 45.4679 49.5563H49.1481C51.5331 49.5563 53.4775 47.6158 53.4775 45.2354V43.8061C53.4775 43.3038 53.0725 42.8997 52.5693 42.8997H52.3639L48.7194 34.9118H54.4958C54.5494 34.9712 54.609 35.0247 54.6625 35.0782L54.6685 51.2678H53.1887C51.4438 51.2678 49.9342 52.287 49.2167 53.7551H7.85845L7.85837 53.7463ZM64.6697 58.9587C64.6697 59.0805 64.5714 59.1786 64.4493 59.1786H49.6838C49.5617 59.1786 49.4634 59.0805 49.4634 58.9587V58.1742C49.4634 58.0523 49.5617 57.9543 49.6838 57.9543H64.4493C64.5714 57.9543 64.6697 58.0523 64.6697 58.1742V58.9587ZM63.5412 55.672V56.1356H50.5982V55.672C50.5982 54.2426 51.7653 53.0777 53.1976 53.0777H60.942C62.3742 53.0777 63.5412 54.2425 63.5412 55.672ZM57.6486 51.2679H56.4814V35.9753C56.672 36.005 56.8626 36.0199 57.068 36.0199C57.2675 36.0199 57.464 36.005 57.6546 35.9753L57.6576 51.2679H57.6486ZM60.5368 31.9281H67.6859V33.0929H60.5368C60.5666 32.9028 60.5815 32.7126 60.5815 32.5075C60.5845 32.3173 60.5666 32.1183 60.5368 31.9281ZM66.8254 36.1895L69.8833 42.8996H63.7615L66.8254 36.1895ZM71.1696 45.2265C71.1696 46.6113 70.0411 47.7287 68.6625 47.7287H64.9823C63.5948 47.7287 62.4752 46.6024 62.4752 45.2265V44.7094H71.1816L71.1786 45.2265H71.1696Z" fill="url(#paint0_linear_884_2008)"/>
<defs>
<linearGradient id="paint0_linear_884_2008" x1="-5.61538" y1="-251.739" x2="144.062" y2="-205.936" gradientUnits="userSpaceOnUse">
<stop offset="0.0580958" stop-color="#E6D1BE"/>
<stop offset="0.929784" stop-color="#896954"/>
</linearGradient>
</defs>
</svg>
