<svg width="63" height="63" viewBox="0 0 63 63" fill="none" xmlns="http://www.w3.org/2000/svg">
<path d="M62.8903 46.3294L58.7195 39.2379C58.5808 39.0015 58.3186 38.85 58.0411 38.85C57.8972 38.85 57.7585 38.8885 57.6403 38.963C57.08 39.2919 56.3836 39.4949 55.7643 39.4949C54.9291 39.4949 54.4151 39.2508 53.8241 38.9759C53.1534 38.6598 52.3901 38.3053 51.1849 38.3053C50.6401 38.3053 50.1056 38.3772 49.6122 38.5159C49.1574 37.2081 47.9162 36.26 46.4539 36.26C44.9943 36.26 43.7505 37.2004 43.2957 38.5159C43.0978 38.4646 42.8948 38.4183 42.684 38.3849C42.3166 38.1742 41.9285 37.9892 41.5251 37.8325L29.3545 33.0302V30.5969C31.395 29.0835 32.8212 26.8019 33.1963 24.1759H33.6435C36.0642 24.1759 38.0327 22.2102 38.0327 19.7873C38.0327 18.4974 37.4725 17.3411 36.5911 16.5369L36.9457 10.7608C36.9585 10.5296 36.992 10.3471 37.0639 10.1236C37.4314 8.93395 37.6164 7.65694 37.6164 6.32086C37.6164 4.44515 37.2489 2.65684 36.5448 1.15112C36.3546 0.742585 35.9923 0.472824 35.5452 0.408559C35.1032 0.341755 34.6766 0.493353 34.3734 0.829951C34.065 1.1794 33.2607 1.58534 31.2151 1.58534C30.2617 1.58534 29.3674 1.28986 28.3344 0.948121C26.9929 0.506173 25.4716 0 23.4004 0C18.6231 0 14.7428 1.90137 14.1442 4.53249C13.9 5.25709 13.3809 5.74266 12.6434 5.94565C11.1247 6.37218 10.1045 7.62352 10.1045 9.0624C10.1045 10.7326 10.2561 12.6082 10.4 14.4171C10.4591 15.1545 10.5131 15.8509 10.5567 16.5292C9.69585 17.3488 9.13561 18.5051 9.13561 19.7949C9.13561 22.2153 11.1015 24.1835 13.5248 24.1835H13.972C14.3523 26.807 15.7811 29.0912 17.8138 30.6046V33.0378L5.64325 37.8401C2.16373 39.2147 0 42.3932 0 46.134V60.8032C0 62.0133 0.986801 63 2.19715 63H53.5904C53.868 63 54.1224 62.8561 54.2611 62.6197C54.405 62.3833 54.4127 62.093 54.2817 61.8489C53.0636 59.5466 50.9409 57.9408 48.4868 57.3626L48.4816 42.2515C49.1472 41.7376 49.6124 40.9873 49.7511 40.1214C50.1649 39.9647 50.666 39.8773 51.1799 39.8773C52.0357 39.8773 52.5471 40.1214 53.1535 40.4041C53.8191 40.7201 54.5747 41.0695 55.7645 41.0695C55.9547 41.0695 56.132 41.0567 56.3093 41.0361L53.1921 46.3369C53.0996 46.4936 53.0662 46.6735 53.0945 46.8508C53.4568 49.2789 55.5872 51.1058 58.0413 51.1058C60.4955 51.1058 62.6206 49.2764 62.9881 46.8508C63.0215 46.6709 62.9828 46.4887 62.8903 46.3294ZM46.4693 37.8375C47.4432 37.8375 48.2398 38.634 48.2398 39.6079C48.2398 40.5817 47.4432 41.3782 46.4693 41.3782C45.4953 41.3782 44.6987 40.5817 44.6987 39.6079C44.6987 38.6263 45.4902 37.8375 46.4693 37.8375ZM31.76 35.6612L27.728 39.1659L25.9908 36.8765L28.7405 34.4689L31.76 35.6612ZM22.6551 42.2725H24.5439L26.5561 61.4277H20.6353L22.6551 42.2725ZM24.8317 40.7052H22.3647L21.3702 39.2457L22.4881 37.7657C22.5395 37.6937 22.5934 37.6141 22.632 37.5344H24.5593C24.5979 37.6141 24.6441 37.6912 24.7033 37.7657L25.8211 39.2457L24.8317 40.7052ZM33.6669 22.611H33.3174V16.9737H33.6669C35.2191 16.9737 36.4886 18.2378 36.4886 19.7949C36.4886 21.3546 35.2268 22.611 33.6669 22.611ZM10.7086 19.7949C10.7086 18.243 11.973 16.9737 13.5303 16.9737H13.8798V22.611H13.5303C11.9704 22.611 10.7086 21.3468 10.7086 19.7949ZM13.8721 14.394V15.4064H13.5226C13.0215 15.4064 12.5358 15.4912 12.0886 15.6505C12.0552 15.2162 12.0218 14.7692 11.9832 14.3092C11.8393 12.526 11.6929 10.6837 11.6929 9.07269C11.6929 8.34295 12.2531 7.69807 13.0883 7.46679C14.3372 7.11735 15.2469 6.24885 15.6607 5.01295L15.6684 5.00011C15.6761 4.97441 15.6889 4.94101 15.6941 4.91531C16.0358 3.30941 19.0888 1.57505 23.424 1.57505C25.2408 1.57505 26.5746 2.017 27.8646 2.44351C28.9773 2.81094 30.0284 3.16036 31.2336 3.16036C33.1687 3.16036 34.4716 2.83918 35.2862 2.14797C35.8002 3.37874 36.07 4.8125 36.07 6.32592C36.07 7.50275 35.9055 8.62814 35.5894 9.66618C35.4841 10.0079 35.4327 10.3162 35.4044 10.6657L35.1012 15.6452C34.654 15.4885 34.1735 15.4089 33.6724 15.4089H33.3229V14.3965C33.3229 13.3507 32.8629 12.4308 32.0277 11.7988C31.1925 11.1667 30.18 10.9766 29.1726 11.2592C27.2504 11.8039 24.7834 12.0018 23.5936 12.0018C22.4038 12.0018 19.9368 11.8039 18.0146 11.2592C17.0072 10.9766 15.9947 11.1667 15.1595 11.7988C14.3321 12.4206 13.8721 13.3483 13.8721 14.394ZM15.4371 22.7807V14.394C15.4371 13.8339 15.6606 13.3816 16.1078 13.045C16.4161 12.8138 16.7451 12.6956 17.1023 12.6956C17.259 12.6956 17.4235 12.7213 17.5879 12.7675C19.8236 13.3996 22.4962 13.5692 23.5935 13.5692C24.6934 13.5692 27.3558 13.4048 29.5992 12.7675C30.1388 12.6159 30.6322 12.7084 31.0794 13.045C31.5265 13.3816 31.7501 13.8338 31.7501 14.394V22.7886C31.7501 27.2876 28.0932 30.9437 23.5938 30.9437C19.0967 30.9437 15.4371 27.2797 15.4371 22.7807ZM23.5959 32.5112C25.1019 32.5112 26.5306 32.1694 27.8052 31.5502V33.2075L24.9117 35.741C24.832 35.8078 24.7678 35.8849 24.7009 35.9645H22.4909C22.4318 35.8849 22.3598 35.8078 22.2802 35.741L19.3866 33.2075V31.5502C20.6612 32.1618 22.0901 32.5112 23.5959 32.5112ZM18.4435 34.4717L21.1932 36.8793L19.456 39.1687L15.424 35.664L18.4435 34.4717ZM1.57776 60.7959V46.1268C1.57776 43.0409 3.36118 40.4227 6.22908 39.2919L13.7946 36.3062L18.4973 40.3967C18.7748 40.6331 19.1166 40.7642 19.4712 40.7642C19.5226 40.7642 19.5766 40.7642 19.628 40.7565C19.885 40.7308 20.1214 40.6383 20.3244 40.4944L21.1339 41.684L19.0549 61.4253H11.0631V52.6124C11.0631 52.1781 10.7137 51.8287 10.2794 51.8287C9.84507 51.8287 9.49558 52.1781 9.49558 52.6124V61.4253H2.20246C1.86068 61.4253 1.57776 61.1428 1.57776 60.7959ZM38.8835 61.4255H37.6988V52.6126C37.6988 52.1783 37.3493 51.8289 36.915 51.8289C36.4807 51.8289 36.1312 52.1783 36.1312 52.6126V61.4255H28.1342L26.0552 41.6842L26.8647 40.4946C27.0677 40.6385 27.3067 40.7258 27.5611 40.7567C27.6125 40.7644 27.6665 40.7644 27.7179 40.7644C28.0725 40.7644 28.4143 40.6385 28.6918 40.3969L33.3945 36.3064L39.5929 38.7525C39.4156 38.8244 39.2511 38.9041 39.0918 38.976C38.5007 39.2535 37.9868 39.4951 37.1516 39.4951C36.5323 39.4951 35.8359 39.2972 35.2756 38.9632C35.1574 38.8912 35.0186 38.8501 34.8747 38.8501C34.5972 38.8501 34.3428 38.994 34.1963 39.2381L30.0256 46.3296C29.9331 46.4864 29.8997 46.6662 29.9279 46.8435C30.2903 49.2716 32.4207 51.0985 34.8748 51.0985C37.3289 51.0985 39.4541 49.2691 39.8216 46.8435C39.8473 46.6662 39.8139 46.4812 39.7239 46.3296L36.6068 41.0288C36.7841 41.0494 36.9614 41.0622 37.1516 41.0622C38.3363 41.0622 39.0918 40.7077 39.7625 40.3968C40.3613 40.1141 40.8804 39.87 41.7361 39.87C42.2501 39.87 42.7486 39.9548 43.1649 40.1141C43.3037 40.9749 43.7714 41.7329 44.4344 42.2442L44.437 57.3554C42.1422 57.9001 40.1272 59.3545 38.8835 61.4255ZM32.089 45.9499L34.8849 41.1939L37.6809 45.9499H32.089ZM38.0098 47.5147C37.465 48.7121 36.2469 49.5343 34.8849 49.5343C33.523 49.5343 32.3048 48.7121 31.7601 47.5147H38.0098ZM52.1461 61.4254H40.7847C42.1518 59.709 44.2308 58.6889 46.4614 58.6889C48.6919 58.6889 50.7789 59.7167 52.1461 61.4254ZM46.9242 57.137C46.7726 57.1293 46.621 57.1242 46.4642 57.1242C46.3126 57.1242 46.161 57.1319 46.0043 57.137L46.0017 42.9099C46.1533 42.9305 46.3049 42.9433 46.4617 42.9433C46.6184 42.9433 46.7701 42.9305 46.9217 42.9099L46.9242 57.137ZM60.8447 45.9495H55.2528L58.0488 41.1935L60.8447 45.9495ZM58.0488 49.5339C56.6868 49.5339 55.4687 48.7117 54.9239 47.5143H61.166C60.6263 48.7117 59.4108 49.5339 58.0488 49.5339Z" fill="url(#paint0_linear_884_2005)"/>
<defs>
<linearGradient id="paint0_linear_884_2005" x1="-4.84615" y1="-259.993" x2="127.753" y2="-226.086" gradientUnits="userSpaceOnUse">
<stop offset="0.0580958" stop-color="#E6D1BE"/>
<stop offset="0.929784" stop-color="#896954"/>
</linearGradient>
</defs>
</svg>
