<svg width="63" height="63" viewBox="0 0 63 63" fill="none" xmlns="http://www.w3.org/2000/svg">
<path d="M30.8102 0.00205098C30.5431 0.00205098 30.2992 0.158691 30.1888 0.402643L26.2622 8.90516H16.4267C14.5418 8.90516 13.0036 10.4433 13.0036 12.3281V19.1767H12.7416C10.6179 19.1767 8.89215 20.9228 8.89215 23.0567V32.1108C8.89215 34.2472 9.91423 36.15 11.3446 37.5084C12.775 38.8668 14.6214 39.7168 16.4267 39.7168C18.2295 39.7168 20.0836 38.8668 21.5114 37.5084C22.9238 36.1654 23.9382 34.2935 23.9613 32.1852H28.386L30.9258 35.9856C31.198 36.3888 31.7912 36.3888 32.0635 35.9856L34.6007 32.1852H38.3423V42.0071C37.4717 42.2998 36.7861 42.6413 36.2442 43.1703C35.6048 43.7943 35.235 44.6211 34.9448 45.7022C34.0331 50.0753 33.1215 54.4585 32.2098 58.8347L29.4312 44.3829C29.385 44.1389 29.2103 43.9412 28.9767 43.8616L22.9624 41.8561L21.0261 39.9199C20.8438 39.735 20.569 39.6708 20.3225 39.753L16.4319 41.0498L12.5388 39.753C12.2923 39.6734 12.0226 39.7376 11.8403 39.9199L9.89891 41.8561L3.88977 43.8616C3.65608 43.9412 3.48146 44.1389 3.43523 44.3829L0.0120922 62.186C-0.0675137 62.6071 0.256051 63 0.684887 63H62.3198C62.7513 62.9974 63.0748 62.5994 62.9849 62.1757L59.5644 45.7439C59.2125 44.4343 58.8607 43.7795 58.2547 43.1709C57.7128 42.6419 57.0246 42.2978 56.1515 42.0051V28.8398C56.1515 24.8442 53.568 21.4594 49.9882 20.2939V12.3258C49.9882 10.441 48.4526 8.90286 46.5677 8.90286H35.4738L37.4897 6.61742C37.8775 6.17574 37.5642 5.47983 36.9736 5.47983H33.5709L35.5483 0.960362C35.746 0.508415 35.4148 0 34.9217 0L30.8102 0.00205098ZM31.2493 1.37071H33.8739L31.8965 5.89018C31.6988 6.34212 32.03 6.85054 32.5231 6.85054H35.4557L29.6623 13.4166L31.4214 9.89347C31.65 9.43896 31.3187 8.90228 30.8102 8.90228H27.7723L31.2493 1.37071ZM16.4267 10.2736H29.7005L26.0873 17.5021C25.7329 18.2185 26.6831 18.8579 27.2146 18.2596L34.2614 10.2738H46.5622C47.7127 10.2738 48.6141 11.1777 48.6141 12.3255V19.9675C48.1672 19.8982 47.7101 19.8622 47.2453 19.8622C42.3225 19.8622 38.342 23.8784 38.342 28.8394V30.8166H34.2358C34.0072 30.8166 33.7915 30.9296 33.6657 31.1196L31.4982 34.3757L29.3283 31.1196C29.1999 30.9296 28.9867 30.8141 28.7582 30.8166H23.9637V23.0563C23.9637 20.9224 22.2405 19.1763 20.1168 19.1763H14.3721V12.3277C14.3721 11.1773 15.276 10.276 16.4265 10.276L16.4267 10.2736ZM17.7954 12.3253C17.4179 12.3279 17.1123 12.6335 17.1123 13.0135C17.1149 13.3884 17.4179 13.694 17.7954 13.6966H26.0157C26.3906 13.694 26.6962 13.391 26.6988 13.0135C26.7014 12.636 26.3958 12.3279 26.0157 12.3253H17.7954ZM34.236 12.3253C33.8559 12.3227 33.5477 12.6335 33.5477 13.0135C33.5503 13.391 33.8559 13.6966 34.236 13.6966H45.1911C45.5686 13.6966 45.8742 13.391 45.8742 13.0135C45.8768 12.636 45.5686 12.3279 45.1911 12.3253H34.236ZM17.7954 15.7508C17.4205 15.7534 17.1149 16.0564 17.1123 16.4339C17.1097 16.8114 17.4153 17.1196 17.7954 17.1221H23.9638C24.3413 17.1196 24.6469 16.814 24.6469 16.4339C24.6443 16.059 24.3413 15.7534 23.9638 15.7508H17.7954ZM31.4959 15.7508C31.1184 15.7483 30.8102 16.0538 30.8076 16.4339C30.8051 16.814 31.1158 17.1221 31.4959 17.1221H45.1911C45.5686 17.1221 45.8768 16.814 45.8742 16.4339C45.8716 16.0564 45.5686 15.7534 45.1911 15.7508H31.4959ZM25.3326 19.1738C24.9526 19.1712 24.6444 19.4819 24.6444 19.862C24.647 20.2395 24.9526 20.5451 25.3326 20.5451H41.0822C41.4597 20.5477 41.7679 20.2421 41.7705 19.862C41.7731 19.4819 41.4623 19.1738 41.0822 19.1738H25.3326ZM12.7419 20.5425H20.1174C21.4965 20.5425 22.5955 21.6467 22.5955 23.0538V25.3341H21.5093L20.3409 24.1658C20.0738 23.8987 19.6398 23.8987 19.3701 24.1658L18.2017 25.3341L10.2667 25.3367V23.0564C10.2667 21.6492 11.3633 20.545 12.7449 20.545L12.7419 20.5425ZM47.2455 21.2255C51.4262 21.2255 54.7827 24.6074 54.7827 28.8393V41.5911L50.8639 40.4304C50.62 40.3585 50.358 40.4253 50.1808 40.6076C50.1808 40.6076 49.0278 41.7708 47.2456 41.7708C45.4634 41.7708 44.313 40.6076 44.313 40.6076C44.1358 40.4278 43.8738 40.3585 43.6298 40.4304L39.7111 41.5911V28.8393C39.7111 24.6074 43.0622 21.2255 47.2455 21.2255ZM26.0183 22.5968C25.6383 22.5942 25.3301 22.9049 25.3301 23.285C25.3326 23.6624 25.6382 23.9681 26.0183 23.9681H37.6617C38.0367 23.9655 38.3423 23.6625 38.3449 23.285C38.3474 22.9075 38.0418 22.5993 37.6617 22.5968H26.0183ZM44.3023 25.6037C44.0942 25.6679 43.9273 25.8297 43.858 26.0377L43.3264 27.6247H41.7702C41.3927 27.6221 41.0845 27.9277 41.0819 28.3078V34.2421C41.0819 37.6728 43.9658 40.3973 47.2452 40.3973C50.522 40.3973 53.4135 37.6703 53.4135 34.2421V28.3078C53.411 27.9303 53.1054 27.6247 52.7253 27.6247H47.4788L44.9211 25.709C44.69 25.5293 44.4203 25.5601 44.3048 25.6012L44.3023 25.6037ZM19.8544 25.6191L20.7404 26.5077C20.8688 26.636 21.0435 26.7054 21.2258 26.7054H22.5945V32.1108C22.5945 33.8081 21.7702 35.3694 20.5658 36.5147C19.3614 37.66 17.7821 38.3507 16.4262 38.3507C15.0677 38.3507 13.4935 37.66 12.2891 36.5147C11.0847 35.3694 10.2629 33.8107 10.2629 32.1108V26.7054H18.4832C18.6655 26.7079 18.8401 26.636 18.9685 26.5077L19.8544 25.6191ZM26.0177 26.0223C25.6402 26.0197 25.332 26.3253 25.3294 26.7054C25.3269 27.0854 25.6376 27.3936 26.0177 27.3936H36.2897C36.6672 27.391 36.9728 27.0854 36.9728 26.7054C36.9703 26.3305 36.6672 26.0249 36.2897 26.0223H26.0177ZM44.8591 27.373L46.8364 28.8598C46.9546 28.9471 47.0984 28.9959 47.2447 28.9959H52.0418V34.2421C52.0418 36.8973 49.7537 39.0312 47.2447 39.0312C44.7358 39.0312 42.4528 36.8973 42.4528 34.2421V28.9959H43.8215C44.1169 28.9959 44.3814 28.8084 44.4738 28.526L44.8591 27.373ZM12.5046 41.1884L15.1625 42.0718L14.1866 43.0425L11.5313 42.1566L12.5046 41.1884ZM20.3547 41.1884L21.3255 42.1591L18.6675 43.0451L17.6968 42.0744L20.3547 41.1884ZM43.6619 41.851C44.0266 42.1719 44.9768 42.896 46.4893 43.0887C46.2068 44.3007 45.1257 45.1943 43.8212 45.1943C42.3522 45.1943 41.1658 44.0567 41.0862 42.611L43.6619 41.851ZM50.8343 41.851L53.4049 42.6136C53.3253 44.0619 52.1389 45.1969 50.6699 45.1969C49.3679 45.1969 48.2868 44.3033 48.0043 43.0913C49.5143 42.8961 50.4696 42.1745 50.8343 41.851ZM16.428 42.7395L17.9971 44.3136C18.1819 44.4959 18.4542 44.5601 18.7007 44.4753L22.5912 43.1785L28.1587 45.0376L31.3482 61.6312H1.50766L4.69716 45.0376L10.2646 43.1785L14.1578 44.4753C14.4043 44.5601 14.6765 44.4959 14.8588 44.3136L16.428 42.7395ZM39.7484 43.0091C40.0206 45.0121 41.7463 46.5682 43.8212 46.5682C45.2799 46.5682 46.6024 45.7927 47.2444 44.7245C47.9557 45.9031 49.3501 46.5682 50.6701 46.5682C52.745 46.5682 54.4707 45.0121 54.7429 43.0091L55.2719 43.1657C56.294 43.4687 56.8923 43.7615 57.2955 44.1518C57.6936 44.5395 57.9658 45.0865 58.2252 46.0494L61.4711 61.6339L33.023 61.6313L36.2638 46.0574C36.4282 45.4411 36.7081 44.64 37.1986 44.1521C37.5992 43.7617 38.1975 43.469 39.2222 43.166L39.7484 43.0091ZM15.745 45.88C15.3649 45.8774 15.0567 46.1881 15.0567 46.5682V47.2513C15.0541 47.6313 15.3649 47.9395 15.745 47.9395C16.1225 47.9369 16.4281 47.6313 16.4281 47.2513V46.5682C16.4306 46.1907 16.125 45.8826 15.745 45.88ZM47.2442 45.88C46.8667 45.8826 46.5611 46.1881 46.5611 46.5682V47.2513C46.5585 47.6288 46.8641 47.9369 47.2442 47.9395C47.6243 47.9421 47.9324 47.6313 47.9324 47.2513V46.5682C47.935 46.1882 47.6242 45.88 47.2442 45.88ZM15.745 49.9912C15.3649 49.9886 15.0567 50.2993 15.0567 50.6794V51.3624C15.0593 51.7399 15.3649 52.0455 15.745 52.0455C16.1199 52.043 16.4255 51.74 16.4281 51.3624V50.6794C16.4306 50.3019 16.125 49.9937 15.745 49.9912ZM47.2442 49.9912C46.8667 49.9937 46.5611 50.2993 46.5611 50.6794V51.3624C46.5636 51.7374 46.8666 52.043 47.2442 52.0455C47.6217 52.0481 47.9298 51.7425 47.9324 51.3624V50.6794C47.935 50.2993 47.6242 49.9912 47.2442 49.9912ZM15.745 54.1023C15.3675 54.0998 15.0593 54.4053 15.0567 54.7854V55.4736C15.0593 55.8511 15.3649 56.1567 15.745 56.1567C16.1199 56.1541 16.4255 55.8511 16.4281 55.4736V54.7854C16.4255 54.4105 16.1225 54.1049 15.745 54.1023ZM47.2442 54.1023C46.8692 54.1049 46.5636 54.4079 46.5611 54.7854V55.4736C46.5636 55.8485 46.8666 56.1541 47.2442 56.1567C47.6217 56.1593 47.9298 55.8537 47.9324 55.4736V54.7854C47.9298 54.4079 47.6242 54.1023 47.2442 54.1023ZM15.745 58.2109C15.3675 58.2084 15.0593 58.5165 15.0567 58.894V59.5822C15.0593 59.9597 15.3649 60.2653 15.745 60.2653C16.1199 60.2627 16.4255 59.9597 16.4281 59.5822V58.894C16.4281 58.5165 16.1225 58.2109 15.745 58.2109ZM47.2442 58.2109C46.8667 58.2135 46.5636 58.5165 46.5611 58.894V59.5822C46.5636 59.9571 46.8666 60.2627 47.2442 60.2653C47.6217 60.2679 47.9298 59.9623 47.9324 59.5822V58.894C47.9324 58.5165 47.6242 58.2084 47.2442 58.2109Z" fill="url(#paint0_linear_884_1908)"/>
<defs>
<linearGradient id="paint0_linear_884_1908" x1="-4.84615" y1="-259.993" x2="127.753" y2="-226.086" gradientUnits="userSpaceOnUse">
<stop offset="0.0580958" stop-color="#E6D1BE"/>
<stop offset="0.929784" stop-color="#896954"/>
</linearGradient>
</defs>
</svg>
