<svg width="22" height="27" viewBox="0 0 22 27" fill="none" xmlns="http://www.w3.org/2000/svg">
<path d="M10.9941 14.4004C12.9219 14.4004 14.4882 12.8648 14.4882 10.9746C14.4882 9.08447 12.922 7.54881 10.9941 7.54881C9.06627 7.54881 7.50009 9.08441 7.50009 10.9746C7.50009 12.8648 9.06627 14.4004 10.9941 14.4004ZM10.9941 8.10916C12.6053 8.10916 13.9166 9.39482 13.9166 10.9746C13.9166 12.5543 12.6053 13.84 10.9941 13.84C9.3829 13.84 8.07163 12.5543 8.07163 10.9746C8.07163 9.39482 9.3829 8.10916 10.9941 8.10916ZM9.10072 3.89297L8.80077 5.39018C8.75808 5.60756 8.84345 5.82144 9.02484 5.94932C9.12443 6.02022 9.24062 6.05626 9.35919 6.05626C9.45285 6.05626 9.55007 6.03301 9.63899 5.98535L10.9989 5.24139L12.3588 5.98535C12.5556 6.0923 12.7903 6.07719 12.9717 5.94932C13.1543 5.82145 13.2385 5.60406 13.1958 5.39019L12.8958 3.89297L14.0293 2.85375C14.1929 2.70495 14.2533 2.48177 14.1846 2.27021C14.1146 2.06213 13.9332 1.91335 13.7115 1.88895L12.1667 1.7076L11.5099 0.324308C11.4162 0.124367 11.2182 0 10.9942 0C10.7701 0 10.5721 0.125542 10.4784 0.324308L9.82636 1.7076L8.27796 1.89011C8.05388 1.91684 7.87487 2.06215 7.80491 2.27137C7.73496 2.47945 7.79542 2.70263 7.96022 2.85491L9.10072 3.89297ZM10.0504 2.24462C10.1476 2.23299 10.233 2.17371 10.2745 2.0842L10.9941 0.560237L11.7138 2.08652C11.7565 2.17603 11.8418 2.23531 11.9378 2.24694L13.6404 2.44688L12.3836 3.58955C12.3113 3.65464 12.2769 3.75345 12.2983 3.84877L12.6291 5.49713L11.1328 4.67877C11.0901 4.65552 11.0415 4.64273 10.9929 4.64273C10.9443 4.64273 10.8957 4.65436 10.853 4.67877L9.3568 5.49713L9.68757 3.84877C9.70535 3.75345 9.67572 3.65581 9.60221 3.58955L8.34549 2.44688L10.0504 2.24462ZM21.9726 4.49395C21.9027 4.28587 21.7213 4.13708 21.4996 4.11268L19.9548 3.93134L19.3027 2.54804C19.209 2.3481 19.011 2.22373 18.787 2.22373C18.5629 2.22373 18.3649 2.34928 18.2712 2.54804L17.6192 3.93134L16.0744 4.11268C15.8527 4.13942 15.6713 4.28472 15.6013 4.49395C15.5314 4.70202 15.5918 4.92521 15.7566 5.07748L16.8983 6.11555L16.5984 7.61276C16.5557 7.83014 16.6411 8.04402 16.8225 8.17189C17.005 8.30325 17.2386 8.31487 17.4354 8.20792L18.7953 7.46396L20.1552 8.20792C20.2429 8.25559 20.3378 8.27883 20.435 8.27883C20.5535 8.27883 20.6685 8.2428 20.7693 8.17189C20.9519 8.04402 21.0361 7.82663 20.9934 7.61276L20.6935 6.11554L21.8352 5.07748C21.981 4.9252 22.039 4.70202 21.9726 4.49395ZM20.1717 5.80984C20.0994 5.87493 20.065 5.97374 20.0864 6.06906L20.4171 7.71742L18.9209 6.89906C18.8782 6.87581 18.8296 6.86302 18.781 6.86302C18.7324 6.86302 18.6838 6.87465 18.6411 6.89906L17.1449 7.71742L17.4756 6.06906C17.4934 5.97374 17.4638 5.87609 17.3903 5.80984L16.1336 4.66717L17.8361 4.46723C17.9333 4.4556 18.0187 4.39632 18.0602 4.30681L18.7798 2.78053L19.4995 4.30681C19.5421 4.39632 19.6275 4.4556 19.7235 4.46723L21.4261 4.66717L20.1717 5.80984ZM5.17883 8.17192C5.36141 8.04405 5.44559 7.82666 5.40291 7.61279L5.10295 6.11558L6.24467 5.07751C6.40829 4.92872 6.46875 4.70553 6.39999 4.49397C6.33004 4.2859 6.14864 4.13711 5.92693 4.11271L4.38212 3.93137L3.73005 2.54807C3.63639 2.34813 3.4384 2.22376 3.21433 2.22376C2.99025 2.22376 2.79226 2.34931 2.6986 2.54807L2.04653 3.93137L0.501718 4.11271C0.277641 4.13944 0.0986232 4.28475 0.0286636 4.49397C-0.0412868 4.70205 0.0191788 4.92524 0.183977 5.07751L1.3257 6.11558L1.02574 7.61279C0.983063 7.83016 1.06842 8.04405 1.24982 8.17192C1.34941 8.24283 1.4656 8.27887 1.58417 8.27887C1.67783 8.27887 1.77505 8.25562 1.86397 8.20796L3.22386 7.46399L4.58374 8.20796C4.76276 8.3149 4.99627 8.29979 5.17883 8.17192ZM3.206 6.86302C3.15739 6.86302 3.10879 6.87465 3.0661 6.89906L1.56988 7.71742L1.90065 6.06906C1.91843 5.97374 1.88879 5.87609 1.81528 5.80984L0.558562 4.66717L2.26108 4.46723C2.3583 4.4556 2.44366 4.39632 2.48516 4.30681L3.20718 2.78053L3.92684 4.30681C3.96952 4.39632 4.05489 4.4556 4.15092 4.46723L5.85344 4.66717L4.59672 5.80984C4.52439 5.87493 4.49001 5.97374 4.51135 6.06906L4.84212 7.71742L3.3459 6.89906C3.30322 6.87465 3.25461 6.86302 3.206 6.86302ZM19.4688 22.6978C19.5292 22.5723 19.63 22.4712 19.7664 22.4154C20.0853 22.2782 20.3094 22.0376 20.4184 21.7132C20.5251 21.3889 20.4884 21.0611 20.3117 20.7693C20.1991 20.5822 20.1991 20.359 20.3117 20.1707C20.4872 19.8766 20.524 19.5523 20.4184 19.2268C20.3117 18.9025 20.0841 18.6583 19.7664 18.5246C19.5624 18.4386 19.4296 18.2573 19.4083 18.0399C19.3751 17.7005 19.2079 17.4145 18.9293 17.2157C18.6472 17.0158 18.3188 16.9484 17.9797 17.0228C17.7615 17.0704 17.5458 17.0019 17.3964 16.8379C17.1652 16.5822 16.8617 16.4485 16.5131 16.4485C16.1645 16.4485 15.861 16.5822 15.6298 16.8379C15.593 16.8798 15.5504 16.9158 15.5053 16.9449C14.2308 15.9208 12.6397 15.3523 10.9954 15.3523C7.06161 15.3523 3.8629 18.4886 3.8629 22.3456V22.8338C3.8629 23.5266 4.43672 24.0893 5.14335 24.0893H12.6104L11.8551 25.1936C11.7484 25.3482 11.752 25.5481 11.8646 25.6992C11.9772 25.8515 12.1681 25.9189 12.3531 25.8689L13.4154 25.583C13.4332 25.5772 13.4462 25.583 13.4545 25.5888C13.464 25.5946 13.4723 25.6039 13.4782 25.6213L13.758 26.6664C13.8066 26.8477 13.9619 26.9756 14.1528 26.9965C14.1682 27 14.1836 27 14.1979 27C14.371 27 14.5251 26.9047 14.601 26.7536L15.8328 24.2927C16.0272 24.4299 16.2572 24.5042 16.5098 24.5042C16.7611 24.5042 16.9923 24.4299 17.1868 24.2927L18.4186 26.7536C18.4945 26.9082 18.6522 27 18.8217 27C18.8371 27 18.8525 27 18.8668 26.9965C19.0576 26.9791 19.2129 26.8477 19.2616 26.6664L19.5414 25.6213C19.5473 25.6039 19.5568 25.5946 19.5651 25.5888C19.5746 25.583 19.5864 25.5795 19.6042 25.583L20.6665 25.8689C20.8514 25.9201 21.0423 25.8515 21.155 25.6992C21.2676 25.5469 21.27 25.3482 21.1644 25.1936L19.4688 22.6978ZM5.14211 23.5278C4.75085 23.5278 4.43195 23.2151 4.43195 22.8315V22.3433C4.43195 18.7955 7.37577 15.9068 10.9966 15.9068C12.2984 15.9068 13.5646 16.2963 14.6388 17.0054C14.4479 17.0286 14.2653 17.0949 14.0981 17.2134C13.816 17.4134 13.6523 17.6982 13.6192 18.0376C13.5978 18.255 13.4639 18.4363 13.2611 18.5223C12.9422 18.6595 12.7181 18.9001 12.609 19.2245C12.5023 19.5488 12.5391 19.8766 12.7157 20.1684C12.8284 20.3555 12.8284 20.5787 12.7157 20.767C12.5403 21.0611 12.5035 21.3854 12.609 21.7109C12.7157 22.0352 12.9434 22.2794 13.2611 22.413C13.3975 22.47 13.4982 22.5735 13.5587 22.6955L12.9908 23.5232L5.14228 23.522L5.14211 23.5278ZM14.2296 26.2212L14.0292 25.4738C13.9865 25.3157 13.8834 25.182 13.7375 25.0983C13.5917 25.0181 13.4246 24.9937 13.2609 25.039L12.4986 25.2448L13.7731 23.3791C13.8525 23.5104 13.9616 23.629 14.0944 23.7243C14.3766 23.9243 14.705 23.9917 15.0441 23.9173C15.1567 23.894 15.2681 23.8998 15.3689 23.9347L14.2296 26.2212ZM16.5118 23.9347C16.3269 23.9347 16.1775 23.8696 16.0565 23.7324C15.8325 23.4825 15.51 23.3453 15.1792 23.3453C15.0939 23.3453 15.0097 23.3546 14.9243 23.3721C14.7453 23.4104 14.584 23.3779 14.4358 23.2744C14.2876 23.1675 14.2047 23.028 14.1869 22.849C14.1477 22.4328 13.8774 22.0724 13.4862 21.905C13.3166 21.8341 13.2064 21.7144 13.1495 21.5423C13.0914 21.3703 13.1103 21.2122 13.204 21.0541C13.4198 20.6938 13.4198 20.2474 13.204 19.887C13.1103 19.7324 13.0914 19.572 13.1495 19.3988C13.2076 19.2268 13.3166 19.107 13.4862 19.0361C13.8774 18.8699 14.1454 18.5095 14.1869 18.0922C14.2047 17.9109 14.2841 17.7737 14.4358 17.6667C14.584 17.5598 14.7453 17.5273 14.9243 17.5691C15.3405 17.6609 15.7744 17.5214 16.0566 17.2088C16.1775 17.0716 16.3269 17.0065 16.5118 17.0065C16.6968 17.0065 16.8462 17.0716 16.9671 17.2088C17.2493 17.5215 17.6832 17.6609 18.0994 17.5691C18.2784 17.5307 18.4396 17.5633 18.5878 17.6667C18.736 17.7737 18.819 17.9132 18.8368 18.0922C18.8759 18.5083 19.1462 18.8687 19.5375 19.0361C19.707 19.107 19.8173 19.2268 19.8742 19.3988C19.9323 19.5709 19.9133 19.729 19.8197 19.887C19.6039 20.2474 19.6039 20.6938 19.8197 21.0541C19.9133 21.2087 19.9323 21.3692 19.8742 21.5423C19.8161 21.7144 19.707 21.8341 19.5375 21.905C19.1462 22.0713 18.8783 22.4351 18.8368 22.849C18.819 23.0303 18.7396 23.1675 18.5878 23.2744C18.4396 23.3814 18.2784 23.4139 18.0994 23.3721C17.6832 23.2802 17.2493 23.4197 16.9671 23.7324C16.8462 23.8696 16.6968 23.9347 16.5118 23.9347ZM19.7627 25.039C19.6015 24.9948 19.432 25.0181 19.2861 25.0983C19.1403 25.1785 19.0372 25.3122 18.9945 25.4737L18.7941 26.2235L17.65 23.9381C17.7532 23.9021 17.8658 23.8963 17.9749 23.9207C18.3151 23.9951 18.6423 23.93 18.9245 23.7277C19.0609 23.6324 19.1676 23.5138 19.2458 23.3825L20.5203 25.2482L19.7627 25.039ZM18.9885 20.4684C18.9885 19.1292 17.8776 18.04 16.5118 18.04C15.146 18.04 14.0351 19.1292 14.0351 20.4684C14.0351 21.8075 15.146 22.8967 16.5118 22.8967C17.8776 22.8967 18.9885 21.8075 18.9885 20.4684ZM16.5118 22.3376C15.4614 22.3376 14.6054 21.4983 14.6054 20.4684C14.6054 19.4385 15.4614 18.5992 16.5118 18.5992C17.5622 18.5992 18.4182 19.4385 18.4182 20.4684C18.4182 21.4983 17.5622 22.3376 16.5118 22.3376Z" fill="url(#paint0_linear_982_3304)"/>
<defs>
<linearGradient id="paint0_linear_982_3304" x1="-1.69231" y1="-111.425" x2="45.5875" y2="-101.574" gradientUnits="userSpaceOnUse">
<stop offset="0.0580958" stop-color="#E6D1BE"/>
<stop offset="0.929784" stop-color="#896954"/>
</linearGradient>
</defs>
</svg>
