<svg width="20" height="19" viewBox="0 0 20 19" fill="none" xmlns="http://www.w3.org/2000/svg">
<path d="M13.6663 6.33203C15.125 6.33203 16.524 6.91149 17.5554 7.94294C18.5869 8.97439 19.1663 10.3733 19.1663 11.832V18.2487H15.4997V11.832C15.4997 11.3458 15.3065 10.8795 14.9627 10.5357C14.6189 10.1919 14.1526 9.9987 13.6663 9.9987C13.1801 9.9987 12.7138 10.1919 12.37 10.5357C12.0262 10.8795 11.833 11.3458 11.833 11.832V18.2487H8.16634V11.832C8.16634 10.3733 8.7458 8.97439 9.77725 7.94294C10.8087 6.91149 12.2077 6.33203 13.6663 6.33203Z" stroke="white" stroke-linecap="round" stroke-linejoin="round"/>
<path d="M4.49967 7.2487H0.833008V18.2487H4.49967V7.2487Z" stroke="white" stroke-linecap="round" stroke-linejoin="round"/>
<path d="M2.66634 4.4987C3.67886 4.4987 4.49967 3.67789 4.49967 2.66536C4.49967 1.65284 3.67886 0.832031 2.66634 0.832031C1.65382 0.832031 0.833008 1.65284 0.833008 2.66536C0.833008 3.67789 1.65382 4.4987 2.66634 4.4987Z" stroke="white" stroke-linecap="round" stroke-linejoin="round"/>
</svg>
