<svg width="20" height="15" viewBox="0 0 20 15" fill="none" xmlns="http://www.w3.org/2000/svg">
<path d="M18.7826 3.26656C18.6836 2.87109 18.482 2.50874 18.1981 2.21612C17.9143 1.9235 17.5582 1.71096 17.166 1.59998C15.7327 1.25 9.99967 1.25 9.99967 1.25C9.99967 1.25 4.26664 1.25 2.83338 1.63331C2.44111 1.74429 2.08507 1.95683 1.80122 2.24945C1.51738 2.54208 1.31578 2.90442 1.2168 3.29989C0.95449 4.75445 0.826181 6.23 0.833484 7.708C0.824134 9.19712 0.952451 10.6839 1.2168 12.1494C1.32592 12.5326 1.53204 12.8812 1.81522 13.1614C2.0984 13.4417 2.44908 13.6442 2.83338 13.7493C4.26664 14.1327 9.99967 14.1327 9.99967 14.1327C9.99967 14.1327 15.7327 14.1327 17.166 13.7493C17.5582 13.6384 17.9143 13.4258 18.1981 13.1332C18.482 12.8406 18.6836 12.4782 18.7826 12.0828C19.0428 10.6392 19.1711 9.17487 19.1659 7.708C19.1752 6.21887 19.0469 4.73207 18.7826 3.26656Z" stroke="white" stroke-linecap="round" stroke-linejoin="round"/>
<path d="M8.12477 10.4329L12.9162 7.708L8.12477 4.98314V10.4329Z" stroke="white" stroke-linecap="round" stroke-linejoin="round"/>
</svg>
