<svg width="19" height="23" viewBox="0 0 19 23" fill="none" xmlns="http://www.w3.org/2000/svg">
<path d="M9.34807 21.9778C9.36538 21.9864 9.38378 21.9939 9.40217 21.9993C9.43354 22.0111 9.466 22.0165 9.49953 22.0176C9.53199 22.0165 9.56445 22.0111 9.59582 21.9993C9.61421 21.9939 9.6326 21.9875 9.64883 21.9778C16.4949 18.0653 19.6084 11.8971 18.9019 3.64349C18.8879 3.48772 18.757 3.36848 18.6001 3.36848H18.5979C14.8873 3.38029 11.9056 2.2867 9.71375 0.101636C9.69427 0.0844484 9.67155 0.0694081 9.64667 0.0575909C9.63693 0.050071 9.62503 0.0425512 9.61421 0.0361055C9.60231 0.032883 9.59041 0.0307344 9.57851 0.0296602C9.47574 -0.000420319 9.36322 0.0264373 9.28641 0.101636C7.11078 2.26948 4.15192 3.36848 0.488622 3.36848C0.459411 3.36848 0.428038 3.37062 0.39991 3.36848C0.24304 3.36848 0.112125 3.48772 0.0980837 3.64349C-0.608376 11.8971 2.50435 18.0644 9.34807 21.9778ZM0.679074 3.9702C4.30443 3.9326 7.26758 2.84115 9.49957 0.729209C11.7314 2.8412 14.6947 3.93252 18.3201 3.9691C18.9205 11.8778 16.0309 17.5703 9.49957 21.3668C2.96839 17.5703 0.0786338 11.8767 0.679074 3.9691V3.9702Z" fill="white"/>
<path d="M8.01918 15.0176L11.3324 8.38761V8.34144H7.51491V7.74485H12.0284V8.36985L8.71875 15.0176H8.01918Z" fill="white"/>
</svg>
