<svg width="62" height="59" viewBox="0 0 62 59" fill="none" xmlns="http://www.w3.org/2000/svg">
<path fill-rule="evenodd" clip-rule="evenodd" d="M31.1612 13.4168C31.1612 12.8372 31.6299 12.3751 32.2088 12.3751H37.9804C38.5593 12.3751 39.028 12.8372 39.028 13.4168C39.028 13.9889 38.5593 14.4511 37.9804 14.4511H32.2088C31.6299 14.4511 31.1612 13.9889 31.1612 13.4168ZM31.1612 24.0167C31.1612 23.4445 31.6299 22.975 32.2088 22.975H49.968C50.5469 22.975 51.0156 23.4445 51.0156 24.0167C51.0156 24.5888 50.5469 25.0583 49.968 25.0583H32.2088C31.6299 25.0583 31.1612 24.5888 31.1612 24.0167ZM49.968 35.6582H32.2088C31.6299 35.6582 31.1612 35.1961 31.1612 34.6239C31.1612 34.0444 31.6299 33.5823 32.2088 33.5823H49.968C50.5469 33.5823 51.0156 34.0444 51.0156 34.6239C51.0156 35.1961 50.5469 35.6582 49.968 35.6582ZM49.6168 50.8942C47.603 50.8942 45.964 49.273 45.964 47.2704C45.964 45.2752 47.603 43.654 49.6168 43.654C51.63 43.654 53.2682 45.2752 53.2682 47.2704C53.2682 49.273 51.63 50.8942 49.6168 50.8942ZM49.6168 41.5707C46.4475 41.5707 43.8689 44.1308 43.8689 47.2704C43.8689 50.4174 46.4475 52.9775 49.6168 52.9775C52.787 52.9775 55.3641 50.4174 55.3641 47.2704C55.3641 44.1308 52.787 41.5707 49.6168 41.5707ZM57.7557 56.9167C58.9408 56.9167 59.9048 55.9631 59.9048 54.7894V17.0552H48.4828C46.5325 17.0552 44.9468 15.4854 44.9468 13.5488V2.08333H21.1733C19.9883 2.08333 19.0242 3.03692 19.0242 4.21061V18.4563C23.2286 18.9698 26.4947 22.5349 26.4947 26.8408C26.4947 28.8215 25.7902 30.7434 24.5105 32.2618C23.3727 33.6116 22.419 35.7389 24.3368 38.2404L29.2294 44.6223H33.6245C34.9094 44.6223 35.9547 45.6566 35.9547 46.933V52.6107C35.9547 53.8798 34.9094 54.9214 33.6245 54.9214H30.5505C30.5505 55.5449 30.6037 56.3597 30.4352 56.9167H57.7557ZM27.2311 56.9167H8.30891C7.86163 56.9167 7.49936 56.5573 7.49936 56.1171V54.9214H28.4553V56.1171C28.4553 56.5573 28.0916 56.9167 27.6444 56.9167H27.2311ZM2.09517 52.6107V46.933C2.09517 46.8083 2.20308 46.6982 2.33024 46.6982H33.6245C33.7517 46.6982 33.8588 46.8083 33.8588 46.933V52.6107C33.8588 52.7354 33.7517 52.8381 33.6245 52.8381H2.33024C2.20308 52.8381 2.09517 52.7354 2.09517 52.6107ZM13.2851 39.5021C15.4032 36.7365 15.3181 33.6116 13.0507 30.9268C12.086 29.7824 11.5551 28.33 11.5551 26.8408C11.5551 23.3271 14.4369 20.4663 17.9766 20.4663C21.5178 20.4663 24.3996 23.3271 24.3996 26.8408C24.3996 28.3373 23.8673 29.7824 22.9033 30.9268C20.6366 33.6116 20.5501 36.7365 22.6689 39.5021L26.596 44.6223H9.35872L13.2851 39.5021ZM47.0419 3.68982L58.4233 14.9793H48.4828C47.6895 14.9793 47.0419 14.3337 47.0419 13.5488V3.68982ZM61.6939 15.28L46.5983 0.308102C46.4017 0.11003 46.1355 0 45.8583 0H21.1733C18.8335 0 16.9291 1.89259 16.9291 4.21061V18.4563C12.7262 18.9698 9.45999 22.5349 9.45999 26.8408C9.45999 28.8215 10.1645 30.7434 11.4442 32.2618C12.582 33.6116 13.5357 35.7389 11.618 38.2404L6.72535 44.6223H2.33024C1.04536 44.6223 0 45.6566 0 46.933V52.6107C0 53.8798 1.04536 54.9214 2.33024 54.9214H5.40348V56.1171C5.40348 57.7089 6.70686 59 8.30891 59H57.7557C60.0956 59 62 57.1074 62 54.7894V16.0209C62 15.7422 61.8899 15.4781 61.6939 15.28Z" fill="url(#paint0_linear_699_376)"/>
<defs>
<linearGradient id="paint0_linear_699_376" x1="-12.9842" y1="19.0545" x2="97.7674" y2="6.11794" gradientUnits="userSpaceOnUse">
<stop stop-color="#8A5929"/>
<stop offset="0.06" stop-color="#976837"/>
<stop offset="0.25" stop-color="#BD925F"/>
<stop offset="0.29" stop-color="#B58957"/>
<stop offset="0.46" stop-color="#986736"/>
<stop offset="0.6" stop-color="#865321"/>
<stop offset="0.69" stop-color="#804B1A"/>
<stop offset="0.75" stop-color="#844F1E"/>
<stop offset="0.81" stop-color="#8E5C2A"/>
<stop offset="0.88" stop-color="#A0713F"/>
<stop offset="0.94" stop-color="#BA8F5C"/>
<stop offset="1" stop-color="#D6B07C"/>
</linearGradient>
</defs>
</svg>
