<svg width="70" height="66" viewBox="0 0 70 66" fill="none" xmlns="http://www.w3.org/2000/svg">
<path d="M50.8565 35.9038C50.8565 33.9998 49.3072 32.4473 47.3999 32.4473C45.4959 32.4473 43.9434 33.9965 43.9434 35.9038C43.9434 37.8078 45.4926 39.3604 47.3999 39.3604C49.3072 39.3604 50.8565 37.8078 50.8565 35.9038ZM47.4033 37.4564C46.5467 37.4564 45.8507 36.7604 45.8507 35.9038C45.8507 35.0472 46.5467 34.3512 47.4033 34.3512C48.2599 34.3512 48.9559 35.0472 48.9559 35.9038C48.9559 36.7604 48.2599 37.4564 47.4033 37.4564Z" fill="url(#paint0_linear_884_1982)"/>
<path d="M60.728 40.9062C58.8241 40.9062 57.2715 42.4555 57.2715 44.3628C57.2715 46.2668 58.8207 47.8193 60.728 47.8193C62.632 47.8193 64.1846 46.2701 64.1846 44.3628C64.1846 42.4555 62.632 40.9062 60.728 40.9062ZM60.728 45.912C59.8714 45.912 59.1754 45.2161 59.1754 44.3595C59.1754 43.5029 59.8714 42.8069 60.728 42.8069C61.5846 42.8069 62.2806 43.5029 62.2806 44.3595C62.2806 45.2161 61.5846 45.912 60.728 45.912Z" fill="url(#paint1_linear_884_1982)"/>
<path d="M59.5164 32.1496C59.0847 31.8484 58.4925 31.9555 58.1913 32.3872L48.7824 45.9317C48.4813 46.3633 48.5883 46.9556 49.02 47.2568C49.1839 47.3705 49.3747 47.4274 49.562 47.4274C49.8632 47.4274 50.161 47.2835 50.345 47.0192L59.7539 33.4747C60.055 33.043 59.948 32.4474 59.5164 32.1496Z" fill="url(#paint2_linear_884_1982)"/>
<path d="M55.0166 24.0082V0.950311C55.0166 0.424976 54.5916 0 54.0663 0H0.950311C0.424976 0 0 0.424951 0 0.950311V59.892C0 60.2065 0.157264 60.501 0.41492 60.6783L7.05022 65.1922C7.37479 65.413 7.79639 65.413 8.12097 65.1922L14.2209 61.043L20.3208 65.1922C20.6454 65.413 21.067 65.413 21.3916 65.1922L27.4948 61.043L33.6014 65.1955C33.762 65.3059 33.9494 65.3595 34.1368 65.3595C34.3242 65.3595 34.5116 65.3059 34.6722 65.1955L40.7754 61.043L46.8854 65.1955C47.2066 65.4164 47.6316 65.4164 47.9561 65.1955L54.5981 60.6817C54.8591 60.5043 55.0164 60.2099 55.0164 59.8953V55.7897C63.3582 55.2944 70 48.368 70 39.9023C70 31.4301 63.3616 24.5068 55.0166 24.0082ZM53.1126 59.3866L47.421 63.2547L41.311 59.1021C40.9898 58.8813 40.5648 58.8813 40.2403 59.1021L34.137 63.2513L28.0304 59.0988C27.7092 58.878 27.2842 58.878 26.9596 59.0988L20.8564 63.248L14.7565 59.0988C14.4319 58.878 14.0103 58.878 13.6857 59.0988L7.58578 63.248L1.90079 59.3799V1.90045H53.1125V24.0084C44.7707 24.5036 38.1289 31.4301 38.1289 39.8957C38.1289 48.3613 44.7709 55.288 53.1125 55.7831L53.1126 59.3866ZM54.0663 53.9291C46.3302 53.9291 40.0326 47.6351 40.0326 39.8955C40.0326 32.1594 46.3266 25.8653 54.0663 25.8653C61.8024 25.8653 68.0999 32.1593 68.0999 39.8989C68.0999 47.635 61.8026 53.9291 54.0663 53.9291Z" fill="url(#paint3_linear_884_1982)"/>
<path d="M35.2918 34.9531H19.7257C19.2004 34.9531 18.7754 35.3781 18.7754 35.9034C18.7754 36.4288 19.2003 36.8537 19.7257 36.8537H35.2918C35.8171 36.8537 36.2421 36.4288 36.2421 35.9034C36.2455 35.3781 35.8172 34.9531 35.2918 34.9531Z" fill="url(#paint4_linear_884_1982)"/>
<path d="M35.2918 41.5254H19.7257C19.2004 41.5254 18.7754 41.9503 18.7754 42.4757C18.7754 43.0011 19.2003 43.426 19.7257 43.426H35.2918C35.8171 43.426 36.2421 43.0011 36.2421 42.4757C36.2455 41.9537 35.8172 41.5254 35.2918 41.5254Z" fill="url(#paint5_linear_884_1982)"/>
<path d="M35.2918 48.166H19.7257C19.2004 48.166 18.7754 48.591 18.7754 49.1163C18.7754 49.6417 19.2003 50.0666 19.7257 50.0666H35.2918C35.8171 50.0666 36.2421 49.6417 36.2421 49.1163C36.2455 48.5943 35.8172 48.166 35.2918 48.166Z" fill="url(#paint6_linear_884_1982)"/>
<path d="M38.6672 28.2067V16.7497L39.8183 17.6599C39.9923 17.7971 40.2031 17.864 40.4072 17.864C40.6883 17.864 40.966 17.7402 41.1534 17.5026C41.4779 17.091 41.411 16.4921 40.9961 16.1642L36.6729 12.7411V9.40842C36.6729 8.88309 36.248 8.45811 35.7226 8.45811C35.1973 8.45811 34.7723 8.88306 34.7723 9.40842V11.232L28.0968 5.95188C27.7489 5.6775 27.2637 5.6775 26.9157 5.95188L14.0136 16.1677C13.602 16.4922 13.5318 17.0912 13.8563 17.5061C14.1809 17.9177 14.7798 17.9879 15.1948 17.6634L16.3459 16.7532V28.2102C16.3459 28.7356 16.7708 29.1605 17.2962 29.1605H37.7141C38.2427 29.1572 38.6672 28.7321 38.6672 28.2067ZM36.7632 27.2531H18.2496V15.2436L27.5051 7.91897L36.7607 15.2436L36.7632 27.2531Z" fill="url(#paint7_linear_884_1982)"/>
<defs>
<linearGradient id="paint0_linear_884_1982" x1="43.4116" y1="3.91786" x2="57.962" y2="7.63849" gradientUnits="userSpaceOnUse">
<stop offset="0.0580958" stop-color="#E6D1BE"/>
<stop offset="0.929784" stop-color="#896954"/>
</linearGradient>
<linearGradient id="paint1_linear_884_1982" x1="56.7397" y1="12.3768" x2="71.2901" y2="16.0975" gradientUnits="userSpaceOnUse">
<stop offset="0.0580958" stop-color="#E6D1BE"/>
<stop offset="0.929784" stop-color="#896954"/>
</linearGradient>
<linearGradient id="paint2_linear_884_1982" x1="47.741" y1="-31.777" x2="72.251" y2="-27.1873" gradientUnits="userSpaceOnUse">
<stop offset="0.0580958" stop-color="#E6D1BE"/>
<stop offset="0.929784" stop-color="#896954"/>
</linearGradient>
<linearGradient id="paint3_linear_884_1982" x1="-5.38461" y1="-269.737" x2="140.631" y2="-229.75" gradientUnits="userSpaceOnUse">
<stop offset="0.0580958" stop-color="#E6D1BE"/>
<stop offset="0.929784" stop-color="#896954"/>
</linearGradient>
<linearGradient id="paint4_linear_884_1982" x1="17.4318" y1="27.1095" x2="23.4369" y2="41.2213" gradientUnits="userSpaceOnUse">
<stop offset="0.0580958" stop-color="#E6D1BE"/>
<stop offset="0.929784" stop-color="#896954"/>
</linearGradient>
<linearGradient id="paint5_linear_884_1982" x1="17.4318" y1="33.6818" x2="23.4369" y2="47.7935" gradientUnits="userSpaceOnUse">
<stop offset="0.0580958" stop-color="#E6D1BE"/>
<stop offset="0.929784" stop-color="#896954"/>
</linearGradient>
<linearGradient id="paint6_linear_884_1982" x1="17.4318" y1="40.3224" x2="23.4369" y2="54.4342" gradientUnits="userSpaceOnUse">
<stop offset="0.0580958" stop-color="#E6D1BE"/>
<stop offset="0.929784" stop-color="#896954"/>
</linearGradient>
<linearGradient id="paint7_linear_884_1982" x1="11.5211" y1="-90.8822" x2="68.4377" y2="-73.6607" gradientUnits="userSpaceOnUse">
<stop offset="0.0580958" stop-color="#E6D1BE"/>
<stop offset="0.929784" stop-color="#896954"/>
</linearGradient>
</defs>
</svg>
