<svg width="61" height="56" viewBox="0 0 61 56" fill="none" xmlns="http://www.w3.org/2000/svg">
<path d="M60.8983 12.3535L57.7354 5.06307C57.5135 4.55605 56.9802 4.25884 56.4343 4.34126C56.0305 4.4037 54.3855 4.26133 51.9903 3.75181C49.4605 3.21482 48.0946 2.69029 47.8105 2.4805C47.5836 2.26321 47.2821 2.14082 46.968 2.14082C46.659 2.14082 46.3624 2.25821 46.138 2.46801C45.8165 2.6928 44.3135 3.25978 42.0305 3.80173C39.5156 4.39866 38.0326 4.48358 37.6886 4.39866C37.1129 4.2563 36.5172 4.54852 36.2779 5.09548L33.0403 12.5182C32.9431 12.738 32.9156 12.9828 32.9555 13.2201C33.0652 13.837 33.1973 14.444 33.3468 15.0434H16.1063V5.82202C16.1063 3.79143 14.4588 2.143 12.4349 2.143H10.9743V1.22138C10.9743 0.547004 10.4285 0 9.75551 0H1.21883C0.545865 0 0 0.546984 0 1.22138V5.50482C0 6.17919 0.545846 6.72619 1.21883 6.72619H9.75806C10.431 6.72619 10.9769 6.17921 10.9769 5.50482V4.58319H12.4375C13.1179 4.58319 13.6713 5.13767 13.6713 5.81953V24.1299C7.99847 26.8049 4.06263 32.5872 4.06263 39.2734C4.06263 48.4973 11.5497 56 20.7544 56C29.5476 56 36.7731 49.1489 37.4016 40.4946H45.7513V44.2985C43.0794 44.863 41.068 47.2433 41.068 50.0856C41.068 53.3475 43.715 56 46.9701 56C50.2253 56 52.8722 53.3475 52.8722 50.0856C52.8722 47.2433 50.8608 44.863 48.1889 44.2985V30.9339C55.4067 26.5605 59.7092 20.5437 60.9828 13.0436C61.0227 12.8088 60.9928 12.569 60.8981 12.3517L60.8983 12.3535ZM8.5418 4.28365H2.43781V2.44289H8.5418V4.28365ZM16.1086 17.4859H34.0989C34.236 17.863 34.383 18.2377 34.54 18.6073H16.1108V17.4859H16.1086ZM16.1086 21.0475H35.7438C36.5563 22.4787 37.5184 23.8299 38.6325 25.1012H29.6052C27.038 23.4852 24.0022 22.5486 20.7546 22.5486C19.1445 22.5486 17.5841 22.7784 16.1112 23.2079V21.0475L16.1086 21.0475ZM20.7545 53.5596C12.8961 53.5596 6.50012 47.1528 6.50012 39.2754C6.50012 31.4006 12.8935 24.9913 20.7545 24.9913C28.6129 24.9913 35.0089 31.3981 35.0089 39.2754C35.0089 47.1503 28.6155 53.5596 20.7545 53.5596ZM37.4016 38.0542C37.1075 33.9731 35.3428 30.2938 32.6411 27.5438H41.0782C42.469 28.7727 44.0268 29.9091 45.754 30.9531V38.0536L37.4016 38.0542ZM50.4348 50.0876C50.4348 52.0008 48.882 53.5594 46.9703 53.5594C45.061 53.5594 43.5058 52.0033 43.5058 50.0876C43.5058 48.1744 45.0585 46.6159 46.9703 46.6159C48.8795 46.6159 50.4348 48.1719 50.4348 50.0876ZM46.9553 28.8303C40.5549 24.9415 36.6793 19.6716 35.4255 13.1548L38.1697 6.86579C39.6053 6.84831 41.5819 6.4262 42.7956 6.1315C43.9646 5.84678 45.799 5.35221 46.9605 4.78775C47.8703 5.23483 49.3308 5.6744 51.3222 6.1065C51.8681 6.22389 54.2185 6.71593 55.8261 6.78586L58.5154 12.9875C57.2941 19.5835 53.4059 24.909 46.953 28.8273L46.9553 28.8303ZM20.7551 26.7872C13.8831 26.7872 8.29557 32.3894 8.29557 39.2727C8.29557 46.159 13.8861 51.7582 20.7551 51.7582C27.627 51.7582 33.2146 46.156 33.2146 39.2727C33.2146 32.3864 27.624 26.7872 20.7551 26.7872ZM20.7551 49.3208C15.2268 49.3208 10.7304 44.8151 10.7304 39.2753C10.7304 33.7355 15.2268 29.2297 20.7551 29.2297C26.2833 29.2297 30.7797 33.7355 30.7797 39.2753C30.7797 44.8126 26.2833 49.3208 20.7551 49.3208ZM52.7802 12.5977C53.2563 13.0748 53.2563 13.849 52.7802 14.3236L45.692 21.4266C45.4626 21.6564 45.1536 21.7838 44.8295 21.7838C44.5055 21.7838 44.1965 21.6564 43.9671 21.4266L41.031 18.4844C40.555 18.0073 40.555 17.2331 41.031 16.7585C41.5071 16.2815 42.2797 16.2815 42.7533 16.7585L44.827 18.8366L51.0531 12.5975C51.5292 12.1204 52.3018 12.1204 52.7754 12.5975L52.7802 12.5977ZM20.7551 35.3762C18.6091 35.3762 16.8643 37.1246 16.8643 39.2751C16.8643 41.4255 18.6091 43.1739 20.7551 43.1739C22.9011 43.1739 24.6458 41.4255 24.6458 39.2751C24.6458 37.1246 22.9011 35.3762 20.7551 35.3762ZM20.7551 40.7312C19.9525 40.7312 19.302 40.0768 19.302 39.2751C19.302 38.4708 19.955 37.819 20.7551 37.819C21.5576 37.819 22.2081 38.4733 22.2081 39.2751C22.2081 40.0793 21.5551 40.7312 20.7551 40.7312Z" fill="url(#paint0_linear_884_2037)"/>
<defs>
<linearGradient id="paint0_linear_884_2037" x1="-4.6923" y1="-231.104" x2="122.245" y2="-195.748" gradientUnits="userSpaceOnUse">
<stop offset="0.0580958" stop-color="#E6D1BE"/>
<stop offset="0.929784" stop-color="#896954"/>
</linearGradient>
</defs>
</svg>
