<svg width="49" height="59" viewBox="0 0 49 59" fill="none" xmlns="http://www.w3.org/2000/svg">
<path fill-rule="evenodd" clip-rule="evenodd" d="M14.6502 26.3336H12.6024L12.0536 24.6606C11.9733 24.4126 11.7823 24.2159 11.5365 24.1241C10.9245 23.896 10.3551 23.5701 9.84647 23.1543C9.64389 22.9889 9.37682 22.9243 9.12007 22.978L7.38317 23.3444L6.35869 21.5857L7.5456 20.2773C7.72081 20.0835 7.79868 19.8216 7.7561 19.5651C7.64889 18.9232 7.64905 18.2683 7.7561 17.6272C7.79868 17.3701 7.72081 17.1081 7.5456 16.9144L6.35869 15.6072L7.38317 13.8473L9.12007 14.2143C9.37682 14.2673 9.64389 14.2034 9.84647 14.0374C10.3551 13.6216 10.9245 13.2957 11.5365 13.0682C11.7823 12.977 11.9733 12.7791 12.0536 12.531L12.6024 10.858H14.6502L15.1977 12.531C15.2786 12.7791 15.469 12.977 15.7148 13.0682C16.3281 13.2957 16.8963 13.6216 17.4049 14.0374C17.6074 14.2034 17.8757 14.2673 18.1325 14.2143L19.8694 13.8473L20.8933 15.6072L19.7057 16.9144C19.5299 17.1081 19.4527 17.3701 19.4952 17.6272C19.6023 18.2681 19.6024 18.9226 19.4952 19.5651C19.4527 19.8216 19.5299 20.0835 19.7057 20.2773L20.8933 21.5857L19.8694 23.3444L18.1325 22.9786C17.8757 22.9243 17.6087 22.9895 17.4049 23.1543C16.8969 23.5701 16.3281 23.896 15.7148 24.1241C15.469 24.2159 15.2786 24.4138 15.1977 24.6606L14.6502 26.3336ZM16.0963 27.4538L16.7138 25.5678C17.2266 25.3439 17.7127 25.065 18.1653 24.7343L20.1231 25.1471C20.4893 25.2243 20.8622 25.0584 21.0496 24.7379L22.6995 21.9026C22.8863 21.5815 22.8431 21.1777 22.5943 20.9025L21.2546 19.4275C21.3146 18.8706 21.3147 18.3203 21.2546 17.7648L22.5943 16.2892C22.8431 16.0146 22.8863 15.6102 22.6995 15.2897L21.0496 12.4544C20.8622 12.1333 20.4881 11.9679 20.1231 12.0446L18.1653 12.4574C17.7127 12.1273 17.2266 11.849 16.7138 11.6257L16.0963 9.7385C15.9813 9.38546 15.6503 9.14767 15.2762 9.14767H11.9751C11.6022 9.14767 11.2713 9.38546 11.1563 9.7385L10.5376 11.6257C10.0253 11.849 9.53926 12.1273 9.08662 12.4574L7.12826 12.0446C6.76325 11.9679 6.3891 12.1333 6.20295 12.4544L4.55245 15.2897C4.36505 15.6102 4.40825 16.0146 4.6583 16.2892L5.99671 17.7648C5.9367 18.3197 5.93668 18.8723 5.99671 19.4275L4.6583 20.9025C4.40825 21.1777 4.36505 21.5815 4.55245 21.9026L6.20295 24.7379C6.3891 25.0584 6.76325 25.2243 7.12826 25.1471L9.08662 24.7343C9.53926 25.065 10.0241 25.3426 10.5376 25.5665L11.1563 27.4538C11.2713 27.8062 11.6022 28.0446 11.9751 28.0446H15.2762C15.6503 28.0446 15.9813 27.8062 16.0963 27.4538ZM13.6263 20.2555C14.5486 20.2555 15.2987 19.512 15.2987 18.5964C15.2987 17.6803 14.5486 16.9361 13.6263 16.9361C12.7034 16.9361 11.9527 17.6803 11.9527 18.5964C11.9527 19.512 12.7034 20.2555 13.6263 20.2555ZM17.0234 18.5964C17.0234 16.737 15.4995 15.2257 13.6263 15.2257C11.7519 15.2257 10.2279 16.737 10.2279 18.5964C10.2279 20.4547 11.7519 21.9665 13.6263 21.9665C15.4995 21.9665 17.0234 20.4547 17.0234 18.5964ZM1.72471 18.6713C1.72471 25.651 7.6028 30.1425 13.2874 34.4866C13.4012 34.5729 13.5131 34.6592 13.6263 34.7449C19.3866 30.3356 25.5266 25.8042 25.5266 18.6713V9.67574C21.0887 9.03351 16.7736 6.2 13.6263 2.2717C10.4703 6.20251 6.17479 9.03195 1.72471 9.67574V18.6713ZM13.0982 36.503C13.4089 36.7399 13.8428 36.7406 14.1531 36.503C20.3902 31.7275 27.2508 26.8692 27.2508 18.6713V9.34742C27.2508 8.67028 26.7598 8.10296 26.1088 8.02693C21.6444 7.50591 17.2379 4.37407 14.3259 0.355525C13.9821 -0.11884 13.2687 -0.118177 12.9254 0.355525C10.0143 4.37291 5.60723 7.50731 1.14375 8.02693C0.491559 8.10296 0 8.67028 0 9.34742V18.6713C-7.07858e-08 26.8947 6.8772 31.72 13.0982 36.503ZM47.2753 57.289H39.1194V19.929H47.2753V57.289ZM47.7261 18.218H38.6686C37.966 18.218 37.3947 18.7847 37.3947 19.4818V57.7362C37.3947 58.4333 37.966 59 38.6686 59H47.7261C48.4287 59 49 58.4333 49 57.7362V19.4818C49 18.7847 48.4287 18.218 47.7261 18.218ZM31.3195 57.289H23.1619V34.8113H31.3195V57.289ZM31.7703 33.101C32.4718 33.101 33.0436 33.6677 33.0436 34.3647V57.7362C33.0436 58.4333 32.4718 59 31.7703 59H22.7117C22.009 59 21.4378 58.4333 21.4378 57.7362V34.3647C21.4378 33.6677 22.009 33.101 22.7117 33.101H31.7703ZM15.3626 57.289H7.20494V44.3054H15.3626V57.289ZM15.8128 42.595H6.75472C6.05207 42.595 5.48081 43.1617 5.48081 43.8588V57.7362C5.48081 58.4333 6.05207 59 6.75472 59H15.8128C16.5154 59 17.0867 58.4333 17.0867 57.7362V43.8588C17.0867 43.1617 16.5154 42.595 15.8128 42.595Z" fill="url(#paint0_linear_699_297)"/>
<defs>
<linearGradient id="paint0_linear_699_297" x1="-10.2617" y1="19.0545" x2="77.7123" y2="10.9332" gradientUnits="userSpaceOnUse">
<stop stop-color="#8A5929"/>
<stop offset="0.06" stop-color="#976837"/>
<stop offset="0.25" stop-color="#BD925F"/>
<stop offset="0.29" stop-color="#B58957"/>
<stop offset="0.46" stop-color="#986736"/>
<stop offset="0.6" stop-color="#865321"/>
<stop offset="0.69" stop-color="#804B1A"/>
<stop offset="0.75" stop-color="#844F1E"/>
<stop offset="0.81" stop-color="#8E5C2A"/>
<stop offset="0.88" stop-color="#A0713F"/>
<stop offset="0.94" stop-color="#BA8F5C"/>
<stop offset="1" stop-color="#D6B07C"/>
</linearGradient>
</defs>
</svg>
