<svg width="61" height="63" viewBox="0 0 61 63" fill="none" xmlns="http://www.w3.org/2000/svg">
<path d="M26.1055 15.1061C26.1055 15.9735 26.3627 16.8213 26.8445 17.5425C27.3264 18.2637 28.0113 18.8258 28.8127 19.1577C29.614 19.4896 30.4957 19.5765 31.3464 19.4072C32.1971 19.238 32.9785 18.8204 33.5918 18.2071C34.2051 17.5937 34.6228 16.8123 34.792 15.9617C34.9612 15.111 34.8744 14.2292 34.5425 13.4279C34.2105 12.6266 33.6484 11.9417 32.9273 11.4598C32.2061 10.9779 31.3582 10.7207 30.4909 10.7207C29.3282 10.722 28.2135 11.1844 27.3913 12.0066C26.5692 12.8287 26.1068 13.9434 26.1055 15.1061ZM33.4145 15.1061C33.4145 15.6843 33.243 16.2496 32.9218 16.7304C32.6005 17.2112 32.1439 17.5859 31.6097 17.8072C31.0755 18.0284 30.4876 18.0863 29.9205 17.9735C29.3534 17.8607 28.8324 17.5823 28.4236 17.1734C28.0147 16.7645 27.7363 16.2436 27.6234 15.6765C27.5106 15.1093 27.5685 14.5215 27.7898 13.9873C28.0111 13.4531 28.3858 12.9965 28.8666 12.6752C29.3474 12.354 29.9126 12.1825 30.4909 12.1825C31.266 12.1833 32.0092 12.4915 32.5573 13.0397C33.1054 13.5878 33.4137 14.331 33.4145 15.1061Z" fill="url(#paint0_linear_884_1932)"/>
<path d="M41.6996 0H39.2633C38.8756 0 38.5038 0.154011 38.2296 0.428152C37.9555 0.702292 37.8015 1.07411 37.8015 1.4618V5.89593L33.075 1.16944C32.3876 0.489095 31.4596 0.107464 30.4925 0.107464C29.5254 0.107464 28.5973 0.489095 27.91 1.16944L14.8702 14.2092C14.4306 14.65 14.1582 15.2301 14.0997 15.8498C14.0413 16.4696 14.2004 17.0903 14.5497 17.6056C14.8991 18.1208 15.4169 18.4984 16.0143 18.6734C16.6117 18.8485 17.2514 18.8101 17.8235 18.5649V29.7233C17.8246 30.6922 18.2099 31.6211 18.8951 32.3063C19.5802 32.9914 20.5091 33.3768 21.478 33.3778H39.5069C40.4758 33.3768 41.4048 32.9914 42.0899 32.3063C42.775 31.6211 43.1604 30.6922 43.1614 29.7233V18.5649C43.7335 18.8098 44.373 18.848 44.9702 18.6729C45.5674 18.4979 46.085 18.1204 46.4343 17.6053C46.7836 17.0903 46.9427 16.4697 46.8844 15.8501C46.8261 15.2305 46.554 14.6505 46.1147 14.2097L43.1614 11.2559V1.4618C43.1614 1.07411 43.0074 0.702292 42.7333 0.428152C42.4591 0.154011 42.0873 0 41.6996 0ZM39.2633 1.4618H41.6996V9.79407L39.2633 7.35773V1.4618ZM33.4161 31.916H27.5689V26.0688C27.5689 25.8749 27.6459 25.689 27.783 25.552C27.92 25.4149 28.1059 25.3379 28.2998 25.3379H32.6852C32.879 25.3379 33.0649 25.4149 33.202 25.552C33.3391 25.689 33.4161 25.8749 33.4161 26.0688V31.916ZM41.6996 29.7233C41.699 30.3046 41.4678 30.862 41.0567 31.273C40.6456 31.6841 40.0883 31.9153 39.5069 31.916H34.8779V26.0688C34.8772 25.4874 34.646 24.9301 34.2349 24.519C33.8239 24.108 33.2665 23.8767 32.6852 23.8761H28.2998C27.7184 23.8767 27.1611 24.108 26.75 24.519C26.3389 24.9301 26.1077 25.4874 26.1071 26.0688V31.916H21.478C20.8967 31.9153 20.3393 31.6841 19.9283 31.273C19.5172 30.862 19.286 30.3046 19.2853 29.7233V17.374L30.4925 6.16685L41.6996 17.374V29.7233ZM45.0808 15.2427C45.1939 15.3558 45.2837 15.4901 45.3449 15.6379C45.4062 15.7857 45.4377 15.9442 45.4377 16.1042C45.4377 16.2642 45.4062 16.4226 45.3449 16.5704C45.2837 16.7182 45.1939 16.8525 45.0808 16.9657C44.8487 17.1871 44.5403 17.3107 44.2195 17.3107C43.8988 17.3107 43.5903 17.1871 43.3583 16.9657L31.526 5.13385C31.2511 4.86122 30.8796 4.70825 30.4925 4.70825C30.1053 4.70825 29.7339 4.86122 29.459 5.13385L17.6286 16.9657C17.3998 17.1924 17.0905 17.3193 16.7683 17.3186C16.4462 17.3178 16.1374 17.1895 15.9097 16.9617C15.6819 16.7338 15.5537 16.4251 15.553 16.1029C15.5523 15.7807 15.6793 15.4714 15.9061 15.2427L28.942 2.20488C29.3545 1.79616 29.9118 1.56685 30.4925 1.56685C31.0732 1.56685 31.6304 1.79616 32.043 2.20488L45.0808 15.2427Z" fill="url(#paint1_linear_884_1932)"/>
<path d="M0.49895 51.6237L3.25298 58.2559C3.93117 59.8673 5.22031 61.1444 6.83809 61.8073C8.45588 62.4703 10.2704 62.4651 11.8844 61.7929L22.0595 57.5001C22.4741 57.3214 22.8236 57.0193 23.0603 56.6349C23.297 56.2505 23.4095 55.8024 23.3825 55.3518L24.0817 55.0545C24.9395 54.6901 25.8805 54.5673 26.8031 54.6993C32.1742 55.5038 41.3904 53.6444 46.1398 50.7978C50.7723 48.0419 55.1927 44.9441 59.3642 41.5304C63.506 38.1196 58.989 32.0414 54.6143 34.8344C53.3075 35.6691 50.2816 37.8452 48.5693 39.0551C48.0357 37.6528 46.5462 36.5038 45.0444 36.8775C44.5703 36.9862 44.1186 37.1324 43.6801 37.2732C41.8991 37.8452 40.0587 38.4373 36.0041 36.8878C28.3389 33.9544 20.7171 37.607 20.1465 37.8901L16.8736 39.2734C16.5724 38.931 16.1716 38.6915 15.7273 38.5887C15.2831 38.4858 14.8178 38.5247 14.3968 38.6999C12.7357 39.3894 7.98532 41.3799 4.02969 43.0366C2.42701 43.7122 1.15644 44.9941 0.495038 46.6027C-0.166365 48.2113 -0.164959 50.0161 0.49895 51.6237ZM20.7356 39.2276C20.895 39.1604 28.2269 35.5064 35.4808 38.2531C40.0153 39.9858 42.1997 39.2846 44.1264 38.6648C44.5552 38.5269 44.9587 38.391 45.3719 38.3023C46.5223 38.0553 47.3994 39.4542 47.3994 40.513C47.3994 41.7697 45.2651 43.2597 44.1761 43.7436C42.7421 44.3805 39.7824 44.3771 38.2339 44.1739C38.0416 44.1486 37.8473 44.2007 37.6935 44.3188C37.6173 44.3773 37.5534 44.4501 37.5054 44.5333C37.4575 44.6164 37.4263 44.7082 37.4138 44.8034C37.4013 44.8986 37.4077 44.9953 37.4325 45.088C37.4574 45.1808 37.5003 45.2677 37.5587 45.3438C37.6768 45.4976 37.8511 45.5982 38.0434 45.6235C39.7897 45.8471 43.0525 45.851 44.7676 45.0797C44.8076 45.0617 48.7145 43.25 48.847 40.6456C50.3439 39.5872 53.9721 36.974 55.429 36.0453C58.2342 34.2565 61.1491 38.1951 58.4462 40.3897C54.3147 43.7448 49.9509 46.8032 45.3874 49.5421C40.9533 52.1992 32.029 54.003 27.0175 53.2516C25.8293 53.0796 24.6166 53.2369 23.5116 53.7063L22.9483 53.9455L17.5396 40.573C17.5396 40.573 19.9375 39.5658 20.7356 39.2276ZM14.9557 40.0487C15.0447 40.0114 15.1402 39.9921 15.2367 39.9919C15.3332 39.9917 15.4288 40.0107 15.518 40.0476C15.6072 40.0846 15.6881 40.1389 15.7562 40.2073C15.8242 40.2757 15.8781 40.3569 15.9146 40.4463L21.8836 55.2105C21.9547 55.3875 21.9537 55.5854 21.8809 55.7617C21.8081 55.9381 21.6691 56.079 21.4938 56.1543L19.3957 57.0397L12.7206 40.9789C13.6737 40.5827 14.4562 40.2562 14.9557 40.0487ZM11.3723 41.5446L18.0479 57.6073L11.3173 60.4461C10.0619 60.9689 8.65054 60.9729 7.39224 60.4572C6.13394 59.9416 5.13123 58.9484 4.60369 57.695L1.84917 51.0653C1.33216 49.8148 1.3307 48.4106 1.8451 47.1591C2.35949 45.9076 3.34799 44.9103 4.59492 44.3848C6.83488 43.4439 9.32872 42.3997 11.3723 41.5446Z" fill="url(#paint2_linear_884_1932)"/>
<defs>
<linearGradient id="paint0_linear_884_1932" x1="25.4308" y1="-25.4752" x2="43.8912" y2="-20.7548" gradientUnits="userSpaceOnUse">
<stop offset="0.0580958" stop-color="#E6D1BE"/>
<stop offset="0.929784" stop-color="#896954"/>
</linearGradient>
<linearGradient id="paint1_linear_884_1932" x1="11.5642" y1="-137.746" x2="80.7614" y2="-120.353" gradientUnits="userSpaceOnUse">
<stop offset="0.0580958" stop-color="#E6D1BE"/>
<stop offset="0.929784" stop-color="#896954"/>
</linearGradient>
<linearGradient id="paint2_linear_884_1932" x1="-4.6923" y1="-82.1729" x2="100.013" y2="-24.2164" gradientUnits="userSpaceOnUse">
<stop offset="0.0580958" stop-color="#E6D1BE"/>
<stop offset="0.929784" stop-color="#896954"/>
</linearGradient>
</defs>
</svg>
