<svg width="18" height="21" viewBox="0 0 18 21" fill="none" xmlns="http://www.w3.org/2000/svg">
<path d="M17.8644 19.6872L11.2411 9.10748L17.7997 1.76981C17.8634 1.70965 17.9142 1.63665 17.9487 1.55546C17.9832 1.47427 18.0006 1.38667 18 1.29823C17.9993 1.2098 17.9806 1.12247 17.9449 1.04181C17.9092 0.961155 17.8574 0.888929 17.7928 0.829736C17.7282 0.770544 17.6521 0.725682 17.5695 0.698007C17.4869 0.670333 17.3995 0.660452 17.3129 0.668994C17.2263 0.677536 17.1424 0.704313 17.0665 0.747622C16.9907 0.79093 16.9245 0.84982 16.8723 0.920541L10.5477 7.99281L6.17184 1.00334C6.1149 0.91234 6.03616 0.837522 5.943 0.785903C5.84985 0.734285 5.74532 0.707557 5.63922 0.708225H0.626323C0.514076 0.708277 0.403902 0.738978 0.30732 0.797118C0.210738 0.855258 0.131292 0.938702 0.0772881 1.03873C0.0232839 1.13875 -0.00329599 1.25169 0.000326457 1.36573C0.00394891 1.47977 0.0376408 1.59073 0.0978804 1.68701L6.72117 12.2668L0.162631 19.6044C0.0686607 19.7316 0.0249325 19.89 0.0400502 20.0484C0.055168 20.2067 0.128037 20.3536 0.24432 20.4601C0.360602 20.5666 0.51188 20.625 0.668388 20.6238C0.824896 20.6226 0.975303 20.5619 1.09002 20.4537L7.41462 13.3814L11.7905 20.3709C11.8474 20.4619 11.9261 20.5367 12.0193 20.5883C12.1125 20.6399 12.217 20.6667 12.3231 20.666H17.336C17.4482 20.666 17.5584 20.6353 17.655 20.5771C17.7516 20.519 17.831 20.4355 17.885 20.3355C17.939 20.2355 17.9656 20.1225 17.962 20.0085C17.9584 19.8945 17.9247 19.7835 17.8644 19.6872ZM12.6667 19.3921L1.7678 1.98213H5.29563L16.1945 19.3921H12.6667Z" fill="white"/>
</svg>
