<svg width="20" height="20" viewBox="0 0 20 20" fill="none" xmlns="http://www.w3.org/2000/svg">
<path d="M15.0413 5.28906H15.0505M5.41634 1.16406H14.583C17.1143 1.16406 19.1663 3.21609 19.1663 5.7474V14.9141C19.1663 17.4454 17.1143 19.4974 14.583 19.4974H5.41634C2.88504 19.4974 0.833008 17.4454 0.833008 14.9141V5.7474C0.833008 3.21609 2.88504 1.16406 5.41634 1.16406ZM13.6663 9.75323C13.7795 10.5161 13.6492 11.2953 13.294 11.9798C12.9387 12.6644 12.3767 13.2195 11.6878 13.5663C10.9989 13.913 10.2183 14.0337 9.45681 13.9112C8.69537 13.7886 7.99196 13.4291 7.44661 12.8838C6.90127 12.3384 6.54176 11.635 6.41924 10.8736C6.29671 10.1122 6.4174 9.33147 6.76414 8.64257C7.11088 7.95368 7.66601 7.39166 8.35058 7.03645C9.03514 6.68124 9.81428 6.55094 10.5772 6.66406C11.3554 6.77946 12.0758 7.14207 12.6321 7.69834C13.1883 8.25462 13.5509 8.97505 13.6663 9.75323Z" stroke="white" stroke-linecap="round" stroke-linejoin="round"/>
</svg>
