<svg width="65" height="59" viewBox="0 0 65 59" fill="none" xmlns="http://www.w3.org/2000/svg">
<path fill-rule="evenodd" clip-rule="evenodd" d="M61.1494 52.1377C59.2319 51.9256 57.2735 51.5166 55.3734 51.1227C51.5862 50.3425 47.6694 49.532 43.7147 50.0774C39.5509 50.6606 35.8728 52.7059 32.4999 56.3191C29.1286 52.7059 25.4497 50.6606 21.2859 50.0774C15.2671 49.2529 9.58472 51.5035 3.85117 52.1377L2.51174 48.623C5.46032 48.2291 8.45059 47.2747 11.3537 46.3506C15.2683 45.1083 18.9661 43.9266 22.4261 44.0554C26.1982 44.1841 29.1218 45.8885 31.6249 49.426C32.0558 50.0301 32.9458 50.0297 33.3765 49.426C35.8796 45.8885 38.8024 44.1841 42.5745 44.0554C46.0352 43.9266 49.7323 45.1083 53.6476 46.3506C56.55 47.2747 59.541 48.2291 62.4889 48.623L61.1494 52.1377ZM32.4999 35.2307C33.0931 35.2307 33.5735 35.7154 33.5735 36.3063V45.8431C34.1515 45.2598 34.753 44.7447 35.3803 44.2902C35.3841 39.4726 35.3894 34.1475 35.3932 31.3523C35.3962 28.6254 36.491 26.2393 38.5608 24.4592L40.2547 23.0048C40.4411 22.8382 40.5532 22.6185 40.5722 22.3686C40.6351 21.5381 39.67 21.064 39.0426 21.5959C38.8267 21.7777 38.4842 22.0883 38.0895 22.4519C34.6242 25.6182 33.4227 26.4893 32.5014 26.4893C31.5779 26.4893 30.3763 25.6182 26.9111 22.4519C26.5164 22.0883 26.1739 21.7777 25.958 21.5959C25.7716 21.4369 25.5315 21.3535 25.283 21.3763C24.4442 21.4401 24.1338 22.4678 24.7466 23.0048L26.4398 24.4592C28.5096 26.2393 29.6051 28.6254 29.6074 31.3523C29.6104 34.1475 29.6172 39.4726 29.621 44.2902C30.2476 44.7447 30.8491 45.2598 31.4256 45.8431V36.3063C31.4256 35.7154 31.9075 35.2307 32.4999 35.2307ZM19.3282 17.8842C18.8775 17.7479 18.3873 17.9221 18.1244 18.316L17.3085 19.5356L13.6909 25.7924C13.3095 26.4609 12.2974 26.3475 12.0901 25.5803C12.0295 25.3531 12.0606 25.1182 12.1757 24.9213L17.3191 16.0132C17.9216 14.9556 17.8727 14.8922 18.7684 14.8922H27.6066C27.9013 17.3313 29.9832 19.225 32.4999 19.225C35.0174 19.225 37.0993 17.3313 37.3948 14.8922H45.0595C46.5581 14.8705 46.9838 14.8062 47.5626 15.8087L52.8249 24.9213C53.0658 25.3379 52.9226 25.8757 52.5037 26.1181C52.087 26.3529 51.5499 26.209 51.3097 25.7924L46.9391 18.2251C46.4752 17.4275 45.2728 17.5428 44.9867 18.4372L43.7897 22.164C43.7079 22.4216 43.7238 22.6943 43.8352 22.9367L47.9096 31.8674H45.3829C44.789 31.8674 44.3094 32.3446 44.3094 32.943V41.942C43.578 41.8873 42.6937 41.872 41.9631 41.9344V32.7688C41.9631 32.178 41.4813 31.6932 40.8889 31.6932C40.2964 31.6932 39.8153 32.178 39.8153 32.7688V42.2601C39.0206 42.4495 38.26 42.707 37.5289 43.0404C37.5327 38.5787 37.538 33.9127 37.541 31.3599C37.5433 29.239 38.3577 27.4664 39.9616 26.0878L41.6556 24.6334C43.7173 22.856 42.613 19.4346 39.8775 19.2326C39.057 19.1719 38.263 19.4295 37.641 19.9673C36.4482 20.9909 33.5989 23.7522 32.4999 24.3002C31.4047 23.7531 28.551 20.9903 27.3596 19.9673C25.288 18.1885 22.0802 19.8024 22.2859 22.5276C22.348 23.3457 22.7238 24.0956 23.3451 24.6334L25.0391 26.0878C26.6429 27.4664 27.4573 29.239 27.4603 31.3599C27.4626 33.9127 27.4679 38.5787 27.4725 43.0404C26.7406 42.707 25.98 42.4495 25.1853 42.2601V32.7688C25.1853 32.178 24.7049 31.6932 24.1117 31.6932C23.5193 31.6932 23.0382 32.178 23.0382 32.7688V41.9344C22.1479 41.8583 20.9811 41.9035 20.0889 41.995V18.9144C20.0889 18.4372 19.7805 18.0206 19.3282 17.8842ZM32.4999 11.5062C30.9658 11.5062 29.7157 12.7561 29.7157 14.2938C29.7157 15.8314 30.9658 17.0737 32.4999 17.0737C34.0348 17.0737 35.2849 15.8314 35.2849 14.2938C35.2849 12.7561 34.0348 11.5062 32.4999 11.5062ZM64.7814 47.1459C64.5685 46.8429 64.2313 46.646 63.8556 46.6157C58.3144 46.1681 52.2032 43.1688 46.4565 42.1995V34.0111H48.8172C49.9548 34.0111 50.7089 32.8303 50.2733 31.875L45.961 22.4292L46.2913 21.399L49.449 26.868C50.2841 28.3132 52.1314 28.8077 53.5772 27.974C55.0219 27.1407 55.5182 25.2925 54.6848 23.8456L49.4225 14.7331C48.2671 12.7333 46.8323 12.7333 45.314 12.7409H37.1812C36.5288 10.779 34.678 9.36251 32.4999 9.36251C30.3226 9.36251 28.4717 10.779 27.8194 12.7409H18.7684C16.7137 12.7409 16.1622 13.7105 15.5774 14.7331L10.3158 23.8456C8.97616 26.166 11.1192 28.9696 13.7152 28.2769C14.4963 28.0648 15.1485 27.5649 15.5516 26.868L17.9418 22.7321V42.3131C12.4429 43.3506 6.50197 46.183 1.14501 46.6157C0.324581 46.682 -0.212708 47.5099 0.0813361 48.2822L2.09276 53.5543C2.29052 54.0693 2.81476 54.3951 3.37009 54.342C5.62398 54.1451 7.88011 53.6754 10.062 53.2285C17.4804 51.6908 24.486 50.244 31.6862 58.6294C32.113 59.1237 32.8879 59.1234 33.3143 58.6294C40.5146 50.244 47.5209 51.6908 54.9386 53.2285C57.1205 53.6754 59.3766 54.1451 61.6305 54.342C62.1843 54.3951 62.7108 54.0693 62.9078 53.5543L64.92 48.2822C65.0632 47.9034 65.0124 47.4792 64.7814 47.1459ZM39.2115 2.14368C40.8184 2.14368 42.1237 3.45413 42.1237 5.06001C42.1237 6.66587 40.8184 7.96875 39.2115 7.96875C37.6054 7.96875 36.2993 6.66587 36.2993 5.06001C36.2993 3.45413 37.6054 2.14368 39.2115 2.14368ZM39.2115 10.12C36.4213 10.12 34.1515 7.84756 34.1515 5.06001C34.1515 2.26487 36.4213 0 39.2115 0C42.0018 0 44.2715 2.26487 44.2715 5.06001C44.2715 7.84756 42.0018 10.12 39.2115 10.12ZM24.6163 2.14368C26.2224 2.14368 27.5286 3.45413 27.5286 5.06001C27.5286 6.66587 26.2224 7.96875 24.6163 7.96875C23.0094 7.96875 21.7041 6.66587 21.7041 5.06001C21.7041 3.45413 23.0094 2.14368 24.6163 2.14368ZM24.6163 10.12C21.8261 10.12 19.5563 7.84756 19.5563 5.06001C19.5563 2.26487 21.8261 0 24.6163 0C27.4065 0 29.6756 2.26487 29.6756 5.06001C29.6756 7.84756 27.4065 10.12 24.6163 10.12Z" fill="url(#paint0_linear_699_320)"/>
<defs>
<linearGradient id="paint0_linear_699_320" x1="-13.6125" y1="19.0545" x2="102.343" y2="4.85467" gradientUnits="userSpaceOnUse">
<stop stop-color="#8A5929"/>
<stop offset="0.06" stop-color="#976837"/>
<stop offset="0.25" stop-color="#BD925F"/>
<stop offset="0.29" stop-color="#B58957"/>
<stop offset="0.46" stop-color="#986736"/>
<stop offset="0.6" stop-color="#865321"/>
<stop offset="0.69" stop-color="#804B1A"/>
<stop offset="0.75" stop-color="#844F1E"/>
<stop offset="0.81" stop-color="#8E5C2A"/>
<stop offset="0.88" stop-color="#A0713F"/>
<stop offset="0.94" stop-color="#BA8F5C"/>
<stop offset="1" stop-color="#D6B07C"/>
</linearGradient>
</defs>
</svg>
