<svg width="63" height="65" viewBox="0 0 63 65" fill="none" xmlns="http://www.w3.org/2000/svg">
<path d="M61.6048 33.8981C60.755 33.3244 59.0477 32.1797 47.7179 40.6259C47.572 40.2544 47.3463 39.9196 47.0568 39.6449C45.9812 38.6132 43.946 38.2152 41.0157 38.4571C38.0708 38.6594 35.1122 38.4861 32.2111 37.9413C31.388 37.7035 30.5832 37.4068 29.8027 37.0534C28.7145 36.5554 27.5706 36.1891 26.3955 35.9625C18.7782 34.3312 13.0294 36.5595 9.26748 42.5733L9.25079 42.5527C8.87271 42.0858 8.32465 41.7882 7.72713 41.7252C7.12962 41.6623 6.53159 41.8393 6.06455 42.2173L0.837491 46.4499C0.371631 46.8286 0.0749138 47.3766 0.0123555 47.9738C-0.0502028 48.5709 0.1265 49.1685 0.503744 49.6356L12.2668 64.1617C12.6454 64.6276 13.1933 64.9244 13.7903 64.987C14.3874 65.0497 14.9849 64.8731 15.452 64.496L20.6779 60.2645C21.1305 59.8963 21.4235 59.3675 21.4957 58.7885C21.568 58.2095 21.4139 57.6249 21.0656 57.1567C24.7089 55.9365 28.6147 55.7265 32.3678 56.5489C33.7301 56.7928 35.1087 56.9359 36.4921 56.9768H36.5418C47.8201 56.9768 60.3725 42.9744 62.2125 37.0055C62.7808 35.1603 62.1956 34.2972 61.6048 33.8981ZM14.0607 62.7078L2.29078 48.2437L7.45583 44.0055L18.3015 57.3978L18.3045 57.4014L19.1919 58.4971L14.0607 62.7078ZM56.2368 42.4185C51.6446 48.074 43.7374 54.6676 36.544 54.6676H36.5012C35.2315 54.6247 33.9666 54.4905 32.7162 54.2662C28.3209 53.3173 23.7448 53.6622 19.5414 55.2594L10.8174 44.4871C14.0533 38.797 18.993 36.7332 25.9106 38.2209C26.934 38.4145 27.9298 38.7326 28.8759 39.168C29.745 39.5607 30.641 39.8908 31.5571 40.1557C34.732 40.7848 37.9766 40.9875 41.2051 40.7583C44.3508 40.4996 45.2562 41.1169 45.4591 41.3119C45.5078 41.3532 45.5456 41.4058 45.5691 41.465C45.5927 41.5243 45.6014 41.5885 45.5944 41.6519C45.5685 42.294 43.6585 44.2321 41.0033 45.3055C39.2072 46.0333 36.4076 45.7712 33.7005 45.5186C31.0949 45.2745 28.6301 45.0439 26.7799 45.637C26.6353 45.683 26.5011 45.757 26.3851 45.8549C26.2692 45.9528 26.1736 46.0726 26.104 46.2074C26.0343 46.3422 25.992 46.4895 25.9793 46.6407C25.9667 46.792 25.984 46.9442 26.0302 47.0888C26.0765 47.2333 26.1508 47.3673 26.2489 47.4831C26.347 47.5989 26.467 47.6942 26.602 47.7636C26.7369 47.833 26.8843 47.875 27.0356 47.8874C27.1868 47.8997 27.339 47.8821 27.4835 47.8356C29.4694 47.4944 31.4984 47.4883 33.4863 47.8176C34.9249 47.9517 36.3873 48.0887 37.7764 48.0887C39.169 48.1358 40.5579 47.9179 41.8692 47.4466C43.484 46.7813 44.967 45.8329 46.2484 44.6462C56.3935 36.7628 59.4201 35.8965 60.1323 35.816C60.0308 36.6345 59.0623 38.9374 56.2368 42.4185Z" fill="url(#paint0_linear_884_1977)"/>
<path d="M58.166 17.385L53.4485 9.06005C54.0918 8.83776 54.7044 8.53484 55.2716 8.15854C55.5266 7.98982 55.7042 7.72686 55.7656 7.42734C55.827 7.12781 55.767 6.81617 55.599 6.56076C55.4309 6.30535 55.1684 6.12704 54.869 6.06492C54.5696 6.0028 54.2578 6.06195 54.002 6.2294C53.2112 6.79475 52.2647 7.10137 51.2926 7.10715C49.748 7.06262 48.5461 6.01574 47.2731 4.90685C45.8581 3.67394 44.2706 2.27641 42.0573 2.44215C41.5447 2.49014 41.0429 2.61849 40.5702 2.82247V1.15455C40.5702 0.848347 40.4485 0.554682 40.232 0.338161C40.0155 0.12164 39.7218 0 39.4156 0C39.1094 0 38.8157 0.12164 38.5992 0.338161C38.3827 0.554682 38.2611 0.848347 38.2611 1.15455V2.909C37.7232 2.65178 37.1435 2.49363 36.5495 2.44215C34.3768 2.27589 32.7511 3.67337 31.3349 4.90685C30.0619 6.01574 28.86 7.06262 27.3165 7.10715C26.3436 7.10396 25.396 6.7971 24.606 6.2294C24.3502 6.06195 24.0384 6.0028 23.739 6.06492C23.4396 6.12704 23.1771 6.30535 23.009 6.56076C22.8409 6.81617 22.781 7.12781 22.8424 7.42734C22.9038 7.72686 23.0814 7.98982 23.3364 8.15854C23.9036 8.53484 24.5162 8.83776 25.1595 9.06005L20.442 17.385C20.1603 17.4119 19.8987 17.5424 19.7077 17.7512C19.5168 17.96 19.41 18.2322 19.4082 18.5151C19.4734 20.4568 20.3051 22.2936 21.7213 23.6236C23.1375 24.9536 25.0228 25.6684 26.9648 25.6116C28.9066 25.6683 30.7918 24.9535 32.2078 23.6235C33.6238 22.2935 34.4553 20.4567 34.5202 18.5151C34.5184 18.2324 34.4118 17.9605 34.2211 17.7518C34.0304 17.5431 33.7691 17.4125 33.4878 17.3852L28.8382 9.18019C30.3473 8.64459 31.7183 7.77968 32.8515 6.64825C34.0816 5.57713 35.1618 4.64582 36.3749 4.74447C37.0825 4.83836 37.7425 5.15284 38.2612 5.64324V20.583C37.6968 20.8125 37.2135 21.2049 36.8729 21.7101C36.5324 22.2153 36.35 22.8105 36.349 23.4198V27.5999H30.5232C29.911 27.6006 29.3241 27.8441 28.8912 28.277C28.4583 28.7099 28.2148 29.2968 28.2141 29.909V31.089C28.2146 31.6011 28.4183 32.0921 28.7804 32.4542C29.1425 32.8163 29.6334 33.0199 30.1455 33.0204H48.5958C49.1078 33.0199 49.5988 32.8163 49.9609 32.4542C50.323 32.0921 50.5266 31.6011 50.5272 31.089V29.909C50.5265 29.2968 50.2829 28.7099 49.8501 28.277C49.4172 27.8441 48.8302 27.6006 48.218 27.5999H42.4814V23.4198C42.4804 22.8107 42.2981 22.2156 41.9578 21.7105C41.6174 21.2053 41.1345 20.8129 40.5703 20.5832V5.45262C41.0443 5.06103 41.6215 4.81508 42.2322 4.74449C43.4759 4.64583 44.5267 5.57714 45.7568 6.64826C46.89 7.77972 48.261 8.6446 49.7701 9.18012L45.1205 17.3852C44.8391 17.4125 44.5778 17.5431 44.3871 17.7518C44.1964 17.9605 44.0899 18.2324 44.088 18.5151C44.2087 20.4371 45.0573 22.2409 46.461 23.5593C47.8648 24.8776 49.7182 25.6115 51.6439 25.6115C53.5697 25.6115 55.4231 24.8776 56.8268 23.5593C58.2306 22.2409 59.0792 20.4371 59.1998 18.5151C59.198 18.2322 59.0913 17.96 58.9003 17.7512C58.7093 17.5424 58.4477 17.4119 58.166 17.385ZM30.8192 17.3606H23.1104L26.9648 10.5584L30.8192 17.3606ZM26.9648 23.3025C25.8362 23.3336 24.7283 22.9958 23.8091 22.3401C22.89 21.6845 22.2099 20.7469 21.8719 19.6697H32.0566C31.7189 20.7469 31.0389 21.6844 30.12 22.3401C29.201 22.9957 28.0932 23.3336 26.9648 23.3025ZM48.218 30.7112H30.5232V29.909H48.218V30.7112ZM38.658 27.5999V23.4197C38.658 23.2189 38.7378 23.0264 38.8798 22.8844C39.0218 22.7424 39.2143 22.6626 39.4151 22.6626C39.6159 22.6626 39.8085 22.7424 39.9505 22.8844C40.0925 23.0264 40.1723 23.2189 40.1723 23.4197V27.5999H38.658ZM55.4978 17.3606H47.789L51.6434 10.5584L55.4978 17.3606ZM51.6434 23.3025C50.5149 23.3336 49.4071 22.9957 48.4882 22.3401C47.5692 21.6844 46.8893 20.7469 46.5516 19.6697H56.7363C56.3983 20.7469 55.7182 21.6845 54.799 22.3401C53.8799 22.9958 52.772 23.3336 51.6434 23.3025Z" fill="url(#paint1_linear_884_1977)"/>
<defs>
<linearGradient id="paint0_linear_884_1977" x1="-4.80338" y1="-96.4839" x2="106.592" y2="-40.013" gradientUnits="userSpaceOnUse">
<stop offset="0.0580958" stop-color="#E6D1BE"/>
<stop offset="0.929784" stop-color="#896954"/>
</linearGradient>
<linearGradient id="paint1_linear_884_1977" x1="16.3473" y1="-136.271" x2="97.8375" y2="-111.16" gradientUnits="userSpaceOnUse">
<stop offset="0.0580958" stop-color="#E6D1BE"/>
<stop offset="0.929784" stop-color="#896954"/>
</linearGradient>
</defs>
</svg>
