<svg width="58" height="59" viewBox="0 0 58 59" fill="none" xmlns="http://www.w3.org/2000/svg">
<path fill-rule="evenodd" clip-rule="evenodd" d="M54.1353 53.8769C53.8703 54.3391 53.2776 54.4858 52.8266 54.226L49.7319 52.4534C49.2729 52.1915 49.1161 51.6074 49.381 51.1508C49.646 50.6942 50.2314 50.5398 50.6898 50.8016L53.7845 52.581C54.2428 52.8428 54.3997 53.4203 54.1353 53.8769ZM49.381 27.9523C49.1161 27.4957 49.2729 26.9183 49.7319 26.6564L52.8266 24.8771C53.2849 24.6152 53.8703 24.7697 54.1353 25.2262C54.3997 25.6828 54.2428 26.267 53.7845 26.5288L50.6898 28.3015C50.2393 28.5609 49.6465 28.4152 49.381 27.9523ZM58 39.5549C58 40.0786 57.5708 40.5016 57.0415 40.5016H53.4681C52.9388 40.5016 52.5102 40.0786 52.5102 39.5549C52.5102 39.0245 52.9388 38.6014 53.4681 38.6014H57.0415C57.5708 38.6014 58 39.0245 58 39.5549ZM44.0711 42.7644C44.0711 43.6104 43.7189 44.1073 43.5776 44.1677H32.2059L34.0149 41.2067C34.2008 40.9045 34.2008 40.5218 34.0149 40.2196L30.9364 35.1838L32.546 32.5517H43.5776C43.7189 32.6054 44.0711 33.109 44.0711 33.9551V42.7644ZM35.8441 57.0931L35.1202 46.0746H30.5044C29.7648 46.0746 29.297 45.2605 29.6851 44.6243L32.0755 40.7165L28.9963 35.6739C28.8104 35.3718 28.8104 34.9891 28.9963 34.6869L31.1879 31.1014C31.3616 30.8194 31.6712 30.6448 32.0072 30.6448H36.3626L38.8321 25.5687C39.694 23.796 40.0793 22.1242 40.0793 20.1568V17.2495C38.3094 18.312 36.0353 17.8903 34.7673 16.2759C32.8251 18.5436 29.2299 18.2949 27.6206 15.779C26.3139 17.5274 24.2342 18.4394 21.2777 18.7871C23.374 20.3046 24.9052 22.0906 25.8482 24.1184C26.0706 24.5951 25.861 25.1591 25.3811 25.3807C24.9148 25.5963 24.3346 25.4038 24.1088 24.9174C22.9833 22.5002 20.8323 20.4523 17.7166 18.8273C16.8322 18.3692 17.1701 17.0245 18.1654 17.0346C22.0004 17.0547 24.4995 16.39 25.7914 15.0001C26.5634 14.1673 26.9271 13.0454 26.9271 11.6765H14.3062C12.6218 11.6765 11.2175 13.037 11.2175 14.745V21.916C11.2175 24.9912 12.4485 27.677 14.778 29.6712C15.137 29.9801 15.4783 30.3091 15.7967 30.6448H24.0635C24.8091 30.6448 25.2694 31.4595 24.8828 32.0884L22.4912 36.003L25.5717 41.0388C25.7569 41.3477 25.7569 41.7237 25.5717 42.0258L23.3794 45.6114C23.2064 45.9001 22.8947 46.0746 22.5608 46.0746H18.6961L18.1803 57.0931H35.8441ZM10.4956 42.7644V33.9551C10.4956 33.109 10.8471 32.6054 10.9897 32.5517H22.3607L20.5524 35.5061C20.3665 35.815 20.3665 36.191 20.5524 36.4931L23.6316 41.5357L22.0213 44.1677H10.9897C10.8471 44.1073 10.4956 43.6104 10.4956 42.7644ZM14.8713 4.42484C14.8713 3.03493 16.009 1.9069 17.4063 1.9069C18.8043 1.9069 19.942 3.03493 19.942 4.42484V9.76956H14.8713V4.42484ZM24.3914 1.9069C25.7901 1.9069 26.9271 3.03493 26.9271 4.42484V9.76956H21.8577V4.42484C21.8577 3.03493 22.9941 1.9069 24.3914 1.9069ZM31.3778 1.9069C32.7758 1.9069 33.9135 3.03493 33.9135 4.42484V13.4155C33.9135 14.7987 32.7758 15.9334 31.3778 15.9334C29.9805 15.9334 28.8428 14.7987 28.8428 13.4155V4.42484C28.8428 3.03493 29.9805 1.9069 31.3778 1.9069ZM37.9708 3.20952C39.1518 3.20952 40.1117 4.16298 40.1117 5.33801V13.8049C40.1117 14.98 39.1518 15.9334 37.9708 15.9334C36.7899 15.9334 35.8293 14.98 35.8293 13.8049V5.33801C35.8293 4.16298 36.7899 3.20952 37.9708 3.20952ZM4.23582 48.5724C4.23582 48.7537 4.08102 48.9082 3.89714 48.9082H2.25515C2.07059 48.9082 1.91647 48.7537 1.91647 48.5724V43.6776C1.91647 43.4896 2.07059 43.3351 2.25515 43.3351C2.80247 43.3351 3.34982 43.3351 3.89714 43.3351C4.08102 43.3351 4.23582 43.4896 4.23582 43.6776V48.5724ZM43.5897 30.6448H38.4907L40.5572 26.3946C41.5516 24.3534 41.9958 22.4263 41.9958 20.1568V14.3085C42.016 14.1474 42.0282 13.9728 42.0282 13.8049V5.33801C42.0282 3.11551 40.2077 1.30932 37.9708 1.30932C36.944 1.30932 36.0057 1.68535 35.2905 2.31651C33.7577 -0.475116 29.8654 -0.808279 27.885 1.68535C26.1032 -0.559843 22.6822 -0.560521 20.8998 1.68535C20.0833 0.658035 18.8219 0 17.4063 0C14.9524 0 12.9549 1.98749 12.9549 4.42484V9.95753C10.8498 10.5417 9.30176 12.4688 9.30176 14.745V21.916C9.30176 25.327 10.5801 28.3283 13.0089 30.6448H10.9782C9.633 30.6448 8.57911 32.0952 8.57911 33.9551V36.9027H8.37428C5.85482 36.9027 3.62 39.152 2.86083 41.4349H2.25515C1.01062 41.4349 0 42.4421 0 43.6776V48.5724C0 49.7609 0.938999 50.7278 2.11723 50.8016V53.3666C0.938999 53.4404 0 54.414 0 55.6025V58.0465C0 58.5703 0.428615 59 0.957896 59C1.48722 59 1.91647 58.5703 1.91647 58.0465V55.6025C1.91647 55.4212 2.07059 55.2667 2.25515 55.2667H3.89714C4.08102 55.2667 4.23582 55.4212 4.23582 55.6025V58.0465C4.23582 58.5703 4.66439 59 5.19372 59C5.723 59 6.15162 58.5703 6.15162 58.0465V55.6025C6.15162 54.414 5.2133 53.4404 4.03371 53.3666V50.8016C5.2133 50.7278 6.15162 49.7609 6.15162 48.5724V43.6776C6.15162 42.7711 5.61082 41.9923 4.83342 41.6431C5.47021 40.1995 6.93034 38.8029 8.37428 38.8029H8.57911V42.7644C8.57911 44.6176 9.633 46.0746 10.9782 46.0746H16.7776L16.2199 58.0062C16.1931 58.5436 16.6331 59 17.1764 59H36.8656C37.4154 59 37.8578 58.5334 37.8221 57.9861L37.04 46.0746H43.5897C44.9343 46.0746 45.9869 44.6176 45.9869 42.7644V33.9551C45.9869 32.0952 44.9343 30.6448 43.5897 30.6448Z" fill="url(#paint0_linear_699_294)"/>
<defs>
<linearGradient id="paint0_linear_699_294" x1="-12.1465" y1="19.0545" x2="91.6343" y2="7.71427" gradientUnits="userSpaceOnUse">
<stop stop-color="#8A5929"/>
<stop offset="0.06" stop-color="#976837"/>
<stop offset="0.25" stop-color="#BD925F"/>
<stop offset="0.29" stop-color="#B58957"/>
<stop offset="0.46" stop-color="#986736"/>
<stop offset="0.6" stop-color="#865321"/>
<stop offset="0.69" stop-color="#804B1A"/>
<stop offset="0.75" stop-color="#844F1E"/>
<stop offset="0.81" stop-color="#8E5C2A"/>
<stop offset="0.88" stop-color="#A0713F"/>
<stop offset="0.94" stop-color="#BA8F5C"/>
<stop offset="1" stop-color="#D6B07C"/>
</linearGradient>
</defs>
</svg>
