<svg width="61" height="61" viewBox="0 0 61 61" fill="none" xmlns="http://www.w3.org/2000/svg">
<path fill-rule="evenodd" clip-rule="evenodd" d="M2.77708 8.5329L7.4624 8.53025C7.76005 8.53025 8.03378 8.40583 8.2331 8.20727C8.43242 8.00871 8.55467 7.73866 8.55467 7.43951V2.77735L2.7744 8.53557L2.77708 8.5329ZM7.38797 42.8968C6.93884 42.8968 6.5721 42.5341 6.5721 42.084C6.5721 41.6366 6.9362 41.2713 7.38797 41.2713H7.62184C8.07098 41.2713 8.43771 41.634 8.43771 42.084C8.43771 42.5314 8.07362 42.8968 7.62184 42.8968H7.38797ZM11.0236 42.8968C10.5745 42.8968 10.2077 42.5341 10.2077 42.084C10.2077 41.6366 10.5718 41.2713 11.0236 41.2713H35.3323C35.7814 41.2713 36.1482 41.634 36.1482 42.084C36.1482 42.1793 36.1322 42.272 36.1003 42.3567C35.9887 42.6717 35.6857 42.8941 35.3323 42.8941L11.0236 42.8968ZM11.0236 51.3659C10.5745 51.3659 10.2077 51.0032 10.2077 50.5532C10.2077 50.1057 10.5718 49.7404 11.0236 49.7404H35.3323C35.7814 49.7404 36.1482 50.1031 36.1482 50.5532C36.1482 51.0006 35.7841 51.3659 35.3323 51.3659H11.0236ZM7.38797 51.3659C6.93884 51.3659 6.5721 51.0032 6.5721 50.5532C6.5721 50.1057 6.9362 49.7404 7.38797 49.7404H7.62184C8.07098 49.7404 8.43771 50.1031 8.43771 50.5532C8.43771 51.0006 8.07362 51.3659 7.62184 51.3659H7.38797ZM39.3723 33.4957L44.2889 31.2586L40.0101 28.1479L39.3723 33.4957ZM58.1219 15.4107L57.7924 15.1724L57.7871 15.1671L50.9333 10.1872L49.6098 11.9955L49.9393 12.2364L56.4611 16.9753V16.978L56.7933 17.2189L58.1167 15.4107L58.1219 15.4107ZM51.5922 15.4372L42.4497 27.9199L40.499 26.5009L46.8799 17.7884C46.9145 17.7487 46.9463 17.7063 46.9729 17.6613L49.6438 14.0158L51.5945 15.4349L51.5922 15.4372ZM54.8531 17.8066L45.7106 30.2894L43.7599 28.8703L52.9024 16.3876L54.8531 17.8066ZM52.8758 9.59979L53.9602 8.11986C54.1276 7.88953 54.3748 7.75186 54.6379 7.7095C54.9036 7.66714 55.1827 7.72538 55.4139 7.89482L58.9458 10.4602C59.1744 10.627 59.3152 10.8732 59.3577 11.1353C59.4002 11.4001 59.3418 11.6781 59.1717 11.9084L58.0901 13.3857L52.8785 9.59718L52.8758 9.59979ZM26.1615 14.4685C25.4917 13.8013 24.5642 13.3883 23.541 13.3883C22.5179 13.3883 21.593 13.8013 20.9206 14.4685C20.2509 15.1356 19.8363 16.0596 19.8363 17.0789C19.8363 18.0981 20.2509 19.0195 20.9206 19.6893C21.5903 20.3565 22.5179 20.7695 23.541 20.7695C24.5642 20.7695 25.4891 20.3565 26.1615 19.6893C26.8312 19.0221 27.2458 18.0981 27.2458 17.0789C27.2458 16.0596 26.8312 15.1383 26.1615 14.4685ZM29.8369 24.9891C28.2264 23.3848 26.002 22.392 23.5437 22.392C21.0854 22.392 18.861 23.3848 17.2505 24.9891C15.8207 26.4135 14.8746 28.3223 14.6806 30.4482H32.4097C32.2157 28.3223 31.2696 26.4161 29.8399 24.9891H29.8369ZM26.8072 21.2827C28.4018 21.8016 29.8316 22.6858 30.9903 23.8427C32.8958 25.741 34.0758 28.3646 34.0758 31.2607C34.0758 31.7081 33.7117 32.0734 33.2599 32.0734H13.8279C13.3788 32.0734 13.012 31.7107 13.012 31.2607C13.012 28.3644 14.192 25.7408 16.0975 23.8427C17.2562 22.6885 18.686 21.8016 20.2806 21.2827C20.1025 21.145 19.9324 20.9941 19.773 20.8353C18.8082 19.8742 18.2103 18.5452 18.2103 17.0785C18.2103 15.6118 18.8082 14.2828 19.773 13.3217C20.7377 12.3607 22.0718 11.765 23.5441 11.765C25.0164 11.765 26.3505 12.3607 27.3153 13.3217C28.28 14.2828 28.8779 15.6118 28.8779 17.0785C28.8779 18.5452 28.28 19.8742 27.3153 20.8353C27.1558 20.9941 26.9853 21.1424 26.8072 21.2827ZM51.2649 41.3454C49.9866 40.072 48.222 39.2856 46.2713 39.2856C44.3207 39.2856 42.556 40.072 41.2777 41.3454C40.9083 41.7134 40.5815 42.1211 40.2998 42.5606C39.6088 43.6487 39.2075 44.938 39.2075 46.32C39.2075 48.2632 39.9968 50.0211 41.2751 51.2945C42.5534 52.5679 44.3181 53.3543 46.2687 53.3543C48.2194 53.3543 49.984 52.5679 51.2623 51.2945C52.5406 50.0211 53.3299 48.2631 53.3299 46.32C53.3299 45.1816 53.0588 44.1067 52.5751 43.1536C52.235 42.4812 51.7885 41.8723 51.2596 41.3454H51.2649ZM45.458 54.9403V58.2867C45.458 58.5859 45.3358 58.8586 45.1365 59.0545C44.9372 59.253 44.6661 59.3748 44.3658 59.3748L2.72397 59.3774C2.42366 59.3774 2.14993 59.2557 1.95327 59.0571C1.75395 58.8585 1.6317 58.5885 1.6317 58.2893V10.1509L7.46511 10.1483C8.21723 10.1483 8.89757 9.84383 9.38919 9.35404C9.8835 8.86161 10.1891 8.18384 10.1891 7.4373V1.62615H44.3628C44.6631 1.62615 44.9369 1.74793 45.1335 1.94649C45.3328 2.14505 45.4551 2.4151 45.4551 2.71425V16.9917L38.7101 26.2023L38.6995 26.2182L38.6888 26.2341V26.2367L38.6782 26.2526L38.6755 26.2552L38.6676 26.2711L38.6649 26.2738L38.6569 26.2897L38.6516 26.2949L38.6463 26.3055L38.641 26.3108L38.6357 26.3241L38.633 26.332L38.625 26.3479V26.3505L38.6197 26.3638L38.6171 26.3717L38.6118 26.3823L38.6091 26.3903L38.6038 26.4035L38.6011 26.4088V26.4114L38.5905 26.4326L38.5852 26.4459L38.5719 26.4723L38.5692 26.4856L38.5586 26.5067L38.5559 26.52L38.5533 26.5253L38.5506 26.5385L38.548 26.5438L38.5453 26.557V26.5623L38.5427 26.5756V26.5809H38.54L37.5673 34.7322C37.5142 35.1769 37.8331 35.5793 38.2796 35.6323C38.455 35.6534 38.625 35.6164 38.7686 35.537L42.46 33.8558L45.4365 32.503V37.6946C43.3609 37.8879 41.4979 38.8066 40.1054 40.1938C39.441 40.8557 38.8829 41.6235 38.4629 42.4707C37.8862 43.6302 37.5594 44.9354 37.5594 46.3174C37.5594 48.708 38.5321 50.8737 40.1054 52.4383C41.498 53.8256 43.361 54.7442 45.4365 54.9375L45.458 54.9403ZM47.0871 37.6998C49.1627 37.893 51.0257 38.8117 52.4182 40.199C53.2793 41.0567 53.9596 42.0893 54.3982 43.2435C54.7623 44.1993 54.9642 45.2371 54.9642 46.3199C54.9642 48.7105 53.9916 50.8762 52.4183 52.4408C51.0257 53.8281 49.1627 54.7467 47.0872 54.94V58.2864C47.0872 59.033 46.7815 59.7107 46.2872 60.2031C45.7929 60.6955 45.1125 61 44.3631 61H2.72403C1.97456 61 1.29422 60.6955 0.799948 60.2031C0.305638 59.7107 0 59.0329 0 58.2864L0.00265759 9.33736C0.00265759 9.13086 0.0823869 8.92171 0.241839 8.76286L8.79376 0.243569C8.94259 0.0926616 9.14722 0 9.37578 0H44.3659C45.1153 0 45.7957 0.304458 46.29 0.796896C46.7843 1.28932 47.0899 1.9671 47.0899 2.71364V14.7674L48.3629 13.0307C48.1689 12.803 48.0466 12.5303 48.0041 12.247C47.9403 11.8446 48.0307 11.4184 48.2911 11.0663L49.6439 9.21832C49.9043 8.86356 50.2844 8.64647 50.6883 8.58293C50.9727 8.53793 51.2704 8.5697 51.5467 8.68354L52.6549 7.16918C53.0881 6.5788 53.7233 6.21877 54.3983 6.11284C55.0707 6.00694 55.7856 6.15785 56.3783 6.58938L59.889 9.14151C59.9049 9.1521 59.9209 9.16269 59.9342 9.17592C60.5109 9.60746 60.8643 10.2296 60.9679 10.8914C61.0716 11.5533 60.9254 12.2522 60.5082 12.8373C60.4975 12.8532 60.4869 12.8691 60.4736 12.885L59.3813 14.3781C59.5753 14.6058 59.6976 14.8785 59.7401 15.1617C59.8039 15.5641 59.7135 15.9904 59.4531 16.3425L58.0472 18.2592L58.0286 18.2778C57.7735 18.5796 57.4227 18.7676 57.0533 18.8232C56.7689 18.8682 56.4713 18.8364 56.1949 18.7226L47.0898 31.1579V37.6971L47.0871 37.6998ZM49.6836 45.5095C50.1327 45.5095 50.4995 45.8722 50.4995 46.3222C50.4995 46.7696 50.1354 47.135 49.6836 47.135H47.0871V49.7215C47.0871 50.1689 46.723 50.5343 46.2713 50.5343C45.8221 50.5343 45.4554 50.1716 45.4554 49.7215V47.135H42.8589C42.4098 47.135 42.0431 46.7723 42.0431 46.3222C42.0431 45.8748 42.4072 45.5095 42.8589 45.5095H45.4554V42.9229C45.4554 42.8858 45.4581 42.8488 45.4634 42.8117C45.5165 42.4146 45.8594 42.1101 46.2713 42.1101C46.7098 42.1101 47.0686 42.4569 47.0845 42.8884V42.9202V45.5068H49.681L49.6836 45.5095Z" fill="url(#paint0_linear_884_1972)"/>
<defs>
<linearGradient id="paint0_linear_884_1972" x1="-4.6923" y1="-251.739" x2="123.698" y2="-218.909" gradientUnits="userSpaceOnUse">
<stop offset="0.0580958" stop-color="#E6D1BE"/>
<stop offset="0.929784" stop-color="#896954"/>
</linearGradient>
</defs>
</svg>
