<svg width="72" height="67" viewBox="0 0 72 67" fill="none" xmlns="http://www.w3.org/2000/svg">
<g clip-path="url(#clip0_699_328)">
<mask id="mask0_699_328" style="mask-type:luminance" maskUnits="userSpaceOnUse" x="0" y="0" width="72" height="72">
<path d="M72 0H0V72H72V0Z" fill="white"/>
</mask>
<g mask="url(#mask0_699_328)">
<path d="M65.6752 21.6295L50.722 25.2052C49.0967 21.4669 46.1711 18.5413 42.4328 16.916L46.1711 1.96289H25.0417L28.78 16.916C25.2042 18.5413 22.2786 21.4669 20.4908 25.0427L5.7002 21.3044V42.4338L20.4908 38.858C22.1161 42.5963 25.0417 45.5219 28.78 47.1473L25.2042 61.9378H46.3336L42.7579 47.1473C46.3336 45.5219 49.4218 42.5963 51.0471 38.858L66.0002 42.5963V21.6295H65.6752Z" stroke="url(#paint0_linear_699_328)" stroke-width="2" stroke-linecap="round" stroke-linejoin="round"/>
<path d="M35.6063 20.166C34.9562 20.8162 34.6311 21.7914 34.6311 22.7666C34.6311 25.042 34.9562 27.155 34.9562 29.2679C34.9562 31.3808 34.4686 33.1687 33.6559 35.1191C33.3308 35.6067 33.1683 36.0943 32.8432 36.5819L32.0306 36.4194C31.3804 36.2569 30.8928 35.6067 31.0554 34.7941C31.2179 34.1439 31.7055 33.6563 32.3556 33.6563H32.6807L32.0306 28.2927C31.868 25.8547 30.5678 23.7418 28.7799 22.4415C28.4548 22.279 28.1298 21.9539 27.8047 21.7914V40.8078H32.1931C32.5182 42.5957 33.4934 44.221 34.9562 45.1962C35.2812 45.3587 35.6063 45.6838 35.7688 46.0089C35.9314 45.6838 36.2564 45.3587 36.5815 45.1962C38.0443 44.0585 39.0195 42.5957 39.3446 40.8078H43.733V22.1164C43.4079 22.279 43.0829 22.4415 42.7578 22.7666C40.9699 24.0668 39.6696 26.1798 39.5071 28.6178L38.857 33.9814H39.1821C39.8322 33.9814 40.3198 34.469 40.4823 35.1191C40.6449 35.7693 40.1572 36.5819 39.5071 36.7445L38.6944 36.907C38.3694 36.4194 38.2068 35.9318 37.8818 35.4442C37.0691 33.4938 36.5815 31.7059 36.5815 29.593C36.5815 27.3175 36.9066 25.2046 36.9066 23.0916C36.5815 21.7914 36.2564 20.9787 35.6063 20.166ZM29.105 24.8795C29.9176 25.8547 30.5678 27.155 30.7303 28.4552L31.2179 32.8436C30.5678 33.1687 30.0802 33.8188 29.9176 34.469H29.105V24.8795ZM42.2702 24.8795V34.6315H41.4575C41.295 33.8188 40.8074 33.3312 40.1573 33.0062L40.6449 28.6178C40.8074 27.155 41.295 26.0172 42.2702 24.8795ZM35.6063 33.8188C35.9314 34.9566 36.419 36.0943 37.0691 37.0695C36.419 37.2321 35.9314 37.5571 35.6063 38.0447C35.2812 37.5571 34.7936 37.2321 34.1435 37.0695C34.7936 36.0943 35.2812 34.9566 35.6063 33.8188ZM29.105 35.9318H29.9176C30.0802 36.907 30.8928 37.5571 31.7055 37.8822L32.3556 38.0447C32.1931 38.6949 32.0306 39.345 32.0306 39.9951H29.105V35.9318ZM41.4575 35.9318H42.2702V39.8326H39.3446C39.3446 39.1825 39.182 38.5323 39.0195 37.8822L39.6697 37.7197C40.4823 37.5571 41.295 36.907 41.4575 35.9318ZM33.4934 38.3698C34.306 38.5323 34.9562 39.1825 34.9562 39.9951H33.3308C33.3308 39.345 33.3308 38.8574 33.4934 38.3698ZM37.7192 38.3698C37.8818 38.8574 37.8818 39.5075 37.8818 39.9951H36.2564C36.2564 39.1825 36.9066 38.3698 37.7192 38.3698ZM33.4934 41.2954H34.9562V44.0585C34.306 43.2458 33.6559 42.2706 33.4934 41.2954ZM36.2564 41.2954H37.7192C37.5567 42.4331 36.9066 43.2458 36.2564 44.0585V41.2954Z" fill="url(#paint1_linear_699_328)"/>
</g>
</g>
<defs>
<linearGradient id="paint0_linear_699_328" x1="1.06173" y1="-245.546" x2="127.894" y2="-212.938" gradientUnits="userSpaceOnUse">
<stop offset="0.0580958" stop-color="#E6D1BE"/>
<stop offset="0.929784" stop-color="#896954"/>
</linearGradient>
<linearGradient id="paint1_linear_699_328" x1="26.5794" y1="-86.484" x2="61.431" y2="-80.9912" gradientUnits="userSpaceOnUse">
<stop offset="0.0580958" stop-color="#E6D1BE"/>
<stop offset="0.929784" stop-color="#896954"/>
</linearGradient>
<clipPath id="clip0_699_328">
<rect width="72" height="67" fill="white"/>
</clipPath>
</defs>
</svg>
