<svg width="20" height="20" viewBox="0 0 20 20" fill="none" xmlns="http://www.w3.org/2000/svg">
<path d="M18.3848 0H1.88477C1.48694 0 1.10541 0.158035 0.824105 0.43934C0.542801 0.720644 0.384766 1.10218 0.384766 1.5V18C0.384766 18.3978 0.542801 18.7794 0.824105 19.0607C1.10541 19.342 1.48694 19.5 1.88477 19.5H18.3848C18.7826 19.5 19.1641 19.342 19.4454 19.0607C19.7267 18.7794 19.8848 18.3978 19.8848 18V1.5C19.8848 1.10218 19.7267 0.720644 19.4454 0.43934C19.1641 0.158035 18.7826 0 18.3848 0ZM7.13477 14.25C7.13477 14.4489 7.05575 14.6397 6.9151 14.7803C6.77444 14.921 6.58368 15 6.38477 15C6.18585 15 5.99509 14.921 5.85444 14.7803C5.71378 14.6397 5.63477 14.4489 5.63477 14.25V8.25C5.63477 8.05109 5.71378 7.86032 5.85444 7.71967C5.99509 7.57902 6.18585 7.5 6.38477 7.5C6.58368 7.5 6.77444 7.57902 6.9151 7.71967C7.05575 7.86032 7.13477 8.05109 7.13477 8.25V14.25ZM6.38477 6.75C6.16226 6.75 5.94475 6.68402 5.75975 6.5604C5.57474 6.43679 5.43055 6.26109 5.3454 6.05552C5.26025 5.84995 5.23797 5.62375 5.28138 5.40552C5.32479 5.18729 5.43194 4.98684 5.58927 4.8295C5.7466 4.67217 5.94706 4.56502 6.16529 4.52162C6.38352 4.47821 6.60972 4.50049 6.81528 4.58564C7.02085 4.67078 7.19655 4.81498 7.32017 4.99998C7.44379 5.18499 7.50977 5.4025 7.50977 5.625C7.50977 5.92337 7.39124 6.20952 7.18026 6.4205C6.96928 6.63147 6.68313 6.75 6.38477 6.75ZM15.3848 14.25C15.3848 14.4489 15.3057 14.6397 15.1651 14.7803C15.0244 14.921 14.8337 15 14.6348 15C14.4359 15 14.2451 14.921 14.1044 14.7803C13.9638 14.6397 13.8848 14.4489 13.8848 14.25V10.875C13.8848 10.3777 13.6872 9.90081 13.3356 9.54918C12.984 9.19754 12.507 9 12.0098 9C11.5125 9 11.0356 9.19754 10.6839 9.54918C10.3323 9.90081 10.1348 10.3777 10.1348 10.875V14.25C10.1348 14.4489 10.0557 14.6397 9.9151 14.7803C9.77444 14.921 9.58368 15 9.38477 15C9.18585 15 8.99509 14.921 8.85444 14.7803C8.71378 14.6397 8.63477 14.4489 8.63477 14.25V8.25C8.6357 8.06629 8.70402 7.88931 8.82678 7.75264C8.94954 7.61596 9.11819 7.5291 9.30074 7.50852C9.48329 7.48794 9.66705 7.53508 9.81716 7.641C9.96726 7.74691 10.0733 7.90423 10.1151 8.08313C10.6224 7.73894 11.214 7.53947 11.8262 7.50611C12.4383 7.47276 13.048 7.60679 13.5898 7.89381C14.1315 8.18083 14.5849 8.61 14.9011 9.13523C15.2174 9.66046 15.3846 10.2619 15.3848 10.875V14.25Z" fill="url(#paint0_linear_670_17225)"/>
<defs>
<linearGradient id="paint0_linear_670_17225" x1="-1.11523" y1="-80.4739" x2="39.9275" y2="-69.979" gradientUnits="userSpaceOnUse">
<stop offset="0.0580958" stop-color="#E6D1BE"/>
<stop offset="0.929784" stop-color="#896954"/>
</linearGradient>
</defs>
</svg>
