<svg width="21" height="19" viewBox="0 0 21 19" fill="none" xmlns="http://www.w3.org/2000/svg">
<path d="M14.8606 1.5832C15.9498 1.58632 16.9936 2.0044 17.7638 2.74611C18.534 3.48781 18.9682 4.49288 18.9715 5.54181V13.4582C18.9682 14.5071 18.534 15.5122 17.7638 16.2539C16.9936 16.9956 15.9498 17.4137 14.8606 17.4168H6.63972C5.55045 17.4137 4.50672 16.9956 3.73649 16.2539C2.96626 15.5122 2.5321 14.5071 2.52885 13.4582V5.54181C2.5321 4.49288 2.96626 3.48781 3.73649 2.74611C4.50672 2.0044 5.55045 1.58632 6.63972 1.5832H14.8606ZM14.8606 0H6.63972C3.47443 0 0.884766 2.49376 0.884766 5.54181V13.4582C0.884766 16.5063 3.47443 19 6.63972 19H14.8606C18.0259 19 20.6155 16.5063 20.6155 13.4582V5.54181C20.6155 2.49376 18.0259 0 14.8606 0Z" fill="url(#paint0_linear_670_17228)"/>
<path d="M16.0937 5.54102C15.8498 5.54102 15.6114 5.47137 15.4086 5.34089C15.2058 5.21041 15.0477 5.02494 14.9544 4.80795C14.861 4.59097 14.8367 4.3522 14.8842 4.12184C14.9318 3.89149 15.0492 3.6799 15.2217 3.51382C15.3942 3.34775 15.6139 3.23466 15.8531 3.18884C16.0923 3.14301 16.3402 3.16653 16.5656 3.25641C16.7909 3.34629 16.9835 3.49849 17.1191 3.69377C17.2545 3.88906 17.3268 4.11865 17.3268 4.35351C17.3272 4.50955 17.2956 4.66412 17.2337 4.80835C17.1719 4.95257 17.0811 5.08362 16.9665 5.19396C16.8519 5.30429 16.7158 5.39175 16.566 5.45131C16.4162 5.51087 16.2558 5.54135 16.0937 5.54102ZM10.7501 6.3324C11.4005 6.3324 12.0363 6.51813 12.5771 6.86611C13.118 7.21408 13.5394 7.70867 13.7884 8.28733C14.0372 8.86599 14.1024 9.50269 13.9755 10.117C13.8487 10.7313 13.5354 11.2956 13.0754 11.7384C12.6155 12.1813 12.0296 12.483 11.3917 12.6052C10.7537 12.7273 10.0925 12.6646 9.49158 12.425C8.89067 12.1853 8.37705 11.7794 8.0157 11.2585C7.65434 10.7378 7.46146 10.1255 7.46146 9.49926C7.4624 8.6596 7.80918 7.85462 8.42571 7.26093C9.04224 6.66723 9.87817 6.3333 10.7501 6.3324ZM10.7501 4.74921C9.77449 4.74921 8.8208 5.02779 8.00962 5.54973C7.19844 6.07167 6.56621 6.81351 6.19286 7.68147C5.81952 8.54941 5.72184 9.5045 5.91216 10.4259C6.10249 11.3474 6.57228 12.1936 7.26214 12.858C7.95199 13.5222 8.83091 13.9747 9.78776 14.1579C10.7446 14.3412 11.7364 14.2471 12.6377 13.8876C13.5391 13.5282 14.3095 12.9193 14.8515 12.1382C15.3934 11.357 15.6827 10.4387 15.6827 9.49926C15.6827 8.23943 15.163 7.03125 14.238 6.14045C13.3129 5.24966 12.0583 4.74921 10.7501 4.74921Z" fill="url(#paint1_linear_670_17228)"/>
<defs>
<linearGradient id="paint0_linear_670_17228" x1="-0.632986" y1="-78.4104" x2="40.6966" y2="-67.4357" gradientUnits="userSpaceOnUse">
<stop offset="0.0580958" stop-color="#E6D1BE"/>
<stop offset="0.929784" stop-color="#896954"/>
</linearGradient>
<linearGradient id="paint1_linear_670_17228" x1="4.93204" y1="-42.5728" x2="29.0406" y2="-36.171" gradientUnits="userSpaceOnUse">
<stop offset="0.0580958" stop-color="#E6D1BE"/>
<stop offset="0.929784" stop-color="#896954"/>
</linearGradient>
</defs>
</svg>
