<svg width="88" height="88" viewBox="0 0 88 88" fill="none" xmlns="http://www.w3.org/2000/svg">
<path d="M86.2476 82.0624L65.3255 61.1445C71.3896 53.8642 74.4134 44.5262 73.768 35.0732C73.1227 25.6202 68.8577 16.78 61.8604 10.3914C54.8631 4.00286 45.6722 0.557907 36.1996 0.773187C26.7271 0.988466 17.7022 4.84741 11.0023 11.5472C4.30248 18.2471 0.443544 27.272 0.228265 36.7446C0.0129852 46.2171 3.45794 55.408 9.84649 62.4053C16.235 69.4026 25.0753 73.6676 34.5283 74.313C43.9813 74.9584 53.3192 71.9345 60.5995 65.8704L81.5175 86.7925C81.8281 87.1031 82.1968 87.3495 82.6026 87.5176C83.0084 87.6857 83.4433 87.7722 83.8825 87.7722C84.3218 87.7722 84.7567 87.6857 85.1625 87.5176C85.5683 87.3495 85.937 87.1031 86.2476 86.7925C86.5582 86.482 86.8046 86.1132 86.9727 85.7074C87.1407 85.3016 87.2273 84.8667 87.2273 84.4275C87.2273 83.9882 87.1407 83.5533 86.9727 83.1475C86.8046 82.7417 86.5582 82.373 86.2476 82.0624ZM6.99682 37.6275C6.99682 31.6771 8.76132 25.8603 12.0672 20.9127C15.373 15.9652 20.0718 12.109 25.5692 9.83189C31.0667 7.55477 37.1159 6.95897 42.952 8.11984C48.788 9.2807 54.1488 12.1461 58.3564 16.3536C62.5639 20.5612 65.4293 25.922 66.5902 31.758C67.751 37.5941 67.1552 43.6433 64.8781 49.1408C62.601 54.6382 58.7448 59.337 53.7973 62.6428C48.8497 65.9487 43.0329 67.7132 37.0825 67.7132C29.106 67.7043 21.4587 64.5318 15.8185 58.8915C10.1782 53.2513 7.00567 45.604 6.99682 37.6275Z" fill="url(#paint0_linear_884_5121)"/>
<defs>
<linearGradient id="paint0_linear_884_5121" x1="-6.47421" y1="-358.309" x2="176.657" y2="-311.481" gradientUnits="userSpaceOnUse">
<stop offset="0.0580958" stop-color="#E6D1BE"/>
<stop offset="0.929784" stop-color="#896954"/>
</linearGradient>
</defs>
</svg>
