<svg width="25" height="24" viewBox="0 0 25 24" fill="none" xmlns="http://www.w3.org/2000/svg">
<path d="M15.4925 9.10322C15.5497 9.16037 15.5951 9.22824 15.6261 9.30294C15.657 9.37765 15.673 9.45772 15.673 9.53859C15.673 9.61946 15.657 9.69953 15.6261 9.77424C15.5951 9.84894 15.5497 9.91681 15.4925 9.97396L10.5696 14.8969C10.5124 14.954 10.4445 14.9994 10.3698 15.0303C10.2951 15.0613 10.2151 15.0772 10.1342 15.0772C10.0533 15.0772 9.97328 15.0613 9.89858 15.0303C9.82388 14.9994 9.756 14.954 9.69883 14.8969C9.64166 14.8397 9.5963 14.7718 9.56536 14.6971C9.53442 14.6224 9.51849 14.5424 9.51849 14.4615C9.51849 14.3806 9.53442 14.3006 9.56536 14.2259C9.5963 14.1512 9.64166 14.0833 9.69883 14.0261L14.6217 9.10322C14.6789 9.046 14.7468 9.00062 14.8215 8.96965C14.8962 8.93868 14.9762 8.92274 15.0571 8.92274C15.138 8.92274 15.2181 8.93868 15.2928 8.96965C15.3675 9.00062 15.4353 9.046 15.4925 9.10322ZM19.3339 5.26181C18.9339 4.86177 18.459 4.54444 17.9364 4.32793C17.4137 4.11143 16.8536 4 16.2878 4C15.7221 4 15.162 4.11143 14.6393 4.32793C14.1167 4.54444 13.6418 4.86177 13.2418 5.26181L10.9296 7.57327C10.8141 7.68874 10.7492 7.84534 10.7492 8.00864C10.7492 8.17193 10.8141 8.32854 10.9296 8.44401C11.045 8.55948 11.2016 8.62435 11.3649 8.62435C11.5282 8.62435 11.6848 8.55948 11.8003 8.44401L14.1125 6.13639C14.6917 5.56999 15.4708 5.25482 16.2808 5.25928C17.0909 5.26374 17.8665 5.58747 18.4393 6.16022C19.0122 6.73297 19.336 7.50852 19.3407 8.31857C19.3453 9.12861 19.0302 9.9078 18.4639 10.487L16.1509 12.7992C16.0355 12.9146 15.9705 13.0711 15.9705 13.2343C15.9704 13.3976 16.0352 13.5541 16.1505 13.6696C16.2659 13.7851 16.4224 13.85 16.5856 13.8501C16.7489 13.8501 16.9054 13.7854 17.0209 13.67L19.3339 11.3539C19.7339 10.9539 20.0513 10.479 20.2678 9.95639C20.4843 9.43375 20.5957 8.87357 20.5957 8.30786C20.5957 7.74215 20.4843 7.18198 20.2678 6.65933C20.0513 6.13669 19.7339 5.66181 19.3339 5.26181ZM13.391 15.5553L11.0788 17.8675C10.7942 18.1585 10.4548 18.3901 10.0801 18.5489C9.70547 18.7078 9.30301 18.7907 8.89607 18.793C8.48912 18.7952 8.08578 18.7167 7.70938 18.562C7.33299 18.4073 6.99102 18.1794 6.70329 17.8916C6.41556 17.6039 6.18777 17.2619 6.03312 16.8854C5.87848 16.509 5.80004 16.1056 5.80235 15.6987C5.80466 15.2918 5.88768 14.8893 6.0466 14.5147C6.20552 14.14 6.43717 13.8006 6.72816 13.5161L9.03962 11.2047C9.15509 11.0892 9.21996 10.9326 9.21996 10.7693C9.21996 10.606 9.15509 10.4494 9.03962 10.3339C8.92415 10.2185 8.76755 10.1536 8.60425 10.1536C8.44096 10.1536 8.28435 10.2185 8.16888 10.3339L5.85742 12.6462C5.04956 13.454 4.5957 14.5497 4.5957 15.6922C4.5957 16.8347 5.04956 17.9304 5.85742 18.7383C6.66528 19.5461 7.76098 20 8.90347 20C10.046 20 11.1417 19.5461 11.9495 18.7383L14.2618 16.4253C14.3771 16.3098 14.4419 16.1532 14.4418 15.99C14.4417 15.8268 14.3768 15.6703 14.2614 15.5549C14.1459 15.4396 13.9893 15.3748 13.8261 15.3749C13.6629 15.3749 13.5064 15.4398 13.391 15.5553Z" fill="#B19682"/>
</svg>
