<svg width="15" height="18" viewBox="0 0 15 18" fill="none" xmlns="http://www.w3.org/2000/svg">
<path d="M7.5 0.6875C5.76841 0.689464 4.1083 1.37821 2.88388 2.60263C1.65946 3.82705 0.970714 5.48716 0.96875 7.21875C0.96875 12.8074 6.90625 17.0282 7.15934 17.2049C7.25917 17.2748 7.37811 17.3123 7.5 17.3123C7.62189 17.3123 7.74083 17.2748 7.84066 17.2049C8.09375 17.0282 14.0312 12.8074 14.0312 7.21875C14.0293 5.48716 13.3405 3.82705 12.1161 2.60263C10.8917 1.37821 9.23159 0.689464 7.5 0.6875ZM7.5 4.84375C7.96973 4.84375 8.42891 4.98304 8.81948 5.24401C9.21005 5.50498 9.51446 5.8759 9.69421 6.30988C9.87397 6.74385 9.921 7.22138 9.82936 7.68209C9.73772 8.14279 9.51153 8.56598 9.17938 8.89813C8.84723 9.23028 8.42404 9.45647 7.96334 9.54811C7.50263 9.63975 7.0251 9.59272 6.59113 9.41296C6.15715 9.23321 5.78623 8.9288 5.52526 8.53823C5.26429 8.14766 5.125 7.68848 5.125 7.21875C5.125 6.58886 5.37522 5.98477 5.82062 5.53937C6.26602 5.09397 6.87011 4.84375 7.5 4.84375Z" fill="url(#paint0_linear_670_17249)"/>
<defs>
<linearGradient id="paint0_linear_670_17249" x1="-0.0360571" y1="-67.921" x2="28.1185" y2="-62.2643" gradientUnits="userSpaceOnUse">
<stop offset="0.0580958" stop-color="#E6D1BE"/>
<stop offset="0.929784" stop-color="#896954"/>
</linearGradient>
</defs>
</svg>
