<svg width="172" height="125" viewBox="0 0 172 125" fill="none" xmlns="http://www.w3.org/2000/svg">
<path d="M67.9413 31.2196C67.9069 31.8156 67.9983 32.4121 68.2095 32.9705C68.3109 33.1645 68.4544 33.3333 68.6296 33.4647C68.8047 33.596 69.007 33.6865 69.2216 33.7295C69.9706 33.8945 70.7374 33.9642 71.5038 33.937H76.7716C79.4874 33.937 81.0932 32.1946 81.5891 28.7097C81.5891 28.6287 81.665 28.5933 81.8168 28.6085C81.9686 28.6236 82.0445 28.6692 82.0445 28.7552C81.824 30.5318 81.7007 32.3191 81.6751 34.1091C81.6913 34.2769 81.6484 34.4452 81.5537 34.5847C81.4841 34.6427 81.403 34.6853 81.3158 34.7097C81.2286 34.7341 81.1372 34.7398 81.0476 34.7264H62.0966C62.0409 34.7264 62.0156 34.6455 62.0156 34.4785C62.0156 34.3115 62.0409 34.2305 62.0966 34.2305C62.8915 34.2571 63.6867 34.1874 64.4648 34.023C64.6838 33.9751 64.8888 33.8777 65.0643 33.7382C65.2397 33.5987 65.3809 33.4209 65.4769 33.2185C65.6861 32.6315 65.7772 32.0089 65.7451 31.3866V12.3242C65.7793 11.7084 65.6881 11.0921 65.4769 10.5126C65.3778 10.3123 65.2358 10.1363 65.0608 9.99718C64.8859 9.85809 64.6824 9.75935 64.4648 9.70801C63.6889 9.52807 62.8926 9.45151 62.0966 9.48029C62.0409 9.48029 62.0156 9.39932 62.0156 9.23233C62.0156 9.06534 62.0409 8.98438 62.0966 8.98438L64.1207 9.02486C65.2745 9.07884 66.1803 9.10582 66.8381 9.10582C67.5803 9.10582 68.5266 9.07884 69.677 9.02486L71.6101 8.98438C71.6641 8.98438 71.691 9.06703 71.691 9.23233C71.691 9.39764 71.6641 9.48029 71.6101 9.48029C70.8141 9.45151 70.0178 9.52807 69.2418 9.70801C69.0224 9.76155 68.8177 9.86337 68.6426 10.0061C68.4675 10.1488 68.3265 10.3287 68.2297 10.5328C68.0202 11.1197 67.929 11.7424 67.9615 12.3647L67.9413 31.2196Z" fill="url(#paint0_linear_884_2115)"/>
<path d="M99.8516 30.3844C100.819 30.6181 101.722 31.066 102.493 31.695C103.795 32.7915 104.748 34.4782 105.352 36.7554C105.377 36.8364 105.469 36.8667 105.62 36.8364C105.772 36.806 105.848 36.7554 105.848 36.6694L105.342 32.0594C105.335 31.8582 105.307 31.6582 105.261 31.4623C105.176 31.3359 105.064 31.2304 104.932 31.1536C103.937 30.5582 102.852 30.1276 101.719 29.8784C101.263 29.767 100.788 29.6861 100.297 29.6152L99.8516 30.3844Z" fill="url(#paint1_linear_884_2115)"/>
<path d="M107.97 45.5923C107.957 45.564 107.936 45.5397 107.91 45.5219C107.884 45.5041 107.854 45.4935 107.823 45.4911C106.423 45.5721 105.106 45.6126 103.871 45.6126C102.582 45.6126 100.88 45.5434 98.7652 45.4051C98.7338 45.4069 98.7035 45.4174 98.6777 45.4352C98.6518 45.4531 98.6313 45.4776 98.6184 45.5063C98.5776 45.5752 98.5566 45.654 98.5577 45.734C98.5577 45.9516 98.6386 46.0629 98.8056 46.0629C99.9116 46.017 101.019 46.1139 102.1 46.3514C102.384 46.422 102.646 46.5628 102.862 46.7608C103.077 46.9588 103.24 47.2078 103.335 47.4849C103.573 48.4612 103.67 49.4666 103.623 50.4705C103.623 52.2821 103.205 53.5793 102.368 54.3619C101.531 55.1446 100.098 55.5359 98.0668 55.5359C95.1858 55.5359 92.7636 54.8781 90.8001 53.5624C88.8983 52.3145 87.3852 50.5577 86.4331 48.4919C85.693 46.8872 85.2359 45.1667 85.0819 43.4062L84.1559 44.9244L82.3848 43.8617C82.5502 45.7887 83.132 47.6569 84.0901 49.337C85.2822 51.4239 87.0353 53.1349 89.1505 54.2759C91.552 55.5439 94.2386 56.1747 96.9535 56.1078C99.8123 56.0411 102.656 55.6678 105.435 54.9945C105.569 54.9665 105.695 54.9095 105.804 54.8275C105.871 54.7315 105.899 54.6144 105.885 54.4986C105.859 54.1583 105.81 53.8202 105.738 53.4865C105.621 52.6129 105.573 51.7312 105.597 50.85C105.576 49.7505 105.617 48.6507 105.718 47.5557C105.722 47.3181 105.776 47.0838 105.875 46.8678C105.974 46.6518 106.117 46.4588 106.295 46.3008C106.763 46.0615 107.292 45.9681 107.813 46.0326C107.95 46.0326 108.021 45.9364 108.021 45.7441C108.015 45.6905 107.998 45.6387 107.97 45.5923Z" fill="url(#paint2_linear_884_2115)"/>
<path d="M116.602 -0.000130089L54.8574 63.1172L55.4 63.648L117.144 0.530668L116.602 -0.000130089Z" fill="url(#paint3_linear_884_2115)"/>
<path d="M5.33799 77.8185V94.6552C5.32685 94.8492 5.3583 95.0433 5.43015 95.2241C5.50201 95.4049 5.61257 95.5682 5.75427 95.7028C6.06023 95.9729 6.46091 96.1139 6.87064 96.0957H11.4118C12.4227 96.1258 13.419 95.8518 14.269 95.31C15.0783 94.7578 15.6568 93.9332 15.8963 92.9903C15.9315 92.8453 16.0171 92.7172 16.1382 92.6283C16.2592 92.5394 16.408 92.4954 16.5585 92.5039C16.8991 92.5039 17.0316 92.691 16.9937 93.0651L16.4829 96.2828C16.4476 96.6175 16.2934 96.9291 16.0477 97.162C15.9184 97.2811 15.7665 97.3738 15.601 97.4348C15.4354 97.4958 15.2592 97.5239 15.0826 97.5175H3.97563L0.437288 97.6484C0.153463 97.6484 0.00206892 97.5175 0.00206892 97.2369C0.00206892 96.9563 0.115614 96.8253 0.342674 96.8253H1.25091C1.62982 96.8006 1.99244 96.6637 2.2916 96.4325C2.42182 96.326 2.52543 96.1913 2.59436 96.0388C2.66328 95.8863 2.69566 95.7201 2.68897 95.5532V77.9308C2.68897 77.1825 2.2096 76.7709 1.25091 76.6961H0.342674C0.292883 76.6914 0.244525 76.677 0.200392 76.6537C0.156259 76.6305 0.11721 76.5988 0.0855384 76.5605C0.053867 76.5222 0.0301971 76.4782 0.0158698 76.4308C0.0015425 76.3834 -0.00315653 76.3337 0.00206892 76.2845C-0.00383818 76.2266 0.00336354 76.168 0.0231456 76.1132C0.0429277 76.0583 0.074807 76.0085 0.11646 75.9673C0.158114 75.9261 0.208511 75.8946 0.263997 75.8751C0.319483 75.8555 0.378678 75.8484 0.437288 75.8542L3.97563 75.7794L7.07878 75.6484C7.40045 75.6484 7.55182 75.7794 7.55182 76.0226C7.5598 76.0796 7.55559 76.1377 7.53947 76.193C7.52334 76.2483 7.49567 76.2996 7.45822 76.3437C7.42077 76.3878 7.37438 76.4236 7.32206 76.4488C7.26974 76.4741 7.21264 76.4882 7.15446 76.4903H6.62465C5.76687 76.7023 5.33799 77.145 5.33799 77.8185Z" fill="url(#paint4_linear_884_2115)"/>
<path d="M31.4231 95.5656C31.4022 95.7012 31.4022 95.8391 31.4231 95.9747C31.4415 96.171 31.528 96.3549 31.6678 96.4954C31.755 96.5935 31.862 96.6722 31.982 96.7267C32.1019 96.7812 32.2322 96.8101 32.3642 96.8116H33.0418C33.3053 96.8116 33.4559 96.979 33.4559 97.2021C33.4559 97.4253 33.3053 97.6298 32.9853 97.6298L30.275 97.4996L27.4329 97.6298C27.1317 97.6298 27 97.4996 27 97.2207C27 96.9417 27.1129 96.8116 27.3388 96.8116H27.9223C28.3267 96.8055 28.7205 96.6825 29.055 96.4578C29.3895 96.233 29.65 95.9164 29.8044 95.547L37.8226 76.0204C37.8226 75.7786 38.1426 75.6484 38.5566 75.6484C38.9707 75.6484 39.2154 75.7786 39.3283 76.0204L47.3088 95.547C47.4351 95.9164 47.6756 96.2372 47.9965 96.4641C48.3174 96.691 48.7023 96.8126 49.0969 96.8116H49.7557C49.8015 96.812 49.8465 96.8242 49.8861 96.847C49.9257 96.8699 49.9586 96.9025 49.9815 96.9418C50.0062 97.0205 50.0062 97.1048 49.9815 97.1835C49.9815 97.4997 49.8309 97.6484 49.5486 97.6484L45.9536 97.5182L42.7351 97.6484C42.4339 97.6484 42.3022 97.5182 42.3022 97.2765C42.3022 97.0347 42.4339 96.8302 42.6786 96.8116H43.3939C43.6527 96.7972 43.8957 96.6838 44.0714 96.4954C44.2224 96.3608 44.3164 96.1749 44.3349 95.9747C44.3673 95.834 44.3673 95.6878 44.3349 95.547L42.4528 90.8234C42.4224 90.722 42.3565 90.6345 42.2668 90.5765C42.1772 90.5186 42.0697 90.4941 41.9634 90.5073H33.8888C33.7806 90.4967 33.6719 90.522 33.5799 90.5793C33.4878 90.6365 33.4177 90.7224 33.3806 90.8234L31.4231 95.5656ZM34.397 89.0381H41.3611C41.5869 89.0381 41.6623 88.9079 41.587 88.6662L37.8226 79.2376L34.0582 88.7406C34.0206 89.0381 34.0958 89.0381 34.397 89.0381Z" fill="url(#paint5_linear_884_2115)"/>
<path d="M69.0336 97.6436C68.8964 97.6603 68.7573 97.6334 68.6365 97.5668C68.5156 97.5002 68.4192 97.3974 68.3609 97.273L61.6716 77.8164C61.5463 77.4484 61.3075 77.1288 60.9889 76.9026C60.6704 76.6765 60.2883 76.5554 59.8966 76.5564H59.2426C59.197 76.556 59.1524 76.5438 59.1131 76.5211C59.0738 76.4983 59.0411 76.4658 59.0184 76.4267C58.9939 76.3482 58.9939 76.2643 59.0184 76.1858C59.0184 75.8708 59.1678 75.7226 59.4481 75.7226L62.6059 75.8523L66.044 75.7226C66.3242 75.7226 66.4737 75.8523 66.4737 76.0932C66.4737 76.3341 66.3429 76.5379 66.1 76.5564H65.39C65.2396 76.5524 65.0907 76.5859 64.9568 76.6539C64.8229 76.7219 64.7084 76.8222 64.6239 76.9455C64.5593 77.0785 64.5258 77.2242 64.5258 77.3717C64.5258 77.5193 64.5593 77.665 64.6239 77.7979L69.7063 93.1964L75.3118 76.0561C75.399 75.7843 75.6357 75.6484 76.0218 75.6484C76.408 75.6484 76.6447 75.7843 76.7319 76.0561L82.3374 93.1964L87.4572 77.7979C87.5233 77.6621 87.5577 77.5133 87.5577 77.3625C87.5577 77.2117 87.5233 77.0628 87.4572 76.927C87.3685 76.8034 87.2505 76.7032 87.1137 76.6354C86.9768 76.5675 86.8253 76.5341 86.6724 76.5379H85.981C85.7194 76.5379 85.5886 76.3711 85.5886 76.1302C85.5886 75.8893 85.7381 75.704 86.0558 75.704L88.7464 75.8337L91.5679 75.704C91.6247 75.6951 91.6829 75.6993 91.7378 75.7164C91.7928 75.7334 91.843 75.7628 91.8846 75.8023C91.9262 75.8417 91.958 75.8902 91.9776 75.9439C91.9973 75.9975 92.0041 76.055 91.9976 76.1117C91.9976 76.3896 91.8855 76.5194 91.6613 76.5194H91.0634C90.6589 76.5127 90.2623 76.6303 89.9278 76.8558C89.5933 77.0814 89.3373 77.404 89.1949 77.7794L82.4682 97.236C82.4682 97.4769 82.1693 97.6065 81.8142 97.6065C81.677 97.6232 81.538 97.5963 81.4171 97.5297C81.2963 97.4631 81.1998 97.3603 81.1416 97.236L75.4426 80.4292L69.7436 97.236C69.6128 97.5139 69.3886 97.6436 69.0336 97.6436Z" fill="url(#paint6_linear_884_2115)"/>
<path d="M113.725 75.6566C115.376 75.6359 117.021 75.8713 118.593 76.3536C120.055 76.8182 120.787 77.2768 120.787 77.7292V81.1958C120.785 81.3402 120.738 81.4809 120.652 81.5993C120.615 81.6605 120.562 81.7114 120.497 81.7468C120.433 81.7822 120.36 81.8009 120.286 81.8011C119.921 81.8011 119.69 81.5993 119.594 81.1958C119.276 79.9341 118.524 78.8103 117.458 78.0043C116.403 77.2235 115.098 76.8151 113.763 76.8488C112.583 76.8022 111.408 77.005 110.32 77.4426C109.232 77.8802 108.259 78.5418 107.471 79.38C105.868 81.1617 105.03 83.4543 105.123 85.7996C105.123 87.4956 105.483 89.174 106.182 90.7336C106.836 92.253 107.874 93.595 109.203 94.6404C110.408 95.6288 111.943 96.1751 113.532 96.1811C114.937 96.2252 116.328 95.9017 117.554 95.2457C118.644 94.622 119.189 93.9678 119.189 93.2831V89.5047C119.189 88.7343 118.708 88.3308 117.746 88.2941H116.014C115.784 88.2941 115.668 88.1474 115.668 87.8906C115.668 87.6338 115.803 87.4871 116.072 87.4871L120.402 87.6154L123.557 87.4871C123.865 87.4871 124 87.6155 124 87.8539C124 88.0923 123.865 88.2941 123.615 88.3124H123.076C122.23 88.4592 121.806 88.8627 121.806 89.523V95.3924L121.999 97.0982C121.999 97.465 121.838 97.6484 121.518 97.6484C121.391 97.6419 121.269 97.6003 121.166 97.5286C121.064 97.4569 120.985 97.3584 120.94 97.2449C120.818 96.9136 120.588 96.6282 120.283 96.4303C119.978 96.2323 119.616 96.1322 119.247 96.1444C118.904 96.2043 118.577 96.3291 118.285 96.5113C116.141 97.5199 113.722 97.8692 111.361 97.5111C109 97.153 106.814 96.1051 105.104 94.512C103.02 92.3831 101.906 89.5536 102.006 86.6433C101.959 85.1927 102.223 83.7481 102.782 82.3982C103.341 81.0483 104.184 79.8215 105.258 78.793C106.369 77.7455 107.693 76.9267 109.15 76.3871C110.606 75.8476 112.163 75.599 113.725 75.6566Z" fill="url(#paint7_linear_884_2115)"/>
<path d="M134.962 97.6484C134.661 97.6484 134.529 97.5163 134.529 97.2522C134.521 97.2001 134.524 97.147 134.536 97.0958C134.549 97.0447 134.572 96.9967 134.603 96.9545C134.635 96.9123 134.675 96.8769 134.72 96.8503C134.765 96.8237 134.816 96.8064 134.868 96.7994H135.395C136.248 96.6988 136.674 96.2712 136.674 95.5166V77.7446C136.674 76.9899 136.198 76.5749 135.244 76.4994H134.341C134.291 76.4947 134.243 76.4802 134.199 76.4567C134.155 76.4333 134.117 76.4013 134.085 76.3627C134.054 76.3241 134.03 76.2797 134.016 76.2319C134.002 76.1841 133.997 76.134 134.002 76.0844C133.996 76.0259 134.003 75.9669 134.023 75.9116C134.043 75.8563 134.074 75.806 134.116 75.7645C134.157 75.723 134.207 75.6912 134.263 75.6714C134.318 75.6517 134.377 75.6445 134.435 75.6504L137.954 75.7825L141.04 75.6504C141.354 75.6504 141.511 75.7762 141.511 76.0278C141.519 76.0868 141.514 76.1469 141.497 76.204C141.48 76.2611 141.451 76.3138 141.411 76.3586C141.372 76.4033 141.324 76.4391 141.269 76.4634C141.215 76.4877 141.156 76.5 141.097 76.4994H140.57C139.742 76.6504 139.328 77.0654 139.328 77.7446V95.5166C139.321 95.6849 139.353 95.8524 139.422 96.0062C139.49 96.16 139.593 96.2959 139.723 96.4033C140.01 96.6295 140.356 96.7672 140.72 96.7994H141.624C141.868 96.7994 142 96.9315 142 97.1956C142.001 97.2571 141.989 97.3181 141.962 97.3738C141.936 97.4295 141.898 97.4783 141.849 97.5164C141.77 97.5984 141.662 97.6458 141.548 97.6484L138.029 97.5164L134.962 97.6484Z" fill="url(#paint8_linear_884_2115)"/>
<path d="M171.925 81.223C171.924 81.3676 171.879 81.5085 171.795 81.6271C171.759 81.6884 171.708 81.7393 171.646 81.7747C171.583 81.8102 171.513 81.8289 171.441 81.8291C171.087 81.8291 170.864 81.6271 170.752 81.223C170.445 79.9597 169.717 78.8344 168.684 78.0274C167.664 77.2456 166.4 76.8367 165.108 76.8704C163.988 76.825 162.872 77.0292 161.843 77.4681C160.814 77.9069 159.899 78.5689 159.166 79.4048C157.648 81.2114 156.858 83.5066 156.949 85.8511C156.918 88.3734 157.737 90.8346 159.278 92.8484C159.92 93.792 160.787 94.5654 161.804 95.1003C162.821 95.6351 163.956 95.9151 165.108 95.9153C166.129 95.9588 167.15 95.8284 168.126 95.5297L169.485 94.9788C169.802 94.8222 170.107 94.6443 170.398 94.4461L171.013 94.0421C171.385 93.8217 171.64 93.785 171.776 93.9319C171.906 94.0449 171.986 94.2029 172 94.3727C171.984 94.5512 171.897 94.7162 171.758 94.8318C171.148 95.535 170.417 96.1258 169.597 96.5765C168.116 97.3195 166.471 97.6856 164.81 97.6417C163.358 97.694 161.91 97.441 160.565 96.8996C159.219 96.3581 158.006 95.5406 157.005 94.5012C154.988 92.3696 153.909 89.5365 154.006 86.6225C153.957 85.1775 154.202 83.7374 154.726 82.3873C155.251 81.0372 156.045 79.8045 157.061 78.7621C158.113 77.7207 159.374 76.9068 160.762 76.3724C162.151 75.838 163.637 75.5948 165.127 75.6583C166.725 75.6376 168.317 75.8733 169.839 76.3562C171.255 76.8214 171.963 77.2806 171.963 77.7336L171.925 81.223Z" fill="url(#paint9_linear_884_2115)"/>
<path d="M16.1422 120.648H18.8348C18.9339 120.648 19 120.648 19 120.809V121.488C19 121.595 19 121.648 18.8348 121.648H16.1752C16.0761 121.648 16.01 121.648 16.01 121.488V120.809C15.977 120.702 16.0266 120.648 16.1422 120.648Z" fill="url(#paint10_linear_884_2115)"/>
<path d="M24.5194 115.628V123.349C24.5154 123.438 24.5314 123.527 24.5663 123.61C24.6012 123.693 24.6542 123.768 24.7216 123.829C24.8631 123.95 25.0475 124.014 25.2363 124.007H27.3686C27.8429 124.023 28.3109 123.899 28.7105 123.651C29.098 123.403 29.3739 123.021 29.4825 122.584C29.4959 122.515 29.5353 122.453 29.593 122.41C29.6507 122.367 29.7226 122.347 29.795 122.353C29.9421 122.353 30.0156 122.353 29.9972 122.602L29.7583 124.078C29.7431 124.233 29.6714 124.378 29.5561 124.487C29.4945 124.543 29.4221 124.585 29.3431 124.613C29.2642 124.64 29.1803 124.652 29.0965 124.647H23.876H22.2216C22.0745 124.647 22.0194 124.647 22.0194 124.452C22.0194 124.256 22.0194 124.256 22.1848 124.256H22.6076C22.7814 124.243 22.9474 124.181 23.0856 124.078C23.147 124.029 23.1956 123.966 23.2275 123.895C23.2594 123.824 23.2737 123.746 23.2694 123.669V115.592C23.2694 115.248 23.0427 115.059 22.5892 115.023H22.1665C22.121 115.019 22.0788 114.998 22.0482 114.965C22.0176 114.932 22.0008 114.889 22.001 114.845C21.9981 114.819 22.0014 114.792 22.0105 114.767C22.0196 114.742 22.0345 114.719 22.0538 114.701C22.0732 114.682 22.0967 114.667 22.1225 114.659C22.1484 114.65 22.176 114.647 22.2032 114.649H23.8576H25.3098C25.4569 114.649 25.5304 114.649 25.5304 114.827C25.5304 115.005 25.5304 115.041 25.3466 115.041H25.0892C24.7093 115.112 24.5194 115.308 24.5194 115.628Z" fill="url(#paint11_linear_884_2115)"/>
<path d="M34.1458 123.703C34.1345 123.767 34.1345 123.832 34.1458 123.895C34.1508 123.987 34.1909 124.074 34.2587 124.141C34.3013 124.185 34.3535 124.22 34.4119 124.244C34.4703 124.269 34.5336 124.281 34.5975 124.281H34.9363C35.068 124.281 35.1245 124.281 35.1245 124.456C35.1245 124.631 35.1245 124.648 34.8986 124.648H33.5811H32.207C32.0565 124.648 32 124.648 32 124.456C32 124.263 32 124.263 32.1694 124.263H32.4517C32.64 124.253 32.8213 124.193 32.9745 124.091C33.1278 123.988 33.2467 123.848 33.3176 123.685L37.1949 114.824C37.1949 114.719 37.3455 114.648 37.5526 114.648C37.7596 114.648 37.8725 114.648 37.929 114.824L41.6934 123.685C41.7533 123.855 41.8694 124.002 42.025 124.106C42.1806 124.209 42.3677 124.265 42.5592 124.263H42.8792C42.8969 124.255 42.9162 124.251 42.9357 124.251C42.9552 124.251 42.9745 124.255 42.9922 124.263C43.0026 124.297 43.0026 124.334 42.9922 124.368C42.9922 124.508 42.9231 124.578 42.7851 124.578H41.0535H39.51C39.3595 124.578 39.303 124.578 39.303 124.403C39.303 124.228 39.303 124.211 39.4912 124.193H39.83C39.9517 124.185 40.0658 124.135 40.15 124.053C40.2262 123.99 40.2734 123.902 40.2818 123.808C40.2978 123.744 40.2978 123.679 40.2818 123.615L39.3971 121.479C39.3801 121.432 39.3464 121.393 39.3018 121.368C39.2572 121.342 39.2043 121.332 39.1524 121.338H35.2563C35.2043 121.332 35.1515 121.342 35.1069 121.368C35.0622 121.393 35.0285 121.432 35.0116 121.479L34.1458 123.703ZM35.5386 120.778H38.8889C39.0018 120.778 39.0395 120.778 39.0018 120.603L37.1196 116.312L35.2374 120.62C35.388 120.726 35.4256 120.778 35.5386 120.778Z" fill="url(#paint12_linear_884_2115)"/>
<path d="M48.8826 124.576C48.8136 124.585 48.7432 124.573 48.6823 124.541C48.6213 124.51 48.5732 124.461 48.5452 124.401L45.3021 115.573C45.2425 115.404 45.1268 115.258 44.9718 115.154C44.8169 115.051 44.6305 114.996 44.4398 114.997H44.1211C44.1035 115.005 44.0843 115.009 44.0649 115.009C44.0454 115.009 44.0262 115.005 44.0086 114.997C43.9971 114.963 43.9971 114.927 44.0086 114.893C44.0086 114.753 44.0774 114.683 44.2148 114.683H45.752H47.4204C47.5704 114.683 47.6266 114.683 47.6266 114.858C47.6266 115.032 47.6266 115.067 47.4392 115.067H47.1017C47.0284 115.064 46.9555 115.079 46.8899 115.109C46.8243 115.14 46.7682 115.185 46.7268 115.242C46.6966 115.302 46.681 115.367 46.681 115.434C46.681 115.5 46.6966 115.565 46.7268 115.625L49.1825 122.604L51.9194 114.823C51.9194 114.701 52.0694 114.648 52.2569 114.648C52.4443 114.648 52.5568 114.648 52.5943 114.823L55.3312 122.604L57.8057 115.625C57.8374 115.563 57.8539 115.494 57.8539 115.425C57.8539 115.355 57.8374 115.287 57.8057 115.224C57.7613 115.166 57.7019 115.12 57.6331 115.09C57.5642 115.059 57.4881 115.045 57.412 115.05H57.0746C56.9434 115.05 56.8871 115.05 56.8871 114.875C56.8871 114.701 56.8871 114.683 57.1121 114.683H58.4243H59.7927C59.8205 114.681 59.8487 114.684 59.875 114.692C59.9014 114.701 59.9253 114.715 59.9451 114.733C59.9649 114.752 59.98 114.774 59.9893 114.799C59.9986 114.823 60.0019 114.849 59.999 114.875C59.999 114.997 59.999 115.067 59.8302 115.067H59.549C59.3603 115.073 59.1776 115.131 59.0242 115.233C58.8707 115.336 58.7533 115.478 58.6867 115.643L55.4249 124.471C55.4249 124.576 55.275 124.645 55.1063 124.645C55.0372 124.655 54.9669 124.643 54.9059 124.611C54.845 124.58 54.7968 124.53 54.7688 124.471L52.0131 116.829L49.2575 124.471C49.145 124.506 49.0513 124.576 48.8826 124.576Z" fill="url(#paint13_linear_884_2115)"/>
<path d="M75.8839 117.077C75.9049 117.14 75.9049 117.206 75.8839 117.268C75.865 117.294 75.8392 117.316 75.8089 117.331C75.7785 117.346 75.7445 117.354 75.7098 117.355C75.5356 117.355 75.4195 117.268 75.3615 117.077C75.2048 116.502 74.8369 115.989 74.3166 115.623C73.8006 115.271 73.1656 115.087 72.5172 115.103C71.9564 115.081 71.3974 115.172 70.8815 115.37C70.3656 115.568 69.9062 115.867 69.5374 116.246C68.7757 117.072 68.3828 118.121 68.4345 119.19C68.4176 120.338 68.8258 121.459 69.5955 122.377C69.9164 122.808 70.3508 123.161 70.8603 123.406C71.3699 123.651 71.9389 123.779 72.5172 123.78C73.0276 123.8 73.5381 123.742 74.0264 123.607L74.7036 123.365L75.168 123.122L75.4776 122.949C75.6711 122.845 75.7872 122.828 75.8646 122.949C75.8987 122.975 75.9265 123.006 75.9465 123.042C75.9664 123.078 75.9781 123.117 75.9807 123.157C75.9733 123.237 75.9317 123.311 75.8646 123.365C75.5606 123.687 75.1934 123.957 74.781 124.161C74.0392 124.5 73.2142 124.667 72.3817 124.646C71.6614 124.666 70.9445 124.55 70.2777 124.305C69.6109 124.061 69.0092 123.693 68.5119 123.226C67.4994 122.256 66.9568 120.967 67.0027 119.641C66.9798 118.985 67.1032 118.332 67.3656 117.719C67.6281 117.106 68.0243 116.547 68.5313 116.073C69.058 115.597 69.6896 115.226 70.3859 114.981C71.0823 114.737 71.8279 114.625 72.5752 114.653C73.3758 114.641 74.1731 114.746 74.9358 114.964C75.6517 115.172 76 115.38 76 115.588L75.8839 117.077Z" fill="url(#paint14_linear_884_2115)"/>
<path d="M83.0048 114.651C83.6733 114.628 84.3395 114.74 84.9605 114.979C85.5816 115.219 86.1438 115.581 86.6111 116.043C87.5072 117.047 88 118.328 88 119.653C88 120.978 87.5072 122.259 86.6111 123.263C85.6367 124.153 84.3462 124.648 83.0048 124.648C81.6634 124.648 80.373 124.153 79.3986 123.263C78.4968 122.265 78 120.986 78 119.662C78 118.338 78.4968 117.059 79.3986 116.061C79.8656 115.597 80.4274 115.233 81.0482 114.99C81.669 114.748 82.3353 114.632 83.0048 114.651ZM85.8358 116.844C85.5622 116.374 85.1638 115.984 84.6818 115.713C84.1341 115.411 83.5086 115.266 82.8786 115.295C82.3732 115.265 81.8671 115.343 81.3965 115.524C80.9259 115.704 80.5023 115.983 80.1559 116.339C79.483 117.13 79.142 118.136 79.2002 119.157C79.1808 120.314 79.4795 121.454 80.0657 122.463C80.3506 122.957 80.7697 123.368 81.2779 123.65C81.7862 123.932 82.3645 124.075 82.9507 124.064C83.4509 124.089 83.9506 124.005 84.4126 123.818C84.8745 123.631 85.287 123.346 85.6194 122.985C86.2934 122.154 86.6329 121.116 86.575 120.062C86.6198 118.968 86.3648 117.882 85.8358 116.913V116.844Z" fill="url(#paint15_linear_884_2115)"/>
<path d="M103.749 124.489C103.759 124.511 103.763 124.535 103.763 124.56C103.763 124.584 103.759 124.608 103.749 124.631C103.711 124.644 103.67 124.644 103.632 124.631H102.128H100.808C100.691 124.631 100.624 124.631 100.624 124.453C100.619 124.428 100.62 124.403 100.625 124.378C100.63 124.354 100.64 124.331 100.654 124.31C100.668 124.29 100.686 124.274 100.707 124.261C100.728 124.249 100.751 124.242 100.775 124.24H101.009C101.376 124.24 101.577 123.991 101.577 123.654L101.477 116.94C101.477 116.851 101.477 116.798 101.477 116.798L97.8333 124.524C97.8333 124.524 97.7331 124.648 97.6662 124.648C97.6322 124.646 97.5996 124.634 97.5727 124.611C97.5458 124.589 97.526 124.559 97.5158 124.524L93.8726 117.029C93.8726 117.029 93.8726 117.029 93.8726 117.171V123.672C93.8726 123.991 94.0509 124.181 94.4074 124.24H94.6247C94.6705 124.244 94.713 124.267 94.744 124.303C94.7749 124.339 94.792 124.386 94.7918 124.435C94.7918 124.554 94.7249 124.613 94.5912 124.613H93.4883H92.1847C92.0622 124.613 92.0009 124.554 92.0009 124.435C91.9986 124.412 92.0007 124.388 92.007 124.366C92.0133 124.343 92.0238 124.322 92.0378 124.304C92.0518 124.286 92.069 124.271 92.0885 124.26C92.108 124.249 92.1293 124.242 92.1513 124.24H92.5357C92.9479 124.24 93.154 124.05 93.154 123.672L93.3211 115.608C93.3211 115.27 93.154 115.092 92.7864 115.039H92.5524C92.5282 115.037 92.5047 115.03 92.4832 115.018C92.4617 115.006 92.4426 114.989 92.4271 114.97C92.4115 114.95 92.3998 114.927 92.3927 114.902C92.3855 114.878 92.383 114.852 92.3853 114.826C92.3853 114.702 92.3853 114.648 92.5858 114.648H93.7556C94.0565 114.648 94.257 114.755 94.3239 114.933L98.1007 122.89L101.794 114.933C101.794 114.755 102.078 114.666 102.379 114.648H103.566C103.699 114.648 103.783 114.648 103.783 114.826C103.788 114.852 103.787 114.879 103.781 114.905C103.775 114.931 103.763 114.955 103.747 114.975C103.731 114.996 103.711 115.012 103.688 115.023C103.666 115.034 103.641 115.04 103.616 115.039H103.382C103.311 115.034 103.24 115.045 103.173 115.071C103.107 115.098 103.047 115.14 102.997 115.195C102.948 115.249 102.91 115.314 102.887 115.385C102.864 115.457 102.856 115.533 102.864 115.608L103.031 123.672C103.027 123.749 103.04 123.826 103.069 123.897C103.098 123.968 103.142 124.03 103.198 124.08C103.317 124.182 103.463 124.244 103.616 124.258H104C103.699 124.293 103.749 124.364 103.749 124.489Z" fill="url(#paint16_linear_884_2115)"/>
<path d="M110.787 114.667C111.63 114.609 112.465 114.873 113.147 115.414C113.422 115.652 113.642 115.956 113.79 116.301C113.938 116.647 114.009 117.026 113.999 117.407C114.008 117.795 113.939 118.18 113.798 118.536C113.656 118.892 113.445 119.211 113.18 119.471C112.566 120.042 111.774 120.335 110.967 120.289H109.426C109.295 120.289 109.23 120.289 109.23 120.467V123.669C109.227 123.746 109.241 123.823 109.269 123.894C109.297 123.965 109.34 124.028 109.394 124.078C109.513 124.188 109.663 124.251 109.82 124.256H110.377C110.475 124.256 110.525 124.256 110.525 124.452C110.527 124.478 110.524 124.505 110.516 124.53C110.508 124.555 110.495 124.578 110.477 124.596C110.46 124.615 110.439 124.629 110.416 124.638C110.393 124.647 110.369 124.65 110.344 124.647H108.705H107.247C107.116 124.647 107.05 124.647 107.05 124.47C107.05 124.292 107.05 124.274 107.214 124.256H107.591C107.951 124.256 108.132 124.06 108.132 123.669V115.592C108.132 115.254 107.935 115.059 107.525 115.023H107.148C107.108 115.019 107.07 114.998 107.043 114.965C107.016 114.932 107.001 114.889 107.001 114.845C106.998 114.819 107.001 114.792 107.009 114.767C107.018 114.742 107.031 114.719 107.048 114.701C107.065 114.682 107.086 114.667 107.109 114.659C107.132 114.65 107.157 114.647 107.181 114.649H108.984L110.787 114.667ZM112.196 119.044C112.391 118.839 112.543 118.592 112.645 118.319C112.746 118.047 112.795 117.754 112.786 117.46C112.796 117.169 112.749 116.878 112.647 116.608C112.546 116.338 112.392 116.095 112.196 115.895C111.74 115.475 111.155 115.259 110.557 115.29H109.771C109.699 115.278 109.626 115.284 109.557 115.308C109.489 115.333 109.426 115.374 109.375 115.43C109.324 115.485 109.286 115.553 109.263 115.628C109.241 115.702 109.235 115.782 109.246 115.859V119.417C109.246 119.542 109.246 119.595 109.394 119.595H110.557C111.149 119.646 111.735 119.449 112.196 119.044Z" fill="url(#paint17_linear_884_2115)"/>
<path d="M118.146 123.703C118.134 123.767 118.134 123.832 118.146 123.895C118.151 123.987 118.191 124.074 118.259 124.141C118.301 124.185 118.354 124.22 118.412 124.244C118.47 124.269 118.534 124.281 118.597 124.281H118.936C119.068 124.281 119.124 124.281 119.124 124.456C119.124 124.631 119.124 124.648 118.899 124.648H117.581H116.207C116.056 124.648 116 124.648 116 124.456C116 124.263 116 124.263 116.169 124.263H116.452C116.64 124.253 116.821 124.193 116.975 124.091C117.128 123.988 117.247 123.848 117.318 123.685L121.195 114.824C121.195 114.719 121.345 114.648 121.553 114.648C121.76 114.648 121.873 114.648 121.929 114.824L125.693 123.685C125.753 123.855 125.869 124.002 126.025 124.106C126.181 124.209 126.368 124.265 126.559 124.263H126.879C126.897 124.255 126.916 124.251 126.936 124.251C126.955 124.251 126.975 124.255 126.992 124.263C127.003 124.297 127.003 124.334 126.992 124.368C126.992 124.508 126.923 124.578 126.785 124.578H125.053H123.51C123.359 124.578 123.303 124.578 123.303 124.403C123.303 124.228 123.303 124.211 123.491 124.193H123.83C123.952 124.187 124.067 124.137 124.15 124.053C124.226 123.99 124.273 123.902 124.282 123.808C124.298 123.744 124.298 123.679 124.282 123.615L123.397 121.479C123.38 121.432 123.346 121.393 123.302 121.368C123.257 121.342 123.204 121.332 123.152 121.338H119.256C119.204 121.332 119.151 121.342 119.107 121.368C119.062 121.393 119.029 121.432 119.012 121.479L118.146 123.703ZM119.539 120.778H122.889C123.002 120.778 123.04 120.778 123.002 120.603L121.12 116.312L119.237 120.62C119.388 120.726 119.426 120.778 119.539 120.778Z" fill="url(#paint18_linear_884_2115)"/>
<path d="M137.282 122.399V115.58C137.282 115.252 137.065 115.064 136.631 115.017H136.215C136.192 115.015 136.169 115.009 136.147 114.998C136.126 114.987 136.108 114.972 136.093 114.954C136.077 114.936 136.066 114.915 136.059 114.893C136.052 114.871 136.05 114.847 136.053 114.824C136.053 114.719 136.053 114.648 136.252 114.648H137.662H138.783C138.928 114.648 139 114.648 139 114.824C139 114.873 138.982 114.919 138.948 114.955C138.915 114.991 138.869 115.013 138.819 115.017H138.566C138.18 115.088 137.987 115.275 137.987 115.58V124.473C137.987 124.578 137.987 124.648 137.825 124.648H137.644C137.521 124.645 137.401 124.613 137.294 124.555C137.187 124.497 137.096 124.414 137.029 124.315L130.936 116.74C130.936 116.74 130.936 116.74 130.936 116.88V123.594C130.936 123.91 131.135 124.086 131.514 124.156H131.767C131.817 124.161 131.863 124.183 131.897 124.219C131.93 124.255 131.948 124.301 131.948 124.35C131.948 124.467 131.876 124.525 131.731 124.525H130.61H129.2C129.067 124.525 129.001 124.467 129.001 124.35C128.998 124.327 129.001 124.303 129.008 124.281C129.014 124.259 129.026 124.238 129.041 124.22C129.056 124.202 129.075 124.187 129.096 124.176C129.117 124.165 129.14 124.159 129.164 124.156H129.58C130.032 124.156 130.249 123.928 130.249 123.594V115.615C130.249 115.287 130.056 115.099 129.67 115.053H129.417C129.39 115.053 129.363 115.048 129.338 115.037C129.313 115.026 129.292 115.01 129.274 114.989C129.257 114.969 129.244 114.945 129.238 114.92C129.231 114.894 129.231 114.868 129.236 114.842C129.236 114.719 129.236 114.666 129.453 114.666H130.61C130.729 114.662 130.847 114.684 130.957 114.73C131.066 114.775 131.164 114.843 131.243 114.93L137.282 122.452H137.391C137.391 122.452 137.282 122.452 137.282 122.399Z" fill="url(#paint19_linear_884_2115)"/>
<path d="M150.786 114.702C150.921 114.702 150.999 114.702 150.999 114.879C151.002 114.903 150.999 114.926 150.992 114.949C150.985 114.971 150.972 114.992 150.956 115.011C150.94 115.029 150.92 115.044 150.897 115.055C150.875 115.066 150.85 115.073 150.825 115.075H150.379C150.193 115.099 150.015 115.163 149.86 115.262C149.705 115.36 149.578 115.491 149.489 115.644L146.468 120.086C146.342 120.293 146.269 120.524 146.255 120.761V123.729C146.251 123.806 146.266 123.883 146.299 123.954C146.333 124.025 146.384 124.088 146.449 124.138C146.594 124.241 146.769 124.303 146.952 124.315H147.398C147.514 124.315 147.591 124.315 147.591 124.493C147.602 124.515 147.607 124.539 147.607 124.564C147.607 124.588 147.602 124.613 147.591 124.635C147.541 124.653 147.486 124.653 147.436 124.635H145.694H144.145C143.99 124.635 143.932 124.635 143.932 124.457C143.926 124.433 143.926 124.407 143.932 124.383C143.938 124.358 143.95 124.335 143.966 124.315C143.983 124.294 144.004 124.278 144.028 124.266C144.052 124.253 144.079 124.246 144.106 124.244H144.377C144.803 124.244 145.016 124.049 145.016 123.658V120.886C145.019 120.712 144.972 120.54 144.88 120.388L141.511 115.59C141.422 115.438 141.295 115.307 141.14 115.208C140.985 115.11 140.807 115.046 140.621 115.022H140.175C140.15 115.019 140.125 115.013 140.103 115.001C140.08 114.99 140.06 114.975 140.044 114.957C140.028 114.939 140.015 114.918 140.008 114.896C140.001 114.873 139.998 114.85 140.001 114.826C140.001 114.72 140.001 114.648 140.214 114.648H142.15H143.796C143.951 114.648 144.028 114.648 144.028 114.826C144.031 114.851 144.028 114.876 144.02 114.9C144.011 114.923 143.997 114.945 143.979 114.963C143.961 114.982 143.939 114.997 143.914 115.007C143.889 115.017 143.862 115.022 143.835 115.022H143.544C143.467 115.021 143.392 115.041 143.327 115.079C143.262 115.117 143.21 115.171 143.177 115.235C143.142 115.285 143.124 115.344 143.124 115.404C143.124 115.463 143.142 115.522 143.177 115.572L145.868 119.642C145.868 119.642 145.868 119.748 146.003 119.748C146.025 119.757 146.048 119.761 146.071 119.761C146.094 119.761 146.118 119.757 146.139 119.748L148.792 115.661C148.826 115.611 148.844 115.552 148.844 115.493C148.844 115.433 148.826 115.374 148.792 115.324C148.755 115.262 148.702 115.21 148.638 115.173C148.574 115.136 148.5 115.114 148.424 115.11H148.133C147.978 115.11 147.92 115.11 147.94 114.897C147.942 114.871 147.95 114.846 147.963 114.824C147.976 114.801 147.994 114.78 148.016 114.764C148.037 114.747 148.062 114.735 148.089 114.727C148.116 114.72 148.144 114.717 148.172 114.719H149.372L150.786 114.702Z" fill="url(#paint20_linear_884_2115)"/>
<path d="M154.166 120.648H156.834C156.945 120.648 157 120.702 157 120.809V121.488C157 121.595 156.945 121.648 156.834 121.648H154.166C154.055 121.648 154 121.595 154 121.488V120.809C154 120.702 154.055 120.648 154.166 120.648Z" fill="url(#paint21_linear_884_2115)"/>
<defs>
<linearGradient id="paint0_linear_884_2115" x1="60.4749" y1="-97.2787" x2="103.678" y2="-88.6855" gradientUnits="userSpaceOnUse">
<stop offset="0.533268" stop-color="#E6D1BE"/>
<stop offset="0.929784" stop-color="#896954"/>
</linearGradient>
<linearGradient id="paint1_linear_884_2115" x1="99.3903" y1="-0.233094" x2="112.258" y2="2.49498" gradientUnits="userSpaceOnUse">
<stop offset="0.533268" stop-color="#E6D1BE"/>
<stop offset="0.929784" stop-color="#896954"/>
</linearGradient>
<linearGradient id="paint2_linear_884_2115" x1="80.4128" y1="-9.03106" x2="125.814" y2="14.3916" gradientUnits="userSpaceOnUse">
<stop offset="0.533268" stop-color="#E6D1BE"/>
<stop offset="0.929784" stop-color="#896954"/>
</linearGradient>
<linearGradient id="paint3_linear_884_2115" x1="47.8686" y1="65.7818" x2="52.7778" y2="70.2715" gradientUnits="userSpaceOnUse">
<stop offset="0.533268" stop-color="#E6D1BE"/>
<stop offset="0.929784" stop-color="#896954"/>
</linearGradient>
<linearGradient id="paint4_linear_884_2115" x1="-1.30769" y1="-15.1426" x2="35.3803" y2="-7.89337" gradientUnits="userSpaceOnUse">
<stop offset="0.581731" stop-color="#E6D1BE"/>
<stop offset="0.942308" stop-color="#896954"/>
</linearGradient>
<linearGradient id="paint5_linear_884_2115" x1="25.2308" y1="-15.1426" x2="73.3655" y2="-2.27477" gradientUnits="userSpaceOnUse">
<stop offset="0.581731" stop-color="#E6D1BE"/>
<stop offset="0.942308" stop-color="#896954"/>
</linearGradient>
<linearGradient id="paint6_linear_884_2115" x1="56.4615" y1="-15.1426" x2="120.97" y2="9.60012" gradientUnits="userSpaceOnUse">
<stop offset="0.581731" stop-color="#E6D1BE"/>
<stop offset="0.942308" stop-color="#896954"/>
</linearGradient>
<linearGradient id="paint7_linear_884_2115" x1="100.308" y1="-15.1426" x2="146.612" y2="-3.30221" gradientUnits="userSpaceOnUse">
<stop offset="0.581731" stop-color="#E6D1BE"/>
<stop offset="0.942308" stop-color="#896954"/>
</linearGradient>
<linearGradient id="paint8_linear_884_2115" x1="133.385" y1="-15.1426" x2="151.17" y2="-13.4889" gradientUnits="userSpaceOnUse">
<stop offset="0.581731" stop-color="#E6D1BE"/>
<stop offset="0.942308" stop-color="#896954"/>
</linearGradient>
<linearGradient id="paint9_linear_884_2115" x1="152.615" y1="-15.1426" x2="191.286" y2="-7.05225" gradientUnits="userSpaceOnUse">
<stop offset="0.581731" stop-color="#E6D1BE"/>
<stop offset="0.942308" stop-color="#896954"/>
</linearGradient>
<linearGradient id="paint10_linear_884_2115" x1="15.7692" y1="116.522" x2="20.0042" y2="119.77" gradientUnits="userSpaceOnUse">
<stop offset="0.581731" stop-color="#E6D1BE"/>
<stop offset="0.942308" stop-color="#896954"/>
</linearGradient>
<linearGradient id="paint11_linear_884_2115" x1="21.3846" y1="73.3798" x2="38.6031" y2="76.9021" gradientUnits="userSpaceOnUse">
<stop offset="0.581731" stop-color="#E6D1BE"/>
<stop offset="0.942308" stop-color="#896954"/>
</linearGradient>
<linearGradient id="paint12_linear_884_2115" x1="31.1538" y1="73.3798" x2="54.0116" y2="79.8091" gradientUnits="userSpaceOnUse">
<stop offset="0.581731" stop-color="#E6D1BE"/>
<stop offset="0.942308" stop-color="#896954"/>
</linearGradient>
<linearGradient id="paint13_linear_884_2115" x1="42.7692" y1="73.3798" x2="73.5028" y2="85.9538" gradientUnits="userSpaceOnUse">
<stop offset="0.581731" stop-color="#E6D1BE"/>
<stop offset="0.942308" stop-color="#896954"/>
</linearGradient>
<linearGradient id="paint14_linear_884_2115" x1="66.3077" y1="73.3798" x2="85.474" y2="77.7906" gradientUnits="userSpaceOnUse">
<stop offset="0.581731" stop-color="#E6D1BE"/>
<stop offset="0.942308" stop-color="#896954"/>
</linearGradient>
<linearGradient id="paint15_linear_884_2115" x1="77.2308" y1="73.3798" x2="98.2783" y2="78.7618" gradientUnits="userSpaceOnUse">
<stop offset="0.581731" stop-color="#E6D1BE"/>
<stop offset="0.942308" stop-color="#896954"/>
</linearGradient>
<linearGradient id="paint16_linear_884_2115" x1="91.0769" y1="73.3798" x2="115.67" y2="80.9261" gradientUnits="userSpaceOnUse">
<stop offset="0.581731" stop-color="#E6D1BE"/>
<stop offset="0.942308" stop-color="#896954"/>
</linearGradient>
<linearGradient id="paint17_linear_884_2115" x1="106.462" y1="73.3798" x2="121.671" y2="76.1022" gradientUnits="userSpaceOnUse">
<stop offset="0.581731" stop-color="#E6D1BE"/>
<stop offset="0.942308" stop-color="#896954"/>
</linearGradient>
<linearGradient id="paint18_linear_884_2115" x1="115.154" y1="73.3798" x2="138.012" y2="79.8091" gradientUnits="userSpaceOnUse">
<stop offset="0.581731" stop-color="#E6D1BE"/>
<stop offset="0.942308" stop-color="#896954"/>
</linearGradient>
<linearGradient id="paint19_linear_884_2115" x1="128.231" y1="73.3798" x2="149.278" y2="78.7618" gradientUnits="userSpaceOnUse">
<stop offset="0.581731" stop-color="#E6D1BE"/>
<stop offset="0.942308" stop-color="#896954"/>
</linearGradient>
<linearGradient id="paint20_linear_884_2115" x1="139.154" y1="73.3798" x2="162.012" y2="79.8091" gradientUnits="userSpaceOnUse">
<stop offset="0.581731" stop-color="#E6D1BE"/>
<stop offset="0.942308" stop-color="#896954"/>
</linearGradient>
<linearGradient id="paint21_linear_884_2115" x1="153.769" y1="116.522" x2="158.004" y2="119.77" gradientUnits="userSpaceOnUse">
<stop offset="0.581731" stop-color="#E6D1BE"/>
<stop offset="0.942308" stop-color="#896954"/>
</linearGradient>
</defs>
</svg>
