<svg width="63" height="64" viewBox="0 0 63 64" fill="none" xmlns="http://www.w3.org/2000/svg">
<path d="M13.0849 31.2196C13.0505 31.8156 13.1419 32.4121 13.3531 32.9705C13.4545 33.1645 13.598 33.3333 13.7731 33.4647C13.9482 33.596 14.1505 33.6865 14.3651 33.7295C15.1141 33.8945 15.8809 33.9642 16.6474 33.937H21.9152C24.6309 33.937 26.2367 32.1946 26.7327 28.7097C26.7327 28.6287 26.8086 28.5933 26.9604 28.6085C27.1122 28.6236 27.1881 28.6692 27.1881 28.7552C26.9675 30.5318 26.8442 32.3191 26.8187 34.1091C26.8349 34.2769 26.7919 34.4452 26.6972 34.5847C26.6276 34.6427 26.5466 34.6853 26.4594 34.7097C26.3722 34.7341 26.2808 34.7398 26.1912 34.7264H7.24015C7.18448 34.7264 7.15918 34.6455 7.15918 34.4785C7.15918 34.3115 7.18448 34.2305 7.24015 34.2305C8.03504 34.2571 8.83023 34.1874 9.60839 34.023C9.82733 33.9751 10.0324 33.8777 10.2078 33.7382C10.3832 33.5987 10.5244 33.4209 10.6205 33.2185C10.8296 32.6315 10.9208 32.0089 10.8887 31.3866V12.3242C10.9229 11.7084 10.8316 11.0921 10.6205 10.5126C10.5214 10.3123 10.3793 10.1363 10.2044 9.99718C10.0294 9.85809 9.82591 9.75935 9.60839 9.70801C8.83246 9.52807 8.03615 9.45151 7.24015 9.48029C7.18448 9.48029 7.15918 9.39932 7.15918 9.23233C7.15918 9.06534 7.18448 8.98438 7.24015 8.98438L9.26429 9.02486C10.4181 9.07884 11.3239 9.10582 11.9817 9.10582C12.7239 9.10582 13.6702 9.07884 14.8206 9.02486L16.7536 8.98438C16.8076 8.98438 16.8346 9.06703 16.8346 9.23233C16.8346 9.39764 16.8076 9.48029 16.7536 9.48029C15.9576 9.45151 15.1613 9.52807 14.3854 9.70801C14.1659 9.76155 13.9612 9.86337 13.7861 10.0061C13.6111 10.1488 13.47 10.3287 13.3733 10.5328C13.1638 11.1197 13.0726 11.7424 13.1051 12.3647L13.0849 31.2196Z" fill="url(#paint0_linear_3345_1116)"/>
<path d="M44.9951 30.3844C45.9626 30.6181 46.8653 31.066 47.6366 31.695C48.9388 32.7915 49.8919 34.4782 50.4957 36.7554C50.521 36.8364 50.6121 36.8667 50.7639 36.8364C50.9157 36.806 50.9916 36.7554 50.9916 36.6694L50.4856 32.0594C50.4781 31.8582 50.451 31.6582 50.4046 31.4623C50.3196 31.3359 50.2072 31.2304 50.0757 31.1536C49.0803 30.5582 47.9952 30.1276 46.8624 29.8784C46.407 29.767 45.9313 29.6861 45.4404 29.6152L44.9951 30.3844Z" fill="url(#paint1_linear_3345_1116)"/>
<path d="M53.1125 45.5923C53.0992 45.564 53.0786 45.5397 53.0528 45.5219C53.027 45.5041 52.997 45.4935 52.9658 45.4911C51.5658 45.5721 50.2484 45.6126 49.0136 45.6126C47.7249 45.6126 46.023 45.5434 43.9077 45.4051C43.8764 45.4069 43.8461 45.4174 43.8202 45.4352C43.7944 45.4531 43.7739 45.4776 43.761 45.5063C43.7202 45.5752 43.6992 45.654 43.7003 45.734C43.7003 45.9516 43.7812 46.0629 43.9482 46.0629C45.0542 46.017 46.1614 46.1139 47.2425 46.3514C47.5267 46.422 47.7886 46.5628 48.0043 46.7608C48.22 46.9588 48.3826 47.2078 48.4772 47.4849C48.7156 48.4612 48.8127 49.4666 48.7657 50.4705C48.7657 52.2821 48.3474 53.5793 47.5107 54.3619C46.6741 55.1446 45.2403 55.5359 43.2094 55.5359C40.3284 55.5359 37.9061 54.8781 35.9427 53.5624C34.0409 52.3145 32.5278 50.5577 31.5756 48.4919C30.8356 46.8872 30.3785 45.1667 30.2245 43.4062L29.2985 44.9244L27.5273 43.8617C27.6927 45.7887 28.2746 47.6569 29.2327 49.337C30.4248 51.4239 32.1778 53.1349 34.293 54.2759C36.6946 55.5439 39.3812 56.1747 42.0961 56.1078C44.9549 56.0411 47.7982 55.6678 50.5773 54.9945C50.7111 54.9665 50.8372 54.9095 50.9467 54.8275C51.0131 54.7315 51.042 54.6144 51.0277 54.4986C51.0012 54.1583 50.9521 53.8202 50.8809 53.4865C50.7634 52.6129 50.716 51.7312 50.7392 50.85C50.7186 49.7505 50.7591 48.6507 50.8607 47.5557C50.8649 47.3181 50.9184 47.0838 51.0176 46.8678C51.1169 46.6518 51.2599 46.4588 51.4376 46.3008C51.9054 46.0615 52.4342 45.9681 52.9557 46.0326C53.0923 46.0326 53.1631 45.9364 53.1631 45.7441C53.1574 45.6905 53.1401 45.6387 53.1125 45.5923Z" fill="url(#paint2_linear_3345_1116)"/>
<path d="M61.7443 -0.000130089L0 63.1172L0.542602 63.648L62.2869 0.530668L61.7443 -0.000130089Z" fill="url(#paint3_linear_3345_1116)"/>
<defs>
<linearGradient id="paint0_linear_3345_1116" x1="5.6185" y1="-97.2787" x2="48.8217" y2="-88.6855" gradientUnits="userSpaceOnUse">
<stop offset="0.533268" stop-color="#E6D1BE"/>
<stop offset="0.929784" stop-color="#896954"/>
</linearGradient>
<linearGradient id="paint1_linear_3345_1116" x1="44.5338" y1="-0.233094" x2="57.402" y2="2.49498" gradientUnits="userSpaceOnUse">
<stop offset="0.533268" stop-color="#E6D1BE"/>
<stop offset="0.929784" stop-color="#896954"/>
</linearGradient>
<linearGradient id="paint2_linear_3345_1116" x1="25.5554" y1="-9.03106" x2="70.9566" y2="14.3916" gradientUnits="userSpaceOnUse">
<stop offset="0.533268" stop-color="#E6D1BE"/>
<stop offset="0.929784" stop-color="#896954"/>
</linearGradient>
<linearGradient id="paint3_linear_3345_1116" x1="-6.98881" y1="65.7818" x2="-2.07961" y2="70.2715" gradientUnits="userSpaceOnUse">
<stop offset="0.533268" stop-color="#E6D1BE"/>
<stop offset="0.929784" stop-color="#896954"/>
</linearGradient>
</defs>
</svg>
