<svg width="172" height="49" viewBox="0 0 172 49" fill="none" xmlns="http://www.w3.org/2000/svg">
<path d="M5.33799 2.17007V19.0068C5.32685 19.2008 5.3583 19.3948 5.43015 19.5756C5.50201 19.7565 5.61257 19.9198 5.75427 20.0544C6.06023 20.3245 6.46091 20.4654 6.87064 20.4472H11.4118C12.4227 20.4773 13.419 20.2034 14.269 19.6616C15.0783 19.1093 15.6568 18.2848 15.8963 17.3418C15.9315 17.1969 16.0171 17.0688 16.1382 16.9799C16.2592 16.891 16.408 16.8469 16.5585 16.8554C16.8991 16.8554 17.0316 17.0425 16.9937 17.4167L16.4829 20.6343C16.4476 20.9691 16.2934 21.2807 16.0477 21.5136C15.9184 21.6327 15.7665 21.7254 15.601 21.7864C15.4354 21.8474 15.2592 21.8754 15.0826 21.869H3.97563L0.437288 22C0.153463 22 0.00206892 21.869 0.00206892 21.5884C0.00206892 21.3078 0.115614 21.1769 0.342674 21.1769H1.25091C1.62982 21.1521 1.99244 21.0153 2.2916 20.784C2.42182 20.6776 2.52543 20.5428 2.59436 20.3903C2.66328 20.2378 2.69566 20.0717 2.68897 19.9048V2.28231C2.68897 1.53401 2.2096 1.12247 1.25091 1.04764H0.342674C0.292883 1.04297 0.244525 1.02858 0.200392 1.00531C0.156259 0.982043 0.11721 0.950352 0.0855384 0.91208C0.053867 0.873809 0.0301971 0.829718 0.0158698 0.782342C0.0015425 0.734965 -0.00315653 0.685254 0.00206892 0.636076C-0.00383818 0.578129 0.00336354 0.519604 0.0231456 0.464747C0.0429277 0.409889 0.074807 0.360062 0.11646 0.31888C0.158114 0.277698 0.208511 0.24618 0.263997 0.226621C0.319483 0.207063 0.378678 0.199943 0.437288 0.205783L3.97563 0.130966L7.07878 0C7.40045 0 7.55182 0.130975 7.55182 0.374172C7.5598 0.431191 7.55559 0.489221 7.53947 0.544531C7.52334 0.599841 7.49567 0.651203 7.45822 0.695279C7.42077 0.739354 7.37438 0.775162 7.32206 0.800411C7.26974 0.82566 7.21264 0.839785 7.15446 0.841859H6.62465C5.76687 1.05388 5.33799 1.4966 5.33799 2.17007Z" fill="url(#paint0_linear_651_11668)"/>
<path d="M31.4231 19.9172C31.4022 20.0528 31.4022 20.1907 31.4231 20.3263C31.4415 20.5225 31.528 20.7065 31.6678 20.847C31.755 20.945 31.862 21.0238 31.982 21.0783C32.1019 21.1327 32.2322 21.1616 32.3642 21.1631H33.0418C33.3053 21.1631 33.4559 21.3305 33.4559 21.5537C33.4559 21.7769 33.3053 21.9814 32.9853 21.9814L30.275 21.8512L27.4329 21.9814C27.1317 21.9814 27 21.8512 27 21.5723C27 21.2933 27.1129 21.1631 27.3388 21.1631H27.9223C28.3267 21.157 28.7205 21.0341 29.055 20.8093C29.3895 20.5846 29.65 20.268 29.8044 19.8986L37.8226 0.37193C37.8226 0.130172 38.1426 0 38.5566 0C38.9707 0 39.2154 0.130172 39.3283 0.37193L47.3088 19.8986C47.4351 20.2679 47.6756 20.5888 47.9965 20.8157C48.3174 21.0426 48.7023 21.1641 49.0969 21.1631H49.7557C49.8015 21.1635 49.8465 21.1758 49.8861 21.1986C49.9257 21.2214 49.9586 21.2541 49.9815 21.2933C50.0062 21.3721 50.0062 21.4563 49.9815 21.5351C49.9815 21.8512 49.8309 22 49.5486 22L45.9536 21.8698L42.7351 22C42.4339 22 42.3022 21.8698 42.3022 21.628C42.3022 21.3863 42.4339 21.1817 42.6786 21.1631H43.3939C43.6527 21.1487 43.8957 21.0354 44.0714 20.847C44.2224 20.7123 44.3164 20.5264 44.3349 20.3263C44.3673 20.1855 44.3673 20.0393 44.3349 19.8986L42.4528 15.175C42.4224 15.0735 42.3565 14.986 42.2668 14.9281C42.1772 14.8702 42.0697 14.8456 41.9634 14.8588H33.8888C33.7806 14.8482 33.6719 14.8736 33.5799 14.9308C33.4878 14.9881 33.4177 15.074 33.3806 15.175L31.4231 19.9172ZM34.397 13.3897H41.3611C41.5869 13.3897 41.6623 13.2595 41.587 13.0177L37.8226 3.58917L34.0582 13.0921C34.0206 13.3897 34.0958 13.3897 34.397 13.3897Z" fill="url(#paint1_linear_651_11668)"/>
<path d="M69.0336 21.9952C68.8964 22.0119 68.7573 21.985 68.6365 21.9184C68.5156 21.8518 68.4192 21.7489 68.3609 21.6246L61.6716 2.16801C61.5463 1.79997 61.3075 1.48031 60.9889 1.25421C60.6704 1.0281 60.2883 0.90698 59.8966 0.907983H59.2426C59.197 0.90758 59.1524 0.895388 59.1131 0.872639C59.0738 0.84989 59.0411 0.817359 59.0184 0.778259C58.9939 0.699795 58.9939 0.615851 59.0184 0.537387C59.0184 0.222376 59.1678 0.074136 59.4481 0.074136L62.6059 0.203832L66.044 0.074136C66.3242 0.074136 66.4737 0.203841 66.4737 0.444731C66.4737 0.685622 66.3429 0.889453 66.1 0.907983H65.39C65.2396 0.903937 65.0907 0.937446 64.9568 1.00545C64.8229 1.07344 64.7084 1.17373 64.6239 1.2971C64.5593 1.43005 64.5258 1.57574 64.5258 1.72331C64.5258 1.87088 64.5593 2.01654 64.6239 2.14949L69.7063 17.548L75.3118 0.407663C75.399 0.135889 75.6357 0 76.0218 0C76.408 0 76.6447 0.135889 76.7319 0.407663L82.3374 17.548L87.4572 2.14949C87.5233 2.01371 87.5577 1.86485 87.5577 1.71404C87.5577 1.56322 87.5233 1.41436 87.4572 1.27858C87.3685 1.15495 87.2505 1.0548 87.1137 0.986953C86.9768 0.919104 86.8253 0.885617 86.6724 0.889434H85.981C85.7194 0.889434 85.5886 0.722662 85.5886 0.481771C85.5886 0.24088 85.7381 0.0555879 86.0558 0.0555879L88.7464 0.185312L91.5679 0.0555879C91.6247 0.0466638 91.6829 0.0509044 91.7378 0.0679439C91.7928 0.0849834 91.843 0.114354 91.8846 0.153814C91.9262 0.193273 91.958 0.24174 91.9776 0.295413C91.9973 0.349087 92.0041 0.406526 91.9976 0.463251C91.9976 0.741202 91.8855 0.870915 91.6613 0.870915H91.0634C90.6589 0.864307 90.2623 0.98182 89.9278 1.20738C89.5933 1.43295 89.3373 1.75555 89.1949 2.13097L82.4682 21.5875C82.4682 21.8284 82.1693 21.9581 81.8142 21.9581C81.677 21.9748 81.538 21.9479 81.4171 21.8813C81.2963 21.8147 81.1998 21.7119 81.1416 21.5875L75.4426 4.78076L69.7436 21.5875C69.6128 21.8655 69.3886 21.9952 69.0336 21.9952Z" fill="url(#paint2_linear_651_11668)"/>
<path d="M113.725 0.00814182C115.376 -0.0125486 117.021 0.222833 118.593 0.705113C120.055 1.16977 120.787 1.62832 120.787 2.08075V5.54736C120.785 5.69174 120.738 5.83242 120.652 5.95088C120.615 6.01208 120.562 6.06294 120.497 6.09835C120.433 6.13376 120.36 6.15247 120.286 6.15264C119.921 6.15264 119.69 5.95088 119.594 5.54736C119.276 4.28565 118.524 3.16187 117.458 2.3559C116.403 1.57507 115.098 1.1667 113.763 1.20035C112.583 1.15379 111.408 1.35658 110.32 1.79419C109.232 2.2318 108.259 2.89339 107.471 3.73153C105.868 5.51322 105.03 7.80584 105.123 10.1512C105.123 11.8471 105.483 13.5256 106.182 15.0851C106.836 16.6045 107.874 17.9466 109.203 18.992C110.408 19.9804 111.943 20.5267 113.532 20.5327C114.937 20.5768 116.328 20.2533 117.554 19.5972C118.644 18.9736 119.189 18.3194 119.189 17.6346V13.8562C119.189 13.0859 118.708 12.6824 117.746 12.6457H116.014C115.784 12.6457 115.668 12.4989 115.668 12.2422C115.668 11.9854 115.803 11.8386 116.072 11.8386L120.402 11.967L123.557 11.8386C123.865 11.8386 124 11.967 124 12.2055C124 12.4439 123.865 12.6457 123.615 12.664H123.076C122.23 12.8107 121.806 13.2143 121.806 13.8746V19.7439L121.999 21.4498C121.999 21.8166 121.838 22 121.518 22C121.391 21.9935 121.269 21.9518 121.166 21.8802C121.064 21.8085 120.985 21.7099 120.94 21.5965C120.818 21.2651 120.588 20.9797 120.283 20.7818C119.978 20.5839 119.616 20.4837 119.247 20.496C118.904 20.5559 118.577 20.6806 118.285 20.8628C116.141 21.8714 113.722 22.2208 111.361 21.8627C109 21.5046 106.814 20.4566 105.104 18.8636C103.02 16.7346 101.906 13.9052 102.006 10.9949C101.959 9.54425 102.223 8.0997 102.782 6.74978C103.341 5.39987 104.184 4.17306 105.258 3.14458C106.369 2.09709 107.693 1.27822 109.15 0.738698C110.606 0.19918 112.163 -0.0494735 113.725 0.00814182Z" fill="url(#paint3_linear_651_11668)"/>
<path d="M134.962 22C134.661 22 134.529 21.8679 134.529 21.6038C134.521 21.5517 134.524 21.4985 134.536 21.4474C134.549 21.3963 134.572 21.3482 134.603 21.306C134.635 21.2639 134.675 21.2285 134.72 21.2018C134.765 21.1752 134.816 21.1579 134.868 21.151H135.395C136.248 21.0504 136.674 20.6228 136.674 19.8681V2.09614C136.674 1.3415 136.198 0.926463 135.244 0.850998H134.341C134.291 0.846284 134.243 0.831769 134.199 0.808306C134.155 0.784842 134.117 0.752882 134.085 0.714286C134.054 0.67569 134.03 0.631225 134.016 0.583447C134.002 0.535668 133.997 0.485535 134.002 0.435939C133.996 0.377501 134.003 0.31848 134.023 0.263157C134.043 0.207834 134.074 0.157584 134.116 0.116053C134.157 0.0745214 134.207 0.0427356 134.263 0.0230115C134.318 0.00328743 134.377 -0.00389317 134.435 0.00199661L137.954 0.134074L141.04 0.00199661C141.354 0.00199661 141.511 0.127794 141.511 0.379343C141.519 0.438402 141.514 0.498495 141.497 0.55558C141.48 0.612666 141.451 0.665386 141.411 0.710141C141.372 0.754895 141.324 0.790652 141.269 0.814956C141.215 0.839259 141.156 0.851555 141.097 0.850998H140.57C139.742 1.00193 139.328 1.41696 139.328 2.09614V19.8681C139.321 20.0364 139.353 20.204 139.422 20.3578C139.49 20.5116 139.593 20.6475 139.723 20.7548C140.01 20.9811 140.356 21.1188 140.72 21.151H141.624C141.868 21.151 142 21.283 142 21.5472C142.001 21.6087 141.989 21.6697 141.962 21.7254C141.936 21.781 141.898 21.8299 141.849 21.8679C141.77 21.9499 141.662 21.9974 141.548 22L138.029 21.8679L134.962 22Z" fill="url(#paint4_linear_651_11668)"/>
<path d="M171.925 5.57459C171.924 5.71916 171.879 5.86002 171.795 5.97864C171.759 6.03992 171.708 6.09084 171.646 6.12629C171.583 6.16175 171.513 6.18049 171.441 6.18066C171.087 6.18066 170.864 5.97863 170.752 5.57459C170.445 4.31126 169.717 3.18601 168.684 2.379C167.664 1.59716 166.4 1.1883 165.108 1.222C163.988 1.17653 162.872 1.38081 161.843 1.81962C160.814 2.25844 159.899 2.92047 159.166 3.75641C157.648 5.56295 156.858 7.85819 156.949 10.2027C156.918 12.725 157.737 15.1862 159.278 17.1999C159.92 18.1436 160.787 18.9169 161.804 19.4518C162.821 19.9867 163.956 20.2666 165.108 20.2669C166.129 20.3104 167.15 20.1799 168.126 19.8813L169.485 19.3303C169.802 19.1738 170.107 18.9958 170.398 18.7977L171.013 18.3937C171.385 18.1733 171.64 18.1365 171.776 18.2835C171.906 18.3965 171.986 18.5544 172 18.7242C171.984 18.9028 171.897 19.0678 171.758 19.1834C171.148 19.8866 170.417 20.4774 169.597 20.9281C168.116 21.6711 166.471 22.0372 164.81 21.9933C163.358 22.0456 161.91 21.7926 160.565 21.2512C159.219 20.7097 158.006 19.8921 157.005 18.8528C154.988 16.7211 153.909 13.888 154.006 10.974C153.957 9.52904 154.202 8.08892 154.726 6.73883C155.251 5.38873 156.045 4.15606 157.061 3.11363C158.113 2.07223 159.374 1.25838 160.762 0.723992C162.151 0.189601 163.637 -0.0536073 165.127 0.00987148C166.725 -0.0108455 168.317 0.224839 169.839 0.707739C171.255 1.173 171.963 1.63213 171.963 2.08515L171.925 5.57459Z" fill="url(#paint5_linear_651_11668)"/>
<path d="M16.1422 45H18.8348C18.9339 45 19 45 19 45.1607V45.8393C19 45.9464 19 46 18.8348 46H16.1752C16.0761 46 16.01 46 16.01 45.8393V45.1607C15.977 45.0536 16.0266 45 16.1422 45Z" fill="url(#paint6_linear_651_11668)"/>
<path d="M24.5194 39.9795V47.7004C24.5154 47.7898 24.5314 47.879 24.5663 47.9619C24.6012 48.0448 24.6542 48.1194 24.7216 48.1807C24.8631 48.3018 25.0475 48.3655 25.2363 48.3586H27.3686C27.8429 48.3747 28.3109 48.2507 28.7105 48.0028C29.098 47.7543 29.3739 47.3729 29.4825 46.9354C29.4959 46.8663 29.5353 46.8044 29.593 46.7617C29.6507 46.719 29.7226 46.6985 29.795 46.7041C29.9421 46.7041 30.0156 46.7041 29.9972 46.9532L29.7583 48.4298C29.7431 48.585 29.6714 48.7301 29.5561 48.839C29.4945 48.8941 29.4221 48.9367 29.3431 48.9642C29.2642 48.9917 29.1803 49.0036 29.0965 48.9991H23.876H22.2216C22.0745 48.9991 22.0194 48.999 22.0194 48.8033C22.0194 48.6076 22.0194 48.6077 22.1848 48.6077H22.6076C22.7814 48.5944 22.9474 48.5326 23.0856 48.4298C23.147 48.3801 23.1956 48.3172 23.2275 48.2462C23.2594 48.1752 23.2737 48.0979 23.2694 48.0206V39.9439C23.2694 39.6 23.0427 39.4102 22.5892 39.3746H22.1665C22.121 39.3702 22.0788 39.3495 22.0482 39.3166C22.0176 39.2837 22.0008 39.241 22.001 39.1967C21.9981 39.1703 22.0014 39.1437 22.0105 39.1186C22.0196 39.0936 22.0345 39.0709 22.0538 39.0521C22.0732 39.0334 22.0967 39.0191 22.1225 39.0102C22.1484 39.0014 22.176 38.9982 22.2032 39.001H23.8576H25.3098C25.4569 39.001 25.5304 39.001 25.5304 39.1789C25.5304 39.3568 25.5304 39.3924 25.3466 39.3924H25.0892C24.7093 39.4635 24.5194 39.6593 24.5194 39.9795Z" fill="url(#paint7_linear_651_11668)"/>
<path d="M34.1458 48.0543C34.1345 48.1181 34.1345 48.1832 34.1458 48.2469C34.1508 48.3386 34.1909 48.4255 34.2587 48.4922C34.3013 48.5365 34.3535 48.5719 34.4119 48.596C34.4703 48.6202 34.5336 48.6325 34.5975 48.6322H34.9363C35.068 48.6322 35.1245 48.6322 35.1245 48.8074C35.1245 48.9825 35.1245 49 34.8986 49H33.5811H32.207C32.0565 49 32 49 32 48.8074C32 48.6147 32 48.6147 32.1694 48.6147H32.4517C32.64 48.6044 32.8213 48.5446 32.9745 48.4423C33.1278 48.3401 33.2467 48.1994 33.3176 48.0368L37.1949 39.1751C37.1949 39.0701 37.3455 39 37.5526 39C37.7596 39 37.8725 39 37.929 39.1751L41.6934 48.0368C41.7533 48.2061 41.8694 48.3533 42.025 48.4571C42.1806 48.561 42.3677 48.6162 42.5592 48.6147H42.8792C42.8969 48.6069 42.9162 48.6029 42.9357 48.6029C42.9552 48.6029 42.9745 48.6069 42.9922 48.6147C43.0026 48.6491 43.0026 48.6854 42.9922 48.7198C42.9922 48.8599 42.9231 48.93 42.7851 48.93H41.0535H39.51C39.3595 48.93 39.303 48.93 39.303 48.7548C39.303 48.5797 39.303 48.5622 39.4912 48.5447H39.83C39.9517 48.5367 40.0658 48.4867 40.15 48.4046C40.2262 48.3417 40.2734 48.2539 40.2818 48.1594C40.2978 48.0961 40.2978 48.0301 40.2818 47.9667L39.3971 45.8301C39.3801 45.784 39.3464 45.7448 39.3018 45.7192C39.2572 45.6937 39.2043 45.6833 39.1524 45.69H35.2563C35.2043 45.6833 35.1515 45.6937 35.1069 45.7192C35.0622 45.7448 35.0285 45.784 35.0116 45.8301L34.1458 48.0543ZM35.5386 45.1296H38.8889C39.0018 45.1296 39.0395 45.1296 39.0018 44.9545L37.1196 40.6638L35.2374 44.972C35.388 45.0771 35.4256 45.1296 35.5386 45.1296Z" fill="url(#paint8_linear_651_11668)"/>
<path d="M48.8826 48.9272C48.8136 48.9365 48.7432 48.9244 48.6823 48.8929C48.6213 48.8614 48.5732 48.8122 48.5452 48.7527L45.3021 39.9247C45.2425 39.756 45.1268 39.6093 44.9718 39.5059C44.8169 39.4024 44.6305 39.3474 44.4398 39.3489H44.1211C44.1035 39.3567 44.0843 39.3607 44.0649 39.3607C44.0454 39.3607 44.0262 39.3567 44.0086 39.3489C43.9971 39.3148 43.9971 39.2783 44.0086 39.2442C44.0086 39.1047 44.0774 39.0349 44.2148 39.0349H45.752H47.4204C47.5704 39.0349 47.6266 39.0349 47.6266 39.2094C47.6266 39.3838 47.6266 39.4187 47.4392 39.4187H47.1017C47.0284 39.4157 46.9555 39.4302 46.8899 39.4607C46.8243 39.4912 46.7682 39.5368 46.7268 39.5932C46.6966 39.6533 46.681 39.7188 46.681 39.7851C46.681 39.8514 46.6966 39.9169 46.7268 39.977L49.1825 46.9557L51.9194 39.1745C51.9194 39.0524 52.0694 39 52.2569 39C52.4443 39 52.5568 39 52.5943 39.1745L55.3312 46.9557L57.8057 39.977C57.8374 39.9143 57.8539 39.8458 57.8539 39.7764C57.8539 39.707 57.8374 39.6385 57.8057 39.5757C57.7613 39.518 57.7019 39.4717 57.6331 39.4412C57.5642 39.4107 57.4881 39.3969 57.412 39.4012H57.0746C56.9434 39.4012 56.8871 39.4013 56.8871 39.2268C56.8871 39.0523 56.8871 39.0349 57.1121 39.0349H58.4243H59.7927C59.8205 39.0321 59.8487 39.0352 59.875 39.0439C59.9014 39.0525 59.9253 39.0666 59.9451 39.085C59.9649 39.1034 59.98 39.1257 59.9893 39.1503C59.9986 39.1748 60.0019 39.2009 59.999 39.2268C59.999 39.3489 59.999 39.4187 59.8302 39.4187H59.549C59.3603 39.4247 59.1776 39.4825 59.0242 39.585C58.8707 39.6874 58.7533 39.83 58.6867 39.9945L55.4249 48.8225C55.4249 48.9272 55.275 48.9969 55.1063 48.9969C55.0372 49.0062 54.9669 48.9942 54.9059 48.9627C54.845 48.9312 54.7968 48.882 54.7688 48.8225L52.0131 41.1808L49.2575 48.8225C49.145 48.8574 49.0513 48.9272 48.8826 48.9272Z" fill="url(#paint9_linear_651_11668)"/>
<path d="M75.8839 41.429C75.9049 41.4911 75.9049 41.5574 75.8839 41.6195C75.865 41.6455 75.8392 41.6671 75.8089 41.6822C75.7785 41.6973 75.7445 41.7055 75.7098 41.7061C75.5356 41.7061 75.4195 41.6195 75.3615 41.429C75.2048 40.8531 74.8369 40.3408 74.3166 39.9741C73.8006 39.6223 73.1656 39.4389 72.5172 39.4545C71.9564 39.4323 71.3974 39.5236 70.8815 39.7215C70.3656 39.9194 69.9062 40.2189 69.5374 40.5976C68.7757 41.4232 68.3828 42.4722 68.4345 43.542C68.4176 44.6899 68.8258 45.8106 69.5955 46.7289C69.9164 47.1595 70.3508 47.5127 70.8603 47.7574C71.3699 48.0021 71.9389 48.1306 72.5172 48.1318C73.0276 48.1517 73.5381 48.0931 74.0264 47.9586L74.7036 47.7161L75.168 47.4736L75.4776 47.3005C75.6711 47.1966 75.7872 47.1792 75.8646 47.3005C75.8987 47.3263 75.9265 47.3579 75.9465 47.3937C75.9664 47.4294 75.9781 47.4684 75.9807 47.5083C75.9733 47.5884 75.9317 47.6628 75.8646 47.7161C75.5606 48.0386 75.1934 48.3085 74.781 48.5128C74.0392 48.8518 73.2142 49.0185 72.3817 48.9978C71.6614 49.0178 70.9445 48.9016 70.2777 48.6569C69.6109 48.4122 69.0092 48.0444 68.5119 47.5775C67.4994 46.6079 66.9568 45.319 67.0027 43.9924C66.9798 43.3366 67.1032 42.6832 67.3656 42.0706C67.6281 41.458 68.0243 40.8984 68.5313 40.4244C69.058 39.949 69.6896 39.5772 70.3859 39.3326C71.0823 39.0881 71.8279 38.9762 72.5752 39.0042C73.3758 38.9927 74.1731 39.098 74.9358 39.3159C75.6517 39.5238 76 39.7317 76 39.9395L75.8839 41.429Z" fill="url(#paint10_linear_651_11668)"/>
<path d="M83.0048 39.0031C83.6733 38.9796 84.3395 39.0913 84.9605 39.331C85.5816 39.5707 86.1438 39.933 86.6111 40.3948C87.5072 41.3989 88 42.6799 88 44.0048C88 45.3298 87.5072 46.6108 86.6111 47.6148C85.6367 48.5043 84.3462 49 83.0048 49C81.6634 49 80.373 48.5043 79.3986 47.6148C78.4968 46.6168 78 45.3375 78 44.0135C78 42.6895 78.4968 41.4102 79.3986 40.4122C79.8656 39.949 80.4274 39.5846 81.0482 39.342C81.669 39.0994 82.3353 38.984 83.0048 39.0031ZM85.8358 41.1952C85.5622 40.7259 85.1638 40.3355 84.6818 40.0643C84.1341 39.7626 83.5086 39.6178 82.8786 39.6468C82.3732 39.6169 81.8671 39.695 81.3965 39.8754C80.9259 40.0559 80.5023 40.3342 80.1559 40.6906C79.483 41.4816 79.142 42.4872 79.2002 43.509C79.1808 44.6653 79.4795 45.8058 80.0657 46.8145C80.3506 47.3089 80.7697 47.7192 81.2779 48.0012C81.7862 48.2832 82.3645 48.4263 82.9507 48.4151C83.4509 48.4401 83.9506 48.3561 84.4126 48.1694C84.8745 47.9827 85.287 47.698 85.6194 47.3364C86.2934 46.5056 86.6329 45.4673 86.575 44.4136C86.6198 43.3195 86.3648 42.2334 85.8358 41.2647V41.1952Z" fill="url(#paint11_linear_651_11668)"/>
<path d="M103.749 48.8401C103.759 48.8626 103.763 48.8868 103.763 48.9112C103.763 48.9357 103.759 48.9599 103.749 48.9823C103.711 48.9958 103.67 48.9958 103.632 48.9823H102.128H100.808C100.691 48.9823 100.624 48.9823 100.624 48.8046C100.619 48.78 100.62 48.7545 100.625 48.7299C100.63 48.7053 100.64 48.6821 100.654 48.662C100.668 48.6418 100.686 48.6251 100.707 48.613C100.728 48.6008 100.751 48.5935 100.775 48.5915H101.009C101.376 48.5915 101.577 48.3428 101.577 48.0053L101.477 41.2913C101.477 41.2025 101.477 41.1492 101.477 41.1492L97.8333 48.8757C97.8333 48.8757 97.7331 49 97.6662 49C97.6322 48.998 97.5996 48.9851 97.5727 48.9629C97.5458 48.9406 97.526 48.9103 97.5158 48.8757L93.8726 41.3802C93.8726 41.3802 93.8726 41.3801 93.8726 41.5222V48.0231C93.8726 48.3428 94.0509 48.5323 94.4074 48.5915H94.6247C94.6705 48.596 94.713 48.6185 94.744 48.6547C94.7749 48.6908 94.792 48.738 94.7918 48.7869C94.7918 48.9053 94.7249 48.9645 94.5912 48.9645H93.4883H92.1847C92.0622 48.9645 92.0009 48.9053 92.0009 48.7869C91.9986 48.7635 92.0007 48.7399 92.007 48.7174C92.0133 48.6949 92.0238 48.674 92.0378 48.6559C92.0518 48.6377 92.069 48.6226 92.0885 48.6116C92.108 48.6005 92.1293 48.5937 92.1513 48.5915H92.5357C92.9479 48.5915 93.154 48.402 93.154 48.0231L93.3211 39.9592C93.3211 39.6217 93.154 39.4441 92.7864 39.3908H92.5524C92.5282 39.3885 92.5047 39.3812 92.4832 39.3693C92.4617 39.3574 92.4426 39.341 92.4271 39.3212C92.4115 39.3014 92.3998 39.2785 92.3927 39.2539C92.3855 39.2293 92.383 39.2033 92.3853 39.1776C92.3853 39.0533 92.3853 39 92.5858 39H93.7556C94.0565 39 94.257 39.1066 94.3239 39.2842L98.1007 47.2416L101.794 39.2842C101.794 39.1066 102.078 39.0178 102.379 39H103.566C103.699 39 103.783 39 103.783 39.1776C103.788 39.2037 103.787 39.2307 103.781 39.2566C103.775 39.2824 103.763 39.3064 103.747 39.3269C103.731 39.3474 103.711 39.3638 103.688 39.3748C103.666 39.3859 103.641 39.3913 103.616 39.3908H103.382C103.311 39.3851 103.24 39.3961 103.173 39.423C103.107 39.4498 103.047 39.4918 102.997 39.5461C102.948 39.6003 102.91 39.6654 102.887 39.7368C102.864 39.8081 102.856 39.8841 102.864 39.9592L103.031 48.0231C103.027 48.1003 103.04 48.1775 103.069 48.2484C103.098 48.3193 103.142 48.3821 103.198 48.4317C103.317 48.5338 103.463 48.5956 103.616 48.6092H104C103.699 48.6448 103.749 48.7158 103.749 48.8401Z" fill="url(#paint12_linear_651_11668)"/>
<path d="M110.787 39.0188C111.63 38.9601 112.465 39.2245 113.147 39.766C113.422 40.0034 113.642 40.3071 113.79 40.653C113.938 40.9988 114.009 41.3773 113.999 41.7585C114.008 42.1463 113.939 42.5316 113.798 42.8878C113.656 43.244 113.445 43.5627 113.18 43.8221C112.566 44.3931 111.774 44.6862 110.967 44.6405H109.426C109.295 44.6405 109.23 44.6405 109.23 44.8184V48.0206C109.227 48.0977 109.241 48.1746 109.269 48.2454C109.297 48.3162 109.34 48.3792 109.394 48.4298C109.513 48.54 109.663 48.6027 109.82 48.6076H110.377C110.475 48.6076 110.525 48.6076 110.525 48.8033C110.527 48.8297 110.524 48.8564 110.516 48.8814C110.508 48.9064 110.495 48.9292 110.477 48.9479C110.46 48.9667 110.439 48.981 110.416 48.9898C110.393 48.9987 110.369 49.0018 110.344 48.999H108.705H107.247C107.116 48.999 107.05 48.999 107.05 48.8211C107.05 48.6432 107.05 48.6254 107.214 48.6076H107.591C107.951 48.6076 108.132 48.412 108.132 48.0206V39.9439C108.132 39.6059 107.935 39.4102 107.525 39.3746H107.148C107.108 39.3701 107.07 39.3495 107.043 39.3166C107.016 39.2837 107.001 39.241 107.001 39.1967C106.998 39.1703 107.001 39.1436 107.009 39.1186C107.018 39.0936 107.031 39.0709 107.048 39.0521C107.065 39.0334 107.086 39.019 107.109 39.0102C107.132 39.0013 107.157 38.9982 107.181 39.001H108.984L110.787 39.0188ZM112.196 43.3951C112.391 43.1902 112.543 42.9436 112.645 42.671C112.746 42.3984 112.795 42.1058 112.786 41.8119C112.796 41.5203 112.749 41.2298 112.647 40.9598C112.546 40.6897 112.392 40.4465 112.196 40.2463C111.74 39.8266 111.155 39.6105 110.557 39.6415H109.771C109.699 39.6293 109.626 39.6356 109.557 39.6599C109.489 39.6842 109.426 39.7258 109.375 39.7813C109.324 39.8368 109.286 39.9046 109.263 39.9793C109.241 40.0539 109.235 40.1332 109.246 40.2107V43.7687C109.246 43.8933 109.246 43.9466 109.394 43.9466H110.557C111.149 43.9979 111.735 43.8005 112.196 43.3951Z" fill="url(#paint13_linear_651_11668)"/>
<path d="M118.146 48.0543C118.134 48.1181 118.134 48.1832 118.146 48.2469C118.151 48.3386 118.191 48.4255 118.259 48.4922C118.301 48.5365 118.354 48.5719 118.412 48.596C118.47 48.6202 118.534 48.6325 118.597 48.6322H118.936C119.068 48.6322 119.124 48.6322 119.124 48.8074C119.124 48.9825 119.124 49 118.899 49H117.581H116.207C116.056 49 116 49 116 48.8074C116 48.6147 116 48.6147 116.169 48.6147H116.452C116.64 48.6044 116.821 48.5446 116.975 48.4423C117.128 48.3401 117.247 48.1994 117.318 48.0368L121.195 39.1751C121.195 39.0701 121.345 39 121.553 39C121.76 39 121.873 39 121.929 39.1751L125.693 48.0368C125.753 48.2061 125.869 48.3533 126.025 48.4571C126.181 48.561 126.368 48.6162 126.559 48.6147H126.879C126.897 48.6069 126.916 48.6029 126.936 48.6029C126.955 48.6029 126.975 48.6069 126.992 48.6147C127.003 48.6491 127.003 48.6854 126.992 48.7198C126.992 48.8599 126.923 48.93 126.785 48.93H125.053H123.51C123.359 48.93 123.303 48.93 123.303 48.7548C123.303 48.5797 123.303 48.5622 123.491 48.5447H123.83C123.952 48.5385 124.067 48.4882 124.15 48.4046C124.226 48.3417 124.273 48.2539 124.282 48.1594C124.298 48.0961 124.298 48.0301 124.282 47.9667L123.397 45.8301C123.38 45.784 123.346 45.7448 123.302 45.7192C123.257 45.6937 123.204 45.6833 123.152 45.69H119.256C119.204 45.6833 119.151 45.6937 119.107 45.7192C119.062 45.7448 119.029 45.784 119.012 45.8301L118.146 48.0543ZM119.539 45.1296H122.889C123.002 45.1296 123.04 45.1296 123.002 44.9545L121.12 40.6638L119.237 44.972C119.388 45.0771 119.426 45.1296 119.539 45.1296Z" fill="url(#paint14_linear_651_11668)"/>
<path d="M137.282 46.7504V39.9315C137.282 39.6034 137.065 39.4159 136.631 39.3691H136.215C136.192 39.3669 136.169 39.3601 136.147 39.3492C136.126 39.3382 136.108 39.3234 136.093 39.3054C136.077 39.2874 136.066 39.2667 136.059 39.2445C136.052 39.2222 136.05 39.1989 136.053 39.1758C136.053 39.0703 136.053 39 136.252 39H137.662H138.783C138.928 39 139 39 139 39.1758C139 39.2241 138.982 39.2708 138.948 39.3066C138.915 39.3424 138.869 39.3647 138.819 39.3691H138.566C138.18 39.4394 137.987 39.6268 137.987 39.9315V48.8242C137.987 48.9297 137.987 49 137.825 49H137.644C137.521 48.9967 137.401 48.9646 137.294 48.9065C137.187 48.8483 137.096 48.7658 137.029 48.6661L130.936 41.0914C130.936 41.0914 130.936 41.0914 130.936 41.232V47.9455C130.936 48.2619 131.135 48.4376 131.514 48.5079H131.767C131.817 48.5123 131.863 48.5346 131.897 48.5704C131.93 48.6062 131.948 48.6528 131.948 48.7012C131.948 48.8184 131.876 48.877 131.731 48.877H130.61H129.2C129.067 48.877 129.001 48.8184 129.001 48.7012C128.998 48.6781 129.001 48.6548 129.008 48.6325C129.014 48.6102 129.026 48.5896 129.041 48.5716C129.056 48.5536 129.075 48.5387 129.096 48.5278C129.117 48.5168 129.14 48.5101 129.164 48.5079H129.58C130.032 48.5079 130.249 48.2794 130.249 47.9455V39.9666C130.249 39.6385 130.056 39.451 129.67 39.4042H129.417C129.39 39.4047 129.363 39.3994 129.338 39.3884C129.313 39.3775 129.292 39.3613 129.274 39.341C129.257 39.3207 129.244 39.297 129.238 39.2714C129.231 39.2458 129.231 39.2191 129.236 39.1933C129.236 39.0703 129.236 39.0176 129.453 39.0176H130.61C130.729 39.0139 130.847 39.0355 130.957 39.0811C131.066 39.1266 131.164 39.195 131.243 39.2812L137.282 46.8032H137.391C137.391 46.8032 137.282 46.8032 137.282 46.7504Z" fill="url(#paint15_linear_651_11668)"/>
<path d="M150.786 39.0533C150.921 39.0533 150.999 39.0533 150.999 39.231C151.002 39.2544 150.999 39.278 150.992 39.3005C150.985 39.323 150.972 39.3439 150.956 39.3621C150.94 39.3803 150.92 39.3953 150.897 39.4063C150.875 39.4174 150.85 39.4242 150.825 39.4265H150.379C150.193 39.4504 150.015 39.5144 149.86 39.6132C149.705 39.712 149.578 39.8428 149.489 39.9951L146.468 44.4376C146.342 44.6449 146.269 44.8758 146.255 45.1128V48.0803C146.251 48.1576 146.266 48.2348 146.299 48.3057C146.333 48.3767 146.384 48.4394 146.449 48.4891C146.594 48.5927 146.769 48.6545 146.952 48.6668H147.398C147.514 48.6668 147.591 48.6667 147.591 48.8444C147.602 48.8668 147.607 48.8911 147.607 48.9155C147.607 48.94 147.602 48.9642 147.591 48.9866C147.541 49.0045 147.486 49.0045 147.436 48.9866H145.694H144.145C143.99 48.9866 143.932 48.9866 143.932 48.8089C143.926 48.7842 143.926 48.7587 143.932 48.7341C143.938 48.7095 143.95 48.6863 143.966 48.6662C143.983 48.646 144.004 48.6293 144.028 48.6172C144.052 48.605 144.079 48.5977 144.106 48.5957H144.377C144.803 48.5957 145.016 48.4002 145.016 48.0093V45.2372C145.019 45.0633 144.972 44.8917 144.88 44.7396L141.511 39.9418C141.422 39.7895 141.295 39.6587 141.14 39.5599C140.985 39.4611 140.807 39.3971 140.621 39.3732H140.175C140.15 39.3709 140.125 39.3641 140.103 39.353C140.08 39.342 140.06 39.327 140.044 39.3088C140.028 39.2906 140.015 39.2697 140.008 39.2472C140.001 39.2247 139.998 39.2011 140.001 39.1777C140.001 39.0711 140.001 39 140.214 39H142.15H143.796C143.951 39 144.028 39 144.028 39.1777C144.031 39.2025 144.028 39.2275 144.02 39.2511C144.011 39.2748 143.997 39.2965 143.979 39.315C143.961 39.3334 143.939 39.3481 143.914 39.3581C143.889 39.3681 143.862 39.3733 143.835 39.3732H143.544C143.467 39.3731 143.392 39.393 143.327 39.4308C143.262 39.4685 143.21 39.5225 143.177 39.5864C143.142 39.6371 143.124 39.6955 143.124 39.7552C143.124 39.8149 143.142 39.8733 143.177 39.924L145.868 43.9933C145.868 43.9933 145.868 44.0999 146.003 44.0999C146.025 44.1082 146.048 44.1125 146.071 44.1125C146.094 44.1125 146.118 44.1082 146.139 44.0999L148.792 40.0129C148.826 39.9622 148.844 39.9037 148.844 39.8441C148.844 39.7844 148.826 39.7259 148.792 39.6753C148.755 39.6138 148.702 39.5619 148.638 39.5246C148.574 39.4872 148.5 39.4657 148.424 39.462H148.133C147.978 39.462 147.92 39.462 147.94 39.2487C147.942 39.223 147.95 39.198 147.963 39.1752C147.976 39.1523 147.994 39.132 148.016 39.1155C148.037 39.099 148.062 39.0865 148.089 39.0789C148.116 39.0713 148.144 39.0686 148.172 39.071H149.372L150.786 39.0533Z" fill="url(#paint16_linear_651_11668)"/>
<path d="M154.166 45H156.834C156.945 45 157 45.0536 157 45.1607V45.8393C157 45.9464 156.945 46 156.834 46H154.166C154.055 46 154 45.9464 154 45.8393V45.1607C154 45.0536 154.055 45 154.166 45Z" fill="url(#paint17_linear_651_11668)"/>
<defs>
<linearGradient id="paint0_linear_651_11668" x1="-1.30769" y1="-90.791" x2="35.3803" y2="-83.5418" gradientUnits="userSpaceOnUse">
<stop offset="0.581731" stop-color="#E6D1BE"/>
<stop offset="0.942308" stop-color="#896954"/>
</linearGradient>
<linearGradient id="paint1_linear_651_11668" x1="25.2308" y1="-90.791" x2="73.3655" y2="-77.9232" gradientUnits="userSpaceOnUse">
<stop offset="0.581731" stop-color="#E6D1BE"/>
<stop offset="0.942308" stop-color="#896954"/>
</linearGradient>
<linearGradient id="paint2_linear_651_11668" x1="56.4615" y1="-90.791" x2="120.97" y2="-66.0483" gradientUnits="userSpaceOnUse">
<stop offset="0.581731" stop-color="#E6D1BE"/>
<stop offset="0.942308" stop-color="#896954"/>
</linearGradient>
<linearGradient id="paint3_linear_651_11668" x1="100.308" y1="-90.791" x2="146.612" y2="-78.9506" gradientUnits="userSpaceOnUse">
<stop offset="0.581731" stop-color="#E6D1BE"/>
<stop offset="0.942308" stop-color="#896954"/>
</linearGradient>
<linearGradient id="paint4_linear_651_11668" x1="133.385" y1="-90.791" x2="151.17" y2="-89.1373" gradientUnits="userSpaceOnUse">
<stop offset="0.581731" stop-color="#E6D1BE"/>
<stop offset="0.942308" stop-color="#896954"/>
</linearGradient>
<linearGradient id="paint5_linear_651_11668" x1="152.615" y1="-90.791" x2="191.286" y2="-82.7007" gradientUnits="userSpaceOnUse">
<stop offset="0.581731" stop-color="#E6D1BE"/>
<stop offset="0.942308" stop-color="#896954"/>
</linearGradient>
<linearGradient id="paint6_linear_651_11668" x1="15.7692" y1="40.8731" x2="20.0042" y2="44.1219" gradientUnits="userSpaceOnUse">
<stop offset="0.581731" stop-color="#E6D1BE"/>
<stop offset="0.942308" stop-color="#896954"/>
</linearGradient>
<linearGradient id="paint7_linear_651_11668" x1="21.3846" y1="-2.26866" x2="38.6031" y2="1.25365" gradientUnits="userSpaceOnUse">
<stop offset="0.581731" stop-color="#E6D1BE"/>
<stop offset="0.942308" stop-color="#896954"/>
</linearGradient>
<linearGradient id="paint8_linear_651_11668" x1="31.1538" y1="-2.26866" x2="54.0116" y2="4.1607" gradientUnits="userSpaceOnUse">
<stop offset="0.581731" stop-color="#E6D1BE"/>
<stop offset="0.942308" stop-color="#896954"/>
</linearGradient>
<linearGradient id="paint9_linear_651_11668" x1="42.7692" y1="-2.26866" x2="73.5028" y2="10.3054" gradientUnits="userSpaceOnUse">
<stop offset="0.581731" stop-color="#E6D1BE"/>
<stop offset="0.942308" stop-color="#896954"/>
</linearGradient>
<linearGradient id="paint10_linear_651_11668" x1="66.3077" y1="-2.26866" x2="85.474" y2="2.1422" gradientUnits="userSpaceOnUse">
<stop offset="0.581731" stop-color="#E6D1BE"/>
<stop offset="0.942308" stop-color="#896954"/>
</linearGradient>
<linearGradient id="paint11_linear_651_11668" x1="77.2308" y1="-2.26866" x2="98.2783" y2="3.11334" gradientUnits="userSpaceOnUse">
<stop offset="0.581731" stop-color="#E6D1BE"/>
<stop offset="0.942308" stop-color="#896954"/>
</linearGradient>
<linearGradient id="paint12_linear_651_11668" x1="91.0769" y1="-2.26866" x2="115.67" y2="5.27764" gradientUnits="userSpaceOnUse">
<stop offset="0.581731" stop-color="#E6D1BE"/>
<stop offset="0.942308" stop-color="#896954"/>
</linearGradient>
<linearGradient id="paint13_linear_651_11668" x1="106.462" y1="-2.26866" x2="121.671" y2="0.453734" gradientUnits="userSpaceOnUse">
<stop offset="0.581731" stop-color="#E6D1BE"/>
<stop offset="0.942308" stop-color="#896954"/>
</linearGradient>
<linearGradient id="paint14_linear_651_11668" x1="115.154" y1="-2.26866" x2="138.012" y2="4.1607" gradientUnits="userSpaceOnUse">
<stop offset="0.581731" stop-color="#E6D1BE"/>
<stop offset="0.942308" stop-color="#896954"/>
</linearGradient>
<linearGradient id="paint15_linear_651_11668" x1="128.231" y1="-2.26866" x2="149.278" y2="3.11334" gradientUnits="userSpaceOnUse">
<stop offset="0.581731" stop-color="#E6D1BE"/>
<stop offset="0.942308" stop-color="#896954"/>
</linearGradient>
<linearGradient id="paint16_linear_651_11668" x1="139.154" y1="-2.26866" x2="162.012" y2="4.1607" gradientUnits="userSpaceOnUse">
<stop offset="0.581731" stop-color="#E6D1BE"/>
<stop offset="0.942308" stop-color="#896954"/>
</linearGradient>
<linearGradient id="paint17_linear_651_11668" x1="153.769" y1="40.8731" x2="158.004" y2="44.1219" gradientUnits="userSpaceOnUse">
<stop offset="0.581731" stop-color="#E6D1BE"/>
<stop offset="0.942308" stop-color="#896954"/>
</linearGradient>
</defs>
</svg>
