<svg width="345" height="353" viewBox="0 0 345 353" fill="none" xmlns="http://www.w3.org/2000/svg">
<path d="M72.1272 173.485C71.9366 176.795 72.443 180.108 73.6135 183.209C74.1755 184.286 74.9709 185.224 75.9414 185.954C76.9119 186.683 78.033 187.186 79.2224 187.425C83.3732 188.341 87.6229 188.728 91.8705 188.577H121.065C136.115 188.577 145.015 178.9 147.763 159.546C147.763 159.097 148.184 158.9 149.025 158.984C149.866 159.068 150.287 159.321 150.287 159.799C149.065 169.665 148.381 179.591 148.24 189.532C148.33 190.465 148.091 191.399 147.567 192.174C147.181 192.496 146.732 192.732 146.248 192.868C145.765 193.003 145.259 193.035 144.762 192.961H39.7358C39.4273 192.961 39.2871 192.511 39.2871 191.584C39.2871 190.656 39.4273 190.207 39.7358 190.207C44.1411 190.354 48.548 189.968 52.8606 189.055C54.074 188.788 55.2103 188.247 56.1826 187.473C57.1549 186.698 57.9372 185.711 58.4695 184.586C59.6287 181.326 60.1338 177.869 59.9559 174.413V68.5481C60.1453 65.1282 59.6397 61.7054 58.4695 58.4872C57.9205 57.3745 57.1331 56.3971 56.1635 55.6247C55.1939 54.8523 54.0661 54.3039 52.8606 54.0188C48.5604 53.0195 44.1473 52.5943 39.7358 52.7541C39.4273 52.7541 39.2871 52.3045 39.2871 51.377C39.2871 50.4496 39.4273 50 39.7358 50L50.9536 50.2248C57.3478 50.5246 62.3677 50.6745 66.0135 50.6745C70.1267 50.6745 75.371 50.5246 81.7464 50.2248L92.4594 50C92.7586 50 92.9081 50.459 92.9081 51.377C92.9081 52.2951 92.7586 52.7541 92.4594 52.7541C88.048 52.5943 83.6348 53.0195 79.3346 54.0188C78.1185 54.3161 76.984 54.8816 76.0136 55.6741C75.0433 56.4665 74.2617 57.466 73.7257 58.5996C72.5644 61.859 72.0592 65.3167 72.2394 68.7729L72.1272 173.485Z" fill="url(#paint0_linear_670_17238)"/>
<path d="M248.287 168.36C253.773 169.685 258.891 172.224 263.264 175.79C270.648 182.005 276.051 191.567 279.475 204.476C279.619 204.935 280.135 205.107 280.996 204.935C281.857 204.762 282.287 204.476 282.287 203.988L279.418 177.855C279.375 176.715 279.222 175.581 278.959 174.47C278.477 173.754 277.839 173.156 277.094 172.72C271.45 169.346 265.297 166.905 258.874 165.492C256.292 164.861 253.595 164.402 250.812 164L248.287 168.36Z" fill="url(#paint1_linear_670_17238)"/>
<path d="M293.009 252.215C292.935 252.057 292.822 251.921 292.68 251.822C292.539 251.723 292.373 251.663 292.202 251.65C284.501 252.102 277.256 252.328 270.464 252.328C263.376 252.328 254.015 251.942 242.381 251.169C242.209 251.179 242.042 251.238 241.9 251.337C241.758 251.437 241.645 251.574 241.574 251.735C241.35 252.119 241.234 252.56 241.24 253.007C241.24 254.223 241.685 254.845 242.604 254.845C248.687 254.588 254.777 255.13 260.723 256.457C262.286 256.851 263.727 257.638 264.913 258.744C266.099 259.851 266.994 261.242 267.514 262.791C268.825 268.246 269.359 273.864 269.101 279.473C269.101 289.596 266.8 296.844 262.198 301.218C257.596 305.591 249.711 307.778 238.54 307.778C222.694 307.778 209.372 304.102 198.573 296.75C188.113 289.778 179.79 279.961 174.553 268.418C170.483 259.451 167.969 249.837 167.122 240L162.029 248.483L152.287 242.545C153.197 253.313 156.397 263.751 161.667 273.14C168.223 284.801 177.865 294.361 189.499 300.737C202.708 307.823 217.485 311.347 232.417 310.973C248.141 310.6 263.779 308.515 279.065 304.752C279.801 304.596 280.494 304.277 281.096 303.819C281.462 303.283 281.62 302.629 281.542 301.981C281.396 300.08 281.126 298.191 280.735 296.326C280.088 291.444 279.827 286.518 279.955 281.594C279.842 275.45 280.065 269.305 280.623 263.186C280.647 261.858 280.941 260.549 281.487 259.343C282.033 258.136 282.819 257.057 283.796 256.174C286.369 254.837 289.278 254.315 292.146 254.675C292.897 254.675 293.287 254.138 293.287 253.064C293.256 252.764 293.161 252.474 293.009 252.215Z" fill="url(#paint2_linear_670_17238)"/>
<path d="M341.288 0.523722L0 349.4L2.99919 352.334L344.287 3.45767L341.288 0.523722Z" fill="url(#paint3_linear_670_17238)"/>
<defs>
<linearGradient id="paint0_linear_670_17238" x1="30.7487" y1="-540.142" x2="270.218" y2="-492.611" gradientUnits="userSpaceOnUse">
<stop offset="0.533268" stop-color="#E6D1BE"/>
<stop offset="0.929784" stop-color="#896954"/>
</linearGradient>
<linearGradient id="paint1_linear_670_17238" x1="245.672" y1="-5.2015" x2="318.632" y2="10.2697" gradientUnits="userSpaceOnUse">
<stop offset="0.533268" stop-color="#E6D1BE"/>
<stop offset="0.929784" stop-color="#896954"/>
</linearGradient>
<linearGradient id="paint2_linear_670_17238" x1="141.441" y1="-53.0075" x2="392.798" y2="74.6346" gradientUnits="userSpaceOnUse">
<stop offset="0.533268" stop-color="#E6D1BE"/>
<stop offset="0.929784" stop-color="#896954"/>
</linearGradient>
<linearGradient id="paint3_linear_670_17238" x1="-38.6301" y1="364.129" x2="-11.4949" y2="388.946" gradientUnits="userSpaceOnUse">
<stop offset="0.533268" stop-color="#E6D1BE"/>
<stop offset="0.929784" stop-color="#896954"/>
</linearGradient>
</defs>
</svg>
