<svg width="96" height="122" viewBox="0 0 96 122" fill="none" xmlns="http://www.w3.org/2000/svg">
<path d="M26.5375 44.0755C26.489 44.9169 26.618 45.759 26.9162 46.5473C27.0593 46.8212 27.262 47.0596 27.5092 47.245C27.7564 47.4304 28.042 47.5582 28.345 47.6189C29.4024 47.8518 30.4849 47.9502 31.5669 47.9118H39.0039C42.8379 47.9118 45.1049 45.4519 45.805 40.532C45.805 40.4177 45.9122 40.3677 46.1265 40.3892C46.3408 40.4106 46.448 40.4749 46.448 40.5963C46.1366 43.1044 45.9625 45.6276 45.9265 48.1547C45.9493 48.3917 45.8887 48.6292 45.755 48.8263C45.6567 48.9081 45.5423 48.9682 45.4192 49.0026C45.2961 49.0371 45.1671 49.0452 45.0406 49.0263H18.2862C18.2076 49.0263 18.1719 48.912 18.1719 48.6762C18.1719 48.4405 18.2076 48.3262 18.2862 48.3262C19.4084 48.3637 20.531 48.2654 21.6296 48.0333C21.9387 47.9656 22.2282 47.8281 22.4758 47.6312C22.7235 47.4343 22.9228 47.1833 23.0584 46.8974C23.3537 46.0687 23.4824 45.1898 23.437 44.3112V17.3996C23.4853 16.5303 23.3565 15.6602 23.0584 14.8421C22.9185 14.5592 22.718 14.3108 22.471 14.1144C22.224 13.9181 21.9367 13.7787 21.6296 13.7062C20.5342 13.4521 19.4099 13.344 18.2862 13.3847C18.2076 13.3847 18.1719 13.2704 18.1719 13.0346C18.1719 12.7989 18.2076 12.6846 18.2862 12.6846L21.1438 12.7417C22.7726 12.8179 24.0514 12.856 24.9801 12.856C26.0279 12.856 27.3639 12.8179 28.988 12.7417L31.717 12.6846C31.7932 12.6846 31.8313 12.8013 31.8313 13.0346C31.8313 13.268 31.7932 13.3847 31.717 13.3847C30.5932 13.344 29.469 13.4521 28.3736 13.7062C28.0638 13.7818 27.7748 13.9255 27.5276 14.127C27.2804 14.3284 27.0813 14.5825 26.9448 14.8706C26.6489 15.6992 26.5202 16.5782 26.5661 17.4568L26.5375 44.0755Z" fill="url(#paint0_linear_670_16060)"/>
<path d="M71.5879 42.8964C72.9538 43.2263 74.2282 43.8586 75.3171 44.7467C77.1555 46.2946 78.5009 48.676 79.3535 51.8908C79.3892 52.0051 79.5178 52.048 79.7321 52.0051C79.9464 51.9622 80.0536 51.8908 80.0536 51.7693L79.3392 45.2611C79.3286 44.9771 79.2903 44.6947 79.2249 44.4181C79.1048 44.2398 78.9461 44.0908 78.7605 43.9823C77.3552 43.1418 75.8233 42.5339 74.224 42.182C73.5811 42.0249 72.9095 41.9106 72.2166 41.8105L71.5879 42.8964Z" fill="url(#paint1_linear_670_16060)"/>
<path d="M83.047 64.3646C83.0282 64.3245 82.9991 64.2902 82.9627 64.2651C82.9263 64.24 82.8839 64.225 82.8398 64.2217C80.8633 64.336 79.0035 64.3931 77.2604 64.3931C75.441 64.3931 73.0382 64.2955 70.052 64.1002C70.0077 64.1028 69.965 64.1176 69.9285 64.1427C69.892 64.1679 69.863 64.2026 69.8448 64.2431C69.7872 64.3403 69.7576 64.4516 69.7591 64.5646C69.7591 64.8718 69.8734 65.0289 70.1092 65.0289C71.6705 64.964 73.2337 65.1009 74.7599 65.4362C75.1611 65.5359 75.5309 65.7346 75.8354 66.0141C76.14 66.2937 76.3695 66.6452 76.5031 67.0364C76.8395 68.4147 76.9767 69.8342 76.9103 71.2514C76.9103 73.809 76.3197 75.6402 75.1386 76.7452C73.9574 77.8501 71.9333 78.4026 69.0661 78.4026C64.9988 78.4026 61.5792 77.4739 58.8073 75.6164C56.1224 73.8547 53.9862 71.3745 52.642 68.4581C51.5972 66.1926 50.9519 63.7636 50.7345 61.2783L49.4272 63.4215L46.9268 61.9213C47.1603 64.6418 47.9817 67.2792 49.3343 69.6511C51.0172 72.5973 53.4922 75.0128 56.4783 76.6237C59.8687 78.4139 63.6616 79.3043 67.4944 79.2099C71.5303 79.1157 75.5444 78.5888 79.4679 77.6382C79.6568 77.5986 79.8348 77.5182 79.9894 77.4024C80.0832 77.2669 80.1239 77.1016 80.1037 76.9381C80.0663 76.4577 79.9971 75.9804 79.8965 75.5092C79.7305 74.2759 79.6637 73.0312 79.6965 71.7872C79.6673 70.235 79.7245 68.6823 79.8679 67.1364C79.8739 66.8009 79.9494 66.4702 80.0895 66.1653C80.2297 65.8603 80.4316 65.5877 80.6823 65.3647C81.3428 65.0269 82.0894 64.8951 82.8256 64.9861C83.0184 64.9861 83.1185 64.8503 83.1185 64.5789C83.1104 64.5031 83.086 64.43 83.047 64.3646Z" fill="url(#paint2_linear_670_16060)"/>
<path d="M95.234 -8.32598e-05L0 97.3516L0.766026 98.1009L96 0.749279L95.234 -8.32598e-05Z" fill="url(#paint3_linear_670_16060)"/>
<path d="M20.2937 103.528V109.958C20.2895 110.032 20.3014 110.106 20.3285 110.175C20.3557 110.244 20.3974 110.306 20.4509 110.358C20.5664 110.461 20.7177 110.515 20.8724 110.508H22.587C22.9686 110.519 23.3448 110.415 23.6657 110.208C23.9713 109.997 24.1897 109.682 24.2801 109.322C24.2934 109.266 24.3257 109.217 24.3714 109.184C24.4171 109.15 24.4733 109.133 24.5301 109.136C24.6587 109.136 24.7087 109.207 24.6945 109.35L24.5016 110.579C24.4883 110.707 24.43 110.826 24.3373 110.915C24.2884 110.96 24.2311 110.996 24.1686 111.019C24.1061 111.042 24.0396 111.053 23.9729 111.051H19.7794L18.4434 111.101C18.3363 111.101 18.2791 111.051 18.2791 110.943C18.2791 110.836 18.322 110.786 18.4077 110.786H18.7506C18.8937 110.777 19.0306 110.725 19.1435 110.636C19.1927 110.596 19.2318 110.544 19.2578 110.486C19.2839 110.428 19.2961 110.364 19.2936 110.3V103.571C19.2936 103.285 19.1126 103.128 18.7506 103.099H18.4077C18.3889 103.098 18.3706 103.092 18.354 103.083C18.3373 103.074 18.3226 103.062 18.3106 103.048C18.2987 103.033 18.2897 103.016 18.2843 102.998C18.2789 102.98 18.2771 102.961 18.2791 102.942C18.2769 102.92 18.2796 102.898 18.2871 102.877C18.2945 102.856 18.3066 102.837 18.3223 102.821C18.338 102.805 18.357 102.793 18.378 102.786C18.3989 102.778 18.4213 102.776 18.4434 102.778L19.7794 102.749L20.951 102.699C21.0724 102.699 21.1296 102.749 21.1296 102.842C21.1326 102.864 21.131 102.886 21.1249 102.907C21.1188 102.928 21.1084 102.948 21.0942 102.965C21.0801 102.982 21.0626 102.995 21.0428 103.005C21.0231 103.015 21.0015 103.02 20.9795 103.021H20.7795C20.4557 103.102 20.2937 103.271 20.2937 103.528Z" fill="url(#paint4_linear_670_16060)"/>
<path d="M30.0812 110.258C30.0732 110.31 30.0732 110.363 30.0812 110.415C30.0882 110.49 30.121 110.561 30.1741 110.615C30.2071 110.653 30.2478 110.683 30.2933 110.704C30.3388 110.725 30.3883 110.736 30.4384 110.736H30.6956C30.7956 110.736 30.8527 110.801 30.8527 110.886C30.8527 110.972 30.7956 111.051 30.6741 111.051L29.6454 111.001L28.5667 111.051C28.4523 111.051 28.4023 111.001 28.4023 110.894C28.4023 110.786 28.4452 110.736 28.5309 110.736H28.7524C28.9059 110.734 29.0554 110.687 29.1823 110.6C29.3093 110.514 29.4082 110.392 29.4668 110.251L32.5102 102.749C32.5102 102.656 32.6316 102.606 32.7888 102.606C32.946 102.606 33.0388 102.656 33.0817 102.749L36.1108 110.251C36.1587 110.392 36.25 110.516 36.3718 110.603C36.4936 110.69 36.6397 110.737 36.7894 110.736H37.0395C37.0569 110.737 37.074 110.741 37.089 110.75C37.104 110.759 37.1165 110.771 37.1252 110.786C37.1346 110.817 37.1346 110.849 37.1252 110.879C37.1252 111.001 37.0681 111.058 36.9609 111.058L35.5964 111.008L34.3748 111.058C34.2604 111.058 34.2104 111.008 34.2104 110.915C34.2104 110.822 34.2604 110.743 34.3533 110.736H34.6248C34.7231 110.731 34.8153 110.687 34.882 110.615C34.9393 110.563 34.975 110.492 34.982 110.415C34.9943 110.361 34.9943 110.305 34.982 110.251L34.2676 108.436C34.2561 108.397 34.231 108.363 34.197 108.341C34.163 108.319 34.1222 108.309 34.0819 108.315H31.0171C30.976 108.31 30.9347 108.32 30.8998 108.342C30.8649 108.364 30.8383 108.397 30.8242 108.436L30.0812 110.258ZM31.2099 107.75H33.8532C33.939 107.75 33.9676 107.7 33.939 107.607L32.5102 103.985L31.0814 107.636C31.0671 107.75 31.0956 107.75 31.2099 107.75Z" fill="url(#paint5_linear_670_16060)"/>
<path d="M44.3411 111.171C44.2886 111.178 44.2355 111.167 44.1893 111.142C44.1431 111.116 44.1062 111.076 44.0839 111.028L41.5264 103.527C41.4784 103.385 41.3871 103.262 41.2653 103.175C41.1435 103.088 40.9974 103.041 40.8477 103.041H40.5976C40.5802 103.041 40.5632 103.037 40.5481 103.028C40.5331 103.019 40.5206 103.007 40.5119 102.991C40.5025 102.961 40.5025 102.929 40.5119 102.899C40.5119 102.777 40.569 102.72 40.6762 102.72L41.8836 102.77L43.1981 102.72C43.3052 102.72 43.3624 102.77 43.3624 102.863C43.3624 102.956 43.3124 103.034 43.2195 103.041H42.948C42.8905 103.04 42.8336 103.053 42.7824 103.079C42.7312 103.105 42.6874 103.144 42.6551 103.191C42.6304 103.243 42.6176 103.299 42.6176 103.356C42.6176 103.413 42.6304 103.469 42.6551 103.52L44.5983 109.457L46.7415 102.849C46.7748 102.744 46.8653 102.691 47.013 102.691C47.1606 102.691 47.2511 102.744 47.2844 102.849L49.4277 109.457L51.3851 103.52C51.4104 103.468 51.4236 103.41 51.4236 103.352C51.4236 103.294 51.4104 103.237 51.3851 103.184C51.3512 103.137 51.3061 103.098 51.2538 103.072C51.2015 103.046 51.1436 103.033 51.0851 103.034H50.8207C50.7207 103.034 50.6707 102.97 50.6707 102.877C50.6707 102.784 50.7279 102.713 50.8493 102.713L51.8781 102.763L52.9568 102.713C52.9786 102.709 53.0008 102.711 53.0218 102.718C53.0428 102.724 53.062 102.735 53.0779 102.751C53.0938 102.766 53.106 102.785 53.1135 102.805C53.121 102.826 53.1236 102.848 53.1211 102.87C53.1211 102.977 53.0783 103.027 52.9925 103.027H52.7639C52.6093 103.025 52.4576 103.07 52.3298 103.157C52.2019 103.244 52.104 103.368 52.0495 103.513L49.4777 111.014C49.4777 111.107 49.3634 111.157 49.2276 111.157C49.1752 111.164 49.122 111.153 49.0758 111.127C49.0296 111.102 48.9927 111.062 48.9704 111.014L46.7915 104.535L44.6126 111.014C44.5626 111.121 44.4768 111.171 44.3411 111.171Z" fill="url(#paint6_linear_670_16060)"/>
<path d="M61.5005 102.62C62.1137 102.612 62.7241 102.704 63.3079 102.892C63.8509 103.073 64.1224 103.251 64.1224 103.428V104.778C64.1219 104.834 64.1045 104.889 64.0723 104.935C64.0586 104.959 64.0388 104.979 64.015 104.992C63.9912 105.006 63.9641 105.014 63.9366 105.014C63.8009 105.014 63.7151 104.935 63.6794 104.778C63.5617 104.286 63.2824 103.849 62.8864 103.535C62.495 103.231 62.0103 103.072 61.5148 103.085C61.0768 103.067 60.6402 103.146 60.2363 103.316C59.8324 103.486 59.4712 103.744 59.1787 104.071C58.5836 104.765 58.2723 105.658 58.3071 106.571C58.3068 107.232 58.4405 107.885 58.7 108.493C58.943 109.085 59.3282 109.607 59.8216 110.014C60.2689 110.399 60.8389 110.612 61.429 110.615C61.9507 110.632 62.4671 110.506 62.9222 110.25C63.327 110.007 63.5294 109.752 63.5294 109.486V108.014C63.5294 107.714 63.3508 107.557 62.9936 107.543H62.3506C62.2649 107.543 62.222 107.485 62.222 107.385C62.222 107.285 62.272 107.228 62.3721 107.228L63.9795 107.278L65.1511 107.228C65.2654 107.228 65.3154 107.278 65.3154 107.371C65.3154 107.464 65.2654 107.543 65.1725 107.55H64.9725C64.6581 107.607 64.501 107.764 64.501 108.021V110.307L64.5724 110.972C64.5724 111.115 64.5129 111.186 64.3938 111.186C64.3467 111.184 64.3013 111.167 64.2633 111.139C64.2252 111.111 64.1961 111.073 64.1795 111.029C64.134 110.9 64.0484 110.789 63.9354 110.712C63.8223 110.634 63.6876 110.595 63.5508 110.6C63.4234 110.624 63.302 110.672 63.1936 110.743C62.3977 111.136 61.4994 111.272 60.6229 111.133C59.7463 110.993 58.9346 110.585 58.3 109.964C57.5262 109.135 57.1126 108.033 57.1498 106.9C57.1322 106.335 57.2302 105.772 57.4378 105.246C57.6454 104.72 57.9583 104.243 58.3571 103.842C58.7695 103.434 59.2613 103.115 59.802 102.905C60.3427 102.695 60.9208 102.598 61.5005 102.62Z" fill="url(#paint7_linear_670_16060)"/>
<path d="M69.8241 111.086C69.7098 111.086 69.6598 111.036 69.6598 110.936C69.6568 110.916 69.6577 110.896 69.6626 110.876C69.6674 110.857 69.6761 110.839 69.6881 110.823C69.7001 110.807 69.7151 110.793 69.7323 110.783C69.7495 110.773 69.7686 110.767 69.7884 110.764H69.9884C70.3123 110.726 70.4742 110.564 70.4742 110.278V103.549C70.4742 103.263 70.2932 103.106 69.9313 103.077H69.5884C69.5696 103.075 69.5513 103.07 69.5346 103.061C69.518 103.052 69.5032 103.04 69.4913 103.025C69.4793 103.011 69.4704 102.994 69.465 102.976C69.4596 102.958 69.4578 102.939 69.4598 102.92C69.4575 102.898 69.4603 102.875 69.4677 102.855C69.4752 102.834 69.4872 102.815 69.503 102.799C69.5187 102.783 69.5377 102.771 69.5587 102.764C69.5796 102.756 69.602 102.753 69.6241 102.756L70.96 102.806L72.1316 102.756C72.2507 102.756 72.3102 102.803 72.3102 102.899C72.3133 102.921 72.3115 102.944 72.305 102.965C72.2985 102.987 72.2874 103.007 72.2725 103.024C72.2576 103.041 72.2392 103.054 72.2186 103.063C72.198 103.073 72.1756 103.077 72.1531 103.077H71.953C71.6387 103.134 71.4815 103.291 71.4815 103.549V110.278C71.479 110.342 71.4912 110.406 71.5173 110.464C71.5433 110.522 71.5824 110.573 71.6316 110.614C71.7405 110.7 71.8721 110.752 72.0102 110.764H72.3531C72.446 110.764 72.496 110.814 72.496 110.914C72.4965 110.937 72.4917 110.961 72.4817 110.982C72.4718 111.003 72.4571 111.021 72.4388 111.036C72.4088 111.067 72.3677 111.085 72.3245 111.086L70.9886 111.036L69.8241 111.086Z" fill="url(#paint8_linear_670_16060)"/>
<path d="M83.8828 104.771C83.8823 104.827 83.8649 104.882 83.8328 104.928C83.819 104.952 83.7992 104.972 83.7754 104.986C83.7516 104.999 83.7246 105.007 83.697 105.007C83.5613 105.007 83.4756 104.928 83.4327 104.771C83.3149 104.28 83.0357 103.842 82.6397 103.528C82.2483 103.224 81.7636 103.065 81.2681 103.078C80.8385 103.06 80.4105 103.14 80.0159 103.31C79.6213 103.481 79.2703 103.739 78.9891 104.064C78.4068 104.766 78.1041 105.659 78.139 106.571C78.1269 107.552 78.441 108.51 79.032 109.293C79.2782 109.66 79.6109 109.961 80.0009 110.169C80.3909 110.377 80.8261 110.486 81.2681 110.486C81.6596 110.503 82.0511 110.452 82.4254 110.336L82.9469 110.122C83.0682 110.061 83.1852 109.992 83.297 109.915L83.5327 109.758C83.6756 109.672 83.7732 109.658 83.8256 109.715C83.8752 109.759 83.9059 109.82 83.9113 109.886C83.9052 109.956 83.8718 110.02 83.8185 110.065C83.5846 110.338 83.304 110.568 82.9898 110.743C82.4219 111.032 81.7907 111.175 81.1537 111.158C80.5967 111.178 80.0417 111.08 79.5256 110.869C79.0095 110.658 78.5441 110.34 78.1604 109.936C77.3866 109.107 76.973 108.005 77.0102 106.871C76.9912 106.309 77.0852 105.749 77.2864 105.224C77.4876 104.699 77.7921 104.219 78.1818 103.814C78.5853 103.409 79.0687 103.092 79.6013 102.884C80.1339 102.676 80.704 102.582 81.2752 102.606C81.8884 102.598 82.4989 102.69 83.0826 102.878C83.6256 103.059 83.8971 103.237 83.8971 103.414L83.8828 104.771Z" fill="url(#paint9_linear_670_16060)"/>
<path d="M24.3301 119.967H25.4945C25.5374 119.967 25.566 119.967 25.566 120.031V120.303C25.566 120.345 25.566 120.367 25.4945 120.367H24.3443C24.3015 120.367 24.2729 120.367 24.2729 120.303V120.031C24.2586 119.988 24.28 119.967 24.3301 119.967Z" fill="url(#paint10_linear_670_16060)"/>
<path d="M27.5807 118.223V121.324C27.5792 121.36 27.5854 121.396 27.5989 121.429C27.6125 121.462 27.6331 121.492 27.6593 121.517C27.7143 121.565 27.7859 121.591 27.8593 121.588H28.688C28.8723 121.595 29.0543 121.545 29.2095 121.445C29.3602 121.346 29.4674 121.192 29.5096 121.017C29.5148 120.989 29.5301 120.964 29.5525 120.947C29.5749 120.93 29.6029 120.922 29.631 120.924C29.6882 120.924 29.7168 120.924 29.7096 121.024L29.6167 121.617C29.6108 121.679 29.583 121.737 29.5382 121.781C29.5142 121.803 29.4861 121.82 29.4554 121.831C29.4247 121.842 29.3921 121.847 29.3596 121.845H27.3307H26.6877C26.6305 121.845 26.6091 121.845 26.6091 121.767C26.6091 121.688 26.6091 121.688 26.6734 121.688H26.8377C26.9052 121.683 26.9698 121.658 27.0235 121.617C27.0473 121.597 27.0662 121.572 27.0786 121.543C27.091 121.515 27.0966 121.484 27.0949 121.453V118.209C27.0949 118.071 27.0068 117.995 26.8306 117.981H26.6663C26.6486 117.979 26.6322 117.97 26.6203 117.957C26.6084 117.944 26.6019 117.927 26.602 117.909C26.6008 117.898 26.6021 117.888 26.6056 117.878C26.6092 117.868 26.615 117.859 26.6225 117.851C26.63 117.843 26.6391 117.838 26.6492 117.834C26.6592 117.831 26.67 117.829 26.6805 117.83H27.3235H27.8879C27.945 117.83 27.9736 117.83 27.9736 117.902C27.9736 117.973 27.9736 117.988 27.9022 117.988H27.8022C27.6545 118.016 27.5807 118.095 27.5807 118.223Z" fill="url(#paint11_linear_670_16060)"/>
<path d="M31.082 121.467C31.0777 121.493 31.0777 121.519 31.082 121.545C31.0839 121.583 31.0991 121.618 31.1249 121.646C31.141 121.664 31.1609 121.678 31.183 121.688C31.2052 121.698 31.2292 121.703 31.2535 121.703H31.3821C31.4321 121.703 31.4535 121.703 31.4535 121.774C31.4535 121.846 31.4535 121.853 31.3678 121.853H30.8677H30.3462C30.289 121.853 30.2676 121.853 30.2676 121.774C30.2676 121.696 30.2676 121.696 30.3319 121.696H30.439C30.5105 121.691 30.5793 121.667 30.6375 121.625C30.6956 121.583 30.7408 121.526 30.7677 121.46L32.2393 117.845C32.2393 117.802 32.2965 117.773 32.3751 117.773C32.4537 117.773 32.4965 117.773 32.518 117.845L33.9468 121.46C33.9695 121.529 34.0135 121.589 34.0726 121.631C34.1317 121.674 34.2027 121.696 34.2754 121.696H34.3968C34.4035 121.692 34.4109 121.691 34.4183 121.691C34.4257 121.691 34.433 121.692 34.4397 121.696C34.4437 121.71 34.4437 121.724 34.4397 121.738C34.4397 121.796 34.4135 121.824 34.3611 121.824H33.7039H33.1181C33.0609 121.824 33.0395 121.824 33.0395 121.753C33.0395 121.681 33.0395 121.674 33.1109 121.667H33.2395C33.2857 121.664 33.329 121.643 33.3609 121.61C33.3899 121.584 33.4078 121.548 33.411 121.51C33.417 121.484 33.417 121.457 33.411 121.431L33.0752 120.56C33.0687 120.541 33.056 120.525 33.039 120.514C33.0221 120.504 33.002 120.5 32.9823 120.502H31.5035C31.4838 120.5 31.4638 120.504 31.4468 120.514C31.4299 120.525 31.4171 120.541 31.4106 120.56L31.082 121.467ZM31.6107 120.274H32.8823C32.9252 120.274 32.9394 120.274 32.9252 120.202L32.2108 118.452L31.4964 120.21C31.5535 120.252 31.5678 120.274 31.6107 120.274Z" fill="url(#paint12_linear_670_16060)"/>
<path d="M36.7328 121.911C36.7065 121.914 36.6797 121.91 36.6565 121.897C36.6332 121.884 36.6149 121.864 36.6042 121.839L35.3683 118.224C35.3456 118.155 35.3015 118.095 35.2424 118.053C35.1834 118.01 35.1124 117.988 35.0397 117.989H34.9182C34.9115 117.992 34.9042 117.993 34.8968 117.993C34.8894 117.993 34.8821 117.992 34.8754 117.989C34.871 117.975 34.871 117.96 34.8754 117.946C34.8754 117.889 34.9016 117.86 34.9539 117.86H35.5398H36.1756C36.2327 117.86 36.2542 117.86 36.2542 117.931C36.2542 118.003 36.2542 118.017 36.1827 118.017H36.0541C36.0262 118.016 35.9984 118.022 35.9734 118.034C35.9484 118.047 35.927 118.066 35.9112 118.089C35.8998 118.113 35.8938 118.14 35.8938 118.167C35.8938 118.194 35.8998 118.221 35.9112 118.246L36.8471 121.103L37.8901 117.917C37.8901 117.867 37.9473 117.846 38.0187 117.846C38.0902 117.846 38.133 117.846 38.1473 117.917L39.1904 121.103L40.1334 118.246C40.1455 118.22 40.1517 118.192 40.1517 118.164C40.1517 118.135 40.1455 118.107 40.1334 118.081C40.1165 118.058 40.0938 118.039 40.0676 118.026C40.0413 118.014 40.0124 118.008 39.9833 118.01H39.8548C39.8047 118.01 39.7833 118.01 39.7833 117.939C39.7833 117.867 39.7833 117.86 39.869 117.86H40.3691H40.8906C40.9012 117.859 40.9119 117.86 40.922 117.864C40.932 117.867 40.9412 117.873 40.9487 117.881C40.9562 117.888 40.962 117.897 40.9655 117.907C40.9691 117.917 40.9704 117.928 40.9692 117.939C40.9692 117.989 40.9692 118.017 40.9049 118.017H40.7978C40.7258 118.02 40.6562 118.043 40.5977 118.085C40.5392 118.127 40.4945 118.186 40.4691 118.253L39.2261 121.868C39.2261 121.911 39.1689 121.939 39.1046 121.939C39.0783 121.943 39.0515 121.938 39.0283 121.925C39.0051 121.912 38.9867 121.892 38.976 121.868L37.9259 118.739L36.8757 121.868C36.8328 121.882 36.7971 121.911 36.7328 121.911Z" fill="url(#paint13_linear_670_16060)"/>
<path d="M46.8055 118.823C46.8132 118.849 46.8132 118.876 46.8055 118.902C46.7985 118.913 46.789 118.921 46.7778 118.928C46.7666 118.934 46.754 118.937 46.7412 118.937C46.6769 118.937 46.634 118.902 46.6126 118.823C46.5547 118.586 46.4189 118.374 46.2268 118.223C46.0363 118.078 45.8019 118.002 45.5624 118.009C45.3554 118 45.149 118.037 44.9585 118.119C44.768 118.201 44.5984 118.324 44.4623 118.48C44.181 118.821 44.0359 119.254 44.055 119.695C44.0488 120.168 44.1995 120.63 44.4837 121.009C44.6022 121.187 44.7626 121.333 44.9507 121.434C45.1388 121.534 45.3489 121.587 45.5624 121.588C45.7509 121.596 45.9394 121.572 46.1197 121.516L46.3697 121.416L46.5412 121.316L46.6555 121.245C46.7269 121.202 46.7698 121.195 46.7984 121.245C46.8109 121.256 46.8212 121.269 46.8286 121.283C46.836 121.298 46.8403 121.314 46.8412 121.331C46.8385 121.364 46.8232 121.394 46.7984 121.416C46.6861 121.549 46.5505 121.661 46.3983 121.745C46.1244 121.885 45.8198 121.954 45.5124 121.945C45.2465 121.953 44.9818 121.905 44.7356 121.805C44.4894 121.704 44.2672 121.552 44.0836 121.359C43.7098 120.959 43.5094 120.428 43.5264 119.881C43.5179 119.61 43.5635 119.341 43.6604 119.088C43.7573 118.835 43.9036 118.604 44.0908 118.409C44.2852 118.213 44.5185 118.059 44.7755 117.958C45.0326 117.858 45.3079 117.811 45.5839 117.823C45.8794 117.818 46.1738 117.862 46.4554 117.952C46.7198 118.037 46.8484 118.123 46.8484 118.209L46.8055 118.823Z" fill="url(#paint14_linear_670_16060)"/>
<path d="M49.8843 117.751C50.1491 117.742 50.4131 117.787 50.6591 117.886C50.9052 117.984 51.128 118.133 51.3131 118.323C51.6681 118.735 51.8634 119.261 51.8634 119.805C51.8634 120.349 51.6681 120.875 51.3131 121.288C50.927 121.653 50.4158 121.856 49.8843 121.856C49.3528 121.856 48.8415 121.653 48.4555 121.288C48.0982 120.878 47.9014 120.352 47.9014 119.809C47.9014 119.265 48.0982 118.74 48.4555 118.33C48.6405 118.14 48.8631 117.99 49.1091 117.89C49.355 117.791 49.619 117.743 49.8843 117.751ZM51.0059 118.651C50.8975 118.459 50.7397 118.298 50.5487 118.187C50.3317 118.063 50.0839 118.004 49.8343 118.016C49.634 118.003 49.4335 118.035 49.2471 118.109C49.0606 118.184 48.8928 118.298 48.7555 118.444C48.4889 118.769 48.3538 119.182 48.3769 119.602C48.3692 120.076 48.4875 120.545 48.7198 120.959C48.8327 121.162 48.9987 121.33 49.2001 121.446C49.4015 121.562 49.6306 121.621 49.8629 121.616C50.061 121.626 50.259 121.592 50.442 121.515C50.6251 121.439 50.7885 121.322 50.9202 121.173C51.1872 120.832 51.3217 120.406 51.2988 119.973C51.3165 119.524 51.2155 119.078 51.0059 118.68V118.651Z" fill="url(#paint15_linear_670_16060)"/>
<path d="M57.9934 121.788C57.9973 121.797 57.9993 121.807 57.9993 121.816C57.9993 121.826 57.9973 121.836 57.9934 121.845C57.9771 121.85 57.9596 121.85 57.9433 121.845H57.3004H56.736C56.686 121.845 56.6574 121.845 56.6574 121.774C56.6554 121.764 56.6554 121.753 56.6576 121.744C56.6598 121.734 56.6641 121.724 56.6702 121.716C56.6763 121.708 56.684 121.701 56.6929 121.697C56.7018 121.692 56.7116 121.689 56.7217 121.688H56.8217C56.9789 121.688 57.0646 121.588 57.0646 121.452L57.0218 118.752C57.0218 118.716 57.0218 118.695 57.0218 118.695L55.4644 121.802C55.4644 121.802 55.4215 121.852 55.3929 121.852C55.3784 121.851 55.3644 121.846 55.353 121.837C55.3415 121.828 55.333 121.816 55.3286 121.802L53.7712 118.787C53.7712 118.787 53.7712 118.787 53.7712 118.845V121.459C53.7712 121.588 53.8474 121.664 53.9998 121.688H54.0927C54.1123 121.69 54.1305 121.699 54.1437 121.713C54.1569 121.728 54.1642 121.747 54.1641 121.766C54.1641 121.814 54.1356 121.838 54.0784 121.838H53.6069H53.0497C52.9973 121.838 52.9711 121.814 52.9711 121.766C52.9701 121.757 52.971 121.748 52.9737 121.739C52.9764 121.729 52.9809 121.721 52.9868 121.714C52.9928 121.706 53.0002 121.7 53.0085 121.696C53.0169 121.692 53.026 121.689 53.0354 121.688H53.1997C53.3759 121.688 53.464 121.612 53.464 121.459L53.5355 118.216C53.5355 118.08 53.464 118.009 53.3069 117.987H53.2068C53.1965 117.986 53.1865 117.983 53.1773 117.979C53.1681 117.974 53.1599 117.967 53.1533 117.959C53.1466 117.951 53.1416 117.942 53.1386 117.932C53.1355 117.922 53.1344 117.912 53.1354 117.902C53.1354 117.852 53.1354 117.83 53.2211 117.83H53.7212C53.8498 117.83 53.9355 117.873 53.9641 117.944L55.5787 121.145L57.1575 117.944C57.1575 117.873 57.2789 117.837 57.4075 117.83H57.9148C57.9719 117.83 58.0076 117.83 58.0076 117.902C58.0098 117.912 58.0095 117.923 58.0069 117.933C58.0043 117.944 57.9994 117.953 57.9925 117.962C57.9857 117.97 57.977 117.976 57.9673 117.981C57.9575 117.985 57.9469 117.987 57.9362 117.987H57.8362C57.8059 117.985 57.7755 117.989 57.7471 118C57.7187 118.011 57.693 118.028 57.6719 118.05C57.6508 118.072 57.6347 118.098 57.6248 118.126C57.6149 118.155 57.6115 118.186 57.6147 118.216L57.6862 121.459C57.6845 121.49 57.6901 121.521 57.7025 121.55C57.7149 121.578 57.7337 121.604 57.7576 121.624C57.8087 121.665 57.8709 121.69 57.9362 121.695H58.1005C57.9719 121.709 57.9934 121.738 57.9934 121.788Z" fill="url(#paint16_linear_670_16060)"/>
<path d="M60.4573 117.844C60.8248 117.821 61.1889 117.927 61.4861 118.145C61.6059 118.24 61.7018 118.362 61.7663 118.501C61.8308 118.64 61.862 118.792 61.8575 118.945C61.8614 119.1 61.8314 119.255 61.7698 119.398C61.7081 119.541 61.6162 119.669 61.5003 119.773C61.233 120.003 60.8876 120.12 60.5359 120.102H59.8644C59.8072 120.102 59.7786 120.102 59.7786 120.173V121.459C59.7775 121.49 59.7833 121.521 59.7957 121.55C59.808 121.578 59.8266 121.603 59.8501 121.624C59.902 121.668 59.9676 121.693 60.0358 121.695H60.2787C60.3216 121.695 60.343 121.695 60.343 121.774C60.3441 121.784 60.3429 121.795 60.3393 121.805C60.3358 121.815 60.33 121.824 60.3225 121.832C60.3149 121.839 60.3058 121.845 60.2958 121.849C60.2857 121.852 60.275 121.853 60.2644 121.852H59.55H58.9142C58.857 121.852 58.8285 121.852 58.8285 121.781C58.8285 121.709 58.8285 121.702 58.8999 121.695H59.0642C59.2214 121.695 59.3 121.617 59.3 121.459V118.216C59.3 118.08 59.2142 118.002 59.0356 117.987H58.8713C58.8537 117.986 58.8373 117.977 58.8254 117.964C58.8135 117.951 58.807 117.934 58.807 117.916C58.8059 117.905 58.8072 117.895 58.8107 117.885C58.8143 117.874 58.82 117.865 58.8276 117.858C58.8351 117.85 58.8442 117.845 58.8543 117.841C58.8643 117.837 58.875 117.836 58.8856 117.837H59.6715L60.4573 117.844ZM61.0717 119.602C61.1564 119.52 61.223 119.421 61.2673 119.311C61.3115 119.202 61.3325 119.084 61.3289 118.966C61.3333 118.849 61.3127 118.732 61.2683 118.624C61.2239 118.515 61.1569 118.418 61.0717 118.337C60.8729 118.169 60.6176 118.082 60.3573 118.095H60.0144C59.9832 118.09 59.9514 118.092 59.9214 118.102C59.8915 118.112 59.8642 118.128 59.8419 118.151C59.8197 118.173 59.803 118.2 59.7932 118.23C59.7834 118.26 59.7809 118.292 59.7858 118.323V119.752C59.7858 119.802 59.7858 119.823 59.8501 119.823H60.3573C60.615 119.844 60.8708 119.765 61.0717 119.602Z" fill="url(#paint17_linear_670_16060)"/>
<path d="M63.2793 121.467C63.275 121.493 63.275 121.519 63.2793 121.545C63.2812 121.583 63.2964 121.618 63.3221 121.646C63.3383 121.664 63.3581 121.678 63.3803 121.688C63.4025 121.698 63.4265 121.703 63.4507 121.703H63.5793C63.6293 121.703 63.6508 121.703 63.6508 121.774C63.6508 121.846 63.6507 121.853 63.565 121.853H63.0649H62.5434C62.4863 121.853 62.4648 121.853 62.4648 121.774C62.4648 121.696 62.4648 121.696 62.5291 121.696H62.6363C62.7078 121.691 62.7766 121.667 62.8347 121.625C62.8929 121.583 62.938 121.526 62.9649 121.46L64.4366 117.845C64.4366 117.802 64.4937 117.773 64.5723 117.773C64.6509 117.773 64.6938 117.773 64.7152 117.845L66.144 121.46C66.1667 121.529 66.2108 121.589 66.2699 121.631C66.329 121.674 66.4 121.696 66.4727 121.696H66.5941C66.6008 121.692 66.6081 121.691 66.6155 121.691C66.6229 121.691 66.6303 121.692 66.637 121.696C66.6409 121.71 66.6409 121.724 66.637 121.738C66.637 121.796 66.6108 121.824 66.5584 121.824H65.9011H65.3153C65.2582 121.824 65.2367 121.824 65.2367 121.753C65.2367 121.681 65.2367 121.674 65.3082 121.667H65.4368C65.4831 121.664 65.5267 121.644 65.5582 121.61C65.5872 121.584 65.6051 121.548 65.6082 121.51C65.6143 121.484 65.6143 121.457 65.6082 121.431L65.2724 120.56C65.266 120.541 65.2532 120.525 65.2363 120.514C65.2193 120.504 65.1993 120.5 65.1796 120.502H63.7008C63.6811 120.5 63.661 120.504 63.6441 120.514C63.6271 120.525 63.6143 120.541 63.6079 120.56L63.2793 121.467ZM63.8079 120.274H65.0796C65.1224 120.274 65.1367 120.274 65.1224 120.202L64.408 118.452L63.6936 120.21C63.7508 120.252 63.7651 120.274 63.8079 120.274Z" fill="url(#paint18_linear_670_16060)"/>
<path d="M70.6024 120.995V118.223C70.6024 118.09 70.5167 118.014 70.3453 117.995H70.1809C70.1715 117.994 70.1624 117.991 70.1541 117.987C70.1458 117.982 70.1384 117.976 70.1324 117.969C70.1264 117.962 70.122 117.953 70.1192 117.944C70.1165 117.935 70.1157 117.926 70.1167 117.916C70.1167 117.873 70.1167 117.845 70.1952 117.845H70.7525H71.1954C71.2525 117.845 71.2811 117.845 71.2811 117.916C71.2812 117.936 71.2739 117.955 71.2607 117.969C71.2475 117.984 71.2293 117.993 71.2097 117.995H71.1097C70.9573 118.023 70.8811 118.1 70.8811 118.223V121.838C70.8811 121.881 70.8811 121.91 70.8168 121.91H70.7453C70.6969 121.908 70.6495 121.895 70.6072 121.872C70.5649 121.848 70.5289 121.815 70.5024 121.774L68.0949 118.695C68.0949 118.695 68.0949 118.695 68.0949 118.752V121.481C68.0949 121.61 68.1735 121.681 68.3235 121.71H68.4235C68.4431 121.711 68.4613 121.721 68.4745 121.735C68.4877 121.75 68.495 121.769 68.495 121.788C68.495 121.836 68.4664 121.86 68.4092 121.86H67.9663H67.4091C67.3567 121.86 67.3305 121.836 67.3305 121.788C67.3295 121.779 67.3304 121.769 67.3331 121.76C67.3358 121.751 67.3403 121.743 67.3462 121.736C67.3522 121.728 67.3596 121.722 67.3679 121.718C67.3762 121.713 67.3854 121.711 67.3948 121.71H67.5591C67.7377 121.71 67.8234 121.617 67.8234 121.481V118.238C67.8234 118.104 67.7472 118.028 67.5948 118.009H67.4948C67.4841 118.009 67.4734 118.007 67.4637 118.003C67.4539 117.998 67.4453 117.992 67.4385 117.983C67.4316 117.975 67.4267 117.965 67.4241 117.955C67.4214 117.945 67.4212 117.934 67.4233 117.923C67.4233 117.873 67.4233 117.852 67.5091 117.852H67.9663C68.0133 117.85 68.06 117.859 68.1032 117.878C68.1464 117.896 68.185 117.924 68.2163 117.959L70.6024 121.017H70.6453C70.6453 121.017 70.6024 121.017 70.6024 120.995Z" fill="url(#paint19_linear_670_16060)"/>
<path d="M75.9249 117.823C75.9749 117.823 76.0035 117.823 76.0035 117.895C76.0045 117.904 76.0036 117.914 76.0009 117.923C75.9982 117.932 75.9937 117.94 75.9878 117.947C75.9818 117.955 75.9744 117.961 75.9661 117.965C75.9577 117.97 75.9486 117.972 75.9392 117.973H75.7749C75.706 117.983 75.6404 118.009 75.5833 118.048C75.5262 118.088 75.4793 118.141 75.4463 118.202L74.3318 119.988C74.2854 120.071 74.2585 120.164 74.2532 120.259V121.452C74.2515 121.483 74.2571 121.514 74.2695 121.543C74.2819 121.571 74.3008 121.597 74.3247 121.617C74.3782 121.658 74.4428 121.683 74.5104 121.688H74.6747C74.7176 121.688 74.7462 121.688 74.7462 121.76C74.7501 121.769 74.7521 121.778 74.7521 121.788C74.7521 121.798 74.7501 121.808 74.7462 121.817C74.7278 121.824 74.7074 121.824 74.689 121.817H74.0461H73.4745C73.4174 121.817 73.3959 121.817 73.3959 121.745C73.3939 121.735 73.394 121.725 73.3962 121.715C73.3984 121.705 73.4027 121.696 73.4087 121.688C73.4148 121.68 73.4226 121.673 73.4314 121.668C73.4403 121.663 73.4501 121.66 73.4602 121.66H73.5603C73.7174 121.66 73.796 121.581 73.796 121.424V120.309C73.7971 120.239 73.7799 120.17 73.746 120.109L72.5029 118.18C72.47 118.119 72.423 118.067 72.3659 118.027C72.3088 117.987 72.2432 117.961 72.1743 117.952H72.01C72.0006 117.951 71.9915 117.948 71.9831 117.944C71.9748 117.939 71.9674 117.933 71.9615 117.926C71.9555 117.919 71.951 117.91 71.9483 117.901C71.9456 117.892 71.9447 117.883 71.9457 117.873C71.9457 117.83 71.9457 117.802 72.0243 117.802H72.7387H73.3459C73.4031 117.802 73.4317 117.802 73.4317 117.873C73.4327 117.883 73.4316 117.893 73.4284 117.903C73.4253 117.912 73.4202 117.921 73.4134 117.928C73.4067 117.936 73.3985 117.942 73.3893 117.946C73.3801 117.95 73.3702 117.952 73.3602 117.952H73.2531C73.2246 117.952 73.1968 117.96 73.1728 117.975C73.1487 117.99 73.1295 118.012 73.1173 118.038C73.1047 118.058 73.098 118.081 73.098 118.105C73.098 118.129 73.1047 118.153 73.1173 118.173L74.1103 119.809C74.1103 119.809 74.1103 119.852 74.1603 119.852C74.1683 119.855 74.1768 119.857 74.1854 119.857C74.1939 119.857 74.2024 119.855 74.2104 119.852L75.1891 118.209C75.2018 118.189 75.2085 118.165 75.2085 118.141C75.2085 118.117 75.2018 118.094 75.1891 118.073C75.1757 118.049 75.1562 118.028 75.1324 118.013C75.1086 117.998 75.0814 117.989 75.0534 117.987H74.9462C74.889 117.987 74.8676 117.987 74.8748 117.902C74.8756 117.891 74.8786 117.881 74.8834 117.872C74.8882 117.863 74.8948 117.855 74.9027 117.848C74.9107 117.842 74.9199 117.837 74.9298 117.833C74.9397 117.83 74.9502 117.829 74.9605 117.83H75.4034L75.9249 117.823Z" fill="url(#paint20_linear_670_16060)"/>
<path d="M76.9318 119.967H78.082C78.1296 119.967 78.1534 119.988 78.1534 120.031V120.303C78.1534 120.345 78.1296 120.367 78.082 120.367H76.9318C76.8842 120.367 76.8604 120.345 76.8604 120.303V120.031C76.8604 119.988 76.8842 119.967 76.9318 119.967Z" fill="url(#paint21_linear_670_16060)"/>
<defs>
<linearGradient id="paint0_linear_670_16060" x1="1.47625" y1="10.7843" x2="53.392" y2="55.0773" gradientUnits="userSpaceOnUse">
<stop stop-color="#D6B07C"/>
<stop offset="0.03" stop-color="#CAA26E"/>
<stop offset="0.16" stop-color="#A27341"/>
<stop offset="0.25" stop-color="#895625"/>
<stop offset="0.31" stop-color="#804B1A"/>
<stop offset="0.37" stop-color="#885423"/>
<stop offset="0.47" stop-color="#9E6E3C"/>
<stop offset="0.6" stop-color="#C19864"/>
<stop offset="0.66" stop-color="#D6B07C"/>
<stop offset="0.7" stop-color="#E5C89D"/>
<stop offset="0.75" stop-color="#F8E4C4"/>
<stop offset="0.79" stop-color="#E4C599"/>
<stop offset="0.82" stop-color="#D6B07C"/>
<stop offset="0.84" stop-color="#CCA471"/>
<stop offset="0.95" stop-color="#9C6E3D"/>
<stop offset="1" stop-color="#8A5929"/>
</linearGradient>
<linearGradient id="paint1_linear_670_16060" x1="77.0531" y1="46.0898" x2="29.5452" y2="2.51122" gradientUnits="userSpaceOnUse">
<stop stop-color="#D6B07C"/>
<stop offset="0.03" stop-color="#CAA26E"/>
<stop offset="0.16" stop-color="#A27341"/>
<stop offset="0.25" stop-color="#895625"/>
<stop offset="0.31" stop-color="#804B1A"/>
<stop offset="0.37" stop-color="#885423"/>
<stop offset="0.47" stop-color="#9E6E3C"/>
<stop offset="0.6" stop-color="#C19864"/>
<stop offset="0.66" stop-color="#D6B07C"/>
<stop offset="0.7" stop-color="#E5C89D"/>
<stop offset="0.75" stop-color="#F8E4C4"/>
<stop offset="0.79" stop-color="#E4C599"/>
<stop offset="0.82" stop-color="#D6B07C"/>
<stop offset="0.84" stop-color="#CCA471"/>
<stop offset="0.95" stop-color="#9C6E3D"/>
<stop offset="1" stop-color="#8A5929"/>
</linearGradient>
<linearGradient id="paint2_linear_670_16060" x1="46.9053" y1="70.2441" x2="83.1399" y2="70.2441" gradientUnits="userSpaceOnUse">
<stop stop-color="#D6B07C"/>
<stop offset="0.03" stop-color="#CAA26E"/>
<stop offset="0.16" stop-color="#A27341"/>
<stop offset="0.25" stop-color="#895625"/>
<stop offset="0.31" stop-color="#804B1A"/>
<stop offset="0.37" stop-color="#885423"/>
<stop offset="0.47" stop-color="#9E6E3C"/>
<stop offset="0.6" stop-color="#C19864"/>
<stop offset="0.66" stop-color="#D6B07C"/>
<stop offset="0.7" stop-color="#E5C89D"/>
<stop offset="0.75" stop-color="#F8E4C4"/>
<stop offset="0.79" stop-color="#E4C599"/>
<stop offset="0.82" stop-color="#D6B07C"/>
<stop offset="0.84" stop-color="#CCA471"/>
<stop offset="0.95" stop-color="#9C6E3D"/>
<stop offset="1" stop-color="#8A5929"/>
</linearGradient>
<linearGradient id="paint3_linear_670_16060" x1="-0.0183982" y1="49.0412" x2="96.0261" y2="49.0412" gradientUnits="userSpaceOnUse">
<stop stop-color="#D6B07C"/>
<stop offset="0.03" stop-color="#CAA26E"/>
<stop offset="0.16" stop-color="#A27341"/>
<stop offset="0.25" stop-color="#895625"/>
<stop offset="0.31" stop-color="#804B1A"/>
<stop offset="0.37" stop-color="#885423"/>
<stop offset="0.47" stop-color="#9E6E3C"/>
<stop offset="0.6" stop-color="#C19864"/>
<stop offset="0.66" stop-color="#D6B07C"/>
<stop offset="0.7" stop-color="#E5C89D"/>
<stop offset="0.75" stop-color="#F8E4C4"/>
<stop offset="0.79" stop-color="#E4C599"/>
<stop offset="0.82" stop-color="#D6B07C"/>
<stop offset="0.84" stop-color="#CCA471"/>
<stop offset="0.95" stop-color="#9C6E3D"/>
<stop offset="1" stop-color="#8A5929"/>
</linearGradient>
<linearGradient id="paint4_linear_670_16060" x1="15.5358" y1="105.878" x2="82.6898" y2="122.31" gradientUnits="userSpaceOnUse">
<stop stop-color="#D6B07C"/>
<stop offset="0.03" stop-color="#CAA26E"/>
<stop offset="0.16" stop-color="#A27341"/>
<stop offset="0.25" stop-color="#895625"/>
<stop offset="0.31" stop-color="#804B1A"/>
<stop offset="0.39" stop-color="#885423"/>
<stop offset="0.53" stop-color="#9E6E3C"/>
<stop offset="0.68" stop-color="#BD925F"/>
<stop offset="0.82" stop-color="#D6B07C"/>
<stop offset="0.84" stop-color="#CCA471"/>
<stop offset="0.95" stop-color="#9C6E3D"/>
<stop offset="1" stop-color="#8A5929"/>
</linearGradient>
<linearGradient id="paint5_linear_670_16060" x1="16.1646" y1="103.307" x2="83.3186" y2="119.738" gradientUnits="userSpaceOnUse">
<stop stop-color="#D6B07C"/>
<stop offset="0.03" stop-color="#CAA26E"/>
<stop offset="0.16" stop-color="#A27341"/>
<stop offset="0.25" stop-color="#895625"/>
<stop offset="0.31" stop-color="#804B1A"/>
<stop offset="0.39" stop-color="#885423"/>
<stop offset="0.53" stop-color="#9E6E3C"/>
<stop offset="0.68" stop-color="#BD925F"/>
<stop offset="0.82" stop-color="#D6B07C"/>
<stop offset="0.84" stop-color="#CCA471"/>
<stop offset="0.95" stop-color="#9C6E3D"/>
<stop offset="1" stop-color="#8A5929"/>
</linearGradient>
<linearGradient id="paint6_linear_670_16060" x1="17.158" y1="99.2408" x2="84.312" y2="115.672" gradientUnits="userSpaceOnUse">
<stop stop-color="#D6B07C"/>
<stop offset="0.03" stop-color="#CAA26E"/>
<stop offset="0.16" stop-color="#A27341"/>
<stop offset="0.25" stop-color="#895625"/>
<stop offset="0.31" stop-color="#804B1A"/>
<stop offset="0.39" stop-color="#885423"/>
<stop offset="0.53" stop-color="#9E6E3C"/>
<stop offset="0.68" stop-color="#BD925F"/>
<stop offset="0.82" stop-color="#D6B07C"/>
<stop offset="0.84" stop-color="#CCA471"/>
<stop offset="0.95" stop-color="#9C6E3D"/>
<stop offset="1" stop-color="#8A5929"/>
</linearGradient>
<linearGradient id="paint7_linear_670_16060" x1="17.8932" y1="96.2264" x2="85.0472" y2="112.658" gradientUnits="userSpaceOnUse">
<stop stop-color="#D6B07C"/>
<stop offset="0.03" stop-color="#CAA26E"/>
<stop offset="0.16" stop-color="#A27341"/>
<stop offset="0.25" stop-color="#895625"/>
<stop offset="0.31" stop-color="#804B1A"/>
<stop offset="0.39" stop-color="#885423"/>
<stop offset="0.53" stop-color="#9E6E3C"/>
<stop offset="0.68" stop-color="#BD925F"/>
<stop offset="0.82" stop-color="#D6B07C"/>
<stop offset="0.84" stop-color="#CCA471"/>
<stop offset="0.95" stop-color="#9C6E3D"/>
<stop offset="1" stop-color="#8A5929"/>
</linearGradient>
<linearGradient id="paint8_linear_670_16060" x1="18.4299" y1="94.0328" x2="85.5839" y2="110.464" gradientUnits="userSpaceOnUse">
<stop stop-color="#D6B07C"/>
<stop offset="0.03" stop-color="#CAA26E"/>
<stop offset="0.16" stop-color="#A27341"/>
<stop offset="0.25" stop-color="#895625"/>
<stop offset="0.31" stop-color="#804B1A"/>
<stop offset="0.39" stop-color="#885423"/>
<stop offset="0.53" stop-color="#9E6E3C"/>
<stop offset="0.68" stop-color="#BD925F"/>
<stop offset="0.82" stop-color="#D6B07C"/>
<stop offset="0.84" stop-color="#CCA471"/>
<stop offset="0.95" stop-color="#9C6E3D"/>
<stop offset="1" stop-color="#8A5929"/>
</linearGradient>
<linearGradient id="paint9_linear_670_16060" x1="19.0149" y1="91.6546" x2="86.1689" y2="108.086" gradientUnits="userSpaceOnUse">
<stop stop-color="#D6B07C"/>
<stop offset="0.03" stop-color="#CAA26E"/>
<stop offset="0.16" stop-color="#A27341"/>
<stop offset="0.25" stop-color="#895625"/>
<stop offset="0.31" stop-color="#804B1A"/>
<stop offset="0.39" stop-color="#885423"/>
<stop offset="0.53" stop-color="#9E6E3C"/>
<stop offset="0.68" stop-color="#BD925F"/>
<stop offset="0.82" stop-color="#D6B07C"/>
<stop offset="0.84" stop-color="#CCA471"/>
<stop offset="0.95" stop-color="#9C6E3D"/>
<stop offset="1" stop-color="#8A5929"/>
</linearGradient>
<linearGradient id="paint10_linear_670_16060" x1="12.7638" y1="117.195" x2="79.9181" y2="133.626" gradientUnits="userSpaceOnUse">
<stop stop-color="#8A5929"/>
<stop offset="0.06" stop-color="#976837"/>
<stop offset="0.25" stop-color="#BD925F"/>
<stop offset="0.29" stop-color="#B58957"/>
<stop offset="0.46" stop-color="#986736"/>
<stop offset="0.6" stop-color="#865321"/>
<stop offset="0.69" stop-color="#804B1A"/>
<stop offset="0.75" stop-color="#844F1E"/>
<stop offset="0.81" stop-color="#8E5C2A"/>
<stop offset="0.88" stop-color="#A0713F"/>
<stop offset="0.94" stop-color="#BA8F5C"/>
<stop offset="1" stop-color="#D6B07C"/>
</linearGradient>
<linearGradient id="paint11_linear_670_16060" x1="12.9712" y1="116.337" x2="80.125" y2="132.769" gradientUnits="userSpaceOnUse">
<stop stop-color="#8A5929"/>
<stop offset="0.06" stop-color="#976837"/>
<stop offset="0.25" stop-color="#BD925F"/>
<stop offset="0.29" stop-color="#B58957"/>
<stop offset="0.46" stop-color="#986736"/>
<stop offset="0.6" stop-color="#865321"/>
<stop offset="0.69" stop-color="#804B1A"/>
<stop offset="0.75" stop-color="#844F1E"/>
<stop offset="0.81" stop-color="#8E5C2A"/>
<stop offset="0.88" stop-color="#A0713F"/>
<stop offset="0.94" stop-color="#BA8F5C"/>
<stop offset="1" stop-color="#D6B07C"/>
</linearGradient>
<linearGradient id="paint12_linear_670_16060" x1="13.2076" y1="115.38" x2="80.3617" y2="131.812" gradientUnits="userSpaceOnUse">
<stop stop-color="#8A5929"/>
<stop offset="0.06" stop-color="#976837"/>
<stop offset="0.25" stop-color="#BD925F"/>
<stop offset="0.29" stop-color="#B58957"/>
<stop offset="0.46" stop-color="#986736"/>
<stop offset="0.6" stop-color="#865321"/>
<stop offset="0.69" stop-color="#804B1A"/>
<stop offset="0.75" stop-color="#844F1E"/>
<stop offset="0.81" stop-color="#8E5C2A"/>
<stop offset="0.88" stop-color="#A0713F"/>
<stop offset="0.94" stop-color="#BA8F5C"/>
<stop offset="1" stop-color="#D6B07C"/>
</linearGradient>
<linearGradient id="paint13_linear_670_16060" x1="13.6218" y1="113.702" x2="80.7758" y2="130.134" gradientUnits="userSpaceOnUse">
<stop stop-color="#8A5929"/>
<stop offset="0.06" stop-color="#976837"/>
<stop offset="0.25" stop-color="#BD925F"/>
<stop offset="0.29" stop-color="#B58957"/>
<stop offset="0.46" stop-color="#986736"/>
<stop offset="0.6" stop-color="#865321"/>
<stop offset="0.69" stop-color="#804B1A"/>
<stop offset="0.75" stop-color="#844F1E"/>
<stop offset="0.81" stop-color="#8E5C2A"/>
<stop offset="0.88" stop-color="#A0713F"/>
<stop offset="0.94" stop-color="#BA8F5C"/>
<stop offset="1" stop-color="#D6B07C"/>
</linearGradient>
<linearGradient id="paint14_linear_670_16060" x1="14.0073" y1="112.122" x2="81.1611" y2="128.553" gradientUnits="userSpaceOnUse">
<stop stop-color="#8A5929"/>
<stop offset="0.06" stop-color="#976837"/>
<stop offset="0.25" stop-color="#BD925F"/>
<stop offset="0.29" stop-color="#B58957"/>
<stop offset="0.46" stop-color="#986736"/>
<stop offset="0.6" stop-color="#865321"/>
<stop offset="0.69" stop-color="#804B1A"/>
<stop offset="0.75" stop-color="#844F1E"/>
<stop offset="0.81" stop-color="#8E5C2A"/>
<stop offset="0.88" stop-color="#A0713F"/>
<stop offset="0.94" stop-color="#BA8F5C"/>
<stop offset="1" stop-color="#D6B07C"/>
</linearGradient>
<linearGradient id="paint15_linear_670_16060" x1="14.2498" y1="111.122" x2="81.4038" y2="127.553" gradientUnits="userSpaceOnUse">
<stop stop-color="#8A5929"/>
<stop offset="0.06" stop-color="#976837"/>
<stop offset="0.25" stop-color="#BD925F"/>
<stop offset="0.29" stop-color="#B58957"/>
<stop offset="0.46" stop-color="#986736"/>
<stop offset="0.6" stop-color="#865321"/>
<stop offset="0.69" stop-color="#804B1A"/>
<stop offset="0.75" stop-color="#844F1E"/>
<stop offset="0.81" stop-color="#8E5C2A"/>
<stop offset="0.88" stop-color="#A0713F"/>
<stop offset="0.94" stop-color="#BA8F5C"/>
<stop offset="1" stop-color="#D6B07C"/>
</linearGradient>
<linearGradient id="paint16_linear_670_16060" x1="14.5576" y1="109.872" x2="81.7116" y2="126.303" gradientUnits="userSpaceOnUse">
<stop stop-color="#8A5929"/>
<stop offset="0.06" stop-color="#976837"/>
<stop offset="0.25" stop-color="#BD925F"/>
<stop offset="0.29" stop-color="#B58957"/>
<stop offset="0.46" stop-color="#986736"/>
<stop offset="0.6" stop-color="#865321"/>
<stop offset="0.69" stop-color="#804B1A"/>
<stop offset="0.75" stop-color="#844F1E"/>
<stop offset="0.81" stop-color="#8E5C2A"/>
<stop offset="0.88" stop-color="#A0713F"/>
<stop offset="0.94" stop-color="#BA8F5C"/>
<stop offset="1" stop-color="#D6B07C"/>
</linearGradient>
<linearGradient id="paint17_linear_670_16060" x1="14.807" y1="108.843" x2="81.9608" y2="125.274" gradientUnits="userSpaceOnUse">
<stop stop-color="#8A5929"/>
<stop offset="0.06" stop-color="#976837"/>
<stop offset="0.25" stop-color="#BD925F"/>
<stop offset="0.29" stop-color="#B58957"/>
<stop offset="0.46" stop-color="#986736"/>
<stop offset="0.6" stop-color="#865321"/>
<stop offset="0.69" stop-color="#804B1A"/>
<stop offset="0.75" stop-color="#844F1E"/>
<stop offset="0.81" stop-color="#8E5C2A"/>
<stop offset="0.88" stop-color="#A0713F"/>
<stop offset="0.94" stop-color="#BA8F5C"/>
<stop offset="1" stop-color="#D6B07C"/>
</linearGradient>
<linearGradient id="paint18_linear_670_16060" x1="15.0284" y1="107.95" x2="82.1824" y2="124.382" gradientUnits="userSpaceOnUse">
<stop stop-color="#8A5929"/>
<stop offset="0.06" stop-color="#976837"/>
<stop offset="0.25" stop-color="#BD925F"/>
<stop offset="0.29" stop-color="#B58957"/>
<stop offset="0.46" stop-color="#986736"/>
<stop offset="0.6" stop-color="#865321"/>
<stop offset="0.69" stop-color="#804B1A"/>
<stop offset="0.75" stop-color="#844F1E"/>
<stop offset="0.81" stop-color="#8E5C2A"/>
<stop offset="0.88" stop-color="#A0713F"/>
<stop offset="0.94" stop-color="#BA8F5C"/>
<stop offset="1" stop-color="#D6B07C"/>
</linearGradient>
<linearGradient id="paint19_linear_670_16060" x1="15.3433" y1="106.65" x2="82.4973" y2="123.081" gradientUnits="userSpaceOnUse">
<stop stop-color="#8A5929"/>
<stop offset="0.06" stop-color="#976837"/>
<stop offset="0.25" stop-color="#BD925F"/>
<stop offset="0.29" stop-color="#B58957"/>
<stop offset="0.46" stop-color="#986736"/>
<stop offset="0.6" stop-color="#865321"/>
<stop offset="0.69" stop-color="#804B1A"/>
<stop offset="0.75" stop-color="#844F1E"/>
<stop offset="0.81" stop-color="#8E5C2A"/>
<stop offset="0.88" stop-color="#A0713F"/>
<stop offset="0.94" stop-color="#BA8F5C"/>
<stop offset="1" stop-color="#D6B07C"/>
</linearGradient>
<linearGradient id="paint20_linear_670_16060" x1="15.6508" y1="105.4" x2="82.8046" y2="121.831" gradientUnits="userSpaceOnUse">
<stop stop-color="#8A5929"/>
<stop offset="0.06" stop-color="#976837"/>
<stop offset="0.25" stop-color="#BD925F"/>
<stop offset="0.29" stop-color="#B58957"/>
<stop offset="0.46" stop-color="#986736"/>
<stop offset="0.6" stop-color="#865321"/>
<stop offset="0.69" stop-color="#804B1A"/>
<stop offset="0.75" stop-color="#844F1E"/>
<stop offset="0.81" stop-color="#8E5C2A"/>
<stop offset="0.88" stop-color="#A0713F"/>
<stop offset="0.94" stop-color="#BA8F5C"/>
<stop offset="1" stop-color="#D6B07C"/>
</linearGradient>
<linearGradient id="paint21_linear_670_16060" x1="15.7355" y1="105.05" x2="82.8899" y2="121.482" gradientUnits="userSpaceOnUse">
<stop stop-color="#8A5929"/>
<stop offset="0.06" stop-color="#976837"/>
<stop offset="0.25" stop-color="#BD925F"/>
<stop offset="0.29" stop-color="#B58957"/>
<stop offset="0.46" stop-color="#986736"/>
<stop offset="0.6" stop-color="#865321"/>
<stop offset="0.69" stop-color="#804B1A"/>
<stop offset="0.75" stop-color="#844F1E"/>
<stop offset="0.81" stop-color="#8E5C2A"/>
<stop offset="0.88" stop-color="#A0713F"/>
<stop offset="0.94" stop-color="#BA8F5C"/>
<stop offset="1" stop-color="#D6B07C"/>
</linearGradient>
</defs>
</svg>
