<svg width="22" height="22" viewBox="0 0 22 22" fill="none" xmlns="http://www.w3.org/2000/svg">
<path d="M13.4964 12.7495L15.8323 13.9154C15.7216 14.4687 15.4224 14.9664 14.9856 15.3237C14.5489 15.681 14.0017 15.8757 13.4375 15.8746C11.4988 15.8724 9.64005 15.1013 8.26916 13.7304C6.89826 12.3595 6.12715 10.5008 6.125 8.56207C6.12484 7.99852 6.31996 7.45233 6.67716 7.01644C7.03435 6.58054 7.53155 6.28189 8.08414 6.17129L9.25008 8.50723L8.25781 9.98395C8.18366 10.0952 8.1381 10.223 8.12517 10.356C8.11224 10.4891 8.13233 10.6233 8.18367 10.7467C8.765 12.1283 9.86414 13.2275 11.2458 13.8088C11.3696 13.8624 11.5048 13.8844 11.6392 13.8727C11.7736 13.861 11.903 13.816 12.0156 13.7418L13.4964 12.7495ZM21.5625 10.9996C21.5629 12.8232 21.0912 14.6158 20.1932 16.203C19.2952 17.7902 18.0017 19.1178 16.4384 20.0567C14.8751 20.9957 13.0953 21.5139 11.2723 21.5609C9.44935 21.6079 7.64525 21.1821 6.03562 20.325L2.57742 21.4778C2.2911 21.5733 1.98385 21.5871 1.6901 21.5178C1.39635 21.4485 1.12771 21.2987 0.914286 21.0853C0.700867 20.8719 0.551102 20.6032 0.481779 20.3095C0.412455 20.0157 0.426312 19.7085 0.521797 19.4221L1.67453 15.9639C0.921088 14.5474 0.500263 12.9778 0.443997 11.3743C0.387732 9.77083 0.697506 8.1756 1.3498 6.70971C2.0021 5.24382 2.97978 3.9458 4.20863 2.91417C5.43748 1.88255 6.88521 1.14443 8.44191 0.755853C9.99862 0.367273 11.6234 0.338443 13.1929 0.67155C14.7624 1.00466 16.2354 1.69095 17.5001 2.67832C18.7648 3.6657 19.7879 4.92822 20.4918 6.37005C21.1957 7.81187 21.5618 9.3951 21.5625 10.9996ZM17.5 13.4371C17.5001 13.2861 17.4582 13.1381 17.3789 13.0097C17.2996 12.8813 17.1861 12.7774 17.0511 12.7099L13.8011 11.0849C13.6732 11.0211 13.5307 10.9923 13.388 11.0012C13.2454 11.0101 13.1076 11.0565 12.9886 11.1357L11.4966 12.131C10.8118 11.7545 10.2481 11.1909 9.87164 10.506L10.867 9.01403C10.9461 8.89503 10.9925 8.75725 11.0014 8.6146C11.0104 8.47194 10.9815 8.32946 10.9177 8.20153L9.29273 4.95153C9.22538 4.81551 9.12127 4.70107 8.99221 4.62119C8.86314 4.54131 8.71428 4.49918 8.5625 4.49957C7.48506 4.49957 6.45175 4.92759 5.68988 5.68945C4.92801 6.45132 4.5 7.48463 4.5 8.56207C4.50269 10.9316 5.44518 13.2033 7.1207 14.8789C8.79623 16.5544 11.068 17.4969 13.4375 17.4996C13.971 17.4996 14.4993 17.3945 14.9922 17.1903C15.485 16.9862 15.9329 16.6869 16.3101 16.3097C16.6874 15.9325 16.9866 15.4846 17.1908 14.9917C17.3949 14.4988 17.5 13.9706 17.5 13.4371Z" fill="url(#paint0_linear_670_15675)"/>
<defs>
<linearGradient id="paint0_linear_670_15675" x1="-1.1875" y1="-86.7303" x2="43.275" y2="-75.3598" gradientUnits="userSpaceOnUse">
<stop offset="0.0580958" stop-color="#E6D1BE"/>
<stop offset="0.929784" stop-color="#896954"/>
</linearGradient>
</defs>
</svg>
