<svg width="68" height="62" viewBox="0 0 68 62" fill="none" xmlns="http://www.w3.org/2000/svg">
<path d="M67.9785 39.1943C67.6486 41.6334 66.4175 43.8722 64.515 45.4927C62.6126 47.1131 60.1689 48.0044 57.6405 48C42.9512 48 31 36.3719 31 22.0797C30.9955 19.6196 31.9115 17.242 33.577 15.391C35.2425 13.54 37.5435 12.3422 40.0504 12.0212C40.6843 11.9459 41.3262 12.0721 41.8804 12.3809C42.4346 12.6898 42.8712 13.1647 43.1251 13.7349L47.0324 22.2219V22.2435C47.2268 22.68 47.3071 23.1564 47.2661 23.6304C47.2251 24.1044 47.0641 24.5611 46.7974 24.9598C46.7641 25.0084 46.729 25.0534 46.692 25.0984L42.8402 29.5408C44.2259 32.2804 47.1711 35.1209 50.0239 36.4727L54.5269 32.7448C54.5711 32.7087 54.6174 32.675 54.6656 32.644C55.075 32.3784 55.546 32.2162 56.0361 32.1722C56.5261 32.1282 57.0197 32.2037 57.4721 32.392L57.4962 32.4028L66.2117 36.2027C66.7987 36.4489 67.288 36.8733 67.6065 37.4126C67.9249 37.9518 68.0554 38.5769 67.9785 39.1943Z" fill="white"/>
<line x1="1" y1="4.37114e-08" x2="0.999997" y2="62" stroke="white" stroke-width="2"/>
</svg>
