<svg width="24" height="24" viewBox="0 0 24 24" fill="none" xmlns="http://www.w3.org/2000/svg">
<path d="M23.4234 17.7045C23.2145 19.2924 22.4347 20.7499 21.2296 21.8049C20.0245 22.8599 18.4766 23.4401 16.875 23.4373C7.57032 23.4373 1.06039e-05 15.867 1.06039e-05 6.56226C-0.00286047 4.96065 0.577378 3.41276 1.63235 2.20769C2.68733 1.00262 4.1449 0.222779 5.73282 0.0138254C6.13437 -0.0352048 6.541 0.0469448 6.89203 0.248011C7.24305 0.449077 7.51963 0.758276 7.68048 1.12945L10.1555 6.65484V6.6689C10.2786 6.95303 10.3295 7.26323 10.3035 7.57181C10.2775 7.88038 10.1756 8.17772 10.0067 8.43726C9.98556 8.4689 9.96329 8.4982 9.93985 8.5275L7.50001 11.4197C8.37774 13.2033 10.2434 15.0525 12.0504 15.9326L14.9027 13.5056C14.9308 13.4821 14.9601 13.4602 14.9906 13.44C15.25 13.267 15.5483 13.1615 15.8587 13.1328C16.1691 13.1042 16.4818 13.1534 16.7684 13.2759L16.7836 13.283L22.3043 15.7568C22.6761 15.9171 22.9861 16.1934 23.1878 16.5445C23.3895 16.8956 23.4722 17.3025 23.4234 17.7045Z" fill="white"/>
</svg>
