<svg width="20" height="19" viewBox="0 0 20 19" fill="none" xmlns="http://www.w3.org/2000/svg">
<path d="M19.4889 14.3525C19.3195 15.6398 18.6873 16.8214 17.7104 17.6767C16.7335 18.5319 15.4786 19.0023 14.1802 19C6.63711 19 0.500009 12.8629 0.500009 5.31986C0.497681 4.02147 0.968069 2.76664 1.82332 1.78972C2.67857 0.812796 3.86019 0.180601 5.14749 0.0112079C5.47301 -0.0285396 5.80267 0.0380569 6.08723 0.201056C6.3718 0.364056 6.59602 0.614715 6.72642 0.915617L8.73285 5.39491V5.40631C8.83268 5.63664 8.87392 5.88812 8.85286 6.13827C8.83181 6.38842 8.74913 6.62947 8.6122 6.83987C8.5951 6.86552 8.57705 6.88927 8.55805 6.91302L6.58011 9.25765C7.29168 10.7036 8.8041 12.2027 10.269 12.9161L12.5814 10.9487C12.6041 10.9296 12.6279 10.9118 12.6526 10.8955C12.8628 10.7552 13.1047 10.6697 13.3564 10.6464C13.608 10.6232 13.8614 10.6631 14.0938 10.7625L14.1061 10.7682L18.5817 12.7736C18.8831 12.9036 19.1344 13.1276 19.2979 13.4122C19.4615 13.6968 19.5285 14.0267 19.4889 14.3525Z" fill="url(#paint0_linear_736_7233)"/>
<defs>
<linearGradient id="paint0_linear_736_7233" x1="-0.961538" y1="-78.4104" x2="39.0288" y2="-68.1846" gradientUnits="userSpaceOnUse">
<stop offset="0.0580958" stop-color="#E6D1BE"/>
<stop offset="0.929784" stop-color="#896954"/>
</linearGradient>
</defs>
</svg>
