<svg width="31" height="31" viewBox="0 0 31 31" fill="none" xmlns="http://www.w3.org/2000/svg">
<path d="M30.9819 23.4173C30.7056 25.5176 29.6741 27.4455 28.0801 28.8409C26.4862 30.2363 24.4388 31.0038 22.3204 31C10.0132 31 1.40256e-05 20.9869 1.40256e-05 8.67977C-0.00378351 6.56135 0.763692 4.51398 2.1591 2.92006C3.5545 1.32614 5.48241 0.294665 7.58274 0.0182865C8.11386 -0.0465647 8.65172 0.0620929 9.11601 0.328039C9.5803 0.593985 9.94613 1.00296 10.1589 1.4939L13.4325 8.80222V8.82082C13.5954 9.19663 13.6627 9.60693 13.6284 10.0151C13.594 10.4232 13.4591 10.8165 13.2357 11.1598C13.2078 11.2016 13.1783 11.2404 13.1473 11.2791L9.92018 15.1046C11.0812 17.4637 13.5488 19.9096 15.9389 21.0737L19.7117 17.8636C19.7488 17.8325 19.7876 17.8035 19.828 17.7768C20.171 17.548 20.5656 17.4084 20.9762 17.3705C21.3867 17.3326 21.8003 17.3977 22.1793 17.5598L22.1995 17.5691L29.5017 20.8412C29.9935 21.0532 30.4035 21.4187 30.6703 21.883C30.9371 22.3474 31.0464 22.8857 30.9819 23.4173Z" fill="#34C759"/>
</svg>
