<svg width="19" height="20" viewBox="0 0 19 20" fill="none" xmlns="http://www.w3.org/2000/svg">
<path d="M11.7194 8.06364C11.6497 7.99398 11.5943 7.91127 11.5566 7.82022C11.5188 7.72917 11.4994 7.63158 11.4994 7.53301C11.4994 7.43445 11.5188 7.33686 11.5566 7.24581C11.5943 7.15476 11.6497 7.07204 11.7194 7.00239L14.9397 3.78301H13C12.8011 3.78301 12.6103 3.704 12.4697 3.56334C12.329 3.42269 12.25 3.23193 12.25 3.03301C12.25 2.8341 12.329 2.64334 12.4697 2.50268C12.6103 2.36203 12.8011 2.28301 13 2.28301H16.75C16.9489 2.28301 17.1397 2.36203 17.2803 2.50268C17.421 2.64334 17.5 2.8341 17.5 3.03301V6.78301C17.5 6.98193 17.421 7.17269 17.2803 7.31334C17.1397 7.454 16.9489 7.53301 16.75 7.53301C16.5511 7.53301 16.3603 7.454 16.2197 7.31334C16.079 7.17269 16 6.98193 16 6.78301V4.84333L12.7806 8.06364C12.711 8.13337 12.6283 8.18869 12.5372 8.22643C12.4462 8.26418 12.3486 8.2836 12.25 8.2836C12.1514 8.2836 12.0539 8.26418 11.9628 8.22643C11.8718 8.18869 11.789 8.13337 11.7194 8.06364ZM18.0944 13.3886L13.6778 11.4096L13.6656 11.404C13.4364 11.3059 13.1862 11.2665 12.9379 11.2894C12.6896 11.3124 12.4509 11.3968 12.2434 11.5352C12.219 11.5513 12.1955 11.5689 12.1731 11.5877L9.89407 13.533C8.44845 12.8308 6.95595 11.3496 6.25376 9.9227L8.20188 7.60614C8.22063 7.5827 8.23845 7.55926 8.25532 7.53395C8.39072 7.32705 8.47287 7.08988 8.49446 6.84355C8.51605 6.59722 8.47641 6.34938 8.37907 6.12208V6.11083L6.39438 1.68676C6.2657 1.38982 6.04444 1.14247 5.76362 0.981612C5.4828 0.820759 5.1575 0.755039 4.83626 0.794263C3.56592 0.961426 2.39986 1.5853 1.55588 2.54935C0.711903 3.51341 0.247712 4.75172 0.250008 6.03301C0.250008 13.4768 6.30626 19.533 13.75 19.533C15.0313 19.5353 16.2696 19.0711 17.2337 18.2271C18.1977 17.3832 18.8216 16.2171 18.9888 14.9468C19.0281 14.6256 18.9625 14.3004 18.8018 14.0196C18.6411 13.7388 18.394 13.5175 18.0972 13.3886H18.0944Z" fill="white"/>
</svg>
