<svg width="35" height="35" viewBox="0 0 35 35" fill="none" xmlns="http://www.w3.org/2000/svg">
<path d="M33.315 23.5304L25.0707 19.8361L25.0479 19.8256C24.6199 19.6425 24.1531 19.5691 23.6895 19.6118C23.226 19.6546 22.7804 19.8123 22.3932 20.0706C22.3476 20.1007 22.3038 20.1334 22.2619 20.1686L18.0024 23.7999C15.3039 22.4891 12.5179 19.7241 11.2071 17.0606L14.8436 12.7363C14.8786 12.6925 14.9119 12.6488 14.9434 12.6015C15.1961 12.2153 15.3495 11.7726 15.3898 11.3128C15.4301 10.8529 15.3561 10.3903 15.1744 9.96599V9.94499L11.4696 1.68666C11.2294 1.13237 10.8164 0.670629 10.2922 0.370367C9.76797 0.0701049 9.16072 -0.052573 8.56108 0.0206461C6.18976 0.332686 4.01311 1.49726 2.43767 3.29684C0.862224 5.09643 -0.00427166 7.40798 1.58352e-05 9.79974C1.58352e-05 23.6949 11.3051 35 25.2002 35C27.592 35.0043 29.9035 34.1378 31.7031 32.5623C33.5027 30.9869 34.6672 28.8102 34.9793 26.4389C35.0526 25.8395 34.9302 25.2324 34.6303 24.7082C34.3303 24.184 33.869 23.7709 33.315 23.5304ZM25.2002 32.2C19.2613 32.1935 13.5675 29.8314 9.36805 25.6319C5.16861 21.4325 2.80652 15.7387 2.80004 9.79974C2.79345 8.09083 3.40913 6.43795 4.53209 5.14978C5.65504 3.86161 7.2085 3.02624 8.90233 2.79967C8.90164 2.80666 8.90164 2.81369 8.90233 2.82067L12.5774 11.0458L8.96008 15.3753C8.92336 15.4175 8.89001 15.4626 8.86033 15.51C8.59698 15.9142 8.44249 16.3794 8.41183 16.8608C8.38117 17.3422 8.47538 17.8233 8.68533 18.2576C10.2708 21.5004 13.5381 24.7431 16.8159 26.3269C17.2533 26.5349 17.7372 26.6258 18.2203 26.5909C18.7035 26.5559 19.1692 26.3962 19.5722 26.1274C19.6171 26.0971 19.6603 26.0644 19.7017 26.0294L23.9559 22.3999L32.181 26.0836C32.181 26.0836 32.195 26.0836 32.2002 26.0836C31.9764 27.7799 31.1423 29.3365 29.8539 30.4622C28.5655 31.5879 26.9111 32.2057 25.2002 32.2Z" fill="#34C759"/>
<path d="M34.9796 26.4389C34.6676 28.8102 33.503 30.9869 31.7034 32.5623C29.9038 34.1378 27.5922 35.0043 25.2004 35C11.3052 35 1.58354e-05 23.6949 1.58354e-05 9.79974C-0.0042717 7.40798 0.862233 5.09643 2.43769 3.29684C4.01315 1.49726 6.18982 0.332686 8.56116 0.0206461C9.16082 -0.052573 9.76807 0.0701049 10.2923 0.370367C10.8165 0.670629 11.2295 1.13237 11.4697 1.68666L15.1658 9.93799V9.95899C15.3497 10.3833 15.4256 10.8465 15.3869 11.3073C15.3481 11.7681 15.1958 12.2122 14.9435 12.5998C14.912 12.647 14.8788 12.6908 14.8438 12.7345L11.2002 17.0536C12.511 19.7171 15.297 22.4786 17.9956 23.7929L22.2551 20.1686C22.297 20.1334 22.3408 20.1007 22.3864 20.0706C22.7737 19.8123 23.2192 19.6546 23.6828 19.6118C24.1463 19.5691 24.6132 19.6425 25.0412 19.8256L25.0639 19.8361L33.3083 23.5304C33.8636 23.7697 34.3265 24.1824 34.6277 24.7067C34.929 25.2309 35.0524 25.8386 34.9796 26.4389Z" fill="#34C759"/>
</svg>
