<svg width="20" height="27" viewBox="0 0 20 27" fill="none" xmlns="http://www.w3.org/2000/svg">
<path d="M0 1.03843V19.7302C0 20.0056 0.105352 20.2697 0.292881 20.4645C0.48041 20.6592 0.734754 20.7686 0.99996 20.7686H11.9995V25.9608C11.9994 26.1663 12.0579 26.3672 12.1678 26.5381C12.2777 26.709 12.4339 26.8422 12.6167 26.9209C12.7995 26.9996 13.0007 27.0201 13.1948 26.98C13.3889 26.9399 13.5671 26.8408 13.707 26.6954L19.7067 20.4649C19.7997 20.3684 19.8735 20.2539 19.9238 20.1278C19.9741 20.0018 20 19.8666 20 19.7302C20 19.5937 19.9741 19.4586 19.9238 19.3325C19.8735 19.2065 19.7997 19.0919 19.7067 18.9955L13.707 12.7649C13.5671 12.6195 13.3889 12.5205 13.1948 12.4803C13.0007 12.4402 12.7995 12.4608 12.6167 12.5394C12.4339 12.6181 12.2777 12.7513 12.1678 12.9222C12.0579 13.0932 11.9994 13.2941 11.9995 13.4996V18.6917H1.99992V1.03843C1.99992 0.763021 1.89457 0.498893 1.70704 0.304149C1.51951 0.109406 1.26517 0 0.99996 0C0.734754 0 0.48041 0.109406 0.292881 0.304149C0.105352 0.498893 0 0.763021 0 1.03843Z" fill="#E5E5E5"/>
</svg>
