<svg width="24" height="24" viewBox="0 0 24 24" fill="none" xmlns="http://www.w3.org/2000/svg">
<path d="M21.5279 20.4686L16.8338 15.7755C18.1944 14.1421 18.8728 12.047 18.728 9.92618C18.5832 7.80531 17.6263 5.82191 16.0564 4.38859C14.4865 2.95526 12.4245 2.18235 10.2992 2.23065C8.17394 2.27895 6.14912 3.14474 4.64595 4.64791C3.14278 6.15108 2.277 8.1759 2.2287 10.3012C2.1804 12.4264 2.9533 14.4885 4.38663 16.0584C5.81996 17.6283 7.80336 18.5852 9.92422 18.73C12.0451 18.8748 14.1401 18.1963 15.7735 16.8358L20.4667 21.5299C20.5363 21.5995 20.6191 21.6548 20.7101 21.6925C20.8012 21.7302 20.8987 21.7497 20.9973 21.7497C21.0958 21.7497 21.1934 21.7302 21.2845 21.6925C21.3755 21.6548 21.4582 21.5995 21.5279 21.5299C21.5976 21.4602 21.6529 21.3775 21.6906 21.2864C21.7283 21.1954 21.7477 21.0978 21.7477 20.9992C21.7477 20.9007 21.7283 20.8031 21.6906 20.7121C21.6529 20.621 21.5976 20.5383 21.5279 20.4686ZM3.74728 10.4992C3.74728 9.16421 4.14317 7.85917 4.88486 6.74914C5.62656 5.63911 6.68077 4.77394 7.91417 4.26305C9.14757 3.75216 10.5048 3.61849 11.8141 3.87894C13.1235 4.13939 14.3263 4.78226 15.2703 5.72627C16.2143 6.67027 16.8571 7.87301 17.1176 9.18238C17.378 10.4917 17.2444 11.849 16.7335 13.0824C16.2226 14.3158 15.3574 15.37 14.2474 16.1117C13.1374 16.8534 11.8323 17.2492 10.4973 17.2492C8.70768 17.2473 6.99195 16.5355 5.72651 15.27C4.46107 14.0046 3.74927 12.2888 3.74728 10.4992Z" fill="white"/>
</svg>
