<svg width="21" height="105" viewBox="0 0 21 105" fill="none" xmlns="http://www.w3.org/2000/svg">
<path d="M0.923187 102.429C0.702026 101.798 0.52655 101.048 0.406816 100.221C0.287082 99.3955 0.225446 98.5098 0.225446 97.6154C0.225446 96.721 0.287082 95.8354 0.406816 95.0094C0.52655 94.1834 0.702026 93.4332 0.923186 92.8018L15.0561 52.3167L0.923185 11.8203C0.477524 10.5436 0.227154 8.81211 0.227154 7.00667C0.227154 5.20122 0.477524 3.46972 0.923185 2.19307C1.36884 0.916431 1.97329 0.199219 2.60355 0.199219C3.23381 0.199219 3.83826 0.916431 4.28392 2.19307L20.0991 47.4975C20.3203 48.1288 20.4958 48.879 20.6155 49.705C20.7352 50.531 20.7969 51.4166 20.7969 52.3111C20.7969 53.2055 20.7352 54.0911 20.6155 54.9171C20.4958 55.7431 20.3203 56.4933 20.0991 57.1246L4.28392 102.429C4.06353 103.063 3.80164 103.565 3.51329 103.908C3.22493 104.251 2.91578 104.428 2.60355 104.428C2.29133 104.428 1.98217 104.251 1.69382 103.908C1.40546 103.565 1.14358 103.063 0.923187 102.429Z" fill="url(#paint0_linear_884_5114)"/>
<defs>
<linearGradient id="paint0_linear_884_5114" x1="105.692" y1="-7.81836" x2="-7.35579" y2="79.4385" gradientUnits="userSpaceOnUse">
<stop offset="0.0580958" stop-color="#E6D1BE"/>
<stop offset="0.929784" stop-color="#896954"/>
</linearGradient>
</defs>
</svg>
