<svg width="21" height="105" viewBox="0 0 21 105" fill="none" xmlns="http://www.w3.org/2000/svg">
<path d="M19.8737 102.429C20.0948 101.798 20.2703 101.048 20.3901 100.221C20.5098 99.3955 20.5714 98.5098 20.5714 97.6154C20.5714 96.721 20.5098 95.8354 20.3901 95.0094C20.2703 94.1834 20.0948 93.4332 19.8737 92.8018L5.74082 52.3167L19.8737 11.8203C20.3194 10.5436 20.5697 8.81211 20.5697 7.00667C20.5697 5.20122 20.3194 3.46972 19.8737 2.19307C19.428 0.916431 18.8236 0.199219 18.1933 0.199219C17.5631 0.199219 16.9586 0.916431 16.513 2.19307L0.697739 47.4975C0.476579 48.1288 0.301101 48.879 0.181367 49.705C0.0616333 50.531 -6.10762e-07 51.4166 -6.21427e-07 52.3111C-6.32093e-07 53.2055 0.0616333 54.0911 0.181367 54.9171C0.301101 55.7431 0.476579 56.4933 0.697738 57.1246L16.513 102.429C16.7333 103.063 16.9952 103.565 17.2836 103.908C17.5719 104.251 17.8811 104.428 18.1933 104.428C18.5055 104.428 18.8147 104.251 19.1031 103.908C19.3914 103.565 19.6533 103.063 19.8737 102.429Z" fill="url(#paint0_linear_884_5114)"/>
<defs>
<linearGradient id="paint0_linear_884_5114" x1="105.692" y1="-7.81836" x2="-7.35579" y2="79.4385" gradientUnits="userSpaceOnUse">
<stop offset="0.0580958" stop-color="#E6D1BE"/>
<stop offset="0.929784" stop-color="#896954"/>
</linearGradient>
</defs>
</svg>
