<svg width="26" height="26" viewBox="0 0 26 26" fill="none" xmlns="http://www.w3.org/2000/svg">
<path d="M23.2453 2.65974C23.1194 2.55103 22.9663 2.47874 22.8023 2.45064C22.6384 2.42254 22.4699 2.4397 22.315 2.50028L1.73233 10.5552C1.44063 10.6686 1.19367 10.8738 1.02863 11.1397C0.863593 11.4056 0.78941 11.718 0.81725 12.0297C0.84509 12.3414 0.973446 12.6357 1.183 12.8682C1.39254 13.1007 1.67194 13.2588 1.97913 13.3187L7.31218 14.3658V20.3123C7.31113 20.6362 7.40738 20.953 7.58847 21.2215C7.76956 21.4901 8.02713 21.698 8.3278 21.8185C8.62801 21.9411 8.95816 21.9705 9.27532 21.9029C9.59248 21.8354 9.88198 21.674 10.1062 21.4397L12.6777 18.7726L16.7575 22.3436C17.0518 22.6046 17.4315 22.7491 17.8249 22.7498C17.9973 22.7497 18.1687 22.7226 18.3327 22.6696C18.6008 22.5845 18.8419 22.4307 19.032 22.2235C19.2222 22.0162 19.3547 21.7628 19.4164 21.4884L23.5388 3.5545C23.5757 3.39276 23.5679 3.22404 23.5161 3.06641C23.4644 2.90879 23.3708 2.76821 23.2453 2.65974ZM17.8269 21.1248L9.42975 13.7615L21.5157 5.09927L17.8269 21.1248Z" fill="url(#paint0_linear_670_15672)"/>
<defs>
<linearGradient id="paint0_linear_670_15672" x1="-0.938488" y1="-81.3887" x2="46.2088" y2="-67.8859" gradientUnits="userSpaceOnUse">
<stop offset="0.0580958" stop-color="#E6D1BE"/>
<stop offset="0.929784" stop-color="#896954"/>
</linearGradient>
</defs>
</svg>
