<svg width="153" height="225" viewBox="0 0 153 225" fill="none" xmlns="http://www.w3.org/2000/svg">
<circle cx="76.4125" cy="76.2326" r="44.8733" stroke="white" stroke-width="1.41632"/>
<path d="M95.9252 84.5622C95.5885 86.9445 94.3318 89.1313 92.3899 90.7141C90.448 92.2968 87.9537 93.1674 85.3728 93.1631C70.3788 93.1631 58.1797 81.8054 58.1797 67.8456C58.1751 65.4427 59.1101 63.1204 60.8101 61.3124C62.5102 59.5045 64.8589 58.3345 67.4178 58.021C68.0649 57.9474 68.7201 58.0707 69.2858 58.3723C69.8514 58.674 70.2971 59.1379 70.5563 59.6948L74.5446 67.9845V68.0056C74.7431 68.4318 74.825 68.8972 74.7832 69.3602C74.7413 69.8231 74.577 70.2692 74.3048 70.6586C74.2708 70.7061 74.2349 70.7501 74.1972 70.794L70.2655 75.1332C71.6799 77.8091 74.6863 80.5834 77.5982 81.9038L82.1946 78.2627C82.2397 78.2273 82.287 78.1945 82.3362 78.1642C82.7541 77.9047 83.2349 77.7463 83.7351 77.7033C84.2353 77.6604 84.7391 77.7342 85.2009 77.9181L85.2255 77.9286L94.1218 81.6401C94.7209 81.8806 95.2204 82.2952 95.5455 82.8219C95.8706 83.3486 96.0038 83.9591 95.9252 84.5622Z" fill="#01B136"/>
<circle cx="76.5" cy="76.5002" r="60.1459" stroke="white" stroke-width="0.70816"/>
<circle cx="76.5" cy="76.5002" r="76.25" stroke="white" stroke-width="0.5"/>
<path d="M104.593 195.628C104.284 195.309 103.917 195.055 103.513 194.882C103.109 194.709 102.676 194.62 102.238 194.62C101.801 194.62 101.368 194.709 100.964 194.882C100.56 195.055 100.193 195.309 99.8837 195.628L80.0788 216.062L60.2684 195.628C59.6439 194.984 58.7968 194.622 57.9136 194.622C57.0304 194.622 56.1834 194.984 55.5589 195.628C54.9343 196.273 54.5835 197.147 54.5835 198.058C54.5835 198.969 54.9343 199.843 55.5589 200.487L77.7213 223.353C78.0301 223.673 78.3971 223.927 78.8012 224.1C79.2053 224.273 79.6385 224.362 80.0761 224.362C80.5136 224.362 80.9468 224.273 81.3509 224.1C81.755 223.927 82.122 223.673 82.4308 223.353L104.593 200.487C104.903 200.169 105.149 199.79 105.317 199.373C105.485 198.956 105.571 198.509 105.571 198.058C105.571 197.606 105.485 197.16 105.317 196.743C105.149 196.326 104.903 195.947 104.593 195.628Z" fill="white"/>
</svg>
