<svg width="25" height="19" viewBox="0 0 25 19" fill="none" xmlns="http://www.w3.org/2000/svg">
<path d="M24.8848 2.2513C23.9845 2.6384 23.032 2.89343 22.0573 3.00833C23.0817 2.41478 23.8519 1.4718 24.2238 0.356257C23.2554 0.916654 22.1976 1.30985 21.0958 1.51902C20.6318 1.03784 20.0738 0.65506 19.4558 0.39393C18.8376 0.132803 18.1723 -0.00122139 17.5003 8.38696e-06C14.7793 8.38696e-06 12.5773 2.1474 12.5773 4.79452C12.5753 5.16273 12.618 5.52984 12.7043 5.88801C10.7531 5.7975 8.84253 5.30494 7.09476 4.44186C5.34699 3.57879 3.80051 2.36419 2.55427 0.875786C2.11705 1.60517 1.88583 2.43737 1.88477 3.28542C1.88477 4.94791 2.76127 6.41744 4.08477 7.27837C3.30063 7.25996 2.53256 7.05458 1.84577 6.67968V6.73905C1.84577 9.06456 3.54576 10.9992 5.79577 11.4395C5.37265 11.5512 4.93665 11.6077 4.49876 11.6078C4.18806 11.6084 3.87805 11.5785 3.57326 11.5187C4.19877 13.4237 6.01926 14.8091 8.17576 14.8487C6.42346 16.185 4.27207 16.9074 2.05977 16.9021C1.66707 16.9015 1.27475 16.8783 0.884766 16.8328C3.13535 18.2549 5.75149 19.0072 8.42177 18.9999C17.4897 18.9999 22.4438 11.6919 22.4438 5.35363C22.4438 5.14583 22.4383 4.93801 22.4283 4.73515C23.3898 4.05831 24.2216 3.21719 24.8848 2.2513Z" fill="url(#paint0_linear_670_17227)"/>
<defs>
<linearGradient id="paint0_linear_670_17227" x1="-0.961387" y1="-78.4104" x2="47.7715" y2="-62.6698" gradientUnits="userSpaceOnUse">
<stop offset="0.0580958" stop-color="#E6D1BE"/>
<stop offset="0.929784" stop-color="#896954"/>
</linearGradient>
</defs>
</svg>
