<svg width="15" height="16" viewBox="0 0 15 16" fill="none" xmlns="http://www.w3.org/2000/svg">
<path d="M14.4124 15.1758C14.3586 15.2738 14.2795 15.3556 14.1833 15.4126C14.0871 15.4696 13.9774 15.4998 13.8655 15.5H10.1155C10.0103 15.5 9.90687 15.4734 9.81469 15.4227C9.72251 15.3721 9.6446 15.2989 9.58819 15.2102L6.42491 10.2391L1.82804 15.2953C1.71598 15.4157 1.56099 15.487 1.39667 15.4939C1.23235 15.5008 1.07195 15.4426 0.950235 15.332C0.828524 15.2214 0.755316 15.0673 0.746481 14.903C0.737646 14.7388 0.793897 14.5777 0.903038 14.4547L5.72882 9.14219L0.838195 1.46094C0.777961 1.36644 0.744243 1.25749 0.74057 1.14548C0.736897 1.03348 0.763405 0.922555 0.817317 0.824314C0.87123 0.726073 0.950564 0.644135 1.04701 0.587078C1.14346 0.530021 1.25348 0.499946 1.36554 0.5H5.11554C5.22073 0.500033 5.32421 0.526613 5.41639 0.57728C5.50857 0.627946 5.58647 0.701058 5.64288 0.789844L8.80616 5.76094L13.403 0.704687C13.5151 0.584312 13.6701 0.512956 13.8344 0.50609C13.9987 0.499225 14.1591 0.557404 14.2808 0.668012C14.4026 0.778621 14.4758 0.932746 14.4846 1.09697C14.4934 1.2612 14.4372 1.42228 14.328 1.54531L9.50226 6.85391L14.3929 14.5398C14.4528 14.6344 14.4862 14.7433 14.4896 14.8551C14.4931 14.967 14.4664 15.0777 14.4124 15.1758Z" fill="url(#paint0_linear_1821_3255)"/>
<defs>
<linearGradient id="paint0_linear_1821_3255" x1="-0.317433" y1="-61.403" x2="28.9089" y2="-54.5526" gradientUnits="userSpaceOnUse">
<stop offset="0.0580958" stop-color="#E6D1BE"/>
<stop offset="0.929784" stop-color="#896954"/>
</linearGradient>
</defs>
</svg>
